<?xml version="1.0" encoding="UTF-8" standalone="no"?>
<!-- Created with Inkscape (http://www.inkscape.org/) -->

<svg
   width="210mm"
   height="297mm"
   viewBox="0 0 210 297"
   version="1.1"
   id="svg1"
   inkscape:version="1.4 (86a8ad7, 2024-10-11)"
   sodipodi:docname="cvet7.svg"
   xmlns:inkscape="http://www.inkscape.org/namespaces/inkscape"
   xmlns:sodipodi="http://sodipodi.sourceforge.net/DTD/sodipodi-0.dtd"
   xmlns="http://www.w3.org/2000/svg"
   xmlns:svg="http://www.w3.org/2000/svg">
  <sodipodi:namedview
     id="namedview1"
     pagecolor="#505050"
     bordercolor="#eeeeee"
     borderopacity="1"
     inkscape:showpageshadow="0"
     inkscape:pageopacity="0"
     inkscape:pagecheckerboard="0"
     inkscape:deskcolor="#505050"
     inkscape:document-units="mm"
     inkscape:zoom="0.72604517"
     inkscape:cx="396.66953"
     inkscape:cy="561.25984"
     inkscape:window-width="1920"
     inkscape:window-height="1017"
     inkscape:window-x="-8"
     inkscape:window-y="-8"
     inkscape:window-maximized="1"
     inkscape:current-layer="layer1" />
  <defs
     id="defs1" />
  <g
     inkscape:label="Layer 1"
     inkscape:groupmode="layer"
     id="layer1">
    <path
       style="fill:#ffba75;stroke-width:0.264583"
       d="m 76.853621,90.284845 c -0.004,-0.194469 0.02619,-0.382853 0.09922,-0.563828 0.155046,-0.08017 0.166952,-0.239977 0.212196,-0.381264 0.03863,-0.06244 0.09737,-0.103452 0.157691,-0.140758 0.09684,-0.0598 0.171715,-0.04207 0.230453,0.05636 0.02858,0.04762 0.05292,0.09922 0.0463,0.158221 -0.04683,0.04815 -0.202407,-0.08096 -0.1651,0.09393 0.04022,-0.08096 0.09895,-0.09684 0.175948,-0.03281 0.03784,0.207169 0.01905,0.413015 -0.01482,0.618596 -0.01984,0.04075 -0.04657,0.08043 -0.0209,0.128588 -0.0074,0.190235 -0.05212,0.373591 -0.102659,0.555625 -0.01217,0.0087 -0.0254,0.01376 -0.04022,0.01535 -0.110596,-0.02302 -0.14605,-0.1143 -0.183886,-0.20029 -7.93e-4,0.0034 -0.0069,5.29e-4 -0.0074,0.0037 -0.05874,0.05001 -0.134408,0.04683 -0.200554,0.07064 -0.06006,0.0217 -0.119592,-0.0024 -0.137054,-0.06244 -0.01826,-0.06244 -0.07303,-0.113241 -0.0598,-0.185208 0.0056,-0.04471 -0.0074,-0.09075 0.01058,-0.134408 z"
       id="path13785" />
    <path
       style="fill:#fdb46e;stroke-width:0.264583"
       d="m 78.278138,89.86892 c 2.64e-4,-0.01376 0.0071,-0.02223 0.02037,-0.02593 0.04657,-0.01826 0.09975,-0.02805 0.128058,-0.07488 0.06138,-0.101071 0.128852,-0.07408 0.199496,-0.01296 0.02328,0.03863 0.03519,0.08228 0.05556,0.122237 0.0063,0.0071 0.0079,0.01508 0.0048,0.02408 -0.0087,0.32094 -0.11774,0.609865 -0.281252,0.881327 -0.01614,0.02699 -0.01402,0.05953 -0.02778,0.08731 l 0.0011,-0.0029 c -0.02461,0.01323 -0.01693,0.04498 -0.03545,0.06165 -0.05742,0.113507 -0.129117,0.216959 -0.215106,0.310621 -0.05159,0.0217 -0.09419,0.05874 -0.140759,0.08837 -0.173037,0.110596 -0.24765,-0.08546 -0.372269,-0.12409 -0.06324,-0.01958 -0.07699,-0.120914 -0.04207,-0.191029 0.04286,-0.08599 0.06879,-0.183091 0.142346,-0.251883 0.02699,-0.03625 0.05318,-0.07329 0.06641,-0.11721 l -0.0011,0.0016 c 0.137318,-0.09869 0.240506,-0.225954 0.304006,-0.381529 0.01323,-0.03254 0.01693,-0.07673 0.04762,-0.08864 0.145521,-0.05821 0.137583,-0.185208 0.14605,-0.306122 z"
       id="path13786" />
    <path
       style="fill:#f2a762;stroke-width:0.264583"
       d="m 77.755057,90.77353 c -0.01482,0.07276 -0.07355,0.121444 -0.101865,0.187854 -0.02143,0.05054 -0.02805,0.09657 -0.01005,0.147638 0.0069,0.01931 0.0172,0.05371 0.02937,0.04895 0.133614,-0.05371 0.147902,0.167745 0.276225,0.117739 0.05768,-0.02249 0.115623,-0.04101 0.178593,-0.03651 -0.135466,0.194204 -0.26617,0.392377 -0.461962,0.534193 -0.115358,0.0016 -0.235215,-0.02858 -0.334169,0.06694 -0.03043,0.02937 -0.07752,0.02487 -0.113506,-0.0045 -0.03651,-0.03016 -0.03175,-0.06985 -0.02646,-0.112448 0.01852,-0.152664 0.07541,-0.296333 0.09895,-0.44741 0.004,-0.01138 0.0085,-0.02328 0.0127,-0.03466 0.0034,-0.01085 0.0071,-0.02196 0.01138,-0.03281 0.0021,-0.0053 0.0045,-0.01032 0.0066,-0.01561 0.0061,-0.01587 0.01164,-0.03228 0.01641,-0.04895 0.0026,-0.01191 0.0061,-0.02328 0.01032,-0.03466 0.0045,-0.01191 0.0093,-0.02355 0.01376,-0.03545 0.0077,-0.01852 0.01773,-0.03572 0.03175,-0.05027 0.01032,-0.0095 0.02117,-0.01826 0.03254,-0.02646 0.104775,-0.08255 0.185738,-0.199231 0.329407,-0.223573 z"
       id="path13869" />
    <path
       style="fill:#dc8e4c;stroke-width:0.264583"
       d="m 76.453571,91.949338 c -0.158485,-0.186796 -0.219604,-0.41566 -0.280194,-0.645054 0.0048,-0.0053 0.0095,-0.01032 0.01402,-0.01561 0.07223,-0.0095 0.08599,0.06006 0.126471,0.09366 0.01799,0.0209 0.0336,0.04366 0.0508,0.06509 0.0164,0.01349 0.03519,0.02249 0.05371,0.03254 0.07752,0.04048 0.0971,0.128588 0.152929,0.186796 0.02117,0.02196 0.04101,0.04868 0.07594,0.04022 0.04657,-0.01138 0.04286,-0.05133 0.04127,-0.08678 -0.0061,-0.137055 -0.04154,-0.271992 -0.0299,-0.410634 0.0053,-0.06456 0.0048,-0.129116 0.100277,-0.103452 0.09393,0.09499 0.04075,0.222779 0.07408,0.332846 0.04974,0.164835 0.06033,0.33655 0.04101,0.509058 -0.0079,0.07197 -0.0172,0.142875 -0.08625,0.186267 -0.02328,0.01191 -0.04683,0.01561 -0.07144,0.0042 l -0.01058,-0.0079 c -0.05953,-0.09446 -0.163248,-0.127265 -0.252148,-0.18124 z"
       id="path14008" />
    <path
       style="fill:#e39353;stroke-width:0.264583"
       d="m 76.647511,89.90358 c 0.04974,0.11139 0.08017,0.228865 0.104775,0.347927 -7.94e-4,0.08149 0.009,0.158485 0.05556,0.230452 0.06244,0.09631 0.03466,0.204788 0.02805,0.309563 -0.04471,0.08123 -0.137583,0.07488 -0.20611,0.11377 -0.08308,-0.0021 -0.108744,-0.07064 -0.145786,-0.125941 -0.0093,-0.03307 -0.0032,-0.0635 0.0164,-0.09128 0.129382,-0.119328 0.03572,-0.230188 -0.01376,-0.342636 -0.0037,-0.102658 0.01323,-0.205846 -0.0127,-0.307446 0.01217,-0.171714 0.02752,-0.183621 0.173567,-0.134408 z"
       id="path14042" />
    <path
       style="fill:#eca55d;stroke-width:0.264583"
       d="m 76.798323,90.803692 c -5.29e-4,-0.121179 0.0032,-0.241829 -0.0463,-0.358245 -0.02619,-0.06138 -0.01931,-0.129382 5.29e-4,-0.19394 0.01693,0.02646 0.02064,0.05609 0.0209,0.08678 0.0042,0.0095 0.0087,0.01852 0.01349,0.02778 0.01482,0.005 0.01296,0.06376 0.0418,0.0164 0.01667,-0.02778 5.3e-4,-0.06906 0.02514,-0.0979 0.0034,0.05106 0.0066,0.101865 0.01005,0.152665 0.04022,0.117739 0.02011,0.26035 0.146579,0.334168 0.07541,-0.163777 0.178858,-0.187854 0.301096,-0.0553 0.03942,0.04286 0.08916,0.04127 0.134937,0.05847 0.0087,5.29e-4 0.01746,0.0016 0.02593,0.0029 -5.3e-4,0.01773 -0.0011,0.03572 -0.0016,0.05345 -0.01111,0.03678 0.02302,0.07646 -0.0069,0.112183 -0.02752,0.02937 -0.06218,0.03175 -0.09895,0.0254 -0.114829,-0.01984 -0.18759,0.02699 -0.245534,0.128852 -0.09049,0.159279 -0.134937,0.162983 -0.287072,0.05503 -0.01217,-0.01032 -0.0209,-0.02302 -0.02805,-0.03704 -0.02117,-0.04895 -0.02593,-0.1016 -0.03466,-0.153459 -0.0029,-0.03572 0.01429,-0.0672 0.02037,-0.101071 0.0013,-0.0127 0.0034,-0.02566 0.0058,-0.03836 5.29e-4,-0.0058 0.0013,-0.01244 0.0024,-0.01879 z"
       id="path14045" />
    <path
       style="fill:#db8d50;stroke-width:0.264583"
       d="m 76.173377,91.304549 c -0.139435,-0.386292 -0.255587,-0.77814 -0.235743,-1.195123 0.01085,-0.22569 0.04868,-0.447146 0.17436,-0.643202 0.07091,-0.0048 0.08784,0.05159 0.05874,0.08731 -0.09261,0.113506 -0.04286,0.248973 -0.05371,0.367242 -0.03413,0.376502 -0.03757,0.756444 0.110067,1.119187 0.03572,0.08784 0.01376,0.178065 -0.04154,0.257175 z"
       id="path14047" />
    <path
       style="fill:#f5a965;stroke-width:0.264583"
       d="m 76.185813,91.296876 c 0.0032,-0.175154 -0.01191,-0.342636 -0.101865,-0.503767 -0.04101,-0.07382 -0.04736,-0.175419 -0.03493,-0.269346 0.0127,-0.09684 0.01852,-0.194204 -0.02011,-0.288396 -0.0074,-0.01826 -0.01826,-0.04657 -0.01032,-0.05847 0.0672,-0.09657 0.01826,-0.211138 0.05133,-0.312473 0.0093,-0.02831 0.01614,-0.06244 0.0095,-0.09022 -0.01878,-0.0799 -0.01085,-0.151871 0.03572,-0.220398 0.01905,-0.02805 0.01297,-0.05874 -0.0032,-0.08731 -0.0013,-0.0082 0.0016,-0.01402 0.0087,-0.01799 0.01058,-0.01535 0.02355,-0.02963 0.02699,-0.04895 -0.0021,-0.0069 2.64e-4,-0.01164 0.0069,-0.01455 0.0058,-0.01349 0.0172,-0.02302 0.0254,-0.03493 l -0.0019,0.0019 c 0.0463,-0.02619 0.09234,-0.04868 0.13335,0.0082 -0.09922,0.123031 -0.08705,0.26326 -0.06085,0.405341 0.01323,0.0717 -0.03545,0.125678 -0.05371,0.188119 -0.01905,0.06509 -0.0127,0.131498 -0.02222,0.19685 -0.03387,0.192352 -0.01005,0.383646 0.01085,0.574675 0.133615,0.207698 0.169598,0.433388 0.121973,0.674159 -0.009,0.01349 -0.0209,0.02249 -0.03625,0.02778 -0.02857,-0.04366 -0.05688,-0.08678 -0.08546,-0.130175 z"
       id="path14069" />
    <path
       style="fill:#e39954;stroke-width:0.264583"
       d="m 77.353948,91.23708 c -0.01931,0.181769 -0.09551,0.35216 -0.110596,0.546629 0.06324,-0.0021 0.07832,-0.06429 0.124884,-0.07832 0.193146,-0.05768 0.179916,-0.08281 0.297391,0.068 -0.157691,0.144463 -0.333375,0.197644 -0.537633,0.105305 -0.01005,-0.07673 -0.08625,-0.143934 -0.03334,-0.229923 0.05344,-0.08652 0.08467,-0.179917 0.09366,-0.282046 0.0058,-0.06615 0.0217,-0.130175 0.09657,-0.155575 0.02752,-0.0034 0.05133,0.0034 0.06906,0.02593 z"
       id="path14096" />
    <path
       style="fill:#f0a964;stroke-width:0.264583"
       d="m 78.278138,89.86892 c 0.01402,0.03307 0.02646,0.06694 0.04233,0.09922 0.01508,0.03096 0.03969,0.04789 0.07461,0.03016 0.02963,-0.01482 0.05847,-0.03096 0.06641,0.01931 0.005,0.03175 5.29e-4,0.06985 -0.03651,0.07488 -0.08493,0.01164 -0.134938,0.09446 -0.221986,0.100542 -0.03651,0.0026 -0.07514,0.02143 -0.08017,0.06138 -0.0127,0.101336 -0.08202,0.161132 -0.148431,0.225955 -0.02513,0.02434 -0.04551,0.05662 -0.05874,0.08916 -0.02619,0.06377 -0.07355,0.08096 -0.135732,0.07541 0.13335,-0.147637 0.24765,-0.306122 0.32094,-0.49477 0.03995,-0.103188 0.0934,-0.2032 0.177271,-0.281252 z"
       id="path14141" />
    <path
       style="fill:#ffc58c;stroke-width:0.264583"
       d="m 77.610594,89.47469 c -0.07276,2.65e-4 -0.105039,0.03016 -0.116417,0.108744 -0.01296,0.08837 -0.06747,0.108215 -0.145785,0.07303 -0.04233,-0.01905 -0.0889,-0.0418 -0.09287,-0.09366 -0.0056,-0.07488 0.07911,-0.02249 0.100807,-0.06429 0.0061,-0.03969 -0.02567,-0.06509 -0.03836,-0.09763 -0.02011,-0.05133 -0.0011,-0.08917 0.03678,-0.122238 0.04048,-0.03545 0.07408,-0.01402 0.109538,0.01085 0.0508,0.03545 0.09604,0.0762 0.135202,0.12409 0.004,0.02037 0.0077,0.04075 0.01111,0.06112 z"
       id="path14157" />
    <path
       style="fill:#f2ab69;stroke-width:0.264583"
       d="m 78.377357,90.869838 c -0.01852,-0.08678 0.05927,-0.164571 0.02302,-0.254264 -0.0074,-0.01826 0.01323,-0.03678 0.03122,-0.04789 0.0172,-0.01085 0.03334,-0.02487 0.05212,-0.03175 0.07435,-0.02699 -0.07514,-0.115623 0.03493,-0.128323 0.08467,-0.0098 0.06747,-0.07726 0.07779,-0.127529 0.01164,-0.05477 0.02037,-0.11086 0.0217,-0.166687 0.0019,-0.07832 0.0071,-0.153459 0.068,-0.212196 0.05001,0.106362 0.01773,0.212989 -0.0069,0.316177 -0.05583,0.237596 -0.158221,0.455083 -0.301889,0.652462 z"
       id="path14199" />
    <path
       style="fill:#d98e50;stroke-width:0.264583"
       d="m 76.305405,89.381557 c -0.03863,-0.02619 -0.08281,-0.02831 -0.127265,-0.0299 0.08943,-0.113506 0.164306,-0.119856 0.248973,-0.0074 0.09842,0.130704 0.154781,0.28231 0.185473,0.443177 -0.09684,0.09049 -0.139171,-0.0029 -0.184944,-0.06006 -0.02699,-0.0336 -0.02328,-0.08519 -0.04392,-0.125147 -0.02566,-0.07382 -0.06271,-0.143405 -0.07832,-0.220663 z"
       id="path14251" />
    <path
       style="fill:#eda464;stroke-width:0.264583"
       d="m 77.165036,89.339753 c 0.05953,0.157427 -0.0024,0.293687 -0.07858,0.424921 -0.03096,0.05318 -0.0598,0.04233 -0.133615,-0.04366 0.03466,-0.147108 0.101865,-0.276225 0.212196,-0.381264 z"
       id="path14253" />
    <path
       style="fill:#a26008;stroke-width:0.264583"
       d="m 77.166094,91.698513 c -0.04471,0.05318 0.01826,0.129382 -0.0381,0.180182 0,0 -0.004,0.0045 -0.0037,0.0045 -0.03572,-0.03043 -0.0717,-0.06112 -0.107421,-0.09181 -0.09948,-0.0291 -0.132292,-0.106627 -0.143933,-0.199496 0.0032,-0.04048 0.02249,-0.07091 0.05689,-0.09208 0.195792,-0.06562 0.262467,-0.0098 0.236273,0.198702 z"
       id="path14260" />
    <path
       style="fill:#ec9e5e;stroke-width:0.264583"
       d="m 76.4287,89.567559 c 0.0336,0.01111 0.07726,0.02514 0.06429,0.06694 -0.03545,0.114564 0.03149,0.139964 0.119592,0.152929 0.02752,0.03413 0.03651,0.07355 0.03466,0.116417 -0.08705,0.01746 -0.147902,0.05609 -0.127794,0.159543 -0.05821,0.02143 -0.07223,-0.01984 -0.07514,-0.06033 -0.0048,-0.06959 -0.04551,-0.118533 -0.08414,-0.169862 -0.02249,-0.03493 -0.02963,-0.07223 -0.01879,-0.112713 0.0019,-0.01561 0.004,-0.03122 0.0056,-0.0471 0.0056,-0.05212 0.03387,-0.08652 0.08176,-0.105833 z"
       id="path14310" />
    <path
       style="fill:#eca55d;stroke-width:0.264583"
       d="m 77.755057,90.77353 c -0.118534,0.07514 -0.191559,0.200819 -0.30824,0.278077 -0.0463,-0.04154 -0.03334,-0.08017 0.0061,-0.11721 0.0127,-0.02778 0.0254,-0.05556 0.05847,-0.06535 0.08996,-0.07514 0.180182,-0.150548 0.27014,-0.22569 0.0029,0.04577 -0.0079,0.08863 -0.02646,0.130175 z"
       id="path14332" />
    <path
       style="fill:#eba866;stroke-width:0.264583"
       d="m 78.620244,89.784517 c -0.059,-0.03863 -0.115623,-0.06747 -0.169598,0.0095 -0.03704,0.05265 -0.09578,0.04974 -0.152135,0.04895 0.02646,-0.05159 0.07064,-0.08731 0.114564,-0.121708 0.12065,-0.09499 0.163248,-0.08281 0.23839,0.06323 -0.01032,0.01429 -0.02064,0.01508 -0.03122,0 z"
       id="path14378" />
    <path
       style="fill:#f9c58b;stroke-width:0.264583"
       d="m 77.574875,90.221874 c -0.04075,0.0024 -0.08123,0.0077 -0.121973,0.0066 -0.03334,-0.0011 -0.05874,-0.02117 -0.06297,-0.05583 -0.0048,-0.03916 0.02566,-0.05159 0.05609,-0.05927 0.04895,-0.01244 0.102659,0.0077 0.149754,-0.02011 0.0034,0.04445 0.0082,0.08943 -0.0209,0.128588 z"
       id="path14381" />
    <path
       style="fill:#e49b65;stroke-width:0.264583"
       d="m 76.453571,91.949338 c 0.03916,0.0063 0.07805,0.01323 0.117211,0.01905 0.09313,0.01402 0.140229,0.06641 0.135202,0.16219 -0.110596,-0.02355 -0.19394,-0.0852 -0.252413,-0.18124 z"
       id="path14387" />
    <path
       style="fill:#82856a;stroke-width:0.264583"
       d="m 76.922148,91.91653 c -0.0011,0.110596 -0.0077,0.219869 -0.08943,0.307181 -0.0071,-0.0717 -0.08599,-0.04551 -0.116417,-0.0852 0.01799,-0.0024 0.03572,-0.005 0.05345,-0.0074 0.04366,-0.01826 0.03519,-0.06906 0.06059,-0.09843 0.01905,-0.02064 0.02937,-0.04471 0.02937,-0.07302 0.0019,-0.0209 0.0085,-0.03969 0.02619,-0.05292 0.01429,-0.0042 0.02646,-0.0011 0.03625,0.0098 z"
       id="path14420" />
    <path
       style="fill:#6a8c96;stroke-width:0.264583"
       d="m 77.511111,90.869045 c -0.01164,0.01746 -0.02328,0.03519 -0.03519,0.05265 -0.0061,0.01535 -0.01455,0.01773 -0.02593,0.005 -0.0056,-0.03466 -0.009,-0.06879 0.02064,-0.09578 0.01349,0.0127 0.02699,0.0254 0.04048,0.0381 z"
       id="path14497" />
    <path
       style="fill:#f2ab69;stroke-width:0.264583"
       d="m 78.620244,89.784517 c 0.01032,0 0.02064,0 0.03096,0 0.02408,0.02646 0.03651,0.05662 0.03043,0.09287 -0.02037,-0.03096 -0.04075,-0.06191 -0.06138,-0.09287 z"
       id="path14507" />
    <path
       style="fill:#f2ab69;stroke-width:0.264583"
       d="m 78.342696,90.928576 c 0.01191,-0.02064 0.02355,-0.04101 0.03545,-0.06165 -0.0024,0.02619 -0.01217,0.04762 -0.03545,0.06165 z"
       id="path14536" />
    <path
       style="fill:#e39353;stroke-width:0.264583"
       d="m 76.786946,90.366072 c -0.0045,-0.0093 -0.0093,-0.01852 -0.01376,-0.02778 0.0127,0.0053 0.0172,0.01482 0.01376,0.02778 z"
       id="path14581" />
    <path
       style="fill:#db8d50;stroke-width:0.264583"
       d="m 76.147713,89.399284 c -0.009,0.01614 -0.01799,0.03254 -0.02699,0.04895 5.3e-4,-0.02117 0.0095,-0.03731 0.02699,-0.04895 z"
       id="path14629" />
    <path
       style="fill:#d98e50;stroke-width:0.264583"
       d="m 76.179992,89.349807 c -0.0085,0.01164 -0.01693,0.02328 -0.0254,0.03493 7.94e-4,-0.0172 0.0093,-0.02884 0.0254,-0.03493 z"
       id="path14637" />
    <path
       style="fill:#fcb46c;stroke-width:0.264583"
       d="m 77.446288,90.774588 c -0.06853,0.02143 -0.129911,0.04313 -0.192617,-0.02857 -0.06826,-0.07805 -0.130969,-0.05741 -0.157162,0.04657 -0.01164,0.04524 -0.0164,0.08916 -0.05556,0.120385 -0.02514,0.01984 -0.05159,0.03413 -0.08387,0.02249 -0.03651,-0.01297 -0.03969,-0.04207 -0.03148,-0.07488 0.005,-0.01958 0.01429,-0.04763 -0.0034,-0.05689 -0.153987,-0.08096 -0.0799,-0.207168 -0.06668,-0.321468 0.0019,-0.01508 0.0058,-0.0299 0.0087,-0.04498 0.03043,0.02725 0.07567,0.04868 0.08811,0.08228 0.02381,0.06429 0.05212,0.08784 0.122502,0.07355 0.06085,-0.01244 0.1016,-0.02381 0.110067,-0.09869 0.0082,-0.07223 0.06482,-0.04313 0.107685,-0.0299 v 0 c 0.0074,0.124883 0.06641,0.224631 0.153723,0.310091 z"
       id="path14926" />
    <path
       style="fill:#fcb46c;stroke-width:0.264583"
       d="m 77.292036,90.464497 c 0.0061,-0.0077 0.01164,-0.01614 0.01879,-0.02275 0.01032,-0.0098 0.02752,-0.02223 0.03545,-0.0071 0.0085,0.01561 -0.01164,0.02196 -0.0254,0.0254 -0.0093,0.0026 -0.01905,0.0032 -0.02884,0.0045 z"
       id="path14927" />
    <path
       style="fill:#d88d45;stroke-width:0.264583"
       d="m 77.449992,90.926724 c 0.0087,-0.0019 0.01746,-0.0034 0.02593,-0.005 -0.0098,0.04339 -0.01958,0.08652 -0.02937,0.12991 -0.0082,0.0019 -0.01667,0.0034 -0.02487,0.0048 -0.0074,2.64e-4 -0.01455,7.93e-4 -0.02196,0.0011 -0.147373,0.02513 -0.223837,0.127 -0.274108,0.255852 -0.02249,0.05715 -0.0344,0.122767 -0.116417,0.123031 -0.06403,-0.0024 -0.153987,0.02619 -0.174625,-0.05027 -0.02355,-0.08705 -0.06112,-0.1905 0.02619,-0.273314 0.132556,0.07144 0.149225,0.06879 0.21246,-0.05212 0.01932,-0.03704 0.04286,-0.06773 0.07117,-0.09737 0.06165,-0.06456 0.126207,-0.09975 0.2159,-0.05292 0.02593,0.01323 0.05953,0.01138 0.08969,0.0164 z"
       id="path15051" />
    <path
       style="fill:#d88d45;stroke-width:0.264583"
       d="m 77.353948,91.23708 c -0.02011,2.65e-4 -0.04022,2.65e-4 -0.06033,5.29e-4 -0.04498,-0.125148 -0.02805,-0.1524 0.11774,-0.188648 0,0 0.01032,0.0071 0.01058,0.0071 -0.0021,0.01905 -0.0045,0.03784 -0.0066,0.05688 -0.01058,0.01006 -0.01984,0.02117 -0.03043,0.03096 h -2.65e-4 c -0.03069,0.02434 0.0019,0.06932 -0.03069,0.09313 z"
       id="path15052" />
    <path
       style="fill:#e39954;stroke-width:0.264583"
       d="m 77.354213,91.23708 c 0.0021,-0.0336 0.01005,-0.06535 0.03043,-0.09287 0,0.03096 0,0.06191 0,0.09287 l 2.65e-4,-2.65e-4 c -0.01032,0 -0.02064,2.65e-4 -0.03069,2.65e-4 z"
       id="path15053" />
    <path
       style="fill:#e39954;stroke-width:0.264583"
       d="m 77.38464,91.236815 c 0.0032,0.0037 0.0061,0.0074 0.0093,0.01111 -0.0032,-0.0037 -0.0061,-0.0074 -0.0093,-0.01111 z"
       id="path15054" />
    <path
       style="fill:#e39954;stroke-width:0.264583"
       d="m 77.38464,91.143947 c 0.01005,-0.01032 0.02037,-0.02064 0.03043,-0.03096 -0.01005,0.01032 -0.02037,0.02064 -0.03043,0.03096 z"
       id="path15055" />
    <path
       style="fill:#cd7d3a;stroke-width:0.264583"
       d="m 76.86103,91.112461 c 0.0034,0.04075 0.0069,0.08176 0.01058,0.122502 0.01402,0.150548 0.01402,0.150548 0.17145,0.156369 0.03043,0.08625 -0.08864,0.08758 -0.0889,0.156633 -0.01296,0.02222 -0.02593,0.04445 -0.03889,0.06641 0.0019,0.103716 0.02778,0.209285 -0.02143,0.309562 -0.0019,0.0172 -0.004,0.03413 -0.0058,0.05133 -0.01535,0.02222 -0.01217,0.05186 -0.02884,0.07355 -0.02408,0.0336 -0.03916,0.07699 -0.0889,0.08255 -0.0021,-0.08255 0.04842,-0.152136 0.05027,-0.236802 0.0026,-0.122503 -0.0077,-0.237332 -0.03995,-0.357717 -0.03651,-0.135731 -0.0066,-0.284427 -0.04498,-0.423863 -0.07514,-0.06509 -0.133615,-0.136525 -0.09472,-0.245533 -0.01614,-0.04948 -0.04418,-0.106098 0.05424,-0.07726 0.03307,0.0095 0.06879,0.0095 0.103452,0.01376 v 2.65e-4 c 0.0085,0.01005 0.01508,0.0209 0.01984,0.03307 0.0098,0.02434 0.02037,0.04842 0.0254,0.07461 5.29e-4,0.01349 5.29e-4,0.02699 5.29e-4,0.04048 0.0079,0.05318 -0.0172,0.109538 0.01614,0.160073 z"
       id="path15281" />
    <path
       style="fill:#efa25f;stroke-width:0.264583"
       d="m 76.640632,90.867192 c 0.03228,0.08149 0.09049,0.153194 0.09472,0.245534 -0.03995,0.183621 -0.0066,0.36486 0.01693,0.546364 0.005,0.03836 0.04339,0.08123 -2.65e-4,0.112977 -0.0463,0.03387 -0.10451,0.02328 -0.143404,-0.01164 -0.09128,-0.08202 -0.203729,-0.140229 -0.275167,-0.244211 0.004,-0.0061 0.0077,-0.01217 0.01138,-0.01852 0.03969,-0.02857 0.0717,-0.01032 0.111919,0.0082 0.126736,0.05874 0.177536,0.01746 0.164306,-0.123825 -0.009,-0.09551 -0.0799,-0.180182 -0.05027,-0.282575 0.01349,-0.06509 -0.01323,-0.11483 -0.05477,-0.162719 -0.04657,-0.05371 -0.0717,-0.110861 0.0042,-0.163248 0.04313,0.02725 0.06959,0.0762 0.120386,0.09366 z"
       id="path15282" />
    <path
       style="fill:#efa25f;stroke-width:0.264583"
       d="m 76.30223,91.485788 c -0.01032,-0.01984 -0.02064,-0.03942 -0.03096,-0.05927 0,0 0.0026,-0.0069 0.0026,-0.0069 0.04154,-0.0063 0.04577,0.01852 0.04207,0.05027 -0.0045,0.0056 -0.0093,0.01058 -0.01376,0.01587 z"
       id="path15283" />
    <path
       style="fill:#efa25f;stroke-width:0.264583"
       d="m 76.333186,91.516215 c -0.01032,-0.01005 -0.02064,-0.02011 -0.03096,-0.03016 0,0 0.004,-0.0037 0.004,-0.0037 0.02461,-0.0053 0.03413,0.0053 0.03069,0.02937 z"
       id="path15284" />
    <path
       style="fill:#917840;stroke-width:0.264583"
       d="m 76.893838,91.923938 c 2.64e-4,-0.103716 -0.02011,-0.209021 0.02143,-0.309827 0.03387,0.059 0.06773,0.118269 0.1016,0.177271 -0.06773,0.01429 -0.07964,0.07064 -0.09446,0.124883 -0.0098,0.0024 -0.01932,0.0048 -0.02858,0.0077 z"
       id="path15289" />
    <path
       style="fill:#fbb26d;stroke-width:0.264583"
       d="m 76.427113,89.785311 c 0.04657,0.02699 0.07382,0.0635 0.06667,0.120915 -0.0066,0.0545 -0.0077,0.108744 0.02566,0.157162 0.05768,0.09155 0.05318,0.183621 0.0026,0.276225 -0.0063,0.005 -0.0127,0.01005 -0.01905,0.01508 -0.02487,0.0074 -0.04868,0.0013 -0.0725,-0.0056 -0.137054,-0.08652 -0.137054,-0.08652 -0.06826,-0.316971 0.0299,-0.08017 -0.04471,-0.187854 0.06482,-0.246856 z"
       id="path15309" />
    <path
       style="fill:#feb670;stroke-width:0.264583"
       d="m 76.520246,90.773265 c -0.0029,0.06456 0.02646,0.112184 0.0717,0.156898 0.05001,0.04948 0.09604,0.105304 0.05239,0.183886 -0.0079,-0.0029 -0.01587,-0.0061 -0.02355,-0.009 -0.04921,-0.03545 -0.09102,-0.07779 -0.147373,-0.107156 -0.110596,-0.05768 -0.106363,-0.279136 0,-0.336286 0.02381,-0.01296 0.04948,-0.0087 0.07276,0.0058 0.01402,0.01349 0.01561,0.02805 0.005,0.04418 -0.01058,0.02064 -0.0209,0.04127 -0.03096,0.06165 z"
       id="path15310" />
    <path
       style="fill:#fbb26d;stroke-width:0.264583"
       d="m 76.550938,90.711882 c 0,-0.01032 0,-0.02064 0,-0.03096 -0.03493,-0.110331 -0.132027,-0.214842 -0.03334,-0.338402 0,0 0.0045,-0.0032 0.0045,-0.0032 0.06297,0.05636 0.101071,0.124089 0.116946,0.20955 0.02117,0.113771 0.02619,0.112977 -0.08811,0.162983 z"
       id="path15311" />
    <path
       style="fill:#d88d45;stroke-width:0.264583"
       d="m 76.860236,91.112461 c -0.03969,-0.05662 -0.03016,-0.121444 -0.03069,-0.184679 0.01032,-0.02117 0.02037,-0.02117 0.03043,2.65e-4 0,0.06165 2.65e-4,0.123031 2.65e-4,0.184414 z"
       id="path15313" />
    <path
       style="fill:#e39353;stroke-width:0.264583"
       d="m 76.859971,90.928047 c -0.01005,0 -0.02011,-2.65e-4 -0.03043,-2.65e-4 -5.29e-4,-0.01032 -0.0011,-0.02064 -0.0013,-0.03096 -0.01508,-0.01429 -0.01482,-0.03202 -0.01243,-0.05054 0.0045,-0.004 0.0093,-0.0082 0.01376,-0.01217 0.01984,0.02831 0.02884,0.0598 0.03043,0.09393 z"
       id="path15314" />
    <path
       style="fill:#e39353;stroke-width:0.264583"
       d="m 76.800175,90.833855 c -7.93e-4,-0.0098 -0.0013,-0.01984 -0.0019,-0.02963 0.01032,0.01005 0.0209,0.02011 0.03122,0.0299 l -0.0016,0.0019 c -0.01085,0.02064 -0.02011,0.02011 -0.02778,-0.0021 z"
       id="path15315" />
    <path
       style="fill:#feb670;stroke-width:0.264583"
       d="m 76.33689,91.511717 c -0.01032,-0.0098 -0.02064,-0.01958 -0.03096,-0.02937 -0.01085,-0.0209 -0.02143,-0.04154 -0.03228,-0.06244 -0.0034,-0.09604 -0.01402,-0.190235 -0.0085,-0.288396 0.0074,-0.130175 -0.04022,-0.262202 -0.146315,-0.358246 0.02355,-0.02275 0.04921,-0.04154 0.0844,-0.04127 0.02487,-2.64e-4 0.04895,0.0034 0.07091,0.01614 0.01402,0.0082 0.0254,0.01958 0.03413,0.03307 0.01032,0.02011 0.02011,0.04022 0.02302,0.06297 0.0074,0.0336 0.01773,0.06615 0.04524,0.08996 0.07117,0.0852 0.207698,0.0725 0.265642,0.177271 l 0.0024,0.0026 c -0.0164,0.03969 -0.01667,0.07858 -2.64e-4,0.118798 0.05239,0.128058 0.02963,0.259027 0.01958,0.395816 -0.125148,-0.01058 -0.228071,-0.05821 -0.327025,-0.116946 z"
       id="path15327" />
    <path
       style="fill:#fdbb78;stroke-width:0.264583"
       d="m 76.427113,89.785311 c 0.01032,0.0926 0.02064,0.184944 0.03122,0.277548 -0.110332,0.01455 -0.222779,0.02011 -0.324379,0.07435 -0.0058,-0.0042 -0.01138,-0.0087 -0.0172,-0.01323 5.29e-4,-0.06165 0.0058,-0.123031 0.02513,-0.181769 0.02752,-0.08308 0.04048,-0.162983 0.01482,-0.252942 -0.02249,-0.07911 0.01508,-0.161395 0.03783,-0.239447 0.01508,-0.05133 0.0635,-0.06165 0.110596,-0.06826 0.08493,0.03281 0.08652,0.121179 0.123296,0.186002 -0.0016,0.04366 -0.0034,0.08731 -0.03334,0.123031 -0.0095,-0.0095 -0.01958,-0.01905 -0.02884,-0.0291 0.0093,0.01005 0.01905,0.01958 0.02858,0.02937 0.0026,0.0344 0.01217,0.06615 0.03228,0.09446 z"
       id="path15328" />
    <path
       style="fill:#fdbb78;stroke-width:0.264583"
       d="m 76.210155,90.775117 c -0.03043,-5.29e-4 -0.06059,-0.0013 -0.09102,-0.0019 -0.0056,-0.172243 0.01376,-0.34581 -0.02461,-0.516731 -0.01032,-0.04604 -0.0011,-0.09102 0.02249,-0.132556 0,0 0.0045,0.0016 0.0045,0.0016 0.121179,0.0079 0.188648,0.0508 0.149225,0.191559 -0.02487,0.08863 0.04207,0.174625 0.03254,0.266171 -0.01773,0.0635 -0.01535,0.134937 -0.07276,0.182562 -0.0069,0.0032 -0.01376,0.0061 -0.02037,0.0093 z"
       id="path15329" />
    <path
       style="fill:#c17e2b;stroke-width:0.264583"
       d="m 76.954163,91.547965 c -0.009,-0.07408 0.03149,-0.12012 0.0889,-0.156633 0.0079,-0.21934 0.100012,-0.335756 0.294746,-0.374915 0.03413,-0.0069 0.0598,-0.0021 0.07382,0.03281 -0.06826,0.04471 -0.09154,0.117475 -0.117739,0.188648 -0.03466,0.155839 -0.04868,0.317235 -0.127529,0.460904 -0.03889,-0.165629 -0.07276,-0.189971 -0.212196,-0.150813 z"
       id="path15336" />
    <path
       style="fill:#917840;stroke-width:0.264583"
       d="m 76.858913,92.048822 c 0.0095,-0.02434 0.01931,-0.04895 0.02884,-0.07355 -0.0095,0.02461 -0.01905,0.04895 -0.02884,0.07355 z"
       id="path15414" />
    <path
       style="fill:#d88d45;stroke-width:0.264583"
       d="m 76.800175,90.833855 c 0.0093,5.29e-4 0.01852,0.0013 0.02778,0.0021 0,0.02037 0,0.04048 2.64e-4,0.06085 -0.0093,-0.0209 -0.01878,-0.0418 -0.02805,-0.06297 z"
       id="path15743" />
    <path
       style="fill:#ffc98c;stroke-width:0.264583"
       d="m 76.211742,90.588057 c -0.0082,-0.07832 0.02778,-0.161131 -0.02487,-0.235479 -0.0077,-0.01085 -0.01217,-0.0344 -0.0058,-0.0426 0.07144,-0.09207 -0.01429,-0.131498 -0.05953,-0.184415 0.059,-0.0508 0.07805,-0.118533 0.08202,-0.192616 0.0011,-0.02064 0.0019,-0.04392 0.02381,-0.05186 0.02937,-0.01085 0.05318,0.0071 0.06218,0.03149 0.03016,0.08096 0.107156,0.106627 0.168804,0.150283 -0.01217,0.02672 -0.01931,0.05768 -0.03757,0.07937 -0.06218,0.07382 -0.03334,0.124883 0.03598,0.168804 0.03678,0.04286 0.01932,0.08811 0.0053,0.132821 -0.08334,0.04762 -0.134144,0.152665 -0.250296,0.144198 z"
       id="path15760" />
    <path
       style="fill:#ffbf79;stroke-width:0.264583"
       d="m 76.427113,90.43354 c 0.0098,-0.04101 0.01984,-0.08176 0.0299,-0.122766 0.02037,0.01058 0.04048,0.02117 0.06085,0.03175 0.01826,0.08758 0.05424,0.170391 0.06297,0.260879 0.0034,0.0344 -0.0029,0.05821 -0.0299,0.07752 -0.115888,0.06482 -0.134144,0.174096 -0.03942,0.267229 0.0508,0.04974 0.114829,0.08678 0.13044,0.163512 -0.05397,-0.01005 -0.09948,-0.04921 -0.159015,-0.0426 -0.08652,0.0095 -0.143669,-0.0336 -0.179123,-0.110067 -0.02275,-0.02408 -0.01296,-0.05424 -0.01508,-0.08229 -0.02196,-0.168804 0.111125,-0.289454 0.138377,-0.443177 z"
       id="path15761" />
    <path
       style="fill:#ffc27f;stroke-width:0.264583"
       d="m 76.610469,91.378632 c -0.0029,0.04392 -0.0093,0.09049 -0.07461,0.08678 -0.08096,-0.0042 -0.193411,-0.09842 -0.187061,-0.155045 0.0026,-0.02355 0.127265,-0.109803 0.154252,-0.106892 0.0463,0.005 0.107686,0.102394 0.107421,0.175154 z"
       id="path15762" />
    <path
       style="fill:#fdbb78;stroke-width:0.264583"
       d="m 76.304082,90.865605 c 0,0.03122 -2.65e-4,0.06218 -5.3e-4,0.0934 -0.01984,-0.02778 -0.02857,-0.059 -0.03096,-0.0926 l 0.009,-0.0095 0.01296,-2.65e-4 z"
       id="path15763" />
    <path
       style="fill:#fdbb78;stroke-width:0.264583"
       d="m 76.272596,90.866134 c -0.01005,-0.01032 -0.02037,-0.02064 -0.03069,-0.03096 0.0056,-0.0037 0.01111,-0.0077 0.01693,-0.01138 0.0063,0.0026 0.01243,0.005 0.01879,0.0077 0.0079,0.01296 0.0063,0.02434 -0.005,0.03466 z"
       id="path15764" />
    <path
       style="fill:#ffbf79;stroke-width:0.264583"
       d="m 76.27339,90.834913 c -0.01058,0 -0.0209,2.65e-4 -0.03122,2.65e-4 -5.29e-4,-0.01005 -0.0011,-0.02011 -0.0019,-0.03016 0.005,-0.0024 0.01005,-0.005 0.01508,-0.0074 0.01826,0.0063 0.02752,0.01746 0.01799,0.03731 z"
       id="path15765" />
    <path
       style="fill:#fdbb78;stroke-width:0.264583"
       d="m 76.240317,90.805015 c -0.01005,-0.01005 -0.02011,-0.02011 -0.03016,-0.0299 l 0.0011,-0.0016 c 0.02805,-0.0077 0.0381,0.0029 0.03096,0.03069 z"
       id="path15766" />
    <path
       style="fill:#ffc790;stroke-width:0.264583"
       d="m 76.394834,89.690855 c -0.03519,0 -0.07064,0.0019 -0.105834,-5.29e-4 -0.04048,-0.0026 -0.08996,-0.0053 -0.08758,-0.06006 0.0021,-0.05318 0.04048,-0.09234 0.08758,-0.1143 0.0254,-0.01191 0.04657,0.01058 0.06165,0.03175 0.03016,0.0426 0.04101,0.09155 0.04445,0.142611 2.65e-4,2.64e-4 -2.64e-4,5.29e-4 -2.64e-4,5.29e-4 z"
       id="path15767" />
    <path
       style="fill:#ffd098;stroke-width:0.264583"
       d="m 76.242169,90.804222 c -0.01032,-0.01032 -0.02064,-0.02064 -0.03096,-0.03069 -0.02117,-0.06191 0.0032,-0.12356 5.29e-4,-0.185473 0.02778,-0.04868 0.05688,-0.09684 0.08281,-0.146315 0.04048,-0.07646 0.08546,-0.05345 0.132291,-0.0082 0.119592,0.09816 0.121973,0.137848 0.0037,0.225425 -0.04154,0.03096 -0.06297,0.06456 -0.05636,0.1143 0.0077,0.05583 -0.01217,0.08811 -0.07038,0.09234 v 2.65e-4 c -0.01191,-0.0087 -0.02222,-0.01905 -0.03096,-0.03096 h 2.64e-4 c -0.01005,-0.01032 -0.02064,-0.02037 -0.03096,-0.03069 z"
       id="path15768" />
    <path
       style="fill:#ffbf79;stroke-width:0.264583"
       d="m 76.27339,90.834913 c 0.01032,0.01032 0.02064,0.02064 0.03096,0.03096 -0.01032,0 -0.0209,2.64e-4 -0.03122,2.64e-4 0,-0.01058 0,-0.0209 2.65e-4,-0.03122 z"
       id="path15974" />
  </g>
</svg>
