<?xml version="1.0" encoding="UTF-8" standalone="no"?>
<!-- Created with Inkscape (http://www.inkscape.org/) -->

<svg
   width="210mm"
   height="297mm"
   viewBox="0 0 210 297"
   version="1.1"
   id="svg1"
   inkscape:version="1.4 (86a8ad7, 2024-10-11)"
   sodipodi:docname="cvet9.svg"
   xmlns:inkscape="http://www.inkscape.org/namespaces/inkscape"
   xmlns:sodipodi="http://sodipodi.sourceforge.net/DTD/sodipodi-0.dtd"
   xmlns="http://www.w3.org/2000/svg"
   xmlns:svg="http://www.w3.org/2000/svg">
  <sodipodi:namedview
     id="namedview1"
     pagecolor="#505050"
     bordercolor="#eeeeee"
     borderopacity="1"
     inkscape:showpageshadow="0"
     inkscape:pageopacity="0"
     inkscape:pagecheckerboard="0"
     inkscape:deskcolor="#505050"
     inkscape:document-units="mm"
     inkscape:zoom="0.72604517"
     inkscape:cx="396.66953"
     inkscape:cy="561.25984"
     inkscape:window-width="1920"
     inkscape:window-height="1017"
     inkscape:window-x="-8"
     inkscape:window-y="-8"
     inkscape:window-maximized="1"
     inkscape:current-layer="layer1" />
  <defs
     id="defs1" />
  <g
     inkscape:label="Layer 1"
     inkscape:groupmode="layer"
     id="layer1">
    <path
       style="fill:#fbb16c;stroke-width:0.264583"
       d="m 91.440788,102.14734 c 0.146844,-0.31723 0.331523,-0.61013 0.567796,-0.86889 0.01667,-0.0183 0.03995,-0.0304 0.06006,-0.0455 0.06059,0.0323 0.08281,0.0876 0.04551,0.14023 -0.07091,0.10001 -0.07779,0.23389 -0.176477,0.31777 -0.03334,0.0283 -0.05609,0.0667 -0.01905,0.10556 0.04313,0.0452 0.0934,0.0167 0.12065,-0.0156 0.09763,-0.11588 0.191823,-0.23336 0.216429,-0.39317 0.01244,-0.0802 -0.0069,-0.18071 0.09287,-0.22807 0.04815,0.0561 0.03466,0.12462 0.0344,0.18865 -7.94e-4,0.14737 -0.01879,0.29263 -0.0672,0.43286 -0.07223,0.0609 -0.06191,0.14155 -0.05292,0.22198 -0.01244,0.0926 -0.0336,0.18283 -0.07276,0.26829 -0.04313,0.0532 -0.05821,0.11404 -0.04948,0.18124 -0.05186,0.0521 -0.05583,0.15452 -0.159544,0.15214 -0.01455,-0.004 -0.0291,-0.009 -0.04313,-0.014 -0.04313,-0.0217 -0.04445,-0.0855 -0.09102,-0.10001 -0.13335,-0.0413 -0.165364,-0.12356 -0.112183,-0.24844 0.01217,-0.0286 0.01455,-0.0648 -0.02302,-0.0778 -0.04127,-0.0145 -0.0635,0.0236 -0.09049,0.0452 -0.01191,0.008 -0.0254,0.0127 -0.03942,0.0151 -0.01349,0.001 -0.02752,0.001 -0.04101,0 -0.0127,-0.003 -0.02514,-0.008 -0.03651,-0.014 -0.01085,-0.006 -0.02223,-0.0122 -0.03307,-0.0182 -0.0093,-0.008 -0.01693,-0.018 -0.02328,-0.0286 -0.0026,-0.005 -0.005,-0.0109 -0.0071,-0.0167 z"
       id="path13847" />
    <path
       style="fill:#f5ad65;stroke-width:0.264583"
       d="m 92.376884,103.16652 c -0.109802,0.11297 -0.227012,0.21669 -0.370417,0.28628 -0.223573,0.0402 -0.358775,-0.0423 -0.408781,-0.24951 0.0254,-0.10609 0.06826,-0.19896 0.169598,-0.2577 0.05768,-0.0336 0.103188,-0.0878 0.130969,-0.14737 0.0598,-0.12912 0.164571,-0.22384 0.243416,-0.3384 0.01323,-0.008 0.02725,-0.0119 0.0426,-0.0106 0.05053,-0.0341 0.100277,-0.0693 0.160602,-0.0841 0.05265,0.0291 0.04789,0.0773 0.04207,0.12568 -0.02196,0.0526 -0.04868,0.11007 -0.100277,0.13097 -0.09578,0.0389 -0.115623,0.12541 -0.141552,0.20426 -0.02064,0.0624 -0.02858,0.12594 -0.07276,0.18124 -0.03307,0.0413 -0.0418,0.10451 0.01296,0.13467 0.05371,0.0296 0.09552,-0.0151 0.127265,-0.0572 0.02937,-0.0392 0.03598,-0.0849 0.02408,-0.1315 -0.01429,-0.0556 -0.03519,-0.11562 0.02725,-0.15107 0.06535,-0.0371 0.130175,-0.0122 0.185208,0.0307 0.03148,0.0246 0.06429,0.0511 0.07461,0.0942 -0.04392,0.0828 -0.109008,0.15266 -0.146844,0.23945 z"
       id="path13943" />
    <path
       style="fill:#e59756;stroke-width:0.264583"
       d="m 90.708686,101.90472 c 0.03016,-0.22304 0.08863,-0.43789 0.191823,-0.6387 0.04683,-0.0913 0.107421,-0.17357 0.192881,-0.2331 0.124355,-0.0865 0.192882,-0.0529 0.210344,0.10186 0.0016,0.0148 -0.0027,0.0302 -0.0042,0.0452 -0.0087,0.16827 -0.03334,0.33707 0.01773,0.50323 2.65e-4,0.0312 7.94e-4,0.0622 0.0011,0.0934 -0.02725,0.0558 -0.05847,0.10689 -0.13044,0.10848 -0.01455,0.002 -0.0291,0.002 -0.04366,0.002 -0.0762,-0.01 -0.09684,-0.0624 -0.10451,-0.12938 -0.0074,-0.0654 0.0063,-0.13256 -0.02143,-0.21273 -0.03704,0.0569 -0.03466,0.12647 -0.08996,0.15743 -0.0098,0.008 -0.02037,0.0148 -0.03122,0.0212 -0.0082,0.009 -0.01508,0.0183 -0.0209,0.0288 -0.0077,0.0156 -0.01482,0.0318 -0.02117,0.0479 -0.004,0.0111 -0.0082,0.022 -0.01217,0.0331 -0.0079,0.0164 -0.01773,0.0315 -0.02672,0.0474 -0.0063,0.0109 -0.01429,0.0204 -0.02355,0.0288 -0.01058,0.007 -0.0217,0.013 -0.03387,0.0169 -0.0063,0 -0.0127,0 -0.01931,0 -0.01217,-0.004 -0.02249,-0.0114 -0.03069,-0.0214 z"
       id="path13951" />
    <path
       style="fill:#feb873;stroke-width:0.264583"
       d="m 92.348574,101.15992 c -0.0053,0.0963 -0.03704,0.1905 -0.01561,0.28919 0.009,0.041 -0.01482,0.0794 -0.03863,0.1135 -0.02328,0.0336 -0.059,0.0638 -0.06826,0.10081 -0.04207,0.16907 -0.192617,0.1778 -0.318029,0.22384 -0.02937,0.0108 -0.06191,0.007 -0.08467,-0.0193 -0.02857,-0.0323 -0.02302,-0.0701 2.64e-4,-0.099 0.09419,-0.11695 0.112977,-0.27252 0.202406,-0.39132 0.03228,-0.0426 0.04233,-0.0923 0.0426,-0.14446 0.01349,-0.0206 0.03016,-0.0373 0.0545,-0.0447 0.03995,-0.007 0.07911,-0.0143 0.09922,-0.0561 l 5.29e-4,-2.6e-4 c 0.03149,-0.022 0.06456,-0.0167 0.0979,-0.005 0.0172,0.004 0.02646,0.0153 0.02778,0.0331 z"
       id="path13969" />
    <path
       style="fill:#ffcc90;stroke-width:0.264583"
       d="m 92.316559,102.49104 c 0,-0.0442 0.01217,-0.0855 0.02831,-0.12595 0.02196,-0.0283 0.05186,-0.046 0.08414,-0.0603 0.106098,-0.036 0.16854,-0.1307 0.255852,-0.19209 0.03625,-0.0254 0.06403,-0.0646 0.108215,-0.0759 0.06376,-0.0164 0.128323,-0.0365 0.180181,0.0331 0.06403,0.0855 0.01085,0.14843 -0.03307,0.21458 -0.0336,0.0481 -0.110596,0.0468 -0.128588,0.11271 -0.004,0.0127 -0.0079,0.0251 -0.01164,0.0378 0.0079,0.12753 -0.162718,0.11113 -0.174095,0.204 -0.01058,0.0873 0.03096,0.18177 -0.05609,0.25188 -0.114565,-0.001 -0.198703,-0.0844 -0.304007,-0.11509 -0.0672,-0.0196 -0.05212,-0.1016 0.0056,-0.1479 0.04657,-0.0376 0.08361,-0.0736 0.04524,-0.13679 z"
       id="path13982" />
    <path
       style="fill:#d68c46;stroke-width:0.264583"
       d="m 90.706305,103.27711 c -0.05053,-0.0804 -0.06085,-0.17277 -0.06826,-0.26326 -0.02593,-0.31988 -0.04815,-0.64002 0.03969,-0.95541 0.05953,-0.0198 0.07726,0.0212 0.07514,0.0632 -0.0077,0.15319 0.06218,0.30321 0.01588,0.45852 -0.01297,0.0437 -0.0077,0.0907 0.0127,0.1352 0.02725,0.0595 0.0463,0.11324 0.01905,0.18759 -0.02222,0.0603 -0.0029,0.1524 0.07223,0.18071 0.07091,0.0267 0.140229,0.009 0.161925,-0.0881 0.01138,-0.0516 0.05794,-0.0823 0.107156,-0.10293 0.02408,-0.004 0.04577,0.002 0.06535,0.0159 0.05001,0.20532 0.01667,0.27437 -0.145785,0.39052 -0.09657,0.0691 -0.175948,0.17172 -0.283634,0.0251 -0.01958,-0.0267 -0.03836,-0.0455 -0.07144,-0.0471 z"
       id="path14022" />
    <path
       style="fill:#e69d55;stroke-width:0.264583"
       d="m 91.542388,102.15343 c 7.94e-4,0.01 0.0013,0.0196 0.0021,0.0294 -0.02064,0.13044 -0.04366,0.25982 -0.140494,0.36062 -0.0093,0.005 -0.01905,0.01 -0.02884,0.009 -0.191029,-0.0172 -0.1905,-0.0175 -0.207433,0.17304 -0.0013,0.0151 -0.01429,0.0265 -0.02646,0.0368 -0.01455,0.009 -0.03016,0.013 -0.0471,0.0135 -0.133085,-0.0722 -0.167216,-0.14129 -0.133085,-0.2794 0.01085,-0.0439 0.03651,-0.0833 0.04286,-0.12859 0.06773,-0.11906 0.13335,-0.23389 0.06482,-0.38179 -0.03942,-0.0852 0.02699,-0.12647 0.105039,-0.14288 l -0.0016,2.7e-4 c 0.09948,-0.0185 0.09472,0.091 0.1524,0.12409 0.01244,0.0841 0.02461,0.16854 0.03704,0.25241 0.0545,-0.004 0.04921,-0.055 0.07911,-0.0722 0.0056,0.002 0.01111,0.004 0.01614,0.007 0.0087,0.0101 0.0172,0.01 0.02567,-2.6e-4 0.01005,-5.3e-4 0.02011,-10e-4 0.03043,-0.002 0.01032,-0.0111 0.02011,-0.0111 0.02937,0.001 z"
       id="path14032" />
    <path
       style="fill:#eca15b;stroke-width:0.264583"
       d="m 91.144984,102.9276 c -0.03043,0.0381 -0.0471,0.0775 -0.02408,0.12726 0.01693,0.0365 0.01085,0.0775 -0.02699,0.0931 -0.08493,0.0349 -0.171185,-5.3e-4 -0.255587,-0.0111 -0.05027,-0.006 -0.06615,-0.0635 -0.06985,-0.10953 -0.01402,-0.17727 -0.06244,-0.35005 -0.04895,-0.53182 0.01085,-0.14578 -0.01614,-0.29263 -0.04233,-0.43735 -0.0027,-0.045 -0.0029,-0.0892 0.02408,-0.12859 0.01587,0.006 0.02963,0.014 0.04127,0.0259 0.08281,0.18865 0.05424,0.39846 0.111918,0.59161 0.0032,0.0145 0.0071,0.0288 0.01217,0.0429 0.0079,0.0119 0.01561,0.0241 0.02355,0.0357 0.01561,0.0198 0.03757,0.0357 0.04842,0.0585 0.0717,0.1479 0.07117,0.14817 0.1905,0.2032 0.0087,0.0124 0.01402,0.0257 0.01587,0.0402 z"
       id="path14088" />
    <path
       style="fill:#f1aa65;stroke-width:0.264583"
       d="m 92.932774,101.81344 c 0.04577,-0.0566 0.104245,-0.0979 0.169333,-0.12806 0.06244,-0.0288 0.09631,-0.0122 0.11086,0.0553 0.0164,0.0767 0.0063,0.15266 -0.01852,0.22701 -0.05583,0.16589 -0.131233,0.322 -0.236273,0.46276 -0.100541,0.0201 -0.128058,-0.0365 -0.128058,-0.12171 0.01773,-0.019 0.0418,-0.0169 0.06429,-0.0196 0.104246,-0.0476 0.132027,-0.12991 0.06297,-0.21564 -0.07117,-0.0884 -0.05001,-0.17039 -0.02461,-0.26008 z"
       id="path14104" />
    <path
       style="fill:#f9ba75;stroke-width:0.264583"
       d="m 92.932774,101.81344 c 0.04551,0.11218 0.04392,0.2368 0.102129,0.34793 0.03228,0.0616 -0.01826,0.10742 -0.132292,0.14578 -0.02143,-0.0101 -0.02143,-0.0201 0,-0.0304 0.0013,-0.005 0.0034,-0.01 0.004,-0.0145 0.0069,-0.0513 0.08096,-0.10927 0.01984,-0.14896 -0.04233,-0.0275 -0.119592,-0.013 -0.172244,0.0159 -0.06165,0.0336 -0.119327,0.0765 -0.172773,0.12223 -0.04577,0.0392 -0.09472,0.0558 -0.152664,0.0529 0.168804,-0.16272 0.322262,-0.34131 0.504031,-0.4908 z"
       id="path14130" />
    <path
       style="fill:#c98636;stroke-width:0.264583"
       d="m 91.845601,103.53932 c -0.104246,0.0635 -0.216429,0.0831 -0.336021,0.0603 -0.01217,-0.0119 -0.02302,-0.0254 -0.03202,-0.04 -0.03149,-0.21617 -0.134144,-0.43339 0.0098,-0.64664 0.0127,-0.0122 0.02778,-0.0201 0.04471,-0.0243 0.11086,0.0127 0.17145,0.0574 0.120385,0.17992 -0.01376,0.0331 -0.0058,0.0698 -0.0013,0.10451 -0.02937,0.11324 0.0034,0.1987 0.109803,0.25532 0.04313,0.023 0.11721,0.0278 0.08467,0.11087 z"
       id="path14138" />
    <path
       style="fill:#c98637;stroke-width:0.264583"
       d="m 90.706305,103.27711 c 0.08176,-0.0863 0.09895,-0.0889 0.143933,0.007 0.03148,0.0669 0.06138,0.0733 0.112184,0.0278 0.01878,-0.0169 0.0336,-0.0421 0.0553,-0.0513 0.124089,-0.0532 0.165893,-0.1524 0.167216,-0.27861 2.65e-4,-0.0193 0.01164,-0.0386 0.01799,-0.0577 0.0066,-0.003 0.01296,-0.007 0.01958,-0.01 0.01482,0.001 0.02778,0.007 0.03863,0.0172 0.0082,0.0122 0.01376,0.0254 0.01588,0.0399 5.29e-4,0.0143 -5.29e-4,0.0288 -0.0034,0.0429 7.94e-4,0.12171 -0.07329,0.22833 -0.06562,0.35454 0.004,0.0648 -0.059,0.0857 -0.124354,0.0818 -0.110067,-0.007 -0.195527,0.0384 -0.252677,0.13414 -0.06668,-0.0929 -0.109538,-0.19447 -0.124619,-0.30745 z"
       id="path14200" />
    <path
       style="fill:#bd7f25;stroke-width:0.264583"
       d="m 90.830659,103.58403 c 0.02805,-0.0558 -0.0291,-0.13705 0.02593,-0.17145 0.06747,-0.0421 0.153723,-0.0463 0.236008,-0.0288 0.01402,0.003 0.0291,2.6e-4 0.059,2.6e-4 -0.03281,-0.0735 -0.04313,-0.13493 0.02593,-0.19685 0.05186,-0.0463 0.01376,-0.1397 0.05662,-0.20134 0.0844,0.15689 0.06006,0.32173 0.01958,0.48074 -0.02328,0.0913 -0.11086,0.0902 -0.182827,0.0542 -0.06773,-0.0341 -0.124883,-0.0561 -0.175683,0.0206 l -0.0011,10e-4 c -0.01799,0.0154 -0.01085,0.0423 -0.02725,0.0587 -0.0013,0.0116 -0.0024,0.0233 -0.0037,0.0347 -0.01931,-0.0116 -0.03016,-0.0291 -0.03254,-0.0521 z"
       id="path14257" />
    <path
       style="fill:#febc76;stroke-width:0.264583"
       d="m 92.559976,102.86066 c 0.0063,-0.0347 0.02963,-0.0802 0.01587,-0.1016 -0.05662,-0.0884 -0.01984,-0.18151 -0.0344,-0.27252 0.168539,0.0222 0.168539,0.0222 0.206639,-0.0873 0.09181,0.0619 0.103717,0.1479 0.02328,0.24315 -0.0508,0.0603 -0.08652,0.12541 -0.108479,0.19949 -2.65e-4,0.01 -0.005,0.0167 -0.01402,0.0209 -0.01588,0.0151 -0.03466,0.022 -0.05636,0.0214 -0.01349,-0.004 -0.02461,-0.0116 -0.03254,-0.0236 z"
       id="path14271" />
    <path
       style="fill:#e6a157;stroke-width:0.264583"
       d="m 91.845601,103.53932 c -0.02249,-0.0119 -0.04524,-0.0228 -0.0672,-0.0355 -0.04815,-0.028 -0.118798,0.007 -0.154252,-0.0495 -0.03202,-0.0513 0.0063,-0.11033 -0.0063,-0.16536 -0.0071,-0.031 -2.65e-4,-0.0609 0.01587,-0.0884 0.01085,-0.0201 0.02143,-0.0199 0.03175,5.3e-4 -0.01931,0.0767 0.03043,0.11774 0.08599,0.14605 0.08202,0.0415 0.162454,0.0894 0.255323,0.10583 -0.04498,0.0452 -0.100807,0.0699 -0.161132,0.0863 z"
       id="path14277" />
    <path
       style="fill:#ebba82;stroke-width:0.264583"
       d="m 91.317228,101.68326 c -0.106892,-0.16404 -0.100277,-0.33231 -0.01773,-0.50323 0.04762,0.16642 0.02037,0.33522 0.01773,0.50323 z"
       id="path14344" />
    <path
       style="fill:#eeaa67;stroke-width:0.264583"
       d="m 92.662899,102.84187 c -0.01111,-0.0889 -2.65e-4,-0.16721 0.07197,-0.23415 0.06535,-0.0603 0.05001,-0.13653 0.01296,-0.20876 v 2.7e-4 c -0.01799,-0.0259 -0.02143,-0.0503 0.0087,-0.0704 0.160866,0.0436 0.09234,0.16563 0.09049,0.26484 -0.04577,0.0945 -0.106892,0.17728 -0.18415,0.24818 z"
       id="path14349" />
    <path
       style="fill:#8e5501;stroke-width:0.264583"
       d="m 91.511432,103.57212 c 7.94e-4,0.009 2.65e-4,0.0183 -0.0016,0.0273 -0.01852,0.002 -0.03678,0.004 -0.0553,0.006 -0.02196,-0.0106 -0.04366,-0.0214 -0.06562,-0.032 -0.02143,-0.0802 -0.08916,-0.13679 -0.109008,-0.21775 -0.01164,-0.0476 -0.01852,-0.095 0.04022,-0.1143 0.0508,-0.0167 0.09022,0.005 0.112712,0.0526 0.04154,0.0884 0.05503,0.18495 0.07858,0.27834 z"
       id="path14358" />
    <path
       style="fill:#e09754;stroke-width:0.264583"
       d="m 92.847313,102.59396 c -0.05265,-0.0781 -0.01164,-0.19209 -0.09869,-0.25665 0.009,-0.0759 0.04974,-0.0516 0.08996,-0.0283 0.03334,0.0471 0.07355,0.0868 0.119327,0.12145 -0.02699,0.0611 -0.06165,0.11721 -0.110595,0.16351 z"
       id="path14374" />
    <path
       style="fill:#e49d5e;stroke-width:0.264583"
       d="m 92.376884,103.16652 c -0.0074,-0.10584 0.02328,-0.19209 0.124619,-0.24183 0.0093,-0.0124 0.0217,-0.0209 0.03651,-0.0254 0.02434,-0.002 0.04471,0.005 0.05847,0.0267 -0.06032,0.0918 -0.130704,0.17463 -0.219604,0.24051 z"
       id="path14389" />
    <path
       style="fill:#f9b26c;stroke-width:0.264583"
       d="m 91.324636,101.96716 c -0.08678,0.003 -0.112712,-0.0688 -0.1524,-0.12409 0.04339,-0.0336 0.09604,-0.0471 0.14605,-0.0664 0.0021,0.0635 0.0042,0.127 0.0063,0.1905 z"
       id="path14405" />
    <path
       style="fill:#ebbf88;stroke-width:0.264583"
       d="m 92.222367,101.13214 c 0.01138,0.0106 0.02249,0.0212 0.03387,0.0315 0.03307,0.0294 0.06323,0.0672 0.02646,0.10478 -0.04921,0.0503 -0.06429,-0.0214 -0.09498,-0.0381 -0.02249,-0.0124 -0.04313,-0.0278 -0.06456,-0.0421 0.02487,-0.0331 0.05556,-0.0561 0.09922,-0.0561 z"
       id="path14419" />
    <path
       style="fill:#eaa666;stroke-width:0.264583"
       d="m 92.262849,102.00341 c -0.05318,-0.14552 -0.05239,-0.14843 0.05292,-0.22199 0.0013,0.0786 -0.02408,0.15082 -0.05292,0.22199 z"
       id="path14435" />
    <path
       style="fill:#f2bc83;stroke-width:0.264583"
       d="m 92.184267,102.44923 c -0.0042,0.006 -0.0093,0.0111 -0.01508,0.0159 -0.0336,0.0106 -0.04445,-0.006 -0.04418,-0.0368 -0.02646,-0.0722 0.0093,-0.11853 0.06509,-0.15637 0.01535,0.0595 -0.06033,0.11642 -0.0058,0.17727 z"
       id="path14462" />
    <path
       style="fill:#f5ad65;stroke-width:0.264583"
       d="m 92.596753,102.92601 c -0.0217,-7.9e-4 -0.04339,-0.001 -0.06509,-0.002 -0.01852,-0.0598 0.04789,-0.0341 0.06191,-0.0614 0.01852,0 0.03704,2.7e-4 0.05583,2.7e-4 -0.0082,0.0291 -0.02805,0.0482 -0.05265,0.0632 z"
       id="path14492" />
    <path
       style="fill:#ebbf88;stroke-width:0.264583"
       d="m 92.320792,101.12658 c -0.03254,0.002 -0.06509,0.004 -0.0979,0.005 0.03122,-0.0241 0.06297,-0.0418 0.0979,-0.005 z"
       id="path14513" />
    <path
       style="fill:#eca15b;stroke-width:0.264583"
       d="m 90.708686,101.90472 c 0.01058,0 0.02143,2.6e-4 0.03202,5.3e-4 0.0077,0.0246 -0.0021,0.0349 -0.02699,0.0325 0,0 -0.01191,-0.008 -0.01191,-0.008 -0.0027,-0.01 -2.64e-4,-0.0182 0.0069,-0.0251 z"
       id="path14580" />
    <path
       style="fill:#af7a11;stroke-width:0.264583"
       d="m 90.863997,103.63536 c 0.0098,0.0143 0.01984,0.0288 0.02963,0.0431 -0.01693,-0.01 -0.02805,-0.023 -0.02963,-0.0431 z"
       id="path14611" />
    <path
       style="fill:#feb971;stroke-width:0.264583"
       d="m 91.574667,102.1828 c 0.0093,-0.0236 0.01535,-0.0492 0.02857,-0.0704 0.0254,-0.041 0.03545,-0.10187 0.103452,-0.0958 0.05318,0.004 0.141817,0.086 0.153988,0.13679 0.0127,0.0526 -0.02222,0.086 -0.04789,0.12303 -0.03863,0.0561 -0.04339,0.1016 0.03228,0.13123 0.06429,0.0251 0.08493,0.0836 0.09948,0.14473 -0.0037,0.0145 -0.01085,0.0273 -0.02196,0.0378 -0.03889,0.0233 -0.07382,0.0524 -0.109008,0.081 -0.201084,0.0794 -0.296863,0.041 -0.373857,-0.15452 -0.01905,-0.0484 -0.02461,-0.11615 0.0093,-0.14552 0.06138,-0.0537 0.06006,-0.14261 0.125678,-0.18838 z"
       id="path15028" />
    <path
       style="fill:#df954d;stroke-width:0.264583"
       d="m 92.124736,102.42833 c 0.01482,0.0122 0.02937,0.0246 0.04418,0.0368 -0.06747,0.12567 -0.129381,0.25479 -0.203994,0.37623 -0.05212,0.0849 -0.1016,0.17675 -0.21246,0.20955 -0.068,0.0201 -0.07699,0.0892 -0.08758,0.15055 -0.01058,-2.6e-4 -0.02117,-2.6e-4 -0.03149,-5.3e-4 -0.0082,-0.0534 -0.02937,-0.10557 -0.01905,-0.16086 0.01111,-0.0601 -0.02275,-0.0918 -0.07012,-0.11589 -0.02064,-0.008 -0.03784,-0.0201 -0.04471,-0.0429 -5.29e-4,-0.0148 0.0032,-0.0283 0.01164,-0.0405 0.01085,-0.0101 0.02355,-0.0169 0.03757,-0.0209 0.08863,-0.0193 0.137319,-0.0974 0.207169,-0.14419 0.07091,-0.0476 0.139964,-0.0937 0.221191,-0.12013 0.06668,-0.0228 0.08414,-0.10186 0.147638,-0.12726 z"
       id="path15029" />
    <path
       style="fill:#f1a960;stroke-width:0.264583"
       d="m 91.977363,102.55507 c -0.10795,0.0921 -0.236273,0.16166 -0.308504,0.29342 -0.02778,0.0508 -0.07937,0.0336 -0.12356,0.0124 -0.059,-0.1016 -0.134144,-0.19552 -0.153723,-0.31644 -5.29e-4,-0.007 -0.0011,-0.0151 -0.0016,-0.0225 0.01323,-0.13044 0.06112,-0.24527 0.154516,-0.33919 0.01005,0 0.02011,0 0.03016,0 -0.01852,0.068 -0.02752,0.13943 -0.08281,0.19288 -0.04551,0.0442 -0.03784,0.09 0.0077,0.1315 0.01482,0.0135 0.03148,0.0262 0.04286,0.0426 0.09604,0.1397 0.09552,0.13997 0.248444,0.0661 0.02143,-0.0598 0.08599,-0.0341 0.123561,-0.0619 0.01005,-2.7e-4 0.02011,-8e-4 0.0299,-0.002 0.01111,0.001 0.02196,0.002 0.03307,0.003 z"
       id="path15030" />
    <path
       style="fill:#f1a960;stroke-width:0.264583"
       d="m 91.542388,102.15343 c -0.0098,-5.3e-4 -0.01984,-0.001 -0.02963,-0.002 0.01005,7.9e-4 0.01984,10e-4 0.02963,0.002 z"
       id="path15031" />
    <path
       style="fill:#f1a960;stroke-width:0.264583"
       d="m 91.482592,102.15369 -0.01296,0.005 c 0,0 -0.0127,-0.005 -0.0127,-0.005 0.0085,-2.7e-4 0.01693,-5.3e-4 0.02567,-2.7e-4 z"
       id="path15032" />
    <path
       style="fill:#feb771;stroke-width:0.264583"
       d="m 92.593313,102.86251 c -0.02064,0.0204 -0.04127,0.0408 -0.06191,0.0614 -0.01005,2.7e-4 -0.02011,5.3e-4 -0.03016,8e-4 -0.06694,-0.0204 -0.111919,-0.0942 -0.189177,-0.0831 -0.02963,0.0275 -0.01587,0.0524 -0.0032,0.073 0.07382,0.11801 0.01164,0.21564 -0.09181,0.28681 -0.0336,0.023 -0.07223,0.0365 -0.102129,0.0672 -0.06429,0.0664 -0.125413,0.0542 -0.143404,-0.0315 -0.01376,-0.064 -5.29e-4,-0.13282 -0.02619,-0.19658 -0.0034,-0.008 -0.0021,-0.0238 0.0034,-0.0294 0.124089,-0.12356 0.106892,-0.34528 0.295275,-0.42492 0.03995,-0.0169 0.06059,-0.054 0.07197,-0.0955 0.068,0.0503 0.04075,0.10054 0.0056,0.15716 -0.05001,0.0804 -0.04445,0.0937 0.04233,0.13203 0.06456,0.0286 0.130439,0.054 0.195792,0.0807 0.01138,7.9e-4 0.02249,0.001 0.0336,0.002 z"
       id="path15190" />
    <path
       style="fill:#f9b26c;stroke-width:0.264583"
       d="m 90.713713,101.93779 c 0.009,-0.0109 0.01799,-0.0217 0.02699,-0.0325 v 0 c 0.01138,-0.009 0.01931,-0.0214 0.03016,-0.031 7.94e-4,-0.01 0.0011,-0.0196 0.0013,-0.0296 0.01005,-0.0103 0.01826,-0.0222 0.02884,-0.032 0.0011,-0.01 0.0019,-0.0196 0.0027,-0.0294 0.01667,-0.0217 0.0172,-0.0431 -5.29e-4,-0.0643 0,-0.01 -2.64e-4,-0.0193 -5.29e-4,-0.0288 0.01005,-0.0108 0.02037,-0.0214 0.03149,-0.0312 0.02937,-0.01 0.07567,-0.028 0.06562,-0.0524 -0.04233,-0.1008 0.04286,-0.14287 0.08123,-0.20743 0.01905,-0.0318 0.03254,-0.0664 0.07885,-0.0516 0.04471,0.014 0.06429,0.0468 0.06218,0.0931 -0.0037,0.0863 -0.0082,0.17251 -0.01085,0.25876 -0.0019,0.0574 0.0024,0.11324 0.06244,0.14394 -0.07752,0.0722 -0.06033,0.14922 -0.0217,0.23574 0.05636,0.12621 0.02223,0.21167 -0.101865,0.29025 -0.04683,0.0741 -0.01455,0.16986 -0.08493,0.24553 -0.05794,0.0622 -0.09657,0.0789 -0.162718,0.032 h -2.65e-4 c -0.01032,-0.0101 -0.02037,-0.0204 -0.03043,-0.0307 -0.0024,-0.22807 -0.03545,-0.4527 -0.05794,-0.67839 z"
       id="path15195" />
    <path
       style="fill:#eca15b;stroke-width:0.264583"
       d="m 90.803672,101.71845 c 0.01455,0.0214 0.01508,0.0429 5.29e-4,0.0643 -2.65e-4,-0.0212 -5.29e-4,-0.0429 -5.29e-4,-0.0643 z"
       id="path15196" />
    <path
       style="fill:#eca15b;stroke-width:0.264583"
       d="m 90.771128,101.87403 c -0.01005,0.0103 -0.02011,0.0206 -0.03016,0.031 0.01005,-0.0103 0.02011,-0.0206 0.03016,-0.031 z"
       id="path15197" />
    <path
       style="fill:#eca15b;stroke-width:0.264583"
       d="m 90.80129,101.81238 c -0.0095,0.0106 -0.01931,0.0214 -0.02884,0.032 0.0095,-0.0106 0.01931,-0.0214 0.02884,-0.032 z"
       id="path15198" />
    <path
       style="fill:#eca15b;stroke-width:0.264583"
       d="m 90.834628,101.65839 c -0.01058,0.0103 -0.0209,0.0209 -0.03148,0.0312 0.01032,-0.0103 0.0209,-0.0206 0.03148,-0.0312 z"
       id="path15199" />
    <path
       style="fill:#fbb16c;stroke-width:0.264583"
       d="m 91.992444,101.72295 c -0.0042,0.008 -0.0082,0.0167 -0.01244,0.0251 -0.0077,-0.005 -0.01931,-0.008 -0.02249,-0.0151 -0.0066,-0.0151 -0.0024,-0.0307 0.0172,-0.0307 0.0061,0 0.01191,0.0132 0.01773,0.0206 z"
       id="path15234" />
    <path
       style="fill:#febc76;stroke-width:0.264583"
       d="m 92.838582,102.309 c -0.03334,-10e-4 -0.06429,0.005 -0.08996,0.0283 -2.65e-4,0.0206 -2.65e-4,0.0415 -5.29e-4,0.0622 -0.0299,-0.12541 -0.02249,-0.13573 0.09393,-0.12859 0.02037,0.001 0.04048,0.004 0.06085,0.006 0,0.0101 0,0.0201 0,0.0304 -0.02143,5.3e-4 -0.04286,0.001 -0.06429,0.002 z"
       id="path15256" />
    <path
       style="fill:#eca15b;stroke-width:0.264583"
       d="m 91.202663,102.92337 c -0.01932,10e-4 -0.03836,0.003 -0.05768,0.004 0,0 -0.0037,-0.004 -0.0037,-0.004 -0.02884,-0.0471 -0.02593,-0.09 0.01799,-0.127 0.01561,-0.007 0.03122,-0.007 0.0471,-2.6e-4 0.05001,0.0439 0.03598,0.086 -0.0037,0.12753 z"
       id="path15295" />
    <path
       style="fill:#f6ab66;stroke-width:0.264583"
       d="m 91.171707,102.80219 c -2.65e-4,0.0429 -0.01005,0.0833 -0.03016,0.12118 -0.07329,-0.0101 -0.141552,-0.0111 -0.176742,0.0741 -0.01111,0.0273 -0.03149,0.0564 -0.06879,0.0447 -0.03916,-0.0119 -0.0508,-0.0463 -0.05345,-0.0831 -0.0011,-0.0148 -5.29e-4,-0.0331 0.0071,-0.0442 0.07329,-0.10557 0.02381,-0.18865 -0.04683,-0.26855 0.114565,-0.0236 0.193411,-0.081 0.19738,-0.20902 0.0011,-0.0349 0.02064,-0.055 0.05001,-0.0685 -0.0018,0.0399 0.0087,0.086 -0.0074,0.1188 -0.05239,0.10742 -0.0011,0.18097 0.06694,0.25294 0.01878,0.0225 0.05741,0.0249 0.06191,0.0617 z"
       id="path15296" />
    <path
       style="fill:#d68c46;stroke-width:0.264583"
       d="m 91.141809,102.73922 c -0.0254,-0.0611 -0.04233,-0.12515 -0.04815,-0.19077 -0.0042,-0.0481 0.01323,-0.0915 0.05345,-0.11933 0.0426,-0.0296 0.07329,0.002 0.10795,0.0249 0.04207,0.0273 0.08969,0.046 0.134673,0.0683 0,0 5.29e-4,2.6e-4 5.29e-4,2.6e-4 -0.01323,0.0881 0.08308,0.14949 0.05953,0.24051 -0.0069,0.0138 -0.0172,0.0246 -0.02963,0.0333 -0.01323,0.006 -0.02752,0.009 -0.04233,0.009 -0.06033,-0.002 -0.101864,-0.0675 -0.16801,-0.0511 -0.01217,0.005 -0.02461,0.006 -0.03757,0.006 -0.01217,-0.003 -0.02249,-0.0101 -0.03043,-0.0209 z"
       id="path15297" />
    <path
       style="fill:#eca15b;stroke-width:0.264583"
       d="m 91.141809,102.73922 c 0.0095,7.9e-4 0.01905,0.002 0.02858,0.002 0.01879,0.018 0.0217,0.0373 0.0048,0.0582 0,0 -0.0037,0.002 -0.0037,0.002 -0.02884,-0.0122 -0.04948,-0.0325 -0.06165,-0.0617 0.01085,-2.6e-4 0.02143,-5.3e-4 0.03201,-0.001 z"
       id="path15298" />
    <path
       style="fill:#f6ab66;stroke-width:0.264583"
       d="m 90.772186,102.61565 c 0.01005,0.0103 0.02037,0.0204 0.03043,0.0307 -0.01032,-0.0103 -0.02037,-0.0206 -0.03043,-0.0307 z"
       id="path15332" />
    <path
       style="fill:#9c6201;stroke-width:0.264583"
       d="m 91.511432,103.57212 c -0.03784,-0.05 -0.04762,-0.11218 -0.07223,-0.16801 -0.02196,-0.0495 -0.04154,-0.10266 -0.126206,-0.11879 0.01746,0.10742 0.07514,0.19155 0.07567,0.2876 -0.03043,-0.0312 -0.06059,-0.0624 -0.09102,-0.0937 -0.07567,-0.0632 -0.04789,-0.14948 -0.04339,-0.22621 0.0048,-0.086 -0.01376,-0.17066 -0.004,-0.25612 0.0074,-0.18733 0.0344,-0.20717 0.202935,-0.14817 0.01852,0.0161 0.03069,0.0376 0.04471,0.0577 0.004,0.007 0.0079,0.014 0.01191,0.0212 -0.03334,0.21537 -0.01349,0.42995 0.0016,0.64452 z"
       id="path15356" />
    <path
       style="fill:#af7a11;stroke-width:0.264583"
       d="m 90.867436,103.60176 c 0.009,-0.0196 0.01826,-0.0392 0.02725,-0.0587 -0.009,0.0196 -0.01826,0.0392 -0.02725,0.0587 z"
       id="path15358" />
    <path
       style="fill:#cc8438;stroke-width:0.264583"
       d="m 91.513549,102.89294 c 0.01032,0.0103 0.02064,0.0206 0.03096,0.0309 -0.01138,0.001 -0.02302,0.003 -0.0344,0.005 0,0 7.93e-4,-10e-4 7.93e-4,-10e-4 -0.0034,-0.006 -0.0069,-0.0119 -0.01032,-0.018 0.004,-0.006 0.0085,-0.0109 0.01296,-0.0161 z"
       id="path15359" />
    <path
       style="fill:#bd7f25;stroke-width:0.264583"
       d="m 91.263782,102.98554 c -0.0098,2.7e-4 -0.01958,2.7e-4 -0.02937,2.7e-4 -2.65e-4,-0.0206 -2.65e-4,-0.0413 -5.29e-4,-0.0619 -0.02566,-0.0394 -0.01323,-0.0817 -0.01058,-0.12356 0.04657,-0.0569 0.109008,-0.0272 0.165364,-0.0299 h 2.65e-4 c 0.02011,0.0206 0.05265,0.0138 0.07303,0.0339 0.009,0.0109 0.01455,0.023 0.0172,0.0368 -2.65e-4,0.022 -0.0082,0.0402 -0.02778,0.0519 -0.137583,-0.0394 -0.137583,-0.0394 -0.18759,0.0926 z"
       id="path15384" />
    <path
       style="fill:#d68c46;stroke-width:0.264583"
       d="m 91.237324,102.80272 c -0.0011,0.0405 -0.0021,0.0807 -0.0032,0.12117 -0.01032,-2.6e-4 -0.0209,-2.6e-4 -0.03122,-5.2e-4 0.0016,-0.0437 -0.0016,-0.0863 -0.02778,-0.12357 -0.0016,-0.0193 -0.0032,-0.0389 -0.0048,-0.0582 0,0 0.004,-0.003 0.004,-0.003 0.05053,-0.007 0.07382,0.0122 0.06297,0.0646 z"
       id="path15385" />
    <path
       style="fill:#fbb16c;stroke-width:0.264583"
       d="m 91.914392,102.55401 c -0.04128,0.0206 -0.08229,0.0413 -0.12356,0.0619 0.02434,-0.0545 0.0725,-0.0614 0.12356,-0.0619 z"
       id="path15675" />
    <path
       style="fill:#e69d55;stroke-width:0.264583"
       d="m 91.421738,102.76832 c -0.0053,-0.009 -0.0087,-0.0188 -0.01588,-0.0257 -0.110066,-0.10662 -0.110066,-0.10662 -0.01508,-0.22013 0.110067,0.0863 0.143669,0.20717 0.154517,0.33867 -0.01058,5.3e-4 -0.0209,0.001 -0.03149,0.002 -0.01243,0.001 -0.02434,-8e-4 -0.03572,-0.006 -0.0093,-0.008 -0.01799,-0.0167 -0.02593,-0.0259 v 0 c -0.01693,-0.018 -0.02725,-0.0386 -0.03043,-0.0627 z"
       id="path15676" />
    <path
       style="fill:#cc8438;stroke-width:0.264583"
       d="m 91.482592,102.83447 c 0.01032,0.009 0.0209,0.0188 0.03122,0.028 -2.64e-4,0.0101 -5.29e-4,0.0201 -2.64e-4,0.0304 l -0.0013,0.001 c -0.05609,0.003 -0.05001,-0.0246 -0.02963,-0.0595 z"
       id="path15677" />
    <path
       style="fill:#ffc988;stroke-width:0.264583"
       d="m 91.017984,102.12062 c -0.04022,0.0619 -0.144462,0.0963 -0.08387,0.20188 0.0098,0.0172 -0.0034,0.0397 -0.02381,0.0495 -0.02011,0.0101 -0.03969,0.003 -0.05715,-0.008 -0.03016,-0.0206 -0.06588,-0.0479 -0.05927,-0.0828 0.01932,-0.10477 -0.02752,-0.21061 0.009,-0.31406 0.07038,0.0532 0.156104,0.0852 0.215106,0.15399 z"
       id="path15724" />
    <path
       style="fill:#ffd39c;stroke-width:0.264583"
       d="m 91.017984,102.12062 c -0.160602,0.0307 -0.160867,0.0307 -0.215106,-0.15372 0,0 0,0 0,0 0.115887,-0.0844 0.193146,-0.0458 0.248179,0.12409 -0.01111,0.01 -0.02223,0.0198 -0.03307,0.0296 z"
       id="path15725" />
    <path
       style="fill:#ffc988;stroke-width:0.264583"
       d="m 91.051057,102.09099 c -0.06059,-0.086 -0.12991,-0.15399 -0.248179,-0.12409 0.0024,-0.0101 0.0034,-0.0204 0.0071,-0.0299 0.01878,-0.0463 0.02434,-0.11113 0.08123,-0.11986 0.05371,-0.008 0.06509,0.0566 0.09049,0.0918 0.03889,0.0534 0.121444,0.0931 0.06932,0.18204 z"
       id="path15726" />
    <path
       style="fill:#cc8438;stroke-width:0.264583"
       d="m 91.237324,102.80272 c -0.0209,-0.0214 -0.0418,-0.0431 -0.06271,-0.0646 -0.0021,-0.0199 -0.0045,-0.0397 -0.0061,-0.0595 -0.0024,-0.0302 -0.0053,-0.0656 0.03043,-0.0754 0.04313,-0.0119 0.04339,0.0302 0.05371,0.0558 0.02514,0.0627 0.09208,0.073 0.136525,0.11139 -0.04815,0.0225 -0.09922,0.0304 -0.151871,0.0323 z"
       id="path15745" />
    <path
       style="fill:#cc8438;stroke-width:0.264583"
       d="m 91.421738,102.76832 c 0.01005,0.0209 0.02037,0.0418 0.03043,0.0627 -0.0209,-0.0201 -0.0418,-0.0405 -0.06271,-0.0606 0.01058,-8e-4 0.02143,-0.002 0.03228,-0.002 z"
       id="path15746" />
    <path
       style="fill:#c98636;stroke-width:0.264583"
       d="m 91.482592,102.83447 c 0.0098,0.0198 0.01984,0.0394 0.02963,0.0593 -5.29e-4,0.0111 -0.0011,0.022 -0.0016,0.0328 -0.01958,-0.0114 -0.03916,-0.0228 -0.05874,-0.0341 0,-0.0206 2.65e-4,-0.0413 2.65e-4,-0.0619 0.01005,7.9e-4 0.02037,0.002 0.03043,0.004 z"
       id="path15772" />
  </g>
</svg>
