<?xml version="1.0" encoding="UTF-8" standalone="no"?>
<!-- Created with Inkscape (http://www.inkscape.org/) -->

<svg
   width="210mm"
   height="297mm"
   viewBox="0 0 210 297"
   version="1.1"
   id="svg1"
   inkscape:version="1.4 (86a8ad7, 2024-10-11)"
   sodipodi:docname="cvet2.svg"
   xmlns:inkscape="http://www.inkscape.org/namespaces/inkscape"
   xmlns:sodipodi="http://sodipodi.sourceforge.net/DTD/sodipodi-0.dtd"
   xmlns="http://www.w3.org/2000/svg"
   xmlns:svg="http://www.w3.org/2000/svg">
  <sodipodi:namedview
     id="namedview1"
     pagecolor="#505050"
     bordercolor="#eeeeee"
     borderopacity="1"
     inkscape:showpageshadow="0"
     inkscape:pageopacity="0"
     inkscape:pagecheckerboard="0"
     inkscape:deskcolor="#505050"
     inkscape:document-units="mm"
     inkscape:zoom="0.72604517"
     inkscape:cx="396.66953"
     inkscape:cy="561.25984"
     inkscape:window-width="1920"
     inkscape:window-height="1017"
     inkscape:window-x="-8"
     inkscape:window-y="-8"
     inkscape:window-maximized="1"
     inkscape:current-layer="layer1" />
  <defs
     id="defs1" />
  <g
     inkscape:label="Layer 1"
     inkscape:groupmode="layer"
     id="layer1">
    <path
       style="fill:#f2a462;stroke-width:0.264583"
       d="m 126.65692,65.311047 c 0.10213,0.04948 0.20453,0.09922 0.30665,0.148696 0.0127,0.05133 0.0344,0.09578 0.0905,0.111125 0.13706,0.03757 0.25638,0.120914 0.39608,0.15187 0.1143,0.06112 0.21167,0.130705 0.14129,0.283634 -0.0103,0.02355 -0.0278,0.03916 -0.0511,0.04868 -0.0648,0.02064 -0.11272,0.06932 -0.16352,0.110067 -0.0823,0.06588 -0.15928,0.08943 -0.26511,0.05106 -0.0976,-0.03545 -0.19605,0.04895 -0.29951,0.0254 -0.0148,-0.0024 -0.0283,-0.0079 -0.0413,-0.01561 -0.0564,-0.07091 -0.0979,-0.144992 -0.0442,-0.237861 -0.0672,0.112978 -0.16219,0.135467 -0.29289,0.06033 -0.0976,-0.05636 -0.18045,-0.136789 -0.28416,-0.184679 -0.0164,-0.0381 -0.009,-0.07964 0.023,-0.09578 0.17912,-0.09022 0.28575,-0.249237 0.39581,-0.405606 0.0225,-0.03122 0.049,-0.05159 0.0884,-0.05133 z"
       id="path13815" />
    <path
       style="fill:#f3a863;stroke-width:0.264583"
       d="m 127.28055,64.061684 c 0.22066,0.149225 0.41222,0.326761 0.54821,0.559065 0.003,0.0254 0.0148,0.04524 0.036,0.05953 l -2.7e-4,-2.65e-4 c 0.009,0.01191 0.0119,0.02487 0.009,0.03942 0.0143,0.121973 0,0.2159 -0.16193,0.201613 -0.0601,-0.0053 -0.0844,0.0471 -0.0902,0.103717 -0.0214,0.210608 -0.18018,0.273843 -0.35004,0.325172 -0.11219,-0.123295 -0.22464,-0.246856 -0.29078,-0.402695 -0.0349,-0.08202 -0.12541,-0.103188 -0.1741,-0.168805 l 0.002,0.0016 c -0.0124,-0.02143 -0.007,-0.05159 -0.0336,-0.06588 l 0.001,0.004 c -0.006,-0.06773 -0.0751,-0.152664 0.0489,-0.185737 0.10345,0.113506 0.25215,0.147373 0.38391,0.206375 0.11668,0.05212 0.15187,-0.07832 0.20135,-0.143404 0.0497,-0.06588 0.005,-0.137584 -0.0503,-0.189706 -0.0267,-0.0254 -0.0601,-0.01111 -0.0823,0.01243 -0.0643,0.06853 -0.15769,0.09446 -0.22516,0.159279 -0.0558,0.05371 -0.11774,0.0598 -0.17145,-0.0087 -0.0333,-0.09128 -0.009,-0.223308 -0.16245,-0.229394 -0.0148,-5.29e-4 -0.0286,-0.0048 -0.0415,-0.01138 -0.0275,-0.01085 -0.0537,-0.02302 -0.0746,-0.04498 -0.002,-0.01058 -0.003,-0.0209 -0.004,-0.03149 0.12832,-0.141552 0.27807,-0.220662 0.4736,-0.157427 0.0762,0.02434 0.13917,-0.02249 0.20876,-0.03228 z"
       id="path13821" />
    <path
       style="fill:#fbad6c;stroke-width:0.264583"
       d="m 125.48217,66.758847 c -0.0892,-0.03254 -0.15398,-0.09869 -0.21616,-0.165365 -0.14817,-0.159279 -0.15531,-0.305064 -0.0304,-0.495035 0.0865,0.01561 0.0804,0.113506 0.1397,0.154516 0.0169,-0.02117 0.005,-0.04604 0.002,-0.06853 -0.0198,-0.170656 0.0312,-0.232039 0.20267,-0.242358 0.0505,-0.0029 0.0998,0.0098 0.15002,0.0087 0.21299,0.110596 0.43895,0.182034 0.67601,0.218811 0.0254,0.01191 0.0603,-0.0034 0.0788,0.02752 -0.018,0.108479 -0.1606,0.208757 -0.27808,0.167217 -0.10133,-0.03572 -0.16245,-0.0034 -0.22754,0.05768 -0.0167,0.0209 -0.0394,0.03572 -0.0566,0.05609 -0.0116,0.0164 -0.0246,0.03122 -0.0413,0.04233 -0.0106,0.0077 -0.0214,0.01508 -0.0315,0.02355 -0.002,0.127 -0.0863,0.156104 -0.19209,0.174096 -0.0579,0.01005 -0.11483,0.03545 -0.17595,0.04075 z"
       id="path13848" />
    <path
       style="fill:#d68645;stroke-width:0.264583"
       d="m 127.49697,66.011928 c 0.018,-0.0011 0.036,-0.0019 0.054,-0.0029 0.0188,-0.0209 0.0331,-0.05001 0.0696,-0.04101 0.0326,0.01005 0.0355,0.04683 0.0606,0.06773 0.0222,-0.0254 -0.0103,-0.04974 -0.002,-0.07355 0.0828,-0.129646 0.13176,-0.137848 0.23495,-0.04392 0.0743,0.06773 0.12303,0.149225 0.14711,0.246592 0.008,0.02196 0.0172,0.04339 0.0259,0.06535 0.006,0.0217 0.003,0.04366 0.001,0.06562 2.7e-4,0.02037 0.001,0.04101 0.003,0.06138 0.001,0.01323 0.003,0.02646 0.004,0.03969 0.0236,0.08017 -0.0598,0.112183 -0.0778,0.173302 -10e-4,0.01005 -0.002,0.02011 -0.003,0.03043 -0.036,0.01561 -0.0635,0.0021 -0.0873,-0.02434 -0.009,-0.0127 -0.0151,-0.02699 -0.0188,-0.0418 -0.0923,-0.1524 -0.17806,-0.195527 -0.3392,-0.157692 -0.11588,0.02725 -0.23203,0.0254 -0.3466,0.02196 -0.006,0.02064 0.0109,0.02937 0.0204,0.04233 0.007,0.01217 0.0122,0.02434 0.0156,0.03757 0.0146,0.05503 0.0384,0.106892 0.0767,0.147637 0.0627,0.06615 0.13468,0.122238 0.12436,0.230453 -0.004,0.03889 0.0444,0.05001 0.0757,0.06588 0.0992,0.06085 0.10715,0.162454 0.11774,0.262996 -0.0892,0.0418 -0.18442,0.04657 -0.28046,0.0463 -0.0643,-0.04789 -0.11483,-0.110861 -0.19632,-0.139965 -0.081,-0.02884 -0.0775,-0.100806 -0.0672,-0.180181 0.0198,-0.151871 -0.0124,-0.295804 -0.11773,-0.415396 -0.0122,-0.0066 -0.0238,-0.01376 -0.0357,-0.02064 -0.0561,-0.02222 -0.11695,-0.03122 -0.17119,-0.05874 -0.013,-0.0045 -0.0257,-0.009 -0.0386,-0.01349 -0.007,-0.0019 -0.013,-0.004 -0.0196,-0.0061 -0.0135,-0.0034 -0.0265,-0.0082 -0.0389,-0.01402 -0.0315,-0.01667 -0.0648,-0.02725 -0.10028,-0.03228 -0.0151,-0.0034 -0.0286,-0.0098 -0.0413,-0.01826 -0.0206,-0.01297 -0.036,-0.03016 -0.0468,-0.05186 -0.014,-0.03149 -0.0114,-0.06403 -0.007,-0.09684 0.005,-0.0164 0.0119,-0.03202 0.0206,-0.0471 0.13044,-0.0807 0.19474,-0.06826 0.29925,0.05847 v 0 c 0.14817,0.05001 0.30242,0.0021 0.45614,0.03651 0.13705,0.03069 0.21193,-0.08334 0.22886,-0.220133 z"
       id="path13899" />
    <path
       style="fill:#fdaf6e;stroke-width:0.264583"
       d="m 126.7191,66.350859 c 0.0101,5.29e-4 0.0201,0.0016 0.0299,0.0032 0.1016,0.07355 0.12779,0.159544 0.0622,0.275431 -0.0405,0.07144 -0.0378,0.157692 -0.0323,0.23839 0.0164,0.242094 -0.0185,0.281781 -0.24818,0.27014 -0.0302,-0.0016 -0.0614,0.005 -0.0894,-0.01244 -0.0111,-0.0021 -0.022,-0.004 -0.0331,-0.0061 -0.0442,-0.02567 -0.10318,-0.0471 -0.0788,-0.112977 0.0405,-0.108479 -0.0159,-0.164836 -0.0958,-0.219604 -0.11298,-0.07726 -0.10716,-0.119592 -0.0479,-0.2413 0.11827,-0.243946 0.31618,-0.238125 0.5334,-0.194734 z"
       id="path13927" />
    <path
       style="fill:#f2a462;stroke-width:0.264583"
       d="m 126.7191,66.350859 c -0.0635,0.03863 -0.13361,0.04313 -0.20611,0.04683 -0.10927,0.0056 -0.27993,0.151871 -0.29977,0.249503 -0.007,0.0336 0.0156,0.0418 0.0405,0.05344 0.13229,0.06297 0.17356,0.136261 0.14129,0.274902 -0.0124,0.05345 -0.0201,0.09869 0.0135,0.144198 -0.0452,0.0058 -0.0849,-0.01111 -0.12383,-0.03069 -0.054,-0.04498 -0.11297,-0.07594 -0.18335,-0.09313 -0.11721,-0.02858 -0.16431,-0.108743 -0.13282,-0.228335 0.036,-0.13626 -0.0415,-0.25691 -0.0519,-0.386556 0.006,-0.04842 0.0648,-0.05212 0.0786,-0.104775 0.0236,-0.09102 0.14129,-0.116417 0.19341,-0.03889 0.0439,0.06535 0.0775,0.06138 0.13467,0.03757 0.0508,-0.02143 0.10981,-0.02434 0.14843,-0.07091 0.013,-0.01587 0.0243,-0.01482 0.0339,0.0034 0.0201,0.0095 0.0402,0.01879 0.0603,0.02831 0.0161,0.01429 0.0151,0.0381 0.0304,0.05265 v 0 c 0.0405,0.02117 0.0868,0.03016 0.12409,0.05821 z"
       id="path13930" />
    <path
       style="fill:#e59354;stroke-width:0.264583"
       d="m 126.99559,66.444522 c 0.0741,0.02249 0.12462,0.06323 0.13044,0.148166 0.002,0.02858 0.0169,0.05953 0.0341,0.08334 0.0606,0.0844 0.0921,0.167481 0.0259,0.265906 -0.028,0.04181 -0.006,0.07832 0.0413,0.09419 0.019,0.0063 0.0394,0.009 0.0595,0.01217 0.17727,0.02884 0.17727,0.02884 0.0865,0.183356 -0.0844,0.01376 -0.16854,0.01349 -0.25294,-7.94e-4 -0.027,-0.01508 -0.059,0.01111 -0.0852,-0.01058 -0.14817,0.0011 -0.29369,-0.01614 -0.43524,-0.06112 0.1225,-0.05053 0.22331,-0.112977 0.18468,-0.275166 -0.007,-0.02911 0.009,-0.06985 0.027,-0.100013 0.0498,-0.08255 0.10372,-0.161131 0.10002,-0.266171 -10e-4,-0.04127 0.0354,-0.0717 0.0839,-0.07329 z"
       id="path13933" />
    <path
       style="fill:#feb571;stroke-width:0.264583"
       d="m 127.85787,64.716263 c 0.002,-0.01217 0.004,-0.02434 0.006,-0.03651 0.10028,0.125148 0.16854,0.267494 0.22384,0.416983 l 0.002,0.0021 c 0.0357,0.06376 0.0683,0.128323 0.081,0.201348 -0.20188,0.100541 -0.22966,0.190235 -0.11721,0.378354 0.0352,0.05874 0.0328,0.11774 -0.0109,0.170127 -0.041,0.04921 -0.0939,0.059 -0.15028,0.02567 -0.0857,-0.05107 -0.20373,-0.03969 -0.26512,-0.137848 -0.0164,-0.02699 -0.0214,-0.05556 -0.0127,-0.08467 -0.007,-0.0037 0.0246,-0.01879 -0.007,-0.0172 -0.10319,-0.0087 -0.14023,-0.09684 -0.18918,-0.163777 -0.0399,-0.05424 -0.01,-0.111654 0.0474,-0.138906 0.10927,-0.05265 0.18494,-0.132292 0.25453,-0.232304 0.11298,-0.162455 0.127,-0.169863 0.12832,-0.355071 0,-0.01005 0.004,-0.01958 0.0101,-0.02831 z"
       id="path13944" />
    <path
       style="fill:#feb472;stroke-width:0.264583"
       d="m 126.65692,65.311047 c -0.0368,0.06562 -0.0921,0.123296 -0.082,0.208491 0.005,0.03995 -0.0241,0.06615 -0.0553,0.0852 -0.0532,0.03254 -0.10001,0.06747 -0.11932,0.132027 -0.0114,0.03784 -0.0474,0.05106 -0.0844,0.05556 -0.0566,0.0071 -0.1098,0.02275 -0.15266,0.06324 0.0116,0.02672 -0.002,0.03387 -0.0259,0.03334 -0.17833,-0.156104 -0.30956,-0.334963 -0.28046,-0.589757 0.0236,-0.01085 0.0426,-0.0021 0.0603,0.01349 0.0534,0.103188 0.1651,0.123825 0.23627,0.07937 0.13256,-0.08228 0.2831,-0.07594 0.41831,-0.130175 0.0347,0.0061 0.0609,0.02593 0.0852,0.04921 z"
       id="path13946" />
    <path
       style="fill:#f9ac69;stroke-width:0.264583"
       d="m 127.67239,65.703688 c 0.073,0.03651 0.14605,0.07355 0.21934,0.109538 0.0344,0.01693 0.072,0.02461 0.0974,-0.01058 0.0315,-0.04366 0.003,-0.07012 -0.0315,-0.101071 -0.0757,-0.068 -0.0852,-0.143934 -0.0352,-0.228336 0.0259,-0.04392 0.0566,-0.0852 0.087,-0.126471 0.0413,-0.05556 0.0939,-0.07726 0.16087,-0.04657 0.0249,0.02619 0.0336,0.05847 0.0362,0.09313 -0.0169,0.05001 -0.0754,0.08599 -0.0513,0.150019 0.12276,0.120121 0.10266,0.282575 0.11192,0.429154 0.007,0.105304 0.009,0.213783 0.007,0.320675 l -0.003,0.0032 c -0.018,0.0095 -0.0373,0.0172 -0.0534,0.02857 -0.0984,0.06879 -0.1651,0.04445 -0.20373,-0.06694 -0.009,-0.01058 -0.0185,-0.0209 -0.0278,-0.03149 -0.0159,-0.08837 -0.0439,-0.173037 -0.0796,-0.254794 -0.0246,-0.05609 -0.0569,-0.09816 -0.12991,-0.10795 -0.0844,-0.01058 -0.16192,-0.04683 -0.10451,-0.160073 z"
       id="path13967" />
    <path
       style="fill:#b76d20;stroke-width:0.264583"
       d="m 127.1845,66.320961 c 0.13706,0.03625 0.27093,0.03836 0.4072,-0.01323 0.11138,-0.04207 0.22383,0.0016 0.33125,0.03043 0.0672,0.01799 0.0717,0.07567 0.0331,0.198173 -0.0233,0.0032 -0.0442,-0.0019 -0.0627,-0.0164 -0.0966,-0.122238 -0.2323,-0.08863 -0.34607,-0.09155 0.1217,-0.01773 0.23098,0.02619 0.31406,0.134673 0.10186,0.115623 0.15081,0.23786 0.0526,0.382058 -0.0236,0.03466 -0.0278,0.07594 -0.0122,0.117211 -0.0193,0.03625 -0.0492,0.05688 -0.09,0.06165 -0.16246,0.02011 -0.34131,-0.226748 -0.28602,-0.396082 0.0108,-0.03334 0.0331,-0.06297 0.036,-0.09843 -0.004,-0.0095 -0.007,-0.01931 -0.0124,-0.02804 -0.0309,-0.03202 -0.0688,-0.004 -0.10239,-0.01217 -0.0913,-0.01138 -0.17357,-0.03995 -0.23257,-0.115623 l 5.3e-4,-2.65e-4 c -0.0299,-0.0471 -0.0913,-0.08758 -0.0304,-0.1524 z"
       id="path13993" />
    <path
       style="fill:#ea9c5b;stroke-width:0.264583"
       d="m 125.91635,66.381022 c 0.0796,0.01905 0.12859,0.04418 0.12621,0.151871 -0.002,0.102922 0.0397,0.203993 -0.006,0.31115 -0.022,0.05212 0.0384,0.103981 0.0998,0.105039 0.0423,5.29e-4 0.0831,-0.06138 0.12409,-0.0087 0.0294,0.03783 0.008,0.08969 0.0204,0.133614 0.001,0.005 0.002,0.0098 0.003,0.01482 -0.15214,-0.02646 -0.2966,-0.07541 -0.43471,-0.143933 -0.008,-0.05159 -0.0617,-0.05503 -0.0897,-0.08414 -0.0537,-0.05609 -0.10848,-0.123031 0.005,-0.173566 0.11113,-0.04921 0.009,-0.151077 0.059,-0.213255 v 0 c 0.0183,-0.0164 0.0122,-0.04524 0.0315,-0.06112 0.0204,-0.01058 0.0407,-0.02117 0.0608,-0.03175 z"
       id="path14035" />
    <path
       style="fill:#f2a162;stroke-width:0.264583"
       d="m 126.99559,66.444522 c -0.005,0.02487 -0.022,0.06165 -0.0114,0.07302 0.0815,0.08943 0.0167,0.148431 -0.0389,0.207698 -0.0513,0.05477 -0.0855,0.118268 -0.0939,0.190764 -0.0177,0.152136 -0.10213,0.229394 -0.25109,0.242888 -0.0542,-0.0045 -0.11086,0.0013 -0.15875,-0.0336 0.0556,-0.0034 0.11219,-0.0013 0.16669,-0.01138 0.0942,-0.0172 0.14764,-0.08705 0.11695,-0.177007 -0.05,-0.146314 -0.0336,-0.278341 0.0429,-0.407723 0.0373,-0.06297 -0.0214,-0.116152 -0.0188,-0.175418 0.0106,-0.0011 0.0214,-0.0019 0.032,-0.0029 0.0796,0.01217 0.1561,0.03281 0.2151,0.09287 z"
       id="path14057" />
    <path
       style="fill:#feca8e;stroke-width:0.264583"
       d="m 126.57199,65.261834 c -0.0167,0.09366 -0.0881,0.128852 -0.16722,0.123825 -0.0976,-0.0063 -0.177,0.02646 -0.25955,0.06853 -0.1532,0.07832 -0.19765,0.0553 -0.25823,-0.124354 0.0122,-0.01667 -5.3e-4,0.0053 0.007,-0.01323 0.0437,-0.102394 0.13097,-0.1016 0.22066,-0.09657 0.005,-0.09472 0.0418,-0.163512 0.14473,-0.179123 0.12144,0.04974 0.21087,0.143669 0.31247,0.220927 z"
       id="path14082" />
    <path
       style="fill:#f1a365;stroke-width:0.264583"
       d="m 128.27432,66.293445 c -0.0722,-0.08917 -0.14023,-0.1778 -0.0812,-0.304007 0.0151,-0.03228 -0.002,-0.06985 -0.0151,-0.103716 -0.0109,-0.02805 -0.0317,-0.06429 -0.0225,-0.08625 0.0484,-0.118269 -0.0365,-0.165365 -0.10795,-0.221192 0.0593,-0.05212 0.11007,-0.130969 0.20585,-0.06297 0.0444,0.108215 0.0812,0.219075 0.11059,0.332581 0.0421,0.163248 0.0114,0.311415 -0.0897,0.445559 z"
       id="path14095" />
    <path
       style="fill:#eb9e5c;stroke-width:0.264583"
       d="m 126.13728,65.889161 c 0.009,-0.01111 0.0172,-0.02223 0.0259,-0.03334 0.0857,-0.0024 0.15849,0.02858 0.22437,0.08255 0.0722,0.059 0.15531,0.09049 0.24474,0.09604 0.0212,-0.04127 -0.006,-0.05715 -0.0161,-0.07832 -0.009,-0.01932 -0.0161,-0.05292 -0.003,-0.05583 0.0847,-0.01693 0.12303,-0.121179 0.23019,-0.122502 -0.0339,0.144462 -0.11007,0.277283 -0.0315,0.417777 -0.087,-0.05001 -0.17383,-0.110067 -0.26061,5.29e-4 -0.0378,-0.01932 -0.0902,-0.01217 -0.11166,-0.06138 -0.10371,-0.07832 -0.21801,-0.143405 -0.30268,-0.245534 z"
       id="path14099" />
    <path
       style="fill:#fdb373;stroke-width:0.264583"
       d="m 125.73062,65.950809 c -0.0542,0.03122 -0.1143,0.04154 -0.17516,0.05159 -0.10107,0.0164 -0.12038,0.04418 -0.10451,0.142346 0.002,0.01508 0.007,0.02963 0.0106,0.04471 0.0111,0.04762 0.0677,0.09578 0.0275,0.141552 -0.0386,0.04366 -0.0971,0.07117 -0.15002,0.100013 -0.027,0.01455 -0.0616,0.01058 -0.0857,-0.01323 -0.0278,-0.02752 -0.019,-0.05794 0.007,-0.07964 0.0415,-0.03519 0.0318,-0.06826 0.006,-0.106362 -0.027,-0.03969 -0.0278,-0.08678 -0.0302,-0.132821 0.14499,-0.206111 0.31009,-0.255323 0.49504,-0.148167 z"
       id="path14105" />
    <path
       style="fill:#fdbf7a;stroke-width:0.264583"
       d="m 127.28055,64.061684 c -0.0561,0.144198 -0.1278,0.179388 -0.25242,0.107156 -0.0817,-0.04736 -0.15372,-0.04101 -0.23257,-0.0034 -0.0645,0.03069 -0.13123,0.05741 -0.19685,0.08599 -0.002,-0.02037 -0.005,-0.04075 -0.007,-0.06112 0.006,-0.03545 0.0196,-0.0672 0.0447,-0.09393 0.0751,-0.07964 0.17886,-0.127265 0.23998,-0.225425 0.0222,-0.03572 0.0786,-0.03784 0.12488,-0.02593 0.10504,0.05636 0.195,0.133086 0.27967,0.216694 z"
       id="path14114" />
    <path
       style="fill:#fdd29a;stroke-width:0.264583"
       d="m 126.25978,65.041172 c -0.023,0.04551 -0.0553,0.08678 -0.0646,0.138906 -0.009,0.04868 -0.003,0.06879 0.0529,0.04075 0.0257,-0.01296 0.0355,0.01931 0.0238,0.03625 -0.0365,0.05318 -0.10424,0.106362 -0.1516,0.07408 -0.0868,-0.05953 -0.15637,-0.005 -0.2331,-0.0011 -0.01,-0.01032 -0.0201,-0.02037 -0.0302,-0.03069 -8e-4,-0.01508 -0.003,-0.03016 -0.002,-0.04498 0.0286,-0.264054 0.1651,-0.335756 0.40454,-0.213254 z"
       id="path14120" />
    <path
       style="fill:#9ba78f;stroke-width:0.264583"
       d="m 128.45053,67.110213 c 0.0418,0.11774 -0.0429,0.156369 -0.12382,0.197115 -0.10081,-0.06641 -0.19341,-0.142875 -0.27967,-0.226748 -0.0315,-0.155046 -0.004,-0.202142 0.12436,-0.210344 0.0998,0.07197 0.19314,0.151607 0.27913,0.239977 z"
       id="path14127" />
    <path
       style="fill:#fbcd95;stroke-width:0.264583"
       d="m 127.00062,63.844726 c -0.022,0.02064 -0.0582,0.03784 -0.0635,0.06191 -0.0405,0.188384 -0.20585,0.219869 -0.34581,0.283369 -0.0384,-0.177006 0.0291,-0.328083 0.18071,-0.405871 0.0942,-0.04815 0.16298,5.29e-4 0.2286,0.06059 z"
       id="path14133" />
    <path
       style="fill:#e29857;stroke-width:0.264583"
       d="m 126.80588,64.778176 c 0.0249,0.0061 0.0503,0.01852 0.0746,0.01693 0.0937,-0.0061 0.14366,0.04366 0.16854,0.125677 0.0333,0.109802 0.0796,0.209815 0.17383,0.283634 0.0368,0.02884 0.0413,0.08123 0.0519,0.126206 0.003,0.01852 -2.6e-4,0.03572 -0.0122,0.05054 -0.005,0.0032 -0.0103,0.0061 -0.0156,0.0093 -0.17303,-0.185209 -0.33364,-0.379413 -0.44106,-0.612246 z"
       id="path14186" />
    <path
       style="fill:#e69856;stroke-width:0.264583"
       d="m 127.39855,65.763749 c -0.17489,-0.05212 -0.34951,-0.10504 -0.5244,-0.156104 -0.0249,-0.0074 -0.0519,-0.01006 -0.0558,-0.04101 -0.003,-0.02752 0.0138,-0.04762 0.032,-0.06615 0.0312,-0.03201 0.0783,-0.01931 0.11324,-0.04048 0.11351,0.03043 0.22728,0.06085 0.34079,0.09128 0.0103,0.0093 0.0201,0.01905 0.0291,0.02963 0.0193,0.06191 0.10742,0.09922 0.0651,0.182827 z"
       id="path14194" />
    <path
       style="fill:#a9630d;stroke-width:0.264583"
       d="m 127.90152,67.062059 c -0.10636,-0.04868 -0.082,-0.153987 -0.0455,-0.206639 0.0738,-0.105569 0.0196,-0.177007 -0.0246,-0.259027 0.01,-0.05159 0.0108,-0.11139 0.0915,-0.09128 0.0109,0.01032 0.022,0.0209 0.0328,0.03122 0,0 0,-5.29e-4 0,-5.29e-4 -0.0278,0.06985 0.0434,0.102129 0.059,0.15584 0.0138,0.04577 0.0492,0.0762 0.0791,0.110331 -0.0143,0.09472 -0.0249,0.191823 -0.13811,0.225689 -0.018,0.01138 -0.0362,0.02302 -0.0542,0.0344 z"
       id="path14213" />
    <path
       style="fill:#c2782f;stroke-width:0.264583"
       d="m 127.64673,66.56623 c 0.0238,0.009 0.0513,0.01296 0.0706,0.02778 0.0384,0.0291 0.0384,0.06562 -0.0122,0.07594 -0.0511,0.01058 -0.10319,0.0095 -0.12462,0.06932 -0.0222,0.06218 -0.0124,0.127793 0.0169,0.178593 0.0503,0.08652 0.10107,0.180446 0.21378,0.205582 -0.0447,0.04022 -0.0968,0.06191 -0.15769,0.06165 -0.0474,-0.0071 -0.091,-0.02037 -0.0857,-0.08096 0.004,-0.05318 -0.009,-0.09843 -0.0452,-0.137319 -0.13044,-0.08043 -0.0661,-0.210079 -0.0627,-0.312737 0.003,-0.09472 0.11854,-0.06668 0.1868,-0.08784 z"
       id="path14226" />
    <path
       style="fill:#e89d59;stroke-width:0.264583"
       d="m 126.69,64.281288 c 0.0505,-0.04842 0.10953,-0.06959 0.18891,-0.06165 -0.005,0.05689 -0.0439,0.110067 0.0365,0.155311 0.0706,0.03969 0.054,0.08334 -0.0413,0.183356 l -2.7e-4,2.65e-4 c -0.0992,0.01243 -0.0886,0.09208 -0.0976,0.159808 -0.046,-0.05609 -0.0725,-0.121444 -0.0884,-0.191294 0.0127,-0.08202 0.045,-0.163512 0.002,-0.245798 z"
       id="path14268" />
    <path
       style="fill:#e59a5c;stroke-width:0.264583"
       d="m 128.25342,65.515305 c -0.0553,0.06509 -0.12409,0.08572 -0.20585,0.06297 0.0132,-0.168804 0.0278,-0.185738 0.15902,-0.184679 0.0336,0.0336 0.0344,0.0799 0.0468,0.121708 z"
       id="path14336" />
    <path
       style="fill:#d78e4a;stroke-width:0.264583"
       d="m 126.69,64.281288 c 0.0331,0.0037 0.0897,-0.02196 0.0934,0.0172 0.006,0.0598 0.046,0.130704 -0.0164,0.184679 -0.0222,0.01932 -0.0526,0.02937 -0.0794,0.04366 -0.0368,-0.0545 -0.0582,-0.114565 -0.064,-0.180182 0.004,-0.03995 0.0418,-0.04524 0.0654,-0.06535 z"
       id="path14342" />
    <path
       style="fill:#8a9578;stroke-width:0.264583"
       d="m 127.95576,67.027399 c 0.046,-0.07541 0.0921,-0.150813 0.13811,-0.225954 0.0373,0.01005 0.0579,0.03889 0.0775,0.06853 -0.0897,0.04154 -0.0952,0.133085 -0.12436,0.210343 -0.0304,-0.01746 -0.0609,-0.03519 -0.0913,-0.05292 z"
       id="path14398" />
    <path
       style="fill:#f1a365;stroke-width:0.264583"
       d="m 128.01423,66.258255 c 0.0442,0.03731 0.0881,0.0635 0.15161,0.03916 0.031,-0.01164 0.0701,-0.0013 0.10557,-7.93e-4 -0.005,0.009 -0.0101,0.01826 -0.0151,0.02725 -0.0471,0.03228 -0.0955,0.06297 -0.10954,0.124089 l -0.003,0.0029 c -0.0561,0.0098 -0.0701,-0.03836 -0.0963,-0.06959 l -2.7e-4,-5.29e-4 c -0.0188,-0.0164 -0.0122,-0.04471 -0.0291,-0.06218 -0.001,-0.02011 -0.003,-0.04022 -0.004,-0.06032 z"
       id="path14424" />
    <path
       style="fill:#e29857;stroke-width:0.264583"
       d="m 127.36495,65.521126 c -0.0421,-0.04101 -0.0892,-0.07779 -0.11801,-0.13044 0,0 0.008,-0.0082 0.008,-0.0082 0.13838,-0.05583 0.16193,-0.03598 0.15558,0.131234 -0.0135,0.01243 -0.0286,0.01508 -0.0455,0.0074 z"
       id="path14439" />
    <path
       style="fill:#e19155;stroke-width:0.264583"
       d="m 128.04784,66.381286 c 0.032,0.02328 0.0643,0.0463 0.0963,0.06959 -0.0286,0.05371 -0.0871,0.0762 -0.12595,0.119327 -0.001,-0.06456 0.0492,-0.121444 0.0296,-0.188913 z"
       id="path14452" />
    <path
       style="fill:#b76d20;stroke-width:0.264583"
       d="m 128.01503,66.691378 c -0.10663,-0.05821 -0.10663,-0.05821 -0.059,-0.15584 0.0198,0.0217 0.0394,0.04313 0.0593,0.06482 -2.6e-4,0.03043 -2.6e-4,0.06085 -2.6e-4,0.09102 z"
       id="path14453" />
    <path
       style="fill:#e19155;stroke-width:0.264583"
       d="m 128.14679,66.447961 c -0.005,-0.07779 0.0392,-0.112712 0.10954,-0.124354 -0.0225,0.05398 -0.0601,0.09446 -0.10954,0.124354 z"
       id="path14470" />
    <path
       style="fill:#d68645;stroke-width:0.264583"
       d="m 127.03528,67.22028 c 0.0286,0.0026 0.0651,-0.05821 0.0852,0.01058 -0.0302,0.0085 -0.059,0.01005 -0.0852,-0.01058 z"
       id="path14482" />
    <path
       style="fill:#e89d59;stroke-width:0.264583"
       d="m 126.6892,64.281553 c -0.0217,0.0217 -0.0436,0.04339 -0.0653,0.06535 -0.0188,-0.01746 -0.0243,-0.03916 -0.0209,-0.06403 0.0288,-5.29e-4 0.0574,-7.94e-4 0.0862,-0.0013 z"
       id="path14491" />
    <path
       style="fill:#628da7;stroke-width:0.264583"
       d="m 126.43996,66.134959 c 0.0429,0.01032 0.0799,0.03069 0.11166,0.06138 -0.0153,0.0037 -0.031,0.0074 -0.0463,0.01111 -0.0111,-0.0011 -0.0225,-0.0024 -0.0339,-0.0034 -0.0217,-0.01138 -0.0431,-0.02275 -0.0648,-0.0344 0.0111,-0.01164 0.0222,-0.02328 0.0333,-0.03466 z"
       id="path14495" />
    <path
       style="fill:#8f8479;stroke-width:0.264583"
       d="m 127.36495,65.521126 c 0.01,-2.65e-4 0.0193,5.29e-4 0.0288,0.0021 0.0119,0.0095 0.0183,0.02196 0.0177,0.03731 -0.0108,0.0336 -0.0355,0.04418 -0.0683,0.04022 -0.0143,-0.0053 -0.0249,-0.01455 -0.032,-0.02804 -0.002,-0.0071 -0.004,-0.01429 -0.007,-0.02143 0.0206,-0.0095 0.0466,-0.0077 0.0606,-0.03016 z"
       id="path14501" />
    <path
       style="fill:#f8ac69;stroke-width:0.264583"
       d="m 127.86448,64.68028 c -0.0304,-0.0087 -0.0508,-0.02355 -0.036,-0.05953 0.0201,0.01482 0.0349,0.03307 0.036,0.05953 z"
       id="path14506" />
    <path
       style="fill:#e89d59;stroke-width:0.264583"
       d="m 126.7744,64.713882 c 0.0114,0.02196 0.0225,0.04392 0.0336,0.06588 -0.0251,-0.01482 -0.0318,-0.03916 -0.0336,-0.06588 z"
       id="path14525" />
    <path
       style="fill:#f8ac69;stroke-width:0.264583"
       d="m 128.08964,65.099115 c 0,0 -0.002,-0.0024 -0.002,-0.0024 z"
       id="path14613" />
    <path
       style="fill:#ed9b5c;stroke-width:0.264583"
       d="m 127.49697,66.011928 c 0.0209,0.05212 0.0482,0.100277 0.0825,0.145521 0.0471,0.06191 0.0397,0.07885 -0.0354,0.105569 -0.0286,0.01032 -0.059,0.02117 -0.0889,0.02117 -0.21855,7.94e-4 -0.4355,-0.01164 -0.6432,-0.08863 0.0452,-0.0045 0.0937,-2.65e-4 0.1352,-0.01535 0.0749,-0.02699 0.14605,-0.03598 0.22199,-0.0064 0.0468,0.01826 0.0788,0.0056 0.0802,-0.05318 0.002,-0.06429 0.0193,-0.09525 0.0942,-0.05953 0.0572,0.02752 0.10001,-0.0381 0.15345,-0.04921 z"
       id="path14976" />
    <path
       style="fill:#dd8d4c;stroke-width:0.264583"
       d="m 127.31124,65.572455 c 0.009,0.0013 0.0175,0.0037 0.0257,0.0077 0.063,0.05292 0.13123,0.06879 0.2077,0.03069 0.0214,5.29e-4 0.0413,0.0079 0.0619,0.01191 0.0151,0 0.0262,0.0069 0.0336,0.01984 0.0108,0.02037 0.0214,0.04074 0.032,0.06112 0.0167,0.03942 0.0471,0.06826 0.0828,0.08731 0.17516,0.09393 0.22119,0.254794 0.23098,0.435769 -0.027,-0.06641 -0.0532,-0.13335 -0.0815,-0.199232 -0.0577,-0.135202 -0.0699,-0.137848 -0.19711,-0.04842 -0.0296,0.02858 -0.0603,0.02514 -0.091,0.0021 -0.022,0.0093 -0.0439,0.01852 -0.0659,0.02778 0.01,-0.119592 -0.0262,-0.210344 -0.15214,-0.245534 -0.0225,-0.02037 -0.0434,-0.04339 -0.0683,-0.06033 -0.0548,-0.03757 -0.0524,-0.08123 -0.0188,-0.130704 z"
       id="path14977" />
    <path
       style="fill:#feb671;stroke-width:0.264583"
       d="m 126.87388,64.558307 c 0.14288,-0.02487 0.24897,-0.111389 0.33734,-0.217223 0.0389,-0.04657 0.0717,-0.08837 0.13547,-0.08149 0.0648,0.0069 0.0945,0.0545 0.11351,0.111389 0.01,0.0291 0.0228,0.05715 0.0362,0.08467 0.0675,0.1397 0.0688,0.141023 -0.0524,0.238125 -0.0421,0.0336 -0.0656,0.07752 -0.0918,0.121444 -0.0103,0.0172 -0.0254,0.03228 -0.0405,0.04577 -0.0265,0.02355 -0.0548,0.04524 -0.077,0.0635 -0.0418,-0.0019 -0.05,-0.02752 -0.0577,-0.05159 -0.0249,-0.07726 -0.0802,-0.111125 -0.15742,-0.128059 -0.13256,-0.0291 -0.14103,-0.04445 -0.14579,-0.186531 z"
       id="path14988" />
    <path
       style="fill:#f8ac69;stroke-width:0.264583"
       d="m 127.61842,65.634103 c -0.0214,0.0016 -0.0431,0.0032 -0.0646,0.0048 -0.0953,0.04048 -0.12224,-0.02804 -0.15055,-0.09446 -0.004,-0.0069 -0.007,-0.01402 -0.01,-0.02117 -0.0188,-0.124355 -0.0188,-0.124355 -0.13891,-0.141023 0.007,-0.0172 0.0132,-0.0344 0.0198,-0.05159 0.0355,-0.05556 0.0685,-0.109008 0.1405,-0.131233 0.0878,-0.02699 0.1225,-0.09366 0.12038,-0.188384 -0.004,-0.176741 0.0333,-0.214312 0.20294,-0.178858 0.1188,0.02487 0.0796,-0.07885 0.11933,-0.116152 7.9e-4,0.06535 0.0362,0.115358 0.0696,0.16801 0.041,0.06509 0.0804,0.132821 0.0913,0.210873 0.007,0.05424 -0.0251,0.07488 -0.0751,0.05186 -0.11906,-0.0545 -0.12091,-0.05556 -0.18679,0.04816 -0.0574,0.09049 -0.13759,0.15187 -0.23443,0.191823 -0.0585,0.02408 -0.0677,0.05503 -0.0286,0.105039 0.0352,0.04498 0.0733,0.08625 0.1225,0.115888 0.006,0.0053 0.009,0.01111 0.007,0.01693 -0.002,0.0066 -0.003,0.0095 -0.005,0.0095 z"
       id="path14989" />
    <path
       style="fill:#f3a465;stroke-width:0.264583"
       d="m 125.8555,66.412772 c -0.0106,0.02037 -0.0209,0.04075 -0.0315,0.06112 0.0106,-0.02037 0.0209,-0.04075 0.0315,-0.06112 z"
       id="path15033" />
    <path
       style="fill:#cb7c38;stroke-width:0.264583"
       d="m 127.64673,66.56623 c -0.14393,0.115358 -0.14393,0.115358 -0.12409,0.401108 -0.0101,5.3e-4 -0.0204,5.3e-4 -0.0307,0.0016 -0.16484,0.01535 -0.16669,0.01482 -0.12542,-0.142875 0.0119,-0.04524 -0.007,-0.06932 -0.0384,-0.0889 -0.10001,-0.06165 -0.12568,-0.154517 -0.11456,-0.264054 0.0921,0.01111 0.18441,0.02249 0.27649,0.0336 0.0405,0.04895 0.10847,0.02619 0.15504,0.059 z"
       id="path15125" />
    <path
       style="fill:#cb7a39;stroke-width:0.264583"
       d="m 127.61657,65.981236 c 0.0304,-7.93e-4 0.0609,-0.0013 0.091,-0.0021 0.04,0.0093 0.0807,0.01561 0.11933,0.02884 0.0392,0.01376 0.0495,0.05001 0.0484,0.08758 -10e-4,0.03757 -0.032,0.04736 -0.0617,0.05821 -0.12673,0.04683 -0.20426,-0.0209 -0.19711,-0.172509 z"
       id="path15126" />
    <path
       style="fill:#c87735;stroke-width:0.264583"
       d="m 127.1845,66.320961 c 0.0101,0.05054 0.0201,0.101336 0.0299,0.151871 -0.0733,-0.03493 -0.14182,-0.07514 -0.18547,-0.158485 0.0601,-0.02487 0.10742,0.0077 0.15557,0.0066 z"
       id="path15127" />
    <path
       style="fill:#e59354;stroke-width:0.264583"
       d="m 126.99612,66.443993 c -0.0786,-0.01508 -0.1442,-0.06006 -0.21511,-0.09287 0.0865,-0.0034 0.16801,0.0053 0.21511,0.09287 z"
       id="path15128" />
    <path
       style="fill:#e59354;stroke-width:0.264583"
       d="m 126.71989,66.346626 c -0.0479,-0.0056 -0.0897,-0.02381 -0.12409,-0.05821 0.0498,0.0019 0.0929,0.01773 0.12409,0.05821 z"
       id="path15129" />
    <path
       style="fill:#e59354;stroke-width:0.264583"
       d="m 126.59607,66.288418 c -0.0101,-0.01773 -0.0204,-0.03519 -0.0304,-0.05292 0.0101,0.01773 0.0201,0.03519 0.0304,0.05292 z"
       id="path15130" />
    <path
       style="fill:#e19155;stroke-width:0.264583"
       d="m 128.01847,66.31858 c 0.01,0.02064 0.0193,0.04154 0.0291,0.06218 -0.01,-0.02064 -0.0196,-0.04154 -0.0291,-0.06218 z"
       id="path15131" />
    <path
       style="fill:#ffc381;stroke-width:0.264583"
       d="m 127.61842,65.634103 c -8e-4,-0.0087 -0.002,-0.01746 -0.002,-0.02619 5.3e-4,-0.01005 -0.001,-0.0209 0.002,-0.0299 0.0159,-0.0471 -0.0175,-0.132821 0.058,-0.131762 0.0672,7.94e-4 0.0984,0.07911 0.12276,0.138641 0.0161,0.03995 -0.013,0.06906 -0.0542,0.07091 -0.0344,0.0016 -0.0696,-0.0082 -0.10424,-0.01297 -0.007,-0.0024 -0.0148,-0.005 -0.022,-0.0087 z"
       id="path15191" />
    <path
       style="fill:#a05304;stroke-width:0.264583"
       d="m 127.92322,66.505111 c -0.027,0.03413 -0.0455,0.07673 -0.0915,0.09128 -0.11668,-0.06588 -0.23283,-0.130705 -0.37385,-0.129911 -0.0386,2.65e-4 -0.0812,-0.01376 -0.0998,-0.07594 0.16616,0.0066 0.31988,-0.07488 0.48498,-0.02778 0.0884,0.0254 0.0937,0.03334 0.0802,0.142346 z"
       id="path15260" />
    <path
       style="fill:#c2782f;stroke-width:0.264583"
       d="m 127.64567,66.565965 c -0.0598,0.0019 -0.13097,0.03281 -0.15505,-0.059 0.0593,-2.64e-4 0.11166,0.01746 0.15505,0.059 z"
       id="path15261" />
    <path
       style="fill:#cb7938;stroke-width:0.264583"
       d="m 127.40331,65.544409 c 0.0624,0.01217 0.10769,0.05133 0.15055,0.09446 -0.005,0.04895 -0.0304,0.07038 -0.0812,0.06324 -0.0733,-0.01032 -0.11721,-0.05159 -0.13599,-0.121973 0.0265,-0.0045 0.0511,-0.01164 0.0667,-0.03572 z"
       id="path15417" />
  </g>
</svg>
