<?xml version="1.0" encoding="UTF-8" standalone="no"?>
<!-- Created with Inkscape (http://www.inkscape.org/) -->

<svg
   width="210mm"
   height="297mm"
   viewBox="0 0 210 297"
   version="1.1"
   id="svg1"
   inkscape:version="1.4 (86a8ad7, 2024-10-11)"
   sodipodi:docname="cvet8.svg"
   xmlns:inkscape="http://www.inkscape.org/namespaces/inkscape"
   xmlns:sodipodi="http://sodipodi.sourceforge.net/DTD/sodipodi-0.dtd"
   xmlns="http://www.w3.org/2000/svg"
   xmlns:svg="http://www.w3.org/2000/svg">
  <sodipodi:namedview
     id="namedview1"
     pagecolor="#505050"
     bordercolor="#eeeeee"
     borderopacity="1"
     inkscape:showpageshadow="0"
     inkscape:pageopacity="0"
     inkscape:pagecheckerboard="0"
     inkscape:deskcolor="#505050"
     inkscape:document-units="mm"
     inkscape:zoom="0.72604517"
     inkscape:cx="396.66953"
     inkscape:cy="561.25984"
     inkscape:window-width="1920"
     inkscape:window-height="1017"
     inkscape:window-x="-8"
     inkscape:window-y="-8"
     inkscape:window-maximized="1"
     inkscape:current-layer="layer1" />
  <defs
     id="defs1" />
  <g
     inkscape:label="Layer 1"
     inkscape:groupmode="layer"
     id="layer1">
    <path
       style="fill:#ffb972;stroke-width:0.264583"
       d="m 79.764043,107.56474 c -0.0066,0.15425 -0.05503,0.29871 -0.105304,0.44265 0.004,0.0349 0.0164,0.0743 -0.01614,0.10027 -0.151871,0.12198 -0.259556,0.2847 -0.392906,0.42387 -0.04286,0.0447 -0.09737,0.0728 -0.150283,0.10345 -0.123825,0.003 -0.250825,0.0712 -0.370417,-0.0169 -0.01164,-0.01 -0.02037,-0.0214 -0.02646,-0.0352 -0.01191,-0.26776 -0.01217,-0.26803 0.153458,-0.48525 0.03784,-0.0497 0.059,-0.10769 0.07858,-0.16563 0.02196,-0.0651 0.06826,-0.10689 0.114565,-0.1561 0.11086,-0.11748 0.170656,-0.28284 0.33655,-0.35005 0.01878,-0.007 0.01693,-0.0463 0.02064,-0.072 0.0034,-0.0164 0.01058,-0.0304 0.0209,-0.0437 0.03043,-0.0333 0.068,-0.0481 0.112448,-0.046 0.01587,0.001 0.03096,0.006 0.04471,0.0143 0.08017,0.0479 0.0717,0.15663 0.143933,0.21061 0.0209,0.0209 0.0299,0.0474 0.03572,0.0757 z"
       id="path13798" />
    <path
       style="fill:#f9b069;stroke-width:0.264583"
       d="m 79.451306,107.3491 c -0.0029,0.0503 0.04313,0.0791 0.05609,0.12356 -0.02831,0.0466 -0.09207,0.0429 -0.120121,0.091 -0.02461,0.0426 0.02143,0.0865 -7.93e-4,0.12832 -0.07435,-0.014 -0.05345,-0.12647 -0.114565,-0.11483 -0.08361,0.0161 -0.0254,0.10557 -0.05001,0.15796 -0.02699,0.0579 -0.05318,0.11324 -0.122767,0.12594 -0.05397,0.01 -0.08599,0.0455 -0.08863,0.0931 -0.0079,0.13917 -0.108744,0.20373 -0.207963,0.26564 -0.07646,0.0476 -0.115623,0.0923 -0.06482,0.18362 0.03096,0.0556 0.01932,0.12012 0.0032,0.18097 -0.02117,0.0204 -0.01243,0.0452 -0.01111,0.0693 -0.0013,-0.0238 -0.01005,-0.0489 0.01085,-0.0693 0.118533,0.0479 0.2286,0.002 0.339989,-0.0307 0.03519,0.0545 0.0172,0.10848 -0.02831,0.1352 -0.128058,0.0751 -0.240242,0.19262 -0.408781,0.17304 -0.02646,-0.007 -0.0463,-0.0228 -0.05953,-0.0463 -0.0127,-0.0312 -0.0127,-0.0646 -0.01799,-0.0971 -0.01244,-0.0415 -0.009,-0.0834 0.01587,-0.11774 0.05424,-0.0757 0.05212,-0.15267 0.01085,-0.23072 -0.02328,-0.0439 -0.03625,-0.09 0.0011,-0.127 0.151606,-0.15002 0.126206,-0.33681 0.114035,-0.52149 0.0254,-0.15425 0.10504,-0.28258 0.194734,-0.40587 0.08943,-0.0291 0.120385,-0.10372 0.144462,-0.18415 l 0.0032,-0.003 c 0.01244,-0.009 0.02381,-0.0185 0.02963,-0.0331 l -0.0048,0.006 c 0.01561,-0.009 0.02937,-0.0204 0.03519,-0.0386 l -0.0032,-7.9e-4 c 0.166687,0.0119 0.0717,0.13229 0.09287,0.21061 0.09234,-0.0204 0.178594,0.006 0.251355,0.0765 z"
       id="path13850" />
    <path
       style="fill:#e59a54;stroke-width:0.264583"
       d="m 78.617074,108.708 c 5.3e-4,0.0304 0.0011,0.0609 0.0016,0.0913 -0.0021,0.007 -0.0042,0.0138 -0.0063,0.0206 -0.02302,0.13256 0.02963,0.25533 0.04895,0.38233 -0.0011,0.0143 -0.004,0.0283 -0.0087,0.0418 -0.02778,0.0397 -0.07064,0.0677 -0.08837,0.11456 -0.0064,0.0103 -0.01217,0.0212 -0.0172,0.032 -0.0026,0.0114 -0.0048,0.023 -0.0058,0.0347 -5.29e-4,0.006 -0.0011,0.0116 -0.0016,0.0175 -7.93e-4,0.006 -0.0016,0.0116 -0.0024,0.0175 -0.0016,0.006 -0.0032,0.0114 -0.0048,0.0172 -0.009,0.0228 -0.01693,0.046 -0.02355,0.0698 -0.0034,0.0127 -0.0079,0.0249 -0.01296,0.0368 -0.01508,0.0381 -0.03016,0.0757 -0.05027,0.11139 -0.0069,0.0124 -0.01561,0.0233 -0.02619,0.0328 -0.01191,0.008 -0.02514,0.013 -0.03942,0.0151 -0.01482,-0.002 -0.02699,-0.008 -0.03651,-0.0193 -0.145785,-0.15451 -0.229923,-0.34184 -0.287337,-0.54319 -0.03731,-0.1098 0.02328,-0.2151 0.01402,-0.32358 0.05292,-0.0659 0.106891,-0.045 0.15822,0.001 0.04286,0.0384 0.07964,0.0444 0.111655,-0.0106 0.0011,-0.0127 0.0053,-0.0243 0.01005,-0.0357 0.0045,-0.0116 0.01111,-0.0222 0.01799,-0.0326 0.005,-0.0116 0.01164,-0.0225 0.01799,-0.0331 0.03149,-0.0701 -0.04895,-0.10187 -0.0545,-0.15902 -0.0045,-0.0143 -0.0085,-0.0286 -0.01217,-0.0431 -0.0042,-0.0236 5.29e-4,-0.0463 0.0026,-0.0696 0.0011,-0.0164 0.0024,-0.0323 0.0034,-0.0487 7.93e-4,-0.0172 0.0058,-0.0328 0.01482,-0.0474 0.01111,-0.0135 0.02355,-0.0249 0.03757,-0.0349 0.06535,-0.0265 0.129117,0.004 0.191823,0.0119 0.07752,0.01 0.115623,0.17066 0.07832,0.30004 -0.0056,0.0198 -0.02011,0.0354 -0.03096,0.0524 z"
       id="path13888" />
    <path
       style="fill:#f3ab63;stroke-width:0.264583"
       d="m 79.451306,107.3491 c -0.06932,0.11748 -0.126471,0.01 -0.189707,-0.0114 -0.04339,0.022 -0.02037,0.0762 -0.05001,0.10504 -0.03545,0.0341 -0.07779,0.0606 -0.12356,0.0352 -0.0471,-0.0262 -0.02566,-0.0696 -0.0071,-0.10795 0.04762,-0.0992 0.07435,-0.20056 0.02593,-0.30798 0.114565,-0.14473 0.24765,-0.26908 0.405342,-0.36645 0.0889,0.0304 0.156368,0.086 0.196585,0.17198 0.01773,0.0384 0.03969,0.0696 0.08784,0.0675 0.03466,0.12991 0.03201,0.26009 0,0.39 -0.07435,0.0145 -0.148167,0.007 -0.221721,-0.007 -0.01005,2.6e-4 -0.02037,5.3e-4 -0.03069,5.3e-4 -0.02513,0.0288 -0.06879,7.9e-4 -0.09287,0.031 z"
       id="path13902" />
    <path
       style="fill:#dd904e;stroke-width:0.264583"
       d="m 78.092406,108.86199 c 0.02884,0.0291 0.06059,0.0558 0.08572,0.0878 0.06376,0.0818 0.04207,0.13838 -0.06218,0.15478 -0.05027,0.008 -0.04974,0.0437 -0.0598,0.0767 -0.134144,-0.30268 -0.20029,-0.62335 -0.247386,-0.94853 -0.05556,-0.38391 0.0024,-0.75697 0.119592,-1.12262 0.02937,-0.0918 0.05768,-0.1868 0.13335,-0.25586 0.08228,0.0238 0.04127,0.0855 0.04392,0.136 0.0026,0.0542 5.29e-4,0.10874 0.01032,0.16272 0.0048,0.0148 0.0061,0.0299 0.0053,0.0452 -0.01826,0.15928 -0.139171,0.27993 -0.157956,0.44477 -0.01085,0.0942 0.02064,0.177 0.04551,0.24632 0.05953,0.16484 -0.0058,0.32967 0.03678,0.48895 0.06879,0.10028 0.02858,0.23257 0.103982,0.33602 0.02752,0.0378 -0.02963,0.10002 -0.05715,0.14764 z"
       id="path13904" />
    <path
       style="fill:#f6af66;stroke-width:0.264583"
       d="m 79.975974,108.15211 c -0.05953,0.0257 -0.0725,0.0815 -0.08863,0.13574 -0.0299,0.10054 -0.06562,0.19499 -0.188648,0.21642 -0.03704,0.006 -0.06297,0.0355 -0.07064,0.0738 -0.01138,0.0558 -0.05688,0.0799 -0.09366,0.1151 -0.08308,0.0796 -0.1651,0.14155 -0.288925,0.0902 -0.01879,-0.008 -0.04868,0.0103 -0.07329,0.0167 -0.08414,-0.0709 -0.02593,-0.14499 0.02011,-0.18468 0.145256,-0.12568 0.251618,-0.28019 0.368564,-0.42863 0.068,-0.0862 0.180181,-0.1397 0.259027,-0.22436 0.133615,-0.10292 0.278871,-0.18627 0.431536,-0.25718 0.107685,0.0627 0.02011,0.14658 0.02408,0.22067 -0.0011,0.0145 -0.0021,0.0291 -0.0026,0.0439 0.01111,0.0873 0.02037,0.17594 -0.08493,0.2151 -0.07461,0.0278 -0.154517,0.0643 -0.211932,-0.0328 z"
       id="path13905" />
    <path
       style="fill:#f0a560;stroke-width:0.264583"
       d="m 77.998479,108.40056 c -0.03202,-0.036 -0.05636,-0.0783 -0.04207,-0.12594 0.0508,-0.17092 -0.02143,-0.33047 -0.04101,-0.49477 -0.01693,-0.14182 -0.04974,-0.28655 0.08149,-0.399 0.02513,-0.0214 0.02752,-0.0556 0.01455,-0.0857 -0.02593,-0.0606 0.01138,-0.0963 0.04815,-0.13309 0.06853,0.046 0.121179,0.0984 0.21934,0.0214 0.07303,-0.0574 0.118269,0.0408 0.152135,0.10346 0.02328,0.0614 0.0344,0.12462 0.02434,0.1905 -0.0254,0.0426 -0.03651,0.0847 0.0058,0.12409 0.01217,0.0362 0.01296,0.0733 0.005,0.11033 0.02275,0.0913 0.01773,0.18415 0.0048,0.27464 -0.0085,0.0587 -0.05556,0.096 -0.11721,0.10795 -0.100013,-0.006 -0.130969,-0.0802 -0.125677,-0.15849 0.0063,-0.0982 -0.01773,-0.17066 -0.08176,-0.20029 0.06271,0.10795 0.119062,0.2413 0.04895,0.39608 -0.0013,0.0143 -0.0058,0.0278 -0.0127,0.0402 -0.0079,0.0109 -0.0172,0.0212 -0.02672,0.0307 -0.02328,0.0227 -0.04445,0.0474 -0.06191,0.0749 -0.0056,0.0116 -0.01032,0.0235 -0.01429,0.0357 -0.0021,0.013 -0.0042,0.0257 -0.0063,0.0386 -0.0034,0.013 -0.0098,0.0243 -0.01852,0.0344 -0.01693,0.0135 -0.03598,0.0169 -0.05636,0.0143 z"
       id="path13915" />
    <path
       style="fill:#e59a54;stroke-width:0.264583"
       d="m 79.81987,107.96241 c -0.05265,0.0971 -0.101071,0.1905 -0.195262,0.26432 -0.07964,0.0624 -0.121973,0.17224 -0.181505,0.26061 -0.0254,0.0376 -0.04445,0.0852 -0.08996,0.10081 -0.103981,0.0354 -0.144462,0.12091 -0.18071,0.21219 l 2.64e-4,-2.6e-4 c -0.004,0.003 -0.0071,0.008 -0.01164,0.009 -0.203994,0.0437 -0.206904,0.0508 -0.101071,0.23283 0.0053,0.0593 7.94e-4,0.11272 -0.07382,0.12462 -0.0852,-0.0436 -0.166952,-0.0905 -0.264319,-0.11139 -0.114035,-0.0246 -0.133085,-0.11112 -0.09234,-0.21352 0.0066,-0.004 0.01323,-0.007 0.01984,-0.0111 0.09366,-0.0508 0.185208,-0.1061 0.281252,-0.15134 0.06271,-0.0294 0.112712,-0.0683 0.150018,-0.12541 0.11139,-0.041 0.16854,-0.13944 0.240771,-0.22331 0.101865,-0.11827 0.209286,-0.23178 0.337344,-0.32306 0.07117,0.0474 0.103452,-0.0442 0.161131,-0.0452 z"
       id="path13932" />
    <path
       style="fill:#febc76;stroke-width:0.264583"
       d="m 79.975974,108.15211 c 0.06562,-10e-4 0.129646,-0.0119 0.189971,-0.0386 0.03307,-0.0148 0.04868,-0.0444 0.0164,-0.0693 -0.11086,-0.0852 0.01058,-0.0791 0.04048,-0.10874 0.01508,0.0164 0.03493,0.0154 0.05477,0.0148 -0.01958,2.6e-4 -0.03942,10e-4 -0.05477,-0.0145 -0.02593,-0.0812 0.01984,-0.15373 0.02884,-0.23072 0.05583,-0.0434 0.12065,-0.0683 0.186002,-0.0926 0.03334,-0.0124 0.06694,-0.0209 0.09604,0.0106 0.0048,0.046 0.01111,0.0918 0.01402,0.13785 0.0087,0.13361 -0.0056,0.2622 -0.138377,0.33258 -0.06826,0.0362 -0.08096,0.10424 -0.114036,0.15848 -0.06535,0.10769 -0.157162,0.1995 -0.197643,0.32888 -0.06218,-0.0109 -0.09128,-0.0638 -0.132557,-0.0984 -0.01587,-0.0132 -0.03413,-0.04 -0.02064,-0.0534 0.08625,-0.0849 0.01482,-0.18574 0.03148,-0.27676 z"
       id="path13936" />
    <path
       style="fill:#f9b06b;stroke-width:0.264583"
       d="m 78.431072,107.28693 c -0.02196,-0.0132 -0.0426,-0.0315 -0.06641,-0.0386 -0.0844,-0.0251 -0.127,0.0116 -0.114565,0.1008 0.0069,0.0489 0.04286,0.11272 -0.03096,0.12674 -0.06456,0.0124 -0.105833,-0.0455 -0.107685,-0.1053 -0.0026,-0.0749 -0.04921,-0.13574 -0.05159,-0.2085 0,0 2.64e-4,2.7e-4 2.64e-4,2.7e-4 0.06773,-0.0733 0.05001,-0.16695 0.0471,-0.25056 -0.0021,-0.0619 0.0164,-0.10584 0.04683,-0.15187 0.09895,-0.0487 0.137847,0.0296 0.169597,0.0921 0.06853,0.1352 0.105305,0.28152 0.107421,0.43498 z"
       id="path14037" />
    <path
       style="fill:#f3ad64;stroke-width:0.264583"
       d="m 79.018712,109.01704 c -0.0029,-0.004 -0.0058,-0.008 -0.0085,-0.0124 -0.02725,-0.0452 -0.08599,-0.081 -0.05636,-0.14473 0.03175,-0.0683 0.09948,-0.0553 0.158221,-0.0587 0.02011,-10e-4 0.04022,-8e-4 0.06006,-10e-4 -0.0082,0.006 -0.0164,0.0122 -0.02461,0.0177 -0.04075,0.0275 -0.103717,0.0397 -0.103452,0.10054 5.29e-4,0.0696 0.07197,0.0577 0.113771,0.0796 0.07091,0.0376 0.112712,0.1008 0.14261,0.17198 0.03493,0.0823 0.09181,0.11827 0.180975,0.0947 0.01852,0.0109 0.01984,0.0236 0.0045,0.0384 -0.142081,0.10081 -0.296069,0.17542 -0.467783,0.21061 -0.09763,-0.006 -0.06667,-0.0646 -0.04445,-0.11483 0.05477,-0.12356 0.04657,-0.25294 0.04498,-0.38179 z"
       id="path14052" />
    <path
       style="fill:#f1a761;stroke-width:0.264583"
       d="m 78.617074,108.708 c 0.0037,-0.0198 0.01085,-0.0397 0.01058,-0.0595 -0.0024,-0.23892 -0.02646,-0.26776 -0.257704,-0.24923 -0.08678,-0.003 -0.130175,-0.0505 -0.137848,-0.13494 -0.0021,-0.0167 -5.3e-4,-0.0326 0.0048,-0.0484 0.0069,-0.0151 0.01693,-0.0278 0.0299,-0.0384 0.0071,-0.004 0.01402,-0.008 0.02117,-0.0119 0.01349,-0.008 0.02805,-0.0148 0.04286,-0.0201 0.125677,-0.0198 0.11139,0.10345 0.163248,0.15928 0.0024,0.003 0.0098,0.002 0.01455,7.9e-4 0.0082,-0.002 0.0127,-0.009 0.01455,-0.0209 0.06138,-0.18785 0.122767,-0.37571 0.184415,-0.56356 0.08414,0.12515 0.110067,0.25744 0.0672,0.40587 -0.02302,0.0799 -0.138377,0.10504 -0.126471,0.18018 0.01138,0.0725 0.04471,0.14076 0.03334,0.21987 -0.0093,0.0661 -0.0026,0.13494 -0.06456,0.18097 z"
       id="path14062" />
    <path
       style="fill:#f0ab62;stroke-width:0.264583"
       d="m 79.486495,109.30252 c -0.0016,-0.0127 -0.0032,-0.0254 -0.0045,-0.0384 0.04366,-0.0619 0.0074,-0.11457 -0.01535,-0.17198 -0.03863,-0.0976 -0.01482,-0.12753 0.09075,-0.13626 0.109538,-0.009 0.187855,0.0347 0.240242,0.12912 -0.08969,0.0931 -0.193675,0.16483 -0.31115,0.21748 z"
       id="path14202" />
    <path
       style="fill:#f8b06c;stroke-width:0.264583"
       d="m 79.796322,106.93503 c -0.0082,0.0384 0.0042,0.0812 -0.03281,0.12383 -0.112183,-0.10319 -0.18415,-0.23151 -0.251619,-0.36328 0.142346,-0.10848 0.200025,-0.0915 0.259556,0.0754 0.01905,0.0532 0.02963,0.10742 0.02487,0.16404 z"
       id="path14211" />
    <path
       style="fill:#e79b56;stroke-width:0.264583"
       d="m 78.523147,108.28494 c -0.02566,0.0331 -0.04921,0.0214 -0.07382,-0.002 -0.03572,-0.0341 -0.0725,-0.0675 -0.109009,-0.10081 -0.04339,-0.0402 -0.0418,-0.0812 -0.0016,-0.1225 0.0045,-0.009 0.0079,-0.0185 0.01349,-0.0265 0.106628,-0.14896 0.106628,-0.14896 0.114036,-0.32094 0.04286,0.14261 0.01455,0.28946 0.02514,0.43392 0.0034,0.0474 -0.02064,0.10239 0.03175,0.13891 z"
       id="path14285" />
    <path
       style="fill:#e9a65a;stroke-width:0.264583"
       d="m 79.018712,109.01704 c 0.0079,0.0185 0.02381,0.0378 0.02223,0.0556 -0.0069,0.0865 0.0164,0.15584 0.102923,0.18838 -0.04127,0.0937 -0.169863,0.13018 -0.125413,0.25215 -0.02672,0.0246 -0.059,0.0291 -0.0934,0.0259 -0.0048,-0.007 -0.0095,-0.0135 -0.01429,-0.0204 -0.0026,-0.008 -0.005,-0.0159 -0.0077,-0.0236 0.01879,-0.11324 -0.01878,-0.23178 0.03307,-0.34184 0.0071,-0.004 0.01429,-0.008 0.02143,-0.0127 0.05397,-0.0249 0.0598,-0.0733 0.06112,-0.12356 z"
       id="path14297" />
    <path
       style="fill:#8e9a83;stroke-width:0.264583"
       d="m 78.649883,109.78962 c -0.04657,-0.0315 -0.09499,-0.0122 -0.143404,-0.007 -0.05821,0.007 -0.09499,-0.0177 -0.104775,-0.0775 -2.65e-4,-0.006 -7.94e-4,-0.0116 -0.0013,-0.0175 0.01905,-0.0209 0.03651,-0.0439 0.06562,-0.0521 0.06191,0.008 0.09022,-0.0394 0.114829,-0.0796 0.04366,-0.0714 0.104246,-0.10266 0.18468,-0.10372 0.01455,10e-4 0.02831,0.005 0.04101,0.0122 0.02699,0.0114 0.0508,0.0281 0.07355,0.046 0.0093,0.0114 0.01587,0.0241 0.01984,0.0384 -0.150283,0.0103 -0.194204,0.13177 -0.250031,0.24051 z"
       id="path14305" />
    <path
       style="fill:#f9b069;stroke-width:0.264583"
       d="m 79.574337,107.31788 c 0.06615,-0.0352 0.09657,-0.099 0.127,-0.17092 0.02143,0.0714 0.03201,0.13944 0.09472,0.17833 0.0061,0.0291 0.0034,0.0577 -0.0071,0.0855 -0.02646,0.0439 -0.04075,0.0968 -0.09102,0.1233 -0.115094,-0.0299 -0.08149,-0.14473 -0.12356,-0.21617 z"
       id="path14312" />
    <path
       style="fill:#efa55f;stroke-width:0.264583"
       d="m 78.153789,106.75961 c -0.02117,0.0707 -0.0093,0.14155 -0.0021,0.21273 0.0079,0.081 -0.0037,0.15451 -0.09181,0.18997 5.29e-4,-0.10266 0.0013,-0.20532 0.0019,-0.30798 l -5.29e-4,8e-4 c 0.01323,-0.0119 0.02434,-0.0254 0.02963,-0.0429 0.01297,-0.027 0.03122,-0.0476 0.06297,-0.0526 z"
       id="path14363" />
    <path
       style="fill:#f0c891;stroke-width:0.264583"
       d="m 79.046758,107.13162 c 0.03598,0.16801 0.02778,0.17833 -0.144463,0.18415 0.03651,-0.0707 0.07858,-0.13679 0.144463,-0.18415 z"
       id="path14411" />
    <path
       style="fill:#f3ab63;stroke-width:0.264583"
       d="m 79.697897,107.53378 c -0.01746,-0.0357 -0.05424,-0.0635 -0.04313,-0.11932 0.04339,-0.002 0.0934,0.0458 0.134144,-0.004 0.0032,0.0532 0.0061,0.10662 -0.02514,0.15425 -0.0217,-0.0103 -0.04392,-0.0206 -0.06588,-0.031 z"
       id="path14426" />
    <path
       style="fill:#d58844;stroke-width:0.264583"
       d="m 78.461235,107.60152 c -0.02434,-0.007 -0.05001,-0.0108 -0.07329,-0.0204 -0.02355,-0.01 -0.04921,-0.0262 -0.04762,-0.054 0.0026,-0.045 0.04419,-0.0299 0.07064,-0.0376 0.01455,-0.004 0.02937,-0.008 0.04418,-0.0124 0.01455,0.041 0.01402,0.0825 0.0061,0.12436 z"
       id="path14440" />
    <path
       style="fill:#8e9a83;stroke-width:0.264583"
       d="m 78.368631,109.72242 c -0.0058,0.0196 -0.01191,0.0389 -0.01773,0.0582 -0.0024,-0.0188 -0.005,-0.0376 -0.0077,-0.0563 0.0082,-0.002 0.01667,-0.002 0.0254,-0.002 z"
       id="path14543" />
    <path
       style="fill:#e59a54;stroke-width:0.264583"
       d="m 78.900179,109.54938 c -0.01111,-0.004 -0.02196,-0.008 -0.03307,-0.0124 -0.0048,-0.004 -0.0095,-0.008 -0.01429,-0.0124 0.0019,-0.006 0.0037,-0.0122 0.0056,-0.0183 0.0098,-0.008 0.02117,-0.013 0.0344,-0.0138 0.0127,0.002 0.02328,0.008 0.03149,0.0188 5.29e-4,0.009 0.0011,0.0185 0.0013,0.0278 -0.0077,0.006 -0.01614,0.009 -0.0254,0.0103 z"
       id="path14546" />
    <path
       style="fill:#dd904e;stroke-width:0.264583"
       d="m 78.090554,106.81226 c -0.0098,0.0143 -0.01984,0.0286 -0.02963,0.0429 0.0024,-0.0193 0.01244,-0.0336 0.02963,-0.0429 z"
       id="path14607" />
    <path
       style="fill:#f3ab63;stroke-width:0.264583"
       d="m 79.109993,107.06282 c -0.01164,0.013 -0.02355,0.0257 -0.03519,0.0386 0.0034,-0.0206 0.01482,-0.0339 0.03519,-0.0386 z"
       id="path14610" />
    <path
       style="fill:#f3ab63;stroke-width:0.264583"
       d="m 79.079566,107.0959 c -0.0098,0.0111 -0.01984,0.022 -0.02963,0.0331 0.0029,-0.0172 0.01217,-0.0288 0.02963,-0.0331 z"
       id="path14612" />
    <path
       style="fill:#eba665;stroke-width:0.264583"
       d="m 80.380258,108.43707 c 0.009,-0.0127 0.01799,-0.0257 0.02672,-0.0384 -0.0013,0.018 -0.01006,0.031 -0.02672,0.0384 z"
       id="path14636" />
    <path
       style="fill:#f9b069;stroke-width:0.264583"
       d="m 79.451041,107.3491 c 0.02752,-0.0201 0.059,-0.0288 0.0926,-0.0307 -0.02752,0.0196 -0.059,0.0286 -0.0926,0.0307 z"
       id="path14957" />
    <path
       style="fill:#ffb972;stroke-width:0.264583"
       d="m 78.74037,108.58444 c 0.0026,0.0273 0.01535,0.0561 -0.005,0.0863 -0.03387,-0.0376 -0.0087,-0.0611 0.005,-0.0863 z"
       id="path15036" />
    <path
       style="fill:#e59a54;stroke-width:0.264583"
       d="m 78.618926,108.79955 c 0.01005,0.0103 0.02011,0.0206 0.03016,0.031 0,0 -0.0042,0.003 -0.0042,0.003 -0.02461,0.003 -0.03519,-0.007 -0.02911,-0.032 z"
       id="path15037" />
    <path
       style="fill:#f7ac67;stroke-width:0.264583"
       d="m 78.277085,108.24445 c 0.01243,0.0627 0.06112,0.10372 0.09313,0.15479 v 0 c -0.01958,0.0206 -0.01799,0.0413 0,0.0616 v 0 c 0.01852,0.0164 0.01164,0.045 0.02937,0.0617 5.29e-4,0.0103 0.0011,0.0206 0.0016,0.031 0.05318,0.0741 -2.64e-4,0.17515 0.06191,0.24712 v 0 c 0.02117,0.0309 0.0217,0.0617 -7.94e-4,0.0921 -0.01005,2.7e-4 -0.02011,8e-4 -0.03043,0.001 -0.215371,0.009 -0.323585,-0.0574 -0.338402,-0.27887 -0.0063,-0.0942 -0.103188,-0.15187 -0.0635,-0.24633 7.94e-4,-0.0108 0.0013,-0.0217 0.0021,-0.0325 0.07541,-0.0479 0.127264,-0.15769 0.245004,-0.0915 z"
       id="path15102" />
    <path
       style="fill:#f1a761;stroke-width:0.264583"
       d="m 78.030229,108.36828 c 0.0098,0.0283 0.01482,0.0659 0.05874,0.0497 0.02778,-0.0103 0.05133,-0.0386 0.08414,-0.0265 0.03678,0.0138 0.08599,0.0214 0.0926,0.068 0.005,0.0352 -0.03254,0.0482 -0.06138,0.0577 -0.07144,0.0233 -0.07673,0.0751 -0.05847,0.1352 0.03149,0.10266 0.08493,0.18574 0.199232,0.21167 0.02963,0.007 0.05794,0.0196 0.08678,0.0296 -0.07911,0.0656 -0.156633,0.0979 -0.238919,0.002 -0.02355,-0.0272 -0.06456,-0.0294 -0.100541,-0.0333 -0.01138,-0.0283 -0.01905,-0.0566 -0.01005,-0.0876 0.0053,-0.0188 0.01587,-0.0521 0.0095,-0.0564 -0.123295,-0.0799 -0.02487,-0.22357 -0.0934,-0.3175 0.01058,-0.0111 0.02117,-0.0217 0.03175,-0.0325 z"
       id="path15103" />
    <path
       style="fill:#d68c44;stroke-width:0.264583"
       d="m 78.615751,108.80193 c 0.0098,0.0106 0.01958,0.0212 0.02911,0.032 0.01826,0.14287 0.111918,0.19605 0.243152,0.20267 0.07197,0.003 0.108214,0.028 0.06985,0.10398 0,0 -0.0013,0.001 -0.0013,0.001 -0.04207,0.11986 0.01164,0.24792 -0.03069,0.36777 l -0.0016,0.001 c -0.0098,-7.9e-4 -0.01932,-0.002 -0.02884,-0.002 -0.05768,-0.0579 -0.08916,-0.12329 -0.06403,-0.20717 0.01561,-0.0519 0.04127,-0.11324 -0.01508,-0.14922 -0.05556,-0.0355 -0.105305,-0.003 -0.143669,0.0468 -0.0127,0.0164 -0.03598,0.0164 -0.05556,0.003 -0.06165,-0.11589 -0.07064,-0.245 -0.08414,-0.37095 -0.0085,-0.0775 0.03598,-0.0725 0.08281,-0.0302 z"
       id="path15104" />
    <path
       style="fill:#c88b33;stroke-width:0.264583"
       d="m 78.617074,109.20251 c 0.01111,-0.0172 0.02328,-0.0339 0.0336,-0.0516 0.04075,-0.0696 0.102659,-0.0823 0.172773,-0.0585 0.06641,0.0228 0.07488,0.0831 0.06773,0.14023 -0.01164,0.0929 -0.0042,0.18442 0.0042,0.27623 -0.01032,5.3e-4 -0.0209,0.001 -0.03122,0.002 -0.0598,-0.0111 -0.07885,-0.058 -0.09155,-0.10795 -0.01058,-0.0418 -0.03149,-0.0542 -0.06985,-0.0318 -0.07276,0.0553 -0.07117,0.15795 -0.143404,0.21616 -0.03413,0.0278 -0.04974,0.0759 -0.105833,0.0468 -0.01217,-0.032 -0.01349,-0.063 0.0077,-0.0923 l 5.29e-4,-2.6e-4 c 0.03069,-0.0238 0.0032,-0.0675 0.03149,-0.0918 l 2.65e-4,-5.3e-4 c 0.0077,-0.007 0.01005,-0.0135 0.0077,-0.0201 -0.0026,-0.007 -0.005,-0.0101 -0.0077,-0.0101 l -2.65e-4,-2.6e-4 c -0.0079,-0.007 -0.01058,-0.0138 -0.0079,-0.0206 0.0026,-0.007 0.005,-0.0106 0.0077,-0.0106 0,-0.0101 2.64e-4,-0.0204 5.29e-4,-0.0304 -0.0034,-0.0847 0.07937,-0.086 0.121708,-0.12647 2.65e-4,-0.009 0.0011,-0.0185 0.0019,-0.0278 z"
       id="path15105" />
    <path
       style="fill:#f1a761;stroke-width:0.264583"
       d="m 78.462822,108.80061 c -0.110331,-0.0598 -0.05106,-0.16219 -0.06191,-0.24712 0.0672,0.0706 0.06191,0.15954 0.06191,0.24712 z"
       id="path15106" />
    <path
       style="fill:#d68c44;stroke-width:0.264583"
       d="m 78.614958,109.23029 c -0.02963,0.0526 -0.08202,0.0836 -0.121709,0.12647 -0.02699,-0.10715 0.05609,-0.10848 0.121709,-0.12647 z"
       id="path15107" />
    <path
       style="fill:#d68c44;stroke-width:0.264583"
       d="m 78.46097,109.54144 c 5.29e-4,0.0288 0.0013,0.0574 0.0019,0.0863 0.0085,0.008 0.01085,0.0148 0.0069,0.0212 -0.0037,0.006 -0.0074,0.009 -0.01058,0.009 -0.01958,0.0103 -0.03889,0.0204 -0.05847,0.0307 0.01535,-0.0508 0.0071,-0.11139 0.06033,-0.14685 z"
       id="path15108" />
    <path
       style="fill:#f1a761;stroke-width:0.264583"
       d="m 78.341114,109.0681 c -0.0074,0.004 -0.01508,0.008 -0.02249,0.0127 -0.0042,-0.007 -0.01296,-0.0161 -0.01164,-0.0222 0.0016,-0.006 0.01376,-0.009 0.02117,-0.0132 0.0045,0.008 0.0087,0.0153 0.01297,0.0228 z"
       id="path15109" />
    <path
       style="fill:#f1a761;stroke-width:0.264583"
       d="m 78.462293,108.89268 c 2.65e-4,-0.0307 5.29e-4,-0.0614 7.94e-4,-0.0921 0.02302,0.0307 0.02328,0.0614 -7.94e-4,0.0921 z"
       id="path15110" />
    <path
       style="fill:#d68c44;stroke-width:0.264583"
       d="m 78.493249,109.44963 c -0.0016,0.0336 -0.01058,0.0648 -0.03149,0.0918 0.0026,-0.0333 0.01164,-0.0646 0.03149,-0.0918 z"
       id="path15111" />
    <path
       style="fill:#f1a761;stroke-width:0.264583"
       d="m 78.370218,108.46088 c -0.01508,-0.0206 -0.01535,-0.041 0,-0.0616 0,0.0204 0,0.041 0,0.0616 z"
       id="path15112" />
    <path
       style="fill:#f1a761;stroke-width:0.264583"
       d="m 78.399587,108.52253 c -0.0098,-0.0206 -0.01958,-0.041 -0.02937,-0.0617 0.0098,0.0204 0.01958,0.041 0.02937,0.0617 z"
       id="path15113" />
    <path
       style="fill:#d68c44;stroke-width:0.264583"
       d="m 78.493249,109.41894 c 0,0.01 0,0.0201 0,0.0302 0,-0.0101 -2.64e-4,-0.0201 0,-0.0302 z"
       id="path15114" />
    <path
       style="fill:#d68c44;stroke-width:0.264583"
       d="m 78.492985,109.38745 c 0,0.0103 2.64e-4,0.0209 2.64e-4,0.0312 -2.64e-4,-0.0106 -2.64e-4,-0.0209 -2.64e-4,-0.0312 z"
       id="path15115" />
    <path
       style="fill:#f7ac67;stroke-width:0.264583"
       d="m 78.338733,108.05925 c 5.29e-4,0.0407 0.0011,0.0817 0.0016,0.1225 -0.01085,0.0106 -0.0217,0.0209 -0.03254,0.0315 -0.0553,-0.0436 -0.15531,0.002 -0.185208,-0.0926 0.01085,-0.0529 0.102923,-0.11298 -0.01799,-0.15425 -0.03572,-0.0122 -0.01799,-0.0497 -0.01138,-0.0802 0.02831,-0.13203 0.02328,-0.13997 -0.09842,-0.20109 -0.04313,-0.0217 -0.06403,-0.0831 -0.03598,-0.11403 0.03202,-0.0352 0.06773,-0.019 0.09366,0.007 0.05768,0.059 0.120914,0.10293 0.201083,0.13124 0.06853,0.0243 0.09366,0.0995 0.06535,0.18177 -0.02222,0.0638 -0.03202,0.11721 0.01984,0.16801 z"
       id="path15145" />
    <path
       style="fill:#feb974;stroke-width:0.264583"
       d="m 78.122568,108.12063 c 0.0098,-0.001 0.01958,-0.001 0.02937,-0.003 0.11721,-0.0228 0.11721,-0.023 0.155839,0.0958 0,0 2.65e-4,2.7e-4 2.65e-4,2.7e-4 -0.01058,0.0101 -0.0209,0.0204 -0.03096,0.031 h -2.65e-4 c -0.07011,0.0614 -0.143933,0.11298 -0.245004,0.0913 -7.94e-4,-0.01 -0.0013,-0.0199 -0.0021,-0.0296 -0.01164,-0.009 -0.01984,-0.022 -0.0299,-0.0328 0.01191,-0.0548 0.04551,-0.0931 0.09207,-0.12144 0.0093,-0.0114 0.0217,-0.0193 0.03069,-0.031 z"
       id="path15146" />
    <path
       style="fill:#f7ac67;stroke-width:0.264583"
       d="m 78.122568,108.12089 c -0.01032,0.0103 -0.02037,0.0206 -0.03069,0.031 0.01032,-0.0103 0.02064,-0.0206 0.03069,-0.031 z"
       id="path15147" />
    <path
       style="fill:#f1a761;stroke-width:0.264583"
       d="m 78.000066,108.27329 c 0.01005,0.0108 0.01984,0.022 0.0299,0.0328 -0.01005,-0.0109 -0.02011,-0.0217 -0.0299,-0.0328 z"
       id="path15148" />
    <path
       style="fill:#f6af66;stroke-width:0.264583"
       d="m 80.222831,107.93595 c 0.02143,0.004 0.04709,-0.009 0.06482,0.0156 -0.02778,0.0164 -0.04498,-0.005 -0.06482,-0.0156 z"
       id="path15174" />
    <path
       style="fill:#f7ac67;stroke-width:0.264583"
       d="m 78.277349,108.24445 c 0.01032,-0.0103 0.02064,-0.0206 0.03096,-0.031 -0.01058,0.0103 -0.0209,0.0206 -0.03096,0.031 z"
       id="path15321" />
    <path
       style="fill:#e59a54;stroke-width:0.264583"
       d="m 78.925843,109.50969 c 0.0095,-0.12277 -0.02593,-0.24897 0.03069,-0.36777 -0.0098,0.1225 0.02566,0.24897 -0.03069,0.36777 z"
       id="path15403" />
    <path
       style="fill:#80886c;stroke-width:0.264583"
       d="m 78.459118,109.65786 c 0.0011,-0.0101 0.0024,-0.0201 0.0037,-0.0299 0.106363,-0.0833 0.110067,-0.22384 0.182034,-0.32623 0.145785,0.008 0.135731,0.10768 0.123031,0.20876 -0.09181,0.0114 -0.153723,0.0524 -0.16219,0.15345 -0.0042,0.0498 -0.0418,0.0696 -0.08678,0.0699 -0.04921,2.7e-4 -0.05159,-0.0413 -0.0598,-0.0759 z"
       id="path15405" />
    <path
       style="fill:#af7414;stroke-width:0.264583"
       d="m 78.767887,109.51049 c -0.04101,-0.0696 -0.08202,-0.13918 -0.123031,-0.20903 0.0013,-0.005 0.0026,-0.01 0.0045,-0.0145 0.01984,-0.0524 0.04101,-0.11774 0.106362,-0.10821 0.05821,0.008 0.05027,0.0799 0.06323,0.12594 0.01905,0.0675 0.01455,0.14049 0.04524,0.20585 0,0 -5.29e-4,7.9e-4 -5.29e-4,7.9e-4 -0.01958,0.0196 -0.04233,0.0148 -0.06535,0.009 -0.01032,-0.003 -0.02037,-0.007 -0.03043,-0.01 z"
       id="path15406" />
    <path
       style="fill:#c88b33;stroke-width:0.264583"
       d="m 78.798049,109.52054 c 0.0217,-0.003 0.04366,-0.006 0.06535,-0.009 0.0016,0.008 0.0026,0.0169 0.0034,0.0254 -0.02487,0.004 -0.04868,0.001 -0.06879,-0.0164 z"
       id="path15407" />
  </g>
</svg>
