<?xml version="1.0" encoding="UTF-8" standalone="no"?>
<!-- Created with Inkscape (http://www.inkscape.org/) -->

<svg
   width="210mm"
   height="297mm"
   viewBox="0 0 210 297"
   version="1.1"
   id="svg1"
   inkscape:version="1.4 (86a8ad7, 2024-10-11)"
   sodipodi:docname="cvet10.svg"
   xmlns:inkscape="http://www.inkscape.org/namespaces/inkscape"
   xmlns:sodipodi="http://sodipodi.sourceforge.net/DTD/sodipodi-0.dtd"
   xmlns="http://www.w3.org/2000/svg"
   xmlns:svg="http://www.w3.org/2000/svg">
  <sodipodi:namedview
     id="namedview1"
     pagecolor="#505050"
     bordercolor="#eeeeee"
     borderopacity="1"
     inkscape:showpageshadow="0"
     inkscape:pageopacity="0"
     inkscape:pagecheckerboard="0"
     inkscape:deskcolor="#505050"
     inkscape:document-units="mm"
     inkscape:zoom="0.72604517"
     inkscape:cx="396.66953"
     inkscape:cy="561.25984"
     inkscape:window-width="1920"
     inkscape:window-height="1017"
     inkscape:window-x="-8"
     inkscape:window-y="-8"
     inkscape:window-maximized="1"
     inkscape:current-layer="layer1" />
  <defs
     id="defs1" />
  <g
     inkscape:label="Layer 1"
     inkscape:groupmode="layer"
     id="layer1">
    <path
       style="fill:#f5ad66;stroke-width:0.264583"
       d="m 119.64832,80.714319 c 0.10107,-0.03836 0.16061,-0.01058 0.18257,0.09551 0.0212,0.1016 0.01,0.204258 -0.0108,0.305858 -0.0468,0.232569 -0.12859,0.45429 -0.21643,0.673365 -0.14314,0.357452 -0.2966,0.710406 -0.45852,1.059656 -0.0122,0.01587 -0.0241,0.03202 -0.036,0.04842 -0.0111,0.01826 -0.0249,0.03334 -0.0444,0.0426 -0.054,0.01429 -0.1016,-0.0045 -0.10398,-0.05821 -0.005,-0.106891 -0.0831,-0.129381 -0.15796,-0.162454 -0.1016,-0.04471 -0.19632,-0.206375 -0.18706,-0.315648 0.007,-0.08758 0.0656,-0.141023 0.14235,-0.123825 0.11562,0.02567 0.19764,-0.04392 0.28893,-0.07752 0.0929,-0.03413 0.0582,-0.152135 0.0997,-0.226483 0.0312,-0.05609 -0.0373,-0.07091 -0.073,-0.09499 -0.0516,-0.141288 0.0307,-0.295011 0.17489,-0.295804 0.0892,-5.3e-4 0.13308,-0.04154 0.17145,-0.101865 0.099,-0.154781 0.16801,-0.325967 0.25638,-0.486833 0.054,-0.09684 -0.003,-0.188913 -0.0281,-0.281782 z"
       id="path13807" />
    <path
       style="fill:#fdb46e;stroke-width:0.264583"
       d="m 119.64832,80.714319 c 0.14976,0.05292 0.20082,0.174096 0.0979,0.325967 -0.0743,0.109802 -0.0667,0.260085 -0.18494,0.342106 0.0164,0.09234 -0.10584,0.144992 -0.0699,0.243417 0.009,0.02381 -0.008,0.03836 -0.0275,0.04815 -0.0326,0.01667 -0.0669,0.02381 -0.10372,0.02223 -0.0532,-0.0024 -0.10663,-0.06959 -0.15663,-0.01614 -0.0474,0.05053 -0.10451,0.100806 -0.11086,0.179122 0.0542,0.07355 0.023,0.126207 -0.0489,0.153459 -0.0995,0.03784 -0.19394,0.0799 -0.27728,0.149489 -0.0392,0.03281 -0.10054,0.06244 -0.11272,-0.0336 0.0307,-0.132291 0.10187,-0.246062 0.16801,-0.361421 0.10716,-0.18706 0.2167,-0.373062 0.3302,-0.556418 0.0765,-0.123561 0.13309,-0.276225 0.32677,-0.254265 0.0378,0.0042 0.0392,-0.04022 0.0516,-0.06694 0.0304,-0.06403 0.0513,-0.134938 0.118,-0.175155 z"
       id="path13812" />
    <path
       style="fill:#fab16a;stroke-width:0.264583"
       d="m 120.55029,81.868167 c 0.005,0.104246 -0.0167,0.204788 -0.0439,0.304271 -0.0103,0.01932 -0.01,0.04233 -0.0209,0.06112 l 8e-4,-0.0019 c -0.073,0.131233 -0.13838,0.265906 -0.18415,0.40931 -0.003,0.02328 -0.0124,0.04286 -0.0344,0.05424 -0.0563,0.03784 -0.0825,0.101335 -0.127,0.149489 -0.0635,0.06906 -0.13282,0.110332 -0.2278,0.06535 -0.0288,-0.0299 -0.0571,-0.05979 -0.0659,-0.102129 0.014,-0.130968 -0.023,-0.277548 0.13758,-0.359039 0.0444,-0.02249 0.009,-0.07461 -0.0349,-0.09155 -0.0677,-0.02646 -0.11535,-0.06615 -0.11668,-0.144463 0.003,-0.01402 0.007,-0.02752 0.0135,-0.04048 0.007,-0.01243 0.0145,-0.02434 0.023,-0.03572 0.01,-0.01032 0.0201,-0.01958 0.0312,-0.02805 0.0823,-0.04948 0.17832,-0.07223 0.25532,-0.132557 0.0725,-0.03016 0.0865,-0.09313 0.0942,-0.16166 0.0143,-0.128058 0.0757,-0.19394 0.18124,-0.184944 0.11827,0.01032 0.1143,0.110067 0.12726,0.19394 0.002,0.01482 -0.003,0.03016 -0.008,0.04471 z"
       id="path13889" />
    <path
       style="fill:#f5ac65;stroke-width:0.264583"
       d="m 119.92693,82.87914 c 0.10372,0.0093 0.18468,-0.03069 0.24738,-0.112183 0.0246,-0.03202 0.0529,-0.06006 0.0937,-0.0717 -0.0362,0.08176 -0.0852,0.155046 -0.14949,0.217752 -0.24315,0.232569 -0.48234,0.468842 -0.71067,0.716227 -0.0122,0.0085 -0.0243,0.01693 -0.0365,0.0254 -0.068,0.02619 -0.14102,0.02672 -0.2114,0.04075 -0.15187,0.03016 -0.26749,-0.09075 -0.23971,-0.243417 0.0156,-0.08678 0.0429,-0.167217 0.11245,-0.226748 0.0122,-0.01005 0.0251,-0.01958 0.0384,-0.02778 0.0122,-0.0085 0.0251,-0.01667 0.0384,-0.02408 0.0672,-0.01852 0.0868,-0.09207 0.14208,-0.125148 0.11959,0.0048 0.2331,-0.03678 0.32067,-0.103981 0.11457,-0.08811 0.22887,-0.08705 0.35481,-0.06509 z"
       id="path13891" />
    <path
       style="fill:#f0a860;stroke-width:0.264583"
       d="m 118.65375,82.128782 c 0.0146,0 0.0362,0.0063 0.0429,-0.0011 0.0873,-0.09472 0.18521,-0.168011 0.31908,-0.183092 0.0439,-0.005 0.0648,-0.04445 0.077,-0.0852 0.0468,-0.04868 0.0958,-0.05318 0.15002,-0.01058 0.05,0.03889 0.0227,0.08255 0.0119,0.126206 -0.006,0.02487 -0.001,0.06218 -0.0167,0.07355 -0.0738,0.05556 -0.0352,0.125677 -0.0288,0.190236 -0.10874,0.05583 -0.24341,0.04974 -0.31935,0.166158 -0.0241,0.03704 -0.0646,0.01111 -0.0923,-0.0164 -0.0265,-0.02593 -0.0561,-0.05133 -0.0945,-0.02593 -0.0426,0.02805 -0.0355,0.06932 -0.0204,0.110331 0.0357,0.09763 0.0725,0.191558 0.19103,0.220927 0.0746,0.01852 0.12647,0.06482 0.13282,0.150283 0.002,0.02963 0.0243,0.04366 0.0558,0.03519 0.0106,-0.01005 0.0212,-0.02037 0.031,-0.03096 0.0175,2.64e-4 0.0347,7.93e-4 0.0521,0.0011 -0.006,0.01455 -0.0122,0.02884 -0.018,0.04339 0.028,0.08308 -0.0188,0.129645 -0.087,0.150283 -0.0664,0.02011 -0.1016,-0.02752 -0.12515,-0.08467 -0.0175,-0.04286 -0.0436,-0.08096 -0.0767,-0.113771 -0.0241,-0.01826 -0.0402,-0.04736 -0.0675,-0.06033 -0.16139,-0.07699 -0.2794,-0.1778 -0.22833,-0.382587 0.004,-0.01482 -0.0185,-0.03466 -0.0283,-0.05239 -0.002,-0.0071 -0.004,-0.01429 -0.006,-0.0217 5.3e-4,-0.0074 0.001,-0.01508 0.002,-0.02249 0.005,-0.01455 0.0135,-0.02646 0.0249,-0.03651 0.028,-0.01984 0.0796,0.0011 0.0892,-0.05133 7.9e-4,-0.03254 0.003,-0.06482 0.0296,-0.08863 z"
       id="path13920" />
    <path
       style="fill:#dc904c;stroke-width:0.264583"
       d="m 118.07326,83.654634 c -0.12912,-0.254265 -0.18151,-0.531813 -0.24289,-0.80645 -0.0222,-0.09975 -0.0463,-0.20029 -0.0426,-0.304271 0.0513,-0.128852 0.10187,-0.01429 0.15426,-0.0069 -0.008,-0.0381 -0.0153,-0.08387 0.0257,-0.119327 0.0265,-0.02064 0.0571,-0.01693 0.0876,-0.01614 0.0151,0.0011 0.0299,0.004 0.0442,0.0085 0.0204,0.01005 0.0362,0.02461 0.045,0.04604 0.003,0.01376 0.004,0.02778 0.005,0.04181 8e-4,0.02064 0.002,0.04154 0.003,0.06218 7.9e-4,0.01402 0,0.02778 -0.002,0.04154 -0.0291,0.09869 0.003,0.202142 -0.0243,0.301361 -0.005,0.01931 -0.003,0.04921 0.0108,0.05821 0.1196,0.07699 0.15293,0.23495 0.28337,0.300831 0.008,0.0127 0.0111,0.02619 0.0109,0.04101 -0.0463,0.07858 -0.1696,0.112977 -0.13573,0.23786 -0.003,0.01535 -0.009,0.02937 -0.0172,0.0426 -0.0585,0.05027 -0.10927,0.125148 -0.20452,0.07117 z"
       id="path13937" />
    <path
       style="fill:#cb773b;stroke-width:0.264583"
       d="m 117.98145,82.446282 c 0.0312,0.07567 0.0624,0.151606 0.059,0.235744 -0.002,0.03969 0.004,0.08996 -0.0482,0.09975 -0.0519,0.0095 -0.0677,-0.03572 -0.0804,-0.07514 -0.008,-0.02408 -0.008,-0.05027 -0.0151,-0.07488 -0.0153,-0.05397 -0.0468,-0.08996 -0.10848,-0.08758 -0.081,-0.445559 -0.0696,-0.883973 0.0995,-1.310482 0.12964,-0.06112 0.15345,0.02143 0.13282,0.114565 -0.0331,0.148696 -0.0556,0.296333 -0.0693,0.448733 -0.0117,0.128852 -0.007,0.243152 0.045,0.358246 0.006,0.01349 0.0114,0.02725 0.0172,0.04101 0.006,0.01349 0.01,0.02778 0.0116,0.04233 0.01,0.07408 -0.0294,0.138377 -0.0436,0.207698 z"
       id="path13953" />
    <path
       style="fill:#eda35f;stroke-width:0.264583"
       d="m 120.55029,81.868167 c -0.009,-0.03413 -0.0135,-0.07038 -0.0281,-0.102129 -0.0299,-0.06562 -0.0944,-0.08599 -0.1651,-0.05239 -0.0757,0.03572 -0.0532,0.08705 -0.014,0.134937 0.0378,0.04604 0.0275,0.0799 -0.0153,0.115358 -0.0492,0.04048 -0.0762,0.110861 -0.15398,0.111919 -0.0442,-0.03334 -0.0929,-0.04392 -0.13335,-0.0019 -0.0413,0.04286 -0.0974,0.04075 -0.14473,0.0635 v 0 c -0.0103,0.01164 -0.022,0.01376 -0.0355,0.005 -0.009,-0.01323 -0.007,-0.02461 0.005,-0.03466 0.0304,-0.05874 0.0627,-0.116152 0.11166,-0.161925 0.10742,-0.0717 0.19394,-0.162984 0.25955,-0.273844 0.0132,-0.01482 0.0243,-0.0336 0.0405,-0.04418 0.0664,-0.04313 0.13282,-0.115359 0.21802,-0.06562 0.0789,0.04604 0.0712,0.138642 0.0741,0.219075 0.001,0.0299 0.002,0.06085 -0.0188,0.08678 z"
       id="path14094" />
    <path
       style="fill:#d18243;stroke-width:0.264583"
       d="m 118.44129,81.396415 c 0.0759,0.21299 0.0934,0.437092 0.12489,0.658548 0.008,0.06033 0.0177,0.12065 0.0265,0.18124 0.0233,0.06138 -0.0466,0.02725 -0.0564,0.05477 l -5.3e-4,5.3e-4 c -0.007,0.0071 -0.009,0.01429 -0.007,0.02143 0.002,0.0071 0.004,0.01085 0.006,0.01085 l -2.6e-4,7.94e-4 c 0.045,0.05239 0.0339,0.103187 -0.005,0.152929 -0.0402,0.03069 -0.0728,0.0172 -0.10133,-0.01773 -0.01,-0.01138 -0.0177,-0.02408 -0.0241,-0.03757 -0.004,-0.01402 -0.007,-0.02831 -0.0106,-0.0426 -0.003,-0.01402 -0.007,-0.02805 -0.0106,-0.04207 -0.008,-0.02778 -0.0153,-0.05556 -0.0233,-0.08334 -0.0191,-0.05292 -0.0323,-0.111654 -0.0132,-0.162189 0.0373,-0.09843 0.018,-0.184679 -0.0299,-0.270669 -0.005,-0.03122 -0.014,-0.06218 -0.0108,-0.09446 0.005,-0.06959 0.008,-0.139171 0.008,-0.209021 5.3e-4,-0.05794 0.0204,-0.10795 0.0794,-0.132292 0.0177,-0.0042 0.0333,-5.29e-4 0.0474,0.01085 z"
       id="path14106" />
    <path
       style="fill:#eb9e5b;stroke-width:0.264583"
       d="m 117.95102,82.198896 c -0.10927,-0.08996 -0.0921,-0.22225 -0.0675,-0.325702 0.0318,-0.133085 0.008,-0.262731 0.0249,-0.392641 0.006,-0.04577 0.003,-0.08969 0.0325,-0.129382 0.0508,-0.06879 0.0146,-0.101335 -0.0534,-0.117475 0,-0.02646 0.007,-0.04974 0.0294,-0.06641 0.054,-0.01349 0.0683,-0.06853 0.10477,-0.09975 0.12357,-0.104775 0.19289,-0.09419 0.28628,0.04022 0.0357,0.05133 0.059,0.105833 0.0532,0.170127 -0.0304,0.03625 -0.0685,0.03069 -0.1106,0.02619 -0.10954,-0.01138 -0.20267,0.07382 -0.16245,0.167216 0.063,0.146844 -0.0114,0.259557 -0.0524,0.383646 -0.0124,0.104246 -0.0556,0.206375 -0.0206,0.313796 -0.005,0.01455 -0.0127,0.02672 -0.0238,0.03704 -0.0153,0.0071 -0.0286,0.0045 -0.0402,-0.0069 z"
       id="path14110" />
    <path
       style="fill:#e5a05f;stroke-width:0.264583"
       d="m 119.09243,83.249557 c -0.0553,0.03387 -0.0847,0.08546 -0.10504,0.145521 -0.046,0.136789 0.0267,0.249237 0.17145,0.24765 0.0717,-7.94e-4 0.14235,-0.0021 0.21246,0.01191 -0.2106,0.153458 -0.38152,0.1397 -0.50006,0.0013 -0.0474,-0.06165 -0.0439,-0.132292 -0.0384,-0.203994 0.055,-0.154781 0.16219,-0.278871 0.24712,-0.416454 0.0236,-0.0381 0.0534,-0.06297 0.0979,-0.02434 0.0378,0.08414 0.0307,0.156104 -0.0548,0.207698 v 0 c -0.009,0.01058 -0.0209,0.01984 -0.0307,0.03069 z"
       id="path14150" />
    <path
       style="fill:#e49a5b;stroke-width:0.264583"
       d="m 119.40808,83.629234 c 0.001,-0.01508 -0.003,-0.03572 0.005,-0.04471 0.10478,-0.1143 0.1704,-0.261673 0.29845,-0.35507 0.0257,-0.01879 0.0468,-0.03598 0.0606,-0.06456 0.0109,-0.02249 0.0228,-0.05583 0.041,-0.06112 0.12039,-0.03519 0.18997,-0.150018 0.30586,-0.190764 -0.19764,0.277812 -0.42518,0.525992 -0.71067,0.716227 z"
       id="path14152" />
    <path
       style="fill:#d79145;stroke-width:0.264583"
       d="m 119.15435,83.002436 c -0.054,0.170656 -0.17701,0.296598 -0.28179,0.434181 -0.0262,0.0061 -0.0447,-0.0058 -0.0603,-0.0254 -0.008,-0.01323 -0.0127,-0.02778 -0.0148,-0.04313 0.0114,-0.08863 0.0825,-0.169069 0.0373,-0.266171 0.005,-0.05609 -0.0217,-0.106627 -0.0288,-0.160866 0.002,-0.05556 -0.0521,-0.113242 0.006,-0.166952 0.0225,-0.0042 0.0447,-0.0069 0.0638,0.01085 0.0437,0.03043 0.059,0.07805 0.0796,0.123825 0.0447,0.09975 0.0696,0.101864 0.14473,0.01905 0.01,-0.01111 0.0182,-0.02381 0.0272,-0.03572 0.0183,-0.0034 0.0365,-0.0069 0.055,-0.01058 0.0257,-7.93e-4 0.0423,0.01191 0.0521,0.03492 0.004,0.05768 -0.0241,0.0844 -0.0796,0.08599 z"
       id="path14160" />
    <path
       style="fill:#8c977f;stroke-width:0.264583"
       d="m 118.53945,84.086963 c -2.6e-4,-0.04471 -0.0108,-0.0926 0.001,-0.133614 0.0307,-0.102923 -0.001,-0.170392 -0.0968,-0.212196 -0.0225,-0.03995 -0.0159,-0.07911 0.005,-0.117475 0.013,-0.01614 -0.006,0.0019 0.01,-0.01164 0.0558,-0.04974 0.0778,-0.162719 0.18124,-0.126735 0.0979,0.03413 0.0347,0.133614 0.0569,0.200289 -0.0296,0.142875 -0.0825,0.276225 -0.1569,0.401373 z"
       id="path14235" />
    <path
       style="fill:#ca8143;stroke-width:0.264583"
       d="m 118.35239,81.271796 c -0.0148,-0.03281 -0.0278,-0.06641 -0.0444,-0.09789 -0.0831,-0.157692 -0.1598,-0.170921 -0.27066,-0.02963 -0.045,0.05715 -0.0712,0.06112 -0.12065,0.02302 7.9e-4,-0.005 2.6e-4,-0.01085 0.002,-0.01508 0.0476,-0.100806 0.10848,-0.194204 0.23177,-0.195792 0.13071,-0.0016 0.17463,0.110596 0.21987,0.206904 0.0344,0.07302 0.068,0.148961 0.0704,0.233098 -0.0106,0 -0.0209,0 -0.0315,2.65e-4 -0.0736,-0.01667 -0.0743,-0.06641 -0.0572,-0.124884 z"
       id="path14266" />
    <path
       style="fill:#e7a15e;stroke-width:0.264583"
       d="m 119.4094,82.662976 c 0.12118,-0.143934 0.24236,-0.288132 0.36354,-0.432065 0.007,0.0037 0.0145,0.0077 0.022,0.01138 0.0601,0.06059 0.023,0.12065 -0.004,0.178594 -0.0315,0.06773 -0.0572,0.138112 -0.0966,0.202142 -0.0476,0.05794 -0.0884,0.124354 -0.16907,0.143139 -0.0751,0.0063 -0.11827,-0.02275 -0.11616,-0.103187 z"
       id="path14269" />
    <path
       style="fill:#6f7a62;stroke-width:0.264583"
       d="m 118.47622,83.651988 c -0.0109,0.02963 -0.0214,0.05953 -0.0323,0.08916 -0.0103,0.0011 -0.0206,0.0024 -0.031,0.0034 -0.01,0.01058 -0.0209,0.02011 -0.0315,0.0299 l -2.7e-4,-7.94e-4 c -0.0579,0.06482 -0.0937,0.18124 -0.21722,0.0934 -0.0185,-0.04948 -0.0564,-0.09102 -0.0614,-0.146314 0.0106,-0.04048 0.0492,-0.05186 0.077,-0.07435 0.0524,-0.02487 0.0976,-0.06429 0.15584,-0.07805 0.0532,-0.009 0.10663,-0.06747 0.15981,-2.65e-4 0.01,0.03175 -0.001,0.05847 -0.0191,0.08387 z"
       id="path14283" />
    <path
       style="fill:#949f87;stroke-width:0.264583"
       d="m 118.13914,84.833617 c -0.008,-0.08281 0.005,-0.160602 0.0511,-0.231775 0.0283,-0.04392 0.0344,-0.09287 0.0357,-0.144462 0.003,-0.108215 0.005,-0.108215 0.10848,-0.101336 0.0251,0.0016 0.0503,0.0034 0.0754,0.005 -0.0751,0.166423 -0.16298,0.325173 -0.27067,0.472546 z"
       id="path14284" />
    <path
       style="fill:#7d8871;stroke-width:0.264583"
       d="m 118.47622,83.651988 c 0,-0.03096 0,-0.06191 0,-0.0926 0.0169,-0.1016 0.0492,-0.195263 0.1352,-0.261144 0.15267,-0.06826 0.15637,0.06641 0.19976,0.146579 0.005,0.01508 0.007,0.03069 0.005,0.04683 -0.0116,0.05001 -0.0704,0.05794 -0.0907,0.100541 -0.001,0.03387 -0.006,0.06668 -0.0286,0.09393 -0.0733,-0.17092 -0.073,-0.17092 -0.2077,-0.0426 -0.003,0.0029 -0.008,0.0056 -0.0124,0.0085 z"
       id="path14291" />
    <path
       style="fill:#8c977f;stroke-width:0.264583"
       d="m 118.16428,83.867094 c 0.073,-0.02963 0.13731,-0.08017 0.21722,-0.0934 0.004,0.04022 0.0145,0.08123 0.0106,0.12065 -0.008,0.08467 -0.0519,0.115359 -0.14049,0.09102 -0.0545,-0.01508 -0.0865,0.01111 -0.12409,0.03545 0.007,-0.03387 0.013,-0.06747 0.0196,-0.101071 0.004,-0.01879 0.006,-0.03863 0.019,-0.0545 z"
       id="path14307" />
    <path
       style="fill:#f5ac65;stroke-width:0.264583"
       d="m 119.4094,82.662976 c 0.0299,0.03678 0.0672,0.06006 0.11589,0.06191 0.0135,0.01111 0.023,0.02487 0.0286,0.04127 -0.0431,0.155575 -0.0992,0.19394 -0.29687,0.202671 -0.0246,-0.01191 -0.0349,-0.03493 -0.0455,-0.05794 -0.01,-0.0095 -0.0196,-0.01931 -0.0296,-0.02884 0.0759,-0.07303 0.15187,-0.14605 0.22754,-0.219075 z"
       id="path14314" />
    <path
       style="fill:#e4a263;stroke-width:0.264583"
       d="m 120.30237,82.641015 c -0.0241,-0.06667 -0.0259,-0.127794 0.0347,-0.179652 0.0275,-0.02355 0.0429,-0.05794 0.0434,-0.09446 10e-4,-0.07303 0.05,-0.106363 0.10583,-0.135202 -0.0286,0.151077 -0.0918,0.286808 -0.18389,0.40931 z"
       id="path14371" />
    <path
       style="fill:#d39251;stroke-width:0.264583"
       d="m 120.23649,81.671846 c 0.002,0.136525 -0.12435,0.188384 -0.18785,0.281782 -0.0127,0.01879 -0.0479,0.0019 -0.0717,-0.0077 0.0659,-0.111125 0.15954,-0.195792 0.25955,-0.274109 z"
       id="path14382" />
    <path
       style="fill:#8b9884;stroke-width:0.264583"
       d="m 118.7834,83.497471 c 7.9e-4,-0.01032 0.001,-0.02037 0.002,-0.03069 -0.0108,-0.05239 0.0103,-0.07276 0.0622,-0.06244 0.008,0.01085 0.0172,0.0217 0.0257,0.03228 -0.002,0.07303 0.0143,0.146315 -0.001,0.219075 -0.04,-0.01085 -0.0664,-0.03757 -0.0868,-0.07223 -0.0275,-0.02805 -0.0254,-0.05688 -0.002,-0.08599 z"
       id="path14410" />
    <path
       style="fill:#cb8237;stroke-width:0.264583"
       d="m 118.20343,83.678446 c -0.0336,0.01402 -0.0672,0.02831 -0.10054,0.04233 -0.0212,-0.01693 -0.0299,-0.03969 -0.0296,-0.06615 0.0606,-0.03307 0.12091,-0.06641 0.1815,-0.09975 0.005,0.0042 0.0106,0.0085 0.0161,0.0127 0.005,0.01296 0.006,0.02619 0.003,0.03969 -0.0164,0.03069 -0.0601,0.03439 -0.0704,0.07117 z"
       id="path14442" />
    <path
       style="fill:#8c977f;stroke-width:0.264583"
       d="m 118.44817,84.280638 c -0.0101,-0.08467 -0.0246,-0.17145 0.0929,-0.195527 -0.0159,0.07223 -0.0487,0.136525 -0.0929,0.195527 z"
       id="path14450" />
    <path
       style="fill:#737e65;stroke-width:0.264583"
       d="m 118.7834,83.497471 c 5.3e-4,0.02884 0.001,0.05768 0.002,0.08625 -0.0198,0.0026 -0.0399,0.0053 -0.0598,0.0079 -0.019,-0.05503 0.013,-0.07858 0.0582,-0.09419 z"
       id="path14477" />
    <path
       style="fill:#e7a15e;stroke-width:0.264583"
       d="m 119.86528,82.107615 c 0.001,0.01058 0.002,0.02117 0.004,0.03175 0.007,0.0071 0.008,0.01376 0.005,0.02011 -0.003,0.0058 -0.006,0.009 -0.008,0.009 -8e-4,0.01005 -0.002,0.02011 -0.003,0.0299 -0.0153,0.0381 -0.0376,0.06218 -0.0823,0.03995 l -0.008,-0.0074 c 0.0225,-0.04736 0.0511,-0.08996 0.0923,-0.123296 z"
       id="path14479" />
    <path
       style="fill:#e49953;stroke-width:0.264583"
       d="m 118.53628,82.290707 c 0.0188,-0.01826 0.0376,-0.03651 0.0564,-0.05477 0.0103,-0.0061 0.0209,-0.01244 0.0312,-0.01852 -0.009,0.04868 -0.0415,0.06906 -0.0876,0.07329 z"
       id="path14498" />
    <path
       style="fill:#6f7a62;stroke-width:0.264583"
       d="m 118.16586,83.865242 c -0.006,0.01826 -0.0127,0.03651 -0.019,0.0545 -0.001,-0.0209 0.005,-0.03916 0.019,-0.0545 z"
       id="path14533" />
    <path
       style="fill:#e4a263;stroke-width:0.264583"
       d="m 120.48546,82.233821 c 0.007,-0.02037 0.014,-0.04101 0.0209,-0.06112 0.004,0.02408 -5.3e-4,0.04524 -0.0209,0.06112 z"
       id="path14545" />
    <path
       style="fill:#f5ac65;stroke-width:0.264583"
       d="m 119.09296,82.848184 c -0.0103,0.01032 -0.0206,0.02064 -0.031,0.03096 0.0103,-0.01032 0.0206,-0.02064 0.031,-0.03096 z"
       id="path14961" />
    <path
       style="fill:#8c977f;stroke-width:0.264583"
       d="m 118.38176,83.77449 c 0.0106,-0.01005 0.0209,-0.01984 0.0315,-0.0299 -0.0106,0.01005 -0.0209,0.01984 -0.0315,0.0299 z"
       id="path15007" />
    <path
       style="fill:#feb871;stroke-width:0.264583"
       d="m 119.2488,82.941846 c 0.091,-0.06403 0.21273,-0.08228 0.27729,-0.186002 0.0953,-0.05159 0.17753,-0.139964 0.30268,-0.105039 0.0159,0.0026 0.0302,0.0087 0.0434,0.01799 0.018,0.01482 0.0365,0.02911 0.0439,0.05265 0.002,0.02381 -0.004,0.04524 -0.0196,0.06376 0.0101,0.03122 0.0204,0.06244 0.0304,0.09393 -0.0336,0.03122 -0.063,0.07858 -0.11165,0.07541 -0.0804,-0.0053 -0.15002,-0.0127 -0.1786,0.08996 -0.01,0.03493 -0.0617,0.03149 -0.0974,0.02672 -0.0907,-0.01217 -0.13652,0.02513 -0.13917,0.11721 -5.3e-4,0.02011 -0.007,0.04048 -0.0137,0.05953 -0.007,0.01984 -0.0214,0.03625 -0.045,0.03598 -0.0304,-5.29e-4 -0.0484,-0.01984 -0.0492,-0.04789 -0.001,-0.06138 0.008,-0.124619 -0.0447,-0.171979 -0.006,-0.0037 -0.0124,-0.0074 -0.0185,-0.01085 -0.0214,-0.02461 -0.0214,-0.05186 -0.009,-0.08043 0.007,-0.01217 0.0169,-0.02249 0.0288,-0.03096 z"
       id="path15116" />
    <path
       style="fill:#f5ab65;stroke-width:0.264583"
       d="m 119.8965,82.785478 c -2.6e-4,-0.02037 -5.3e-4,-0.04048 -7.9e-4,-0.06085 -0.0108,-0.0095 -0.0201,-0.0209 -0.0307,-0.03096 -0.0709,-0.0336 -0.17225,0.0042 -0.21617,-0.0926 0.008,-0.133879 0.10795,-0.234685 0.13256,-0.362744 0.0275,-0.01323 0.0548,-0.02646 0.0823,-0.03969 0.0341,0.04445 0.0598,0.09049 0.13468,0.0508 0.072,-0.03836 0.11297,-0.0063 0.11377,0.07197 2.6e-4,0.01482 -0.009,0.02937 -0.01,0.04445 -0.004,0.113506 -0.0339,0.155575 -0.13362,0.197908 -0.0339,0.01429 -0.072,0.04948 -0.0339,0.08043 0.10424,0.08414 -0.003,0.100806 -0.0384,0.141288 z"
       id="path15117" />
    <path
       style="fill:#f5ab65;stroke-width:0.264583"
       d="m 119.89571,82.137249 c 0.0455,-0.02963 0.0907,-0.0598 0.13652,-0.0889 0.0553,-0.03519 0.10293,-0.02593 0.14156,0.02725 -0.05,0.0011 -0.0998,0.0053 -0.13865,0.04154 -0.0426,0.03942 -0.0905,0.03149 -0.13943,0.02011 z"
       id="path15118" />
    <path
       style="fill:#f5ab65;stroke-width:0.264583"
       d="m 119.86608,82.168469 c 5.2e-4,-0.0095 0.002,-0.01931 0.003,-0.02884 0.009,-0.0011 0.0177,-0.0019 0.0267,-0.0021 -0.0101,0.01005 -0.0198,0.02064 -0.0296,0.03096 z"
       id="path15119" />
    <path
       style="fill:#f0a860;stroke-width:0.264583"
       d="m 119.2488,82.941846 c -7.9e-4,0.0098 -0.001,0.01984 -0.002,0.02963 -0.0246,0.03096 -0.0318,0.06191 5.2e-4,0.0926 v 0 c -0.006,0.07937 -0.0296,0.145256 -0.12356,0.154517 0.0328,-0.06879 0.0312,-0.142611 0.0307,-0.216165 0.0191,-0.03043 0.0381,-0.06112 0.0572,-0.09155 0.0124,0.01032 0.0249,0.02064 0.0373,0.03096 z"
       id="path15120" />
    <path
       style="fill:#f0a860;stroke-width:0.264583"
       d="m 119.09243,83.249557 c 0.0103,-0.01032 0.0209,-0.02064 0.0312,-0.03096 -0.0103,0.01032 -0.0206,0.02064 -0.0312,0.03096 z"
       id="path15121" />
    <path
       style="fill:#e49953;stroke-width:0.264583"
       d="m 118.87574,82.785478 c -0.0198,2.64e-4 -0.0397,5.29e-4 -0.0598,7.93e-4 -0.008,0.01191 -0.0164,0.02434 -0.0241,0.03704 -0.0138,0.01535 -0.0299,0.02672 -0.0492,0.03413 -0.16959,0.06482 -0.18706,0.05371 -0.19896,-0.128323 -0.007,-0.01958 -0.0183,-0.03757 -0.0241,-0.05794 -0.01,-0.0336 -0.0214,-0.06615 -0.0362,-0.0979 -0.0175,-0.03784 -0.0109,-0.06985 0.0225,-0.09578 0.01,-0.05106 0.0193,-0.102129 0.0288,-0.153194 0.0619,0.02884 0.0966,0.0635 0.0728,0.144198 -0.0302,0.103187 0.002,0.16166 0.099,0.210873 0.0603,0.03016 0.12065,0.05821 0.16933,0.106098 z"
       id="path15153" />
    <path
       style="fill:#e49953;stroke-width:0.264583"
       d="m 118.53522,82.323515 c 2.7e-4,-0.01085 2.7e-4,-0.02143 5.3e-4,-0.03228 0,0.01085 -2.6e-4,0.02143 -5.3e-4,0.03228 z"
       id="path15154" />
    <path
       style="fill:#e49953;stroke-width:0.264583"
       d="m 118.41087,83.279719 c -0.0704,0.0026 -0.13362,-0.0058 -0.1569,-0.08863 -0.0124,-0.04418 -0.0545,-0.05609 -0.09,-0.07699 -0.13785,-0.08149 -0.15187,-0.122237 -0.1143,-0.274373 0.022,-0.08916 0.0373,-0.179916 0.0558,-0.270139 0.0823,0.01138 0.14446,-5.29e-4 0.15266,-0.104511 0.003,-0.03281 0.0362,-0.06085 0.0759,-0.06747 0.0153,2.64e-4 0.0291,0.0053 0.0415,0.01376 0.13652,0.119327 0.0492,0.269875 0.0452,0.403225 -0.004,0.125148 0.0132,0.24421 0.0307,0.365389 0.006,0.04154 0.004,0.07937 -0.0407,0.09975 z"
       id="path15175" />
    <path
       style="fill:#cb8237;stroke-width:0.264583"
       d="m 118.41087,83.279719 c 5.3e-4,-0.0336 -0.008,-0.06456 -0.0273,-0.09234 -0.005,-0.14605 0.0487,-0.290248 0.0127,-0.43815 -0.007,-0.02858 0.0278,-0.05027 0.0569,-0.06244 0.0434,-0.0172 0.0812,0.02566 0.12435,0.01085 0.007,-0.0011 0.014,-0.0024 0.0209,-0.0034 0.0323,0.03916 0.0209,0.08361 0.004,0.143934 0.0701,-0.02381 0.11483,-0.09181 0.18363,-0.05689 -0.003,0.07726 -0.055,0.138907 -0.0677,0.21299 -0.11377,0.07064 -0.24394,0.127 -0.24183,0.294217 2.7e-4,0.01958 -0.0265,0.02752 -0.0471,0.03122 -0.007,-0.0037 -0.013,-0.0071 -0.0196,-0.01085 2.6e-4,-0.01006 2.6e-4,-0.01958 5.3e-4,-0.02911 z"
       id="path15176" />
    <path
       style="fill:#f0a45f;stroke-width:0.264583"
       d="m 118.35107,82.414796 c -0.0378,0.06456 -0.0503,0.13388 -0.041,0.207963 0.004,0.03069 0.006,0.06429 -0.0307,0.07885 -0.0336,0.01349 -0.0606,-0.0058 -0.0823,-0.02778 -0.0323,-0.03307 -0.0614,-0.06906 -0.0918,-0.103982 -2.6e-4,-0.01005 -2.6e-4,-0.02037 -5.3e-4,-0.03043 -0.008,-0.0069 -0.0108,-0.01376 -0.008,-0.02064 0.003,-0.0069 0.006,-0.01005 0.008,-0.01005 v 0 c 0.014,-0.0172 0.0183,-0.03969 0.0299,-0.05794 0.0884,-0.05874 0.15081,-0.148167 0.24051,-0.205317 0.0151,5.29e-4 0.0283,0.0056 0.0392,0.01614 0.0101,0.02037 0.0201,0.04101 0.0299,0.06138 0.018,0.0209 0.018,0.04127 -5.3e-4,0.06191 h -2.6e-4 c -0.0241,0.03043 -0.055,0.04101 -0.0929,0.0299 z"
       id="path15177" />
    <path
       style="fill:#f3a862;stroke-width:0.264583"
       d="m 117.98039,82.19969 c 2.6e-4,-0.01032 2.6e-4,-0.02064 5.3e-4,-0.03122 0.0339,-0.02646 0.0757,-0.03307 0.11536,-0.04524 0.0307,0 0.0595,0.0074 0.0889,0.01561 0.0571,0.01588 0.10239,0.0426 0.11139,0.107421 0.008,0.05847 -0.0273,0.09313 -0.0691,0.124883 -0.032,0.02461 -0.0669,0.04471 -0.0992,0.06906 -0.008,0.0037 -0.0159,0.0074 -0.0238,0.01111 -0.01,-0.0021 -0.0193,-0.0042 -0.0294,-0.0061 -0.0397,-0.02302 -0.0836,-0.04392 -0.0651,-0.102923 0.0138,-0.04419 -0.004,-0.07805 -0.0312,-0.110067 l 2.7e-4,-5.29e-4 c -0.008,-0.0074 -0.0103,-0.01455 -0.007,-0.02143 0.003,-0.0071 0.006,-0.01058 0.009,-0.01058 z"
       id="path15178" />
    <path
       style="fill:#e49953;stroke-width:0.264583"
       d="m 117.9788,82.231705 c 0.12621,0.02857 0.0651,0.141552 0.0963,0.212989 -0.0312,5.3e-4 -0.0624,0.0011 -0.0937,0.0016 -0.0788,-0.07064 -0.006,-0.142875 -0.003,-0.214577 z"
       id="path15179" />
    <path
       style="fill:#cb8237;stroke-width:0.264583"
       d="m 118.25423,83.531338 c -0.0458,-0.09128 -0.04,-0.130704 0.0267,-0.178858 0.0384,-0.02778 0.0836,-0.03704 0.12911,-0.04419 0,0 0.005,0.0048 0.005,0.0048 0.0534,0.135731 -0.037,0.180181 -0.13784,0.218281 -0.008,-2.64e-4 -0.0153,0 -0.0233,0 z"
       id="path15180" />
    <path
       style="fill:#e49953;stroke-width:0.264583"
       d="m 118.13491,82.477767 c -0.0101,0.01032 -0.0199,0.02037 -0.0299,0.03069 -2.7e-4,-0.01932 -5.3e-4,-0.03836 -8e-4,-0.05768 0,0 8e-4,-0.0079 8e-4,-0.0079 0.0267,-0.0026 0.0397,0.0063 0.0299,0.03493 z"
       id="path15181" />
    <path
       style="fill:#cb8237;stroke-width:0.264583"
       d="m 118.25476,83.555151 c 2.7e-4,-0.0079 2.7e-4,-0.01587 -5.3e-4,-0.02381 0,0 0.007,-0.0045 0.007,-0.0045 0.0151,-0.0032 0.0299,0.0029 0.0296,0.01667 -2.7e-4,0.01402 -0.0153,0.01932 -0.0302,0.0164 z"
       id="path15182" />
    <path
       style="fill:#e49953;stroke-width:0.264583"
       d="m 118.10501,82.508459 c 0,0.01032 -2.7e-4,0.02037 -5.3e-4,0.03069 2.6e-4,-0.01032 5.3e-4,-0.02037 5.3e-4,-0.03069 z"
       id="path15183" />
    <path
       style="fill:#e49953;stroke-width:0.264583"
       d="m 117.98039,82.19969 c -5.3e-4,0.01058 -0.001,0.02117 -0.001,0.03149 -0.009,-0.01085 -0.0188,-0.02143 -0.028,-0.03228 0.01,2.65e-4 0.0196,5.3e-4 0.0294,7.94e-4 z"
       id="path15222" />
    <path
       style="fill:#fbb16d;stroke-width:0.264583"
       d="m 118.35239,81.271796 c 0.0355,0.03413 0.0408,0.08176 0.0574,0.124619 -0.0185,0.111125 -0.0561,0.221192 -0.0177,0.335227 -0.0318,0.0508 -0.0802,0.03731 -0.1262,0.03413 -0.0601,-0.0042 -0.10452,0.02196 -0.14658,0.06456 -0.0423,0.04313 -0.0931,0.0672 -0.13812,-0.0019 0.0609,-0.06244 -0.005,-0.161396 0.0632,-0.223838 0.004,-0.004 -0.0119,-0.03678 -0.0246,-0.0508 -0.0709,-0.0799 -0.0638,-0.153458 0.0101,-0.227541 0.0169,-0.01693 0.0257,-0.04339 0.0357,-0.06641 0.05,-0.112712 0.1225,-0.127794 0.21378,-0.04101 0.0228,0.02117 0.0434,0.0426 0.073,0.05292 z"
       id="path15337" />
    <path
       style="fill:#fec789;stroke-width:0.264583"
       d="m 118.28969,81.674228 c 0.0291,0.02805 0.0622,0.04895 0.10213,0.05741 0.007,0.02117 0.013,0.04233 0.0193,0.0635 -0.022,0.103982 -0.0407,0.208492 -0.0669,0.311679 -0.0352,0.05345 -0.0836,0.05689 -0.13785,0.03704 -0.0619,-0.02249 -0.12356,-0.04657 -0.18018,-0.0799 -0.0717,-0.04233 -0.0894,-0.149754 -0.0217,-0.187854 0.0799,-0.04524 0.12991,-0.105834 0.17092,-0.182034 0.0283,-0.05133 0.0693,-0.05212 0.1143,-0.01984 z"
       id="path15338" />
    <path
       style="fill:#eba05b;stroke-width:0.264583"
       d="m 118.32303,82.075601 c -0.018,-0.10848 0.0381,-0.193411 0.0884,-0.280194 0.0302,0.155046 -0.0148,0.310621 0.003,0.465667 -0.0106,0 -0.0212,-2.65e-4 -0.0318,-2.65e-4 -0.10107,-0.03545 -0.0513,-0.119592 -0.0598,-0.185208 z"
       id="path15339" />
    <path
       style="fill:#cb8237;stroke-width:0.264583"
       d="m 118.50612,82.477503 c 0.0111,0.03016 0.0222,0.06033 0.0331,0.09049 -0.002,0.0069 -0.004,0.01402 -0.006,0.0209 -0.0209,0.04154 -0.001,0.110596 -0.0775,0.114036 -0.032,-0.09366 -0.13124,-0.174625 -0.0542,-0.288661 0.014,-0.01164 0.0278,-0.01138 0.0415,5.29e-4 0.0209,0.02064 0.0421,0.04154 0.063,0.06271 z"
       id="path15340" />
    <path
       style="fill:#e49953;stroke-width:0.264583"
       d="m 118.44315,82.414796 c -0.01,7.94e-4 -0.0188,0.0019 -0.0281,0.0029 -0.0209,0.0164 -0.0415,0.01667 -0.0619,-7.94e-4 0,0 -0.002,-0.0024 -0.002,-0.0024 0.028,-0.01905 0.0595,-0.02778 0.0929,-0.03016 0,0.01005 -2.6e-4,0.02011 -7.9e-4,0.03043 z"
       id="path15341" />
    <path
       style="fill:#e49953;stroke-width:0.264583"
       d="m 118.4442,82.384369 c 2.7e-4,-0.02064 2.7e-4,-0.04128 5.3e-4,-0.06191 0.0159,0.0209 0.0164,0.04154 -5.3e-4,0.06191 z"
       id="path15342" />
    <path
       style="fill:#febd76;stroke-width:0.264583"
       d="m 118.28969,81.674228 c -0.0434,0.0037 -0.0775,0.02223 -0.10081,0.06033 -0.0394,0.06456 -0.0722,0.134408 -0.15399,0.160337 -0.0235,0.0074 -0.0365,0.03598 -0.0333,0.06376 0.004,0.0381 0.0347,0.04736 0.0659,0.05212 0.059,0.009 0.12647,-0.004 0.16139,0.06482 -0.0436,0.05106 -0.11694,0.06535 -0.15451,0.124089 -0.031,-0.01032 -0.0622,-0.02064 -0.0931,-0.03096 -0.0595,-0.113506 -0.0439,-0.226748 2.7e-4,-0.33999 0.0844,-5.29e-4 0.12171,-0.05979 0.15743,-0.12356 0.0198,-0.03519 0.0436,-0.07064 0.0907,-0.07117 0.027,-5.29e-4 0.0444,0.01984 0.0601,0.04022 z"
       id="path15346" />
    <path
       style="fill:#af7a11;stroke-width:0.264583"
       d="m 118.7527,80.995297 c 0.0257,0.163777 -0.0164,0.332052 0.0339,0.494242 0.0278,0.126206 -0.0683,0.196321 -0.13229,0.277283 -0.0344,0.04366 -0.0974,0.02355 -0.12383,-0.03307 -0.0148,-0.03149 -0.0193,-0.06826 -0.0257,-0.103187 -0.0127,-0.06932 -0.0519,-0.09604 -0.12039,-0.07911 0.0662,-0.119856 0.0662,-0.119856 0.18442,-0.09234 0.11827,0.02752 0.14684,0.0093 0.1524,-0.112448 0.005,-0.116681 0.002,-0.233892 0.002,-0.350573 0,0 2.6e-4,-2.65e-4 2.6e-4,-2.65e-4 0.01,-0.01561 0.0196,-0.01561 0.0294,-5.29e-4 z"
       id="path15357" />
    <path
       style="fill:#737e65;stroke-width:0.264583"
       d="m 118.84716,83.404338 c -0.0206,0.0209 -0.0415,0.04154 -0.0622,0.06244 -0.0341,-0.01429 -0.054,-0.04101 -0.0651,-0.07541 -0.0145,-0.04551 -0.0455,-0.06138 -0.0913,-0.05027 -0.0482,-0.134938 -0.0447,-0.139965 0.13732,-0.189707 0.018,-0.0032 0.0362,-0.0029 0.054,5.3e-4 0.0172,0.0058 0.0318,0.01587 0.0434,0.03016 0.031,0.06112 0.004,0.12065 -0.004,0.180975 -0.004,0.01376 -0.008,0.02752 -0.0117,0.04127 z"
       id="path15361" />
    <path
       style="fill:#b98622;stroke-width:0.264583"
       d="m 118.68947,82.971215 c -2.6e-4,-0.0799 0.0267,-0.14605 0.0968,-0.1905 0.01,0.0019 0.0196,0.0037 0.0296,0.0053 0.0291,0.04762 0.0601,0.09446 0.0646,0.1524 -0.004,0.0056 -0.009,0.01138 -0.0135,0.01693 -0.0503,0.005 -0.0913,0.04233 -0.14314,0.04075 -0.0143,-0.0042 -0.0257,-0.0127 -0.0344,-0.02487 z"
       id="path15362" />
    <path
       style="fill:#b98622;stroke-width:0.264583"
       d="m 118.85881,83.362799 c -0.005,-0.0553 -0.0103,-0.110596 -0.0154,-0.165894 -0.0198,-0.03069 -0.0241,-0.06059 0.002,-0.08996 0.0106,-0.0082 0.0225,-0.01296 0.036,-0.01455 0.041,0.09419 0.0526,0.186002 -0.023,0.270405 z"
       id="path15363" />
    <path
       style="fill:#b98622;stroke-width:0.264583"
       d="m 118.88077,82.938671 c 0.0304,0.05106 0.0196,0.102394 7.9e-4,0.153723 0,0 -0.009,0.0048 -0.009,0.0048 -0.10848,-0.0508 -0.0751,-0.102394 -10e-4,-0.154517 z"
       id="path15364" />
    <path
       style="fill:#fab16a;stroke-width:0.264583"
       d="m 119.64885,82.600799 c 0.072,0.03096 0.1442,0.06165 0.21617,0.0926 -0.12118,-0.02381 -0.22225,0.06085 -0.33893,0.06244 -2.7e-4,-0.01032 -5.3e-4,-0.0209 -8e-4,-0.03122 0.05,-0.03228 0.0907,-0.07408 0.12356,-0.123825 z"
       id="path15399" />
    <path
       style="fill:#687155;stroke-width:0.264583"
       d="m 118.78525,83.188174 c -0.0656,0.03731 -0.1569,0.04815 -0.1569,0.152929 -0.059,0.06694 -0.0751,0.163512 -0.15213,0.218016 -0.0265,0.01535 -0.0365,0.0426 -0.0521,0.06694 -0.0384,0.059 -0.0579,0.02355 -0.0736,-0.01878 -0.0182,-0.06615 0.0254,-0.111655 0.0585,-0.156634 0.059,-0.08017 0.0897,-0.167481 0.0934,-0.265906 0.0222,-0.05742 0.0228,-0.125413 0.0802,-0.165629 0.0881,0.03201 0.18653,0.05133 0.20267,0.169069 z"
       id="path15401" />
    <path
       style="fill:#946607;stroke-width:0.264583"
       d="m 118.55798,83.216749 c -0.0124,0.160337 -0.10293,0.279135 -0.20717,0.390525 -0.0492,0.02381 -0.0982,0.04736 -0.14738,0.07117 0.007,-0.0381 0.0326,-0.06297 0.0598,-0.08705 0.004,-0.17145 0.22251,-0.216694 0.23072,-0.390525 0.001,-0.02884 0.0492,-0.02276 0.064,0.01587 z"
       id="path15402" />
    <path
       style="fill:#ae761f;stroke-width:0.264583"
       d="m 118.55798,83.216749 c -0.0228,-0.0011 -0.0439,0.0061 -0.0468,0.02963 -0.01,0.07832 -0.0503,0.131498 -0.12144,0.163777 -0.041,0.01852 -0.059,0.0545 -0.0669,0.09684 -0.007,0.03731 -0.0243,0.06694 -0.0593,0.0844 -5.3e-4,-0.01058 -0.001,-0.02117 -0.002,-0.03175 2.6e-4,-0.01111 2.6e-4,-0.02196 5.3e-4,-0.03307 0.0143,-0.0979 0.0984,-0.145521 0.15372,-0.213784 0.0273,-0.03942 0.0241,-0.08678 0.0349,-0.130439 0.0331,-0.132821 0.10108,-0.191559 0.23919,-0.211138 0.0103,2.65e-4 0.0206,7.94e-4 0.031,0.0011 0.0122,0.02461 0.001,0.04286 -0.0167,0.05927 -0.036,0.02514 -0.073,0.0024 -0.10981,0.0029 -0.041,0.05503 -0.0191,0.122502 -0.0362,0.182298 z"
       id="path15416" />
    <path
       style="fill:#f5ac65;stroke-width:0.264583"
       d="m 119.24748,83.064349 c -0.063,-0.03069 -0.0384,-0.06165 -5.3e-4,-0.09261 0,0.03069 2.6e-4,0.06165 5.3e-4,0.09261 z"
       id="path15710" />
    <path
       style="fill:#fab16a;stroke-width:0.264583"
       d="m 119.86502,82.693667 c 0.0103,0.01032 0.0204,0.02064 0.0307,0.03096 -0.0103,-0.01032 -0.0206,-0.02064 -0.0307,-0.03096 z"
       id="path15711" />
    <path
       style="fill:#cb8237;stroke-width:0.264583"
       d="m 118.53919,82.56799 c 0.0198,0.02805 0.0278,0.06006 0.0299,0.09393 -0.007,0.0019 -0.0145,0.0037 -0.0217,0.0058 -0.0442,-0.0254 -0.0399,-0.05768 -0.0135,-0.0934 z"
       id="path15717" />
    <path
       style="fill:#cb8237;stroke-width:0.264583"
       d="m 118.56909,82.661653 c 0.01,0.01058 0.0193,0.02143 0.0291,0.03201 l -0.005,0.0026 c -0.0228,5.29e-4 -0.0341,-0.0085 -0.0267,-0.03281 z"
       id="path15718" />
    <path
       style="fill:#d88b47;stroke-width:0.264583"
       d="m 118.35319,82.416913 c 0.0206,2.65e-4 0.0413,5.29e-4 0.0619,5.29e-4 -0.0407,0.10504 0.0251,0.187854 0.0579,0.277548 0.008,0.0063 0.0109,0.0127 0.008,0.01931 -0.002,0.0066 -0.005,0.0098 -0.007,0.0098 -0.0648,0.04895 -0.0407,0.09578 0.003,0.141817 0.0444,0.04657 0.0452,0.08758 -0.01,0.128058 -0.0643,0.04762 -0.0643,0.125148 -0.0841,0.193146 -0.006,-0.127 -0.064,-0.24765 -0.0222,-0.382323 0.0386,-0.125412 0.003,-0.258233 -0.008,-0.387879 z"
       id="path15721" />
    <path
       style="fill:#c0702b;stroke-width:0.264583"
       d="m 118.47384,82.724094 c -2.7e-4,-0.0098 -2.7e-4,-0.01958 -8e-4,-0.0291 0.004,-0.04842 0.004,-0.09895 0.0609,-0.120914 0.0108,0.0299 0.0217,0.05979 0.0328,0.08969 0.009,0.01085 0.018,0.0217 0.0267,0.03281 -0.0196,0.0971 -0.0712,0.05556 -0.11959,0.02752 z"
       id="path15722" />
    <path
       style="fill:#fbb26c;stroke-width:0.264583"
       d="m 118.07405,82.199426 c -0.0153,-0.152665 -0.004,-0.16219 0.15452,-0.12409 0.0315,0.02381 0.063,0.02275 0.0945,0 0.0481,0.05265 0.0603,0.116946 0.0601,0.185208 -0.0108,0.08811 -0.081,0.146315 -0.11457,0.224367 -0.0328,0.07567 -0.09,0.02884 -0.13335,-0.0074 -0.0101,-0.01138 -0.0201,-0.02302 -0.0302,-0.03466 0.002,-0.06324 0.0402,-0.09948 0.0868,-0.136789 0.0593,-0.04763 0.0487,-0.08282 -0.0257,-0.100807 -0.0294,-0.0069 -0.0614,-0.004 -0.0921,-0.0058 z"
       id="path15723" />
    <path
       style="fill:#ab7907;stroke-width:0.264583"
       d="m 118.68974,83.002965 c 0.0103,-0.01005 0.0206,-0.02037 0.031,-0.03043 0.0421,-0.05159 0.0847,-0.100012 0.15055,-0.02963 -0.0172,0.05159 -0.0296,0.103187 0.001,0.154516 -0.01,0.03334 -0.0193,0.06641 -0.0291,0.09975 -0.01,-0.0048 -0.019,-0.0093 -0.0283,-0.01402 -0.027,-0.07038 -0.14341,-0.07858 -0.12515,-0.180181 z"
       id="path15773" />
    <path
       style="fill:#9a6704;stroke-width:0.264583"
       d="m 118.68974,83.002965 c 0.0609,0.04683 0.1098,0.1016 0.12515,0.180181 -0.01,0.0019 -0.0199,0.0034 -0.0296,0.005 -0.0632,-0.05159 -0.14367,-0.08202 -0.19076,-0.153723 0.028,-0.0217 0.0606,-0.02963 0.0953,-0.03149 z"
       id="path15774" />
  </g>
</svg>
