<?xml version="1.0" encoding="UTF-8" standalone="no"?>
<!-- Created with Inkscape (http://www.inkscape.org/) -->

<svg
   width="210mm"
   height="297mm"
   viewBox="0 0 210 297"
   version="1.1"
   id="svg1"
   inkscape:version="1.4 (86a8ad7, 2024-10-11)"
   sodipodi:docname="cvet6.svg"
   xmlns:inkscape="http://www.inkscape.org/namespaces/inkscape"
   xmlns:sodipodi="http://sodipodi.sourceforge.net/DTD/sodipodi-0.dtd"
   xmlns="http://www.w3.org/2000/svg"
   xmlns:svg="http://www.w3.org/2000/svg">
  <sodipodi:namedview
     id="namedview1"
     pagecolor="#505050"
     bordercolor="#eeeeee"
     borderopacity="1"
     inkscape:showpageshadow="0"
     inkscape:pageopacity="0"
     inkscape:pagecheckerboard="0"
     inkscape:deskcolor="#505050"
     inkscape:document-units="mm"
     inkscape:zoom="0.72604517"
     inkscape:cx="396.66953"
     inkscape:cy="561.25984"
     inkscape:window-width="1920"
     inkscape:window-height="1017"
     inkscape:window-x="-8"
     inkscape:window-y="-8"
     inkscape:window-maximized="1"
     inkscape:current-layer="layer1" />
  <defs
     id="defs1" />
  <g
     inkscape:label="Layer 1"
     inkscape:groupmode="layer"
     id="layer1">
    <path
       style="fill:#feb772;stroke-width:0.264583"
       d="m 63.08005,94.058323 c -0.03307,0.05953 -0.07329,0.112977 -0.131762,0.150284 -0.0066,0.01111 -0.01588,0.01931 -0.02752,0.0254 l -0.0042,0.0032 c -0.08414,0.01984 -0.16854,0.06588 -0.253736,0.0069 -0.107156,-0.07408 -0.107421,-0.1778 -0.0762,-0.28919 0.0048,-0.01587 0.01376,-0.02963 0.02487,-0.0418 0.01005,-0.01085 0.0209,-0.02196 0.03069,-0.03307 0.0042,-0.0058 0.0087,-0.01164 0.01296,-0.01746 0.01588,-0.02355 0.0291,-0.04842 0.03942,-0.07541 0.0061,-0.01296 0.01244,-0.02593 0.01905,-0.03863 0.05424,-0.103187 0.02593,-0.240241 0.132027,-0.322262 0.06165,-0.07355 0.08811,-0.163248 0.106098,-0.253471 0.04207,-0.209021 0.166952,-0.332581 0.371211,-0.38391 0.138377,-0.03466 0.201877,0.01905 0.203464,0.169333 0.0013,0.133614 -0.03492,0.255323 -0.09684,0.371739 -0.0079,0.01482 -0.01984,0.02619 -0.03307,0.03598 -0.03122,0.02646 -0.0717,0.02037 -0.10795,0.03043 -0.01217,0.0066 -0.02249,0.01508 -0.03122,0.02593 -0.0127,0.02408 -0.01402,0.05292 -0.0299,0.07594 -0.01482,0.05159 -0.12065,0.06403 -0.06244,0.146315 0.0093,0.01005 0.01799,0.02011 0.02752,0.0299 0.0093,0.01085 0.01561,0.02275 0.01984,0.03625 0.0016,0.01376 0.0024,0.02752 0.0029,0.04154 0.0058,0.04154 0.0042,0.08255 -0.0085,0.123032 l 0.0013,-0.0019 c -0.06297,0.04736 -0.09287,0.118004 -0.128059,0.184943 z"
       id="path13827" />
    <path
       style="fill:#febd77;stroke-width:0.264583"
       d="m 60.971321,92.001188 c 0.0074,-0.0063 0.01482,-0.01296 0.02249,-0.01932 0.01852,-0.0037 0.03201,-0.01587 0.04736,-0.0254 0.0064,-0.0063 0.01376,-0.0074 0.02196,-0.0037 0.05107,0.03519 0.140494,0.04101 0.108744,0.139965 -0.01217,0.01561 0.0061,-0.0061 -0.0069,0.01005 0.005,-0.0037 0.0085,-0.009 0.01323,-0.01455 0.04472,-0.03016 0.08202,-0.01191 0.118269,0.01508 0.07673,0.07038 0.04048,0.219075 0.173567,0.250296 0.02222,0.0291 0.03439,0.06165 0.03387,0.09869 -0.0098,0.06112 -0.09684,0.09948 -0.05106,0.176741 -0.0087,0.1651 0.01931,0.319881 0.125677,0.453231 0.03201,0.03995 0.04366,0.09022 0.06165,0.13679 0.0098,0.01905 0.02037,0.03757 0.02699,0.05821 0.03413,0.131234 0.0672,0.262996 0.142081,0.379148 0.0069,0.01349 0.01138,0.02752 0.01349,0.0426 -0.03836,0.133086 -0.02408,0.252413 0.068,0.364596 0.06324,0.07699 -0.01693,0.135731 -0.05741,0.186002 -0.03995,0.04948 -0.111919,0.068 -0.164836,0.01905 -0.159808,-0.148167 -0.278871,-0.328083 -0.379148,-0.5207 -0.004,-0.0074 0.0032,-0.01958 0.0077,-0.02884 0.01296,-0.0164 0.02857,-0.02752 0.05027,-0.03069 0.0926,-0.01296 0.142081,-0.08308 0.166687,-0.157956 0.02699,-0.08176 -0.04551,-0.126471 -0.104245,-0.168275 -0.02117,-0.01508 -0.03836,-0.03334 -0.04868,-0.05768 -0.0254,-0.0762 -0.03334,-0.158485 -0.106362,-0.213783 -0.04577,-0.03466 -0.03731,-0.08625 -0.02408,-0.139964 0.03149,-0.127265 0.02117,-0.168275 -0.05556,-0.286809 0.01588,0.05371 0.01244,0.103981 -0.01111,0.155046 -0.02434,0.05265 -0.02037,0.109273 -0.0024,0.164306 0.01905,0.05821 0.07091,0.100542 0.07911,0.164307 0.0063,0.01482 0.01138,0.02963 0.01693,0.04498 0.0064,0.0254 0.0048,0.05027 -0.0032,0.07488 -0.02249,0.04974 -0.06323,0.07752 -0.113241,0.09393 -0.01693,2.64e-4 -0.03281,-0.0042 -0.0471,-0.01349 -0.04789,-0.09525 -0.07329,-0.197379 -0.09208,-0.30136 -0.04683,-0.234157 -0.06853,-0.473075 -0.131763,-0.704321 0.01455,-0.119327 0.06456,-0.228071 0.101071,-0.341048 z"
       id="path13830" />
    <path
       style="fill:#f8ae69;stroke-width:0.264583"
       d="m 63.353894,93.312463 c 0.02381,-0.05106 0.04313,-0.104775 0.07223,-0.1524 0.06297,-0.103452 0.06429,-0.202406 -0.01482,-0.30771 -0.09975,0.01958 -0.198438,0.0508 -0.291836,0.106362 -0.08784,0.05239 -0.132027,0.122238 -0.136789,0.223838 -0.0029,0.06085 -0.01746,0.121179 -0.02672,0.182033 -0.0085,0.05636 -0.03572,0.09525 -0.09631,0.102658 -0.02461,-0.103452 0.05874,-0.183885 0.06006,-0.281516 0.0032,-0.01005 0.0061,-0.02011 0.0093,-0.03016 0.0074,-0.01243 0.01931,-0.02302 0.01852,-0.03942 0.157956,-0.420158 0.315383,-0.840581 0.475192,-1.259946 0.01773,-0.04657 0.03863,-0.09525 0.08387,-0.125412 0.09657,0.04233 0.02513,0.124883 0.04524,0.18706 0.03757,-0.04842 0.0553,-0.127264 0.144463,-0.09419 -2.65e-4,0.219868 0.02037,0.439472 -2.65e-4,0.659341 -0.0037,0.04048 -0.01296,0.08176 0.0053,0.121444 0.0024,0.01085 2.64e-4,0.02037 -0.0066,0.0291 -0.03413,0.03836 -0.0019,0.09075 -0.02778,0.130969 -0.0019,0.07541 -0.02222,0.145785 -0.05662,0.21246 -0.04789,0.09631 -0.0926,0.19394 -0.143933,0.288661 -0.02857,0.05212 -0.0508,0.08731 -0.112448,0.04683 z"
       id="path13831" />
    <path
       style="fill:#fdb56f;stroke-width:0.264583"
       d="m 61.811902,93.065871 c -0.01005,-0.247385 0.0016,-0.493183 0.04604,-0.736864 0.07805,-0.04604 0.147373,-0.07911 0.2286,0.01058 0.04789,0.05292 0.108479,0.0254 0.147902,-0.04154 0.08758,-0.148166 0.10451,-0.3175 0.151606,-0.477837 0.02699,-0.09181 0.05847,-0.160338 0.166688,-0.08361 0.09975,0.2032 0.123295,0.421745 0.128587,0.643995 -0.05927,0.153194 -0.117475,0.305594 -0.300831,0.35613 -0.07699,0.02143 -0.102923,0.08467 -0.08625,0.158485 0.01244,0.05503 0.01376,0.101335 -0.03413,0.138642 -0.14261,-0.01958 -0.273579,0.04683 -0.412485,0.0545 -0.01349,-0.0053 -0.0254,-0.0127 -0.03572,-0.02249 z"
       id="path13833" />
    <path
       style="fill:#febf79;stroke-width:0.264583"
       d="m 62.553,91.736605 c -0.0508,0.0082 -0.09313,0.03149 -0.08678,0.08837 0.0082,0.07223 -0.02646,0.123032 -0.05583,0.183621 -0.04736,0.09843 -0.07673,0.209286 -0.06879,0.320411 0.0037,0.05212 -0.0085,0.07752 -0.05159,0.09525 -0.03334,0.01376 -0.06668,0.02752 -0.100012,0.04075 -0.102129,0.04101 -0.116681,0.04604 -0.1524,-0.05159 -0.03731,-0.101865 -0.126471,-0.04524 -0.179388,-0.08493 0.01297,-0.164042 0.05636,-0.320411 0.119857,-0.471488 0.03387,-0.08043 0.08017,-0.153458 0.144727,-0.213519 0.170127,-0.157691 0.332316,-0.122766 0.430212,0.09313 z"
       id="path13908" />
    <path
       style="fill:#e39752;stroke-width:0.264583"
       d="m 61.8037,93.249228 c 0.0024,-0.01006 0.0048,-0.02011 0.0071,-0.0299 0.03387,-0.01826 0.0672,-0.0056 0.07567,0.02434 0.04048,0.14314 0.154781,0.264054 0.126471,0.427832 -0.005,0.02937 0.0037,0.06085 0.0069,0.09128 0.01349,0.121444 0.06747,0.190235 0.200819,0.157162 0.01217,-0.0058 0.02513,-0.0098 0.03784,-0.01349 0.109537,-0.05265 0.209021,-0.120649 0.300567,-0.198966 -0.0016,-0.0011 0.01164,-0.0061 0.01005,-0.0074 -0.0019,-0.0016 0.0095,-0.0077 0.0077,-0.0095 -0.0019,-0.0019 0.0069,-0.01032 0.0053,-0.01164 0.0024,-0.01535 0.0042,-0.02963 0.0053,-0.04445 -2.65e-4,-0.01244 0.0029,-0.02355 0.0074,-0.0344 0.0045,-0.01032 0.01138,-0.01932 0.01931,-0.02646 0.0034,-0.0034 0.0077,-0.0069 0.01111,-0.01032 0.0058,-0.0071 0.01191,-0.01455 0.01693,-0.02249 -5.29e-4,-2.64e-4 0.0064,-0.01217 0.0058,-0.01243 0.0026,-0.0093 0.0053,-0.01826 0.0074,-0.02778 0.0026,-0.01587 0.0056,-0.03149 0.01058,-0.0471 0.0079,-0.01667 0.01958,-0.03069 0.03096,-0.04471 0.0098,-0.0087 0.0209,-0.01482 0.0336,-0.01826 0.01376,0 0.02487,0.0053 0.0336,0.01588 0.01085,0.0077 0.02143,0.01508 0.03228,0.02275 0.04339,0.136261 -0.04127,0.252413 -0.05874,0.379148 l 2.65e-4,-7.94e-4 c -0.01905,0.02805 -0.0032,0.06826 -0.03175,0.09313 l -2.65e-4,-5.3e-4 c -0.01058,0.01005 -0.02196,0.01958 -0.03096,0.03122 l 0.0011,0.0011 c -0.01085,0.0095 -0.02302,0.0164 -0.03651,0.02117 -0.113506,-0.0011 -0.211667,0.03149 -0.282575,0.126207 -0.0598,0.07964 -0.143669,0.105568 -0.237331,0.106097 0.0016,0.0013 -0.01058,0.004 -0.0087,0.005 0.0019,0.0013 -0.0074,0.005 -0.0056,0.0063 2.65e-4,0.0077 0,0.01402 0.0011,0.02117 0.0021,0.01429 0.0026,0.02805 0.01032,0.04048 0.0069,0.009 0.01376,0.01773 0.02064,0.02646 0.0074,0.0093 0.01402,0.01905 0.01958,0.02963 0.004,0.01191 0.0066,0.02381 0.0077,0.03598 0.0037,0.04471 0.01085,0.08864 0.02328,0.131498 0.0032,0.0127 0.0056,0.0254 0.0069,0.03836 0.0013,0.02646 0.0013,0.05265 2.65e-4,0.07911 -0.0011,0.01349 -0.0032,0.02699 -0.0066,0.03995 -0.01138,0.03307 -0.01852,0.06721 -0.0291,0.100807 -0.0077,0.0127 -0.01746,0.02302 -0.0299,0.03096 -0.02857,0.01508 -0.05636,0.01243 -0.08361,-0.0029 -0.05292,-0.117211 -0.09551,-0.23839 -0.154517,-0.354278 -0.04207,-0.08255 0.0471,-0.203464 0.0095,-0.311414 -0.08361,-0.127794 -0.113506,-0.270669 -0.12065,-0.420423 v -2.65e-4 c -0.01799,-0.0164 -0.02117,-0.03651 -0.01561,-0.05927 0.0725,-0.06747 0.06588,-0.140229 0.0069,-0.20955 -0.06085,-0.07144 -0.05424,-0.12409 0.03228,-0.164306 z"
       id="path13980" />
    <path
       style="fill:#f5ab66;stroke-width:0.264583"
       d="m 61.779888,93.68288 c 0.0598,0.141287 0.116416,0.283633 0.153458,0.432858 0.02937,0.06006 0.01217,0.115358 -0.01852,0.168804 -0.02672,0.04683 -0.04471,0.08969 -0.02805,0.150019 0.02408,0.08784 -0.01508,0.137054 -0.11377,0.116946 -0.07594,-0.06033 -0.136525,-0.133615 -0.184944,-0.217223 -0.0024,-0.08811 -0.05715,-0.1397 -0.126471,-0.180975 -0.148167,-0.220398 -0.263525,-0.456406 -0.337079,-0.712259 0.0053,-0.0058 0.01032,-0.01138 0.01561,-0.0172 0.0852,-0.0172 0.121444,0.02566 0.137848,0.103716 0.01164,0.05477 0.04075,0.105569 0.03889,0.163777 -5.29e-4,0.0077 -0.0011,0.01535 -0.0016,0.02302 0.0056,0.07594 0.03916,0.128058 0.120915,0.131233 0.06456,0.0026 0.09128,0.02963 0.08652,0.09604 -0.009,0.123296 0.08255,0.191294 0.158485,0.264319 0.03651,0.03519 0.0852,0.03334 0.124619,-0.005 0.03942,-0.03863 0.07223,-0.0934 0.02646,-0.134409 -0.130969,-0.116152 -0.07329,-0.250825 -0.05239,-0.383645 z"
       id="path13989" />
    <path
       style="fill:#ffc07c;stroke-width:0.264583"
       d="m 62.242115,93.00343 c 0.01191,-0.03704 -0.0032,-0.06694 -0.01958,-0.100277 -0.06085,-0.123825 -0.01879,-0.225955 0.112448,-0.249767 0.100277,-0.01799 0.170391,-0.05212 0.194733,-0.159015 0.01746,-0.07646 0.0971,-0.08123 0.152135,-0.114035 0.0336,0.111919 0.02884,0.226748 0.0254,0.341577 -0.02302,0.02461 -0.02725,0.05556 -0.02117,0.08572 0.02037,0.100806 -0.02778,0.150548 -0.120915,0.16854 -0.05636,0.01085 -0.105833,0.03704 -0.153458,0.06853 -0.01244,0.01005 -0.02566,0.01826 -0.03942,0.02593 -0.02275,0.01191 -0.04657,0.01588 -0.0717,0.01323 -0.0254,-0.0042 -0.04657,-0.01614 -0.06271,-0.03625 -0.009,-0.01561 -0.0074,-0.03043 0.0042,-0.04418 z"
       id="path14012" />
    <path
       style="fill:#7e8870;stroke-width:0.264583"
       d="m 62.508815,95.068767 c -0.09525,-0.07699 -0.163777,0.0056 -0.240242,0.04048 -0.02064,-0.08467 -0.02884,-0.175948 -0.118533,-0.224102 0.0016,-0.0064 0.0032,-0.01296 0.0048,-0.01931 0.0077,-0.01852 0.01693,-0.03625 0.02752,-0.05318 0.02196,-0.05636 0.06244,-0.103452 0.07885,-0.162454 0.02487,-0.07514 -0.02725,-0.153723 0.0095,-0.2286 0.009,-0.01429 0.02064,-0.02487 0.03519,-0.03281 0.0508,-0.02037 0.09763,-0.01984 0.137319,0.02381 0.03678,0.142346 0.04921,0.287073 0.03598,0.433652 -0.0034,0.03995 -0.0071,0.08043 0.02805,0.110861 5.29e-4,0.03678 0.0011,0.07435 0.0016,0.111654 z"
       id="path14131" />
    <path
       style="fill:#efa560;stroke-width:0.264583"
       d="m 61.773273,94.551771 c 0.02831,-0.02223 0.06826,-0.05371 0.05662,-0.08361 -0.0471,-0.120386 0.02884,-0.194733 0.08678,-0.279136 0.01323,-0.01905 0.01191,-0.04842 0.0172,-0.07303 0.04101,0.07514 0.06694,0.149755 0.01005,0.230188 -0.0209,0.02963 -0.01085,0.0672 0.01852,0.08017 0.170656,0.07541 0.134409,0.205846 0.09499,0.338402 0.0098,0.01402 0.0085,0.02725 -0.0024,0.03969 -0.111389,-0.06535 -0.203464,-0.151341 -0.281781,-0.252677 z"
       id="path14135" />
    <path
       style="fill:#efa660;stroke-width:0.264583"
       d="m 63.353894,93.312463 c 0.07699,-0.04101 0.102923,-0.123031 0.149225,-0.188383 0.03519,-0.04974 0.06191,-0.10504 0.107156,-0.147638 -0.03863,0.18415 -0.10795,0.356658 -0.197644,0.521229 -0.04101,0.01508 -0.0717,0.0336 -0.09287,0.08043 -0.03334,0.07408 -0.102394,0.116152 -0.182034,0.136789 -0.129645,-0.09102 -0.123031,-0.143139 0.03149,-0.24765 0.02778,-0.03757 -0.0042,-0.104775 0.06165,-0.123296 v -2.64e-4 c 0.03493,-0.03466 0.08811,0.0034 0.123031,-0.03122 z"
       id="path14140" />
    <path
       style="fill:#f5ab64;stroke-width:0.264583"
       d="m 62.302704,93.992177 c -0.04127,0.07355 -0.08837,0.08255 -0.16166,0.03307 -0.08917,-0.06033 -0.176477,-0.129116 -0.169333,-0.238918 0.01402,-0.211667 -0.07699,-0.386821 -0.160602,-0.567002 -0.0079,-0.05133 -0.0093,-0.102394 0.0011,-0.153459 0.0095,2.65e-4 0.01879,2.65e-4 0.02831,5.29e-4 0.01402,0.0034 0.02672,0.0093 0.03836,0.01746 0.112448,0.103981 0.201348,0.221721 0.221456,0.379677 -0.02963,0.213254 0.04524,0.386556 0.202406,0.528637 z"
       id="path14169" />
    <path
       style="fill:#d38f41;stroke-width:0.264583"
       d="m 62.089186,94.052502 c 0.114829,0.08758 0.162454,0.08758 0.26035,-0.03545 0.05794,-0.07303 0.125677,-0.110066 0.211402,-0.129645 0.04313,-0.0098 0.0672,0.0074 0.08387,0.04392 -0.0508,0.129911 -0.06959,0.255059 0.03704,0.370682 0.02646,0.02884 0.0164,0.068 -0.0071,0.100012 -0.03678,0.0344 -0.07885,0.03519 -0.123561,0.01984 -0.02752,-0.009 -0.05662,-0.01588 -0.07011,-0.04604 -0.02884,-0.05927 0.03625,-0.187325 -0.115359,-0.157427 -0.0635,-0.02778 -0.125941,0.0029 -0.188912,0.0034 -0.103717,-0.01799 -0.153194,-0.06403 -0.08758,-0.169334 z"
       id="path14175" />
    <path
       style="fill:#fbb46f;stroke-width:0.264583"
       d="m 63.687534,91.829473 c -0.05001,0.06747 -0.06535,0.148167 -0.08837,0.226219 -0.01879,0.06297 -0.06059,0.07408 -0.133615,0.04763 -0.05689,-0.02064 -0.03942,-0.04895 -0.02434,-0.09419 0.03016,-0.08996 0.04445,-0.185472 0.06535,-0.278606 0.111389,-0.09498 0.135731,-0.08678 0.1905,0.06429 0.01482,0.0164 0.01164,0.02778 -0.0095,0.03466 z"
       id="path14195" />
    <path
       style="fill:#e0944f;stroke-width:0.264583"
       d="m 61.623519,93.283888 c -0.0098,-0.01111 -0.01931,-0.02249 -0.0291,-0.0336 -0.07805,-0.134938 -0.104775,-0.292894 -0.188913,-0.424656 -0.03334,-0.05212 0,-0.08758 0.02011,-0.126471 0.01826,-0.03545 0.04974,-0.05133 0.08996,-0.04075 0.04683,0.01244 0.06032,0.04842 0.068,0.09181 0.01746,0.101071 0.04762,0.197909 0.105039,0.284427 0.03731,0.0553 0.05424,0.118534 0.07144,0.181505 -0.01164,0.05106 -0.05107,0.06985 -0.09578,0.08255 -0.01535,-2.65e-4 -0.02884,-0.0053 -0.04075,-0.01482 z"
       id="path14208" />
    <path
       style="fill:#eca462;stroke-width:0.264583"
       d="m 61.688342,93.03465 c -0.09102,-0.01905 -0.07541,-0.109272 -0.108215,-0.166687 -0.01667,-0.02937 -0.01508,-0.06906 -0.02381,-0.103717 -0.01005,-0.03916 -0.03466,-0.06694 -0.07726,-0.05133 -0.0463,0.01667 -0.06297,0.05662 -0.03439,0.0979 0.07964,0.115358 0.06191,0.268023 0.149754,0.379942 0.0095,0.01217 2.64e-4,0.03916 -2.65e-4,0.05927 -0.114829,-0.126471 -0.143139,-0.296598 -0.221191,-0.441854 -0.03122,-0.05821 0.02884,-0.113771 0.03307,-0.173567 0.01852,-0.06218 0.02381,-0.136789 0.119328,-0.125941 0.06853,0.17145 0.123031,0.346604 0.162983,0.525991 z"
       id="path14212" />
    <path
       style="fill:#d0813f;stroke-width:0.264583"
       d="m 61.655269,93.282036 c 0.02011,-0.04551 0.05927,-0.06059 0.10451,-0.06562 0.01455,0.01085 0.02937,0.0217 0.04392,0.03281 -0.02143,0.05768 -0.0074,0.106362 0.02963,0.155045 0.04657,0.06086 0.07091,0.13388 0.08811,0.207963 0.01005,0.04286 0.02143,0.08943 -0.02487,0.124089 -0.059,-0.02037 -0.06588,-0.09022 -0.116152,-0.115622 -0.08255,-0.0979 -0.135996,-0.206375 -0.125148,-0.338667 z"
       id="path14233" />
    <path
       style="fill:#eda663;stroke-width:0.264583"
       d="m 63.687534,91.829473 c 0.0032,-0.01164 0.0063,-0.02328 0.0095,-0.03492 0.06429,0.175948 0.06112,0.359305 0.0463,0.540809 -0.0071,0.08943 -0.0032,0.183356 -0.04233,0.268552 -0.03942,-0.0045 -0.07594,-0.0164 -0.05503,-0.06588 0.03598,-0.08467 0.02222,-0.155311 -0.0066,-0.245005 -0.0299,-0.09287 0.0077,-0.208756 0.02196,-0.313795 0.0071,-0.05001 0.03016,-0.09763 0.02619,-0.149755 z"
       id="path14241" />
    <path
       style="fill:#fcc78d;stroke-width:0.264583"
       d="m 62.335248,93.003694 c 0.0058,-0.07117 0.02937,-0.113241 0.115623,-0.100806 0.139171,0.02011 0.138906,0.01508 0.200025,-0.109802 0.01296,-0.02646 0.03731,-0.04762 0.05636,-0.07117 0.04075,0.207962 0.03254,0.419894 0.05186,0.629444 -0.01349,0.0079 -0.02805,0.01085 -0.04366,0.0093 -0.121443,-0.03625 -0.126735,-0.135202 -0.128058,-0.236537 -0.01429,-0.07303 -0.0762,-0.07091 -0.129646,-0.0807 -0.0426,-0.0077 -0.09393,0.01138 -0.122502,-0.03969 z"
       id="path14242" />
    <path
       style="fill:#efa866;stroke-width:0.264583"
       d="m 60.884009,92.3552 c 0.01217,0.03545 0.03678,0.06086 0.06641,0.08255 0.03069,0.02249 0.0471,0.05186 0.0471,0.09155 5.29e-4,0.172509 0.0024,0.344752 0.004,0.516996 -0.08202,-0.223308 -0.155575,-0.448204 -0.146315,-0.690827 0.0095,-0.01535 0.01905,-0.01614 0.02884,-2.65e-4 z"
       id="path14263" />
    <path
       style="fill:#eaa35e;stroke-width:0.264583"
       d="m 62.674709,94.402017 c -0.142611,-0.148431 -0.122238,-0.307181 -0.0299,-0.470694 0.01032,2.65e-4 0.0209,7.94e-4 0.03122,0.0011 -0.07832,0.228864 -0.07355,0.236802 0.166159,0.287866 0.02487,0.0053 0.04948,0.01164 0.07408,0.01746 -0.06958,0.07064 -0.146579,0.130969 -0.241564,0.164306 z"
       id="path14265" />
    <path
       style="fill:#707759;stroke-width:0.264583"
       d="m 62.517017,94.360477 c 0.01138,0.02037 0.02275,0.04101 0.03413,0.06138 -0.02857,0.02196 -0.03651,0.05609 -0.05159,0.08625 -0.01746,0.01005 -0.03466,0.0077 -0.05159,-0.0019 -0.0093,-0.0085 -0.01561,-0.01852 -0.01931,-0.03043 -7.94e-4,-0.0061 -0.0013,-0.01217 -0.0021,-0.01826 -0.03387,-0.02884 -0.07408,-0.03254 -0.116152,-0.02884 -0.08096,-0.02884 -0.09657,-0.09816 -0.106362,-0.170921 0.0037,-0.01587 0.01138,-0.02937 0.02275,-0.04101 0.04128,-0.02963 0.08917,-0.02222 0.135467,-0.02355 0.119591,-0.0071 0.108743,0.106627 0.154781,0.167216 z"
       id="path14298" />
    <path
       style="fill:#e49b59;stroke-width:0.264583"
       d="m 63.137465,93.714894 c -0.0069,-0.0336 0.0042,-0.06033 0.03387,-0.07726 0.05027,-0.02858 0.08758,-0.068 0.109538,-0.121708 0.03334,-0.08202 0.08202,-0.05345 0.131498,-0.01826 -0.03519,0.100807 -0.07938,0.196586 -0.146579,0.280459 -0.04472,0.02593 -0.06959,-0.0087 -0.0979,-0.03202 l 5.29e-4,-5.29e-4 c -0.01005,-0.01058 -0.01931,-0.02196 -0.03069,-0.03122 z"
       id="path14299" />
    <path
       style="fill:#e69f60;stroke-width:0.264583"
       d="m 61.161292,92.107815 c -0.03281,-0.05159 -0.06562,-0.103452 -0.09843,-0.155046 0.119856,-0.03069 0.20611,0.01905 0.272785,0.115094 0.03466,0.05001 0.07144,0.09869 0.08308,0.160602 -0.105039,0.06271 -0.08758,-0.06615 -0.138112,-0.08837 -0.03969,-0.01085 -0.07937,-0.02143 -0.119327,-0.03228 z"
       id="path14321" />
    <path
       style="fill:#8e9880;stroke-width:0.264583"
       d="m 62.459602,94.485625 c 0.01349,0.0074 0.02672,0.01508 0.04022,0.02249 0.0024,0.14949 0.005,0.298979 0.0077,0.448733 -0.04339,0.0053 -0.08017,-0.01984 -0.07012,-0.05688 0.03942,-0.142346 -0.0011,-0.277283 -0.02222,-0.414867 -0.0013,-0.0082 0.0074,-0.01826 0.01164,-0.02752 0,0 7.94e-4,-0.0011 7.94e-4,-0.0011 0.009,0.01138 0.02196,0.01852 0.03201,0.0291 z"
       id="path14326" />
    <path
       style="fill:#e8a15a;stroke-width:0.264583"
       d="m 62.737944,93.808292 c -0.0037,-0.08017 0.0016,-0.158485 0.03493,-0.233362 0.02064,-0.04604 0.02434,-0.09578 0.02381,-0.145786 0.04101,-0.08123 0.08202,-0.162454 0.123032,-0.243681 0.03519,0.105569 -0.02593,0.190765 -0.06006,0.281517 -0.03678,0.06667 -0.05345,0.139435 -0.06006,0.214048 -0.0045,0.05106 -0.01005,0.09975 -0.06165,0.127264 z"
       id="path14335" />
    <path
       style="fill:#df954f;stroke-width:0.264583"
       d="m 61.525888,92.509188 c -0.02408,0.05689 -0.03995,0.121444 -0.119327,0.125942 -0.04445,-0.02672 -0.09419,-0.0508 -0.07223,-0.117211 0.02011,-0.06059 0.06773,-0.07011 0.123825,-0.06324 0.01508,0.0019 0.03043,-0.0016 0.04577,-0.0024 0.01693,0.01508 0.02434,0.03413 0.02196,0.05688 z"
       id="path14354" />
    <path
       style="fill:#eca35f;stroke-width:0.264583"
       d="m 61.280619,92.140094 c 0.04815,0.02619 0.07911,0.07911 0.138112,0.08837 0.02646,0.0381 0.05107,0.07673 0.05107,0.125413 -0.151871,0.02117 -0.162719,0.01244 -0.176212,-0.138907 -0.0019,-0.0254 -0.0085,-0.05001 -0.01297,-0.07488 z"
       id="path14384" />
    <path
       style="fill:#e69f60;stroke-width:0.264583"
       d="m 60.884009,92.3552 c -0.0095,0 -0.01931,2.65e-4 -0.02884,5.3e-4 -0.0053,-0.132557 0.0071,-0.259292 0.115887,-0.354542 0.01879,0.12991 -0.04524,0.239183 -0.08705,0.354012 z"
       id="path14396" />
    <path
       style="fill:#d28f54;stroke-width:0.264583"
       d="m 61.461594,94.153309 c 0.03651,0.0024 0.06826,0.01799 0.100277,0.03466 0.07355,0.03836 0.07832,0.08652 0.02619,0.146315 -0.05583,-0.05054 -0.09842,-0.110596 -0.126471,-0.180975 z"
       id="path14428" />
    <path
       style="fill:#efa660;stroke-width:0.264583"
       d="m 63.08005,94.058323 c 0.01138,-0.08361 0.04763,-0.149754 0.128588,-0.185208 -0.02858,0.0717 -0.07144,0.133615 -0.128588,0.185208 z"
       id="path14465" />
    <path
       style="fill:#df9750;stroke-width:0.264583"
       d="m 62.054525,94.804184 c 7.94e-4,-0.01323 0.0016,-0.02646 0.0024,-0.03969 0.02064,-0.01005 0.04154,-0.02011 0.06244,-0.03043 0.05371,0.03202 0.068,0.07303 0.02831,0.126206 -5.3e-4,0.0085 2.64e-4,0.01667 0.0024,0.02461 -0.0336,-0.02487 -0.07408,-0.04127 -0.09551,-0.0807 z"
       id="path14468" />
    <path
       style="fill:#efa660;stroke-width:0.264583"
       d="m 63.167892,93.746115 c 0.03254,0.01085 0.06535,0.02143 0.0979,0.03202 -0.0053,0.01111 -0.01032,0.02222 -0.01561,0.03334 -0.0029,0.01005 -0.0085,0.01826 -0.01667,0.02461 -0.0021,0.01773 -0.0095,0.03149 -0.02646,0.03916 -0.01296,-0.04313 -0.02593,-0.08625 -0.03916,-0.129117 z"
       id="path14475" />
    <path
       style="fill:#eda663;stroke-width:0.264583"
       d="m 63.666896,92.763982 c -0.0045,-0.04657 5.29e-4,-0.09102 0.02778,-0.130969 0.0034,0.0463 0.0019,0.09155 -0.02778,0.130969 z"
       id="path14500" />
    <path
       style="fill:#fec687;stroke-width:0.264583"
       d="m 61.093559,93.347917 c 0.01191,-0.0016 0.02408,-0.0032 0.03598,-0.0048 0.03942,0.0011 0.0717,0.01032 0.07064,0.05953 -0.01376,0.02037 -0.03387,0.02275 -0.05609,0.01905 -0.01482,-2.65e-4 -0.02672,-0.0061 -0.03651,-0.01746 -0.0045,-0.01905 -0.0093,-0.03784 -0.01402,-0.05636 z"
       id="path14511" />
    <path
       style="fill:#e8a15a;stroke-width:0.264583"
       d="m 62.737415,93.34633 c 0.0071,0.0013 0.01429,0.0029 0.02143,0.005 0.0019,0.01826 0.0037,0.03651 0.0056,0.05477 -0.0085,2.65e-4 -0.01693,2.65e-4 -0.0254,5.3e-4 -0.01058,-0.0071 -0.01667,-0.0172 -0.01852,-0.02963 0.0013,-0.01243 0.0071,-0.02275 0.01693,-0.03069 z"
       id="path14529" />
    <path
       style="fill:#e49b59;stroke-width:0.264583"
       d="m 63.233509,93.836073 c 0.004,-0.0093 0.0098,-0.01746 0.01667,-0.02461 0.0019,0.01323 -0.0048,0.02064 -0.01667,0.02461 z"
       id="path14555" />
    <path
       style="fill:#e69f60;stroke-width:0.264583"
       d="m 61.040906,91.956473 c -0.01561,0.0085 -0.03148,0.01693 -0.04709,0.0254 0.01058,-0.01773 0.02593,-0.02699 0.04709,-0.0254 z"
       id="path14577" />
    <path
       style="fill:#eaa35e;stroke-width:0.264583"
       d="m 62.920771,94.234271 c 0.0093,-0.0085 0.01826,-0.01693 0.02752,-0.0254 -0.0029,0.01535 -0.01191,0.02381 -0.02752,0.0254 z"
       id="path14583" />
    <path
       style="fill:#f5ab66;stroke-width:0.264583"
       d="m 61.107846,93.404009 c 0.0087,7.94e-4 0.0172,0.0019 0.02593,0.0032 0.0095,0.0053 0.01297,0.01111 0.01032,0.01693 -0.0029,0.0061 -0.0058,0.0093 -0.0087,0.0093 l -0.01058,0.0077 c -0.01508,-0.0079 -0.02011,-0.02064 -0.01693,-0.03704 z"
       id="path14603" />
    <path
       style="fill:#e8a15a;stroke-width:0.264583"
       d="m 62.947494,93.115613 c -0.0061,0.01323 -0.01243,0.02619 -0.01852,0.03942 -0.0016,-0.01693 0.0045,-0.03016 0.01852,-0.03942 z"
       id="path14628" />
    <path
       style="fill:#f8ae69;stroke-width:0.264583"
       d="m 63.230863,93.343948 c -0.02064,0.04101 -0.04101,0.08229 -0.06165,0.123296 -0.01297,-0.05768 -0.02699,-0.116152 0.06165,-0.123296 z"
       id="path14993" />
    <path
       style="fill:#e8a15a;stroke-width:0.264583"
       d="m 62.706459,93.900367 c 0.0016,-0.03413 0.01032,-0.06588 0.03175,-0.09313 0.01296,0.03916 0.0045,0.07091 -0.03175,0.09313 z"
       id="path14994" />
    <path
       style="fill:#f8ae69;stroke-width:0.264583"
       d="m 63.353894,93.312463 c -0.03731,0.02567 -0.07964,0.03096 -0.123296,0.03122 0.03731,-0.02593 0.07964,-0.03122 0.123296,-0.03122 z"
       id="path14995" />
    <path
       style="fill:#efa660;stroke-width:0.264583"
       d="m 63.137729,93.714365 c 0.01032,0.01032 0.02037,0.0209 0.03069,0.03122 -0.01032,-0.01032 -0.02037,-0.02064 -0.03069,-0.03122 z"
       id="path14996" />
    <path
       style="fill:#e8a15a;stroke-width:0.264583"
       d="m 62.674973,93.931323 c 0.01032,-0.01058 0.02064,-0.0209 0.03096,-0.03122 -0.01005,0.01032 -0.02037,0.02064 -0.03096,0.03122 z"
       id="path14997" />
    <path
       style="fill:#ffcf92;stroke-width:0.264583"
       d="m 61.193306,93.404273 c -0.02117,-0.02037 -0.04233,-0.04075 -0.0635,-0.06112 0.02064,-0.03096 0.04127,-0.06165 0.06191,-0.0926 0.01879,-0.02011 0.02011,-0.04048 0.0013,-0.06138 5.29e-4,-0.01005 0.0013,-0.01984 0.0019,-0.0299 0.02752,-0.05186 0.06482,-0.06694 0.123825,-0.04789 0.0889,0.02884 0.08096,0.102658 0.09049,0.170391 0.118534,0.04127 0.206111,0.107157 0.215371,0.246592 0.0037,0.0553 0.0071,0.102394 -0.05609,0.124354 -0.02963,0.01032 -0.05212,0.02937 -0.07276,0.05371 -0.07646,0.09075 -0.07726,0.09022 -0.180446,0.0087 l -2.64e-4,-2.65e-4 c -0.03889,-0.05688 -0.09075,-0.108479 -0.05662,-0.188648 0.02752,-0.06535 -0.04419,-0.08096 -0.06509,-0.121973 z"
       id="path14998" />
    <path
       style="fill:#fec687;stroke-width:0.264583"
       d="m 61.409206,93.281507 c -0.0762,-0.142346 -0.0762,-0.142346 -0.214577,-0.122502 -0.15187,-0.104775 -0.157956,-0.248444 -0.103716,-0.405077 0.01455,-0.04207 0.01217,-0.08123 5.29e-4,-0.120386 -0.02064,-0.07064 -0.005,-0.129381 0.05583,-0.192617 0.02937,0.08758 0.09075,0.148432 0.133615,0.216694 0.05821,0.09287 0.103981,0.210873 0.03069,0.325702 -0.02302,0.03598 -0.03413,0.06085 0.01111,0.08678 0.110331,0.06297 0.109802,0.06403 0.08652,0.211402 z"
       id="path14999" />
    <path
       style="fill:#f5ab66;stroke-width:0.264583"
       d="m 61.655269,93.282036 c 0.04154,0.112712 0.08334,0.225689 0.124883,0.338402 0,0.02064 0,0.04154 -2.64e-4,0.06218 -0.119857,-0.106362 -0.137319,-0.252942 -0.156634,-0.398727 0.01085,-5.29e-4 0.02143,-0.0013 0.03201,-0.0019 z"
       id="path15000" />
    <path
       style="fill:#ffc78c;stroke-width:0.264583"
       d="m 61.161556,92.107815 c -0.02011,0.08096 -0.05186,0.1524 -0.138377,0.189706 -0.02778,-0.164571 -0.01058,-0.186796 0.138377,-0.189706 z"
       id="path15001" />
    <path
       style="fill:#ffc68a;stroke-width:0.264583"
       d="m 61.737554,94.184265 c -0.04286,-0.0074 -0.0725,-0.0344 -0.08281,-0.07646 -0.0079,-0.03201 0.01693,-0.04577 0.04524,-0.04604 0.04657,-7.94e-4 0.07937,0.01931 0.08255,0.06959 0.0019,0.02831 -0.0127,0.04842 -0.04498,0.05292 z"
       id="path15002" />
    <path
       style="fill:#fec687;stroke-width:0.264583"
       d="m 61.192777,93.188903 c 0.01455,0.02064 0.01482,0.04127 -0.0013,0.06138 5.3e-4,-0.02037 0.0011,-0.04075 0.0013,-0.06138 z"
       id="path15003" />
    <path
       style="fill:#febc71;stroke-width:0.264583"
       d="m 61.841536,93.096034 c -5.3e-4,-0.01005 -7.94e-4,-0.01984 -0.0013,-0.0299 0.0019,-0.0098 0.0026,-0.02805 0.0061,-0.02858 0.131233,-0.01826 0.254794,-0.13044 0.395817,-0.0344 0,0.01032 2.64e-4,0.0209 2.64e-4,0.03122 0.01244,0.01931 0.01931,0.04022 0.01667,0.0635 -0.0037,0.02566 -0.01482,0.04842 -0.02963,0.06932 -0.03122,0.04471 -0.08625,0.09419 -0.03784,0.146579 0.0598,0.06456 0.09922,0.170392 0.219075,0.149489 0.05477,-0.0095 0.110596,-0.02884 0.153988,0.02699 0.0098,0.140758 -0.03069,0.265112 -0.156633,0.334698 -0.07355,0.04075 -0.09102,0.09763 -0.10504,0.166158 0,0 -5.29e-4,7.94e-4 -7.94e-4,7.94e-4 -0.1016,0.02487 -0.150019,-0.02011 -0.203464,-0.110067 -0.0807,-0.134673 -0.105569,-0.2667 -0.07355,-0.415131 -0.01799,-0.144727 -0.02037,-0.297392 -0.18362,-0.370681 z"
       id="path15006" />
    <path
       style="fill:#ffc685;stroke-width:0.264583"
       d="m 62.230209,91.805132 c 0.0066,0.06588 -0.01931,0.09393 -0.03281,0.125941 -0.01376,0.03254 -0.01508,0.06086 0.01879,0.07885 0.06694,0.03598 0.0799,0.101336 0.100541,0.173302 -0.05953,0.03916 -0.136525,0.03757 -0.193146,0.08176 -0.02831,0.02196 -0.06747,0.03519 -0.09763,0.0019 -0.02805,-0.03122 -0.05001,-0.07408 -0.02381,-0.112448 0.07408,-0.108215 0.115358,-0.23839 0.228071,-0.34925 z"
       id="path15134" />
    <path
       style="fill:#f4ae63;stroke-width:0.264583"
       d="m 62.303498,93.991384 c -0.02434,-0.07673 -0.0127,-0.140494 0.06218,-0.184944 0.04551,-0.02699 0.08096,-0.06562 0.08758,-0.120121 0.0093,-0.07594 0.05662,-0.12991 0.0979,-0.188119 0.0034,-0.0058 0.0071,-0.01164 0.01058,-0.01746 0.05503,-0.01217 0.06324,-0.06747 0.0934,-0.102658 0.02672,-0.01667 0.05345,-0.0217 0.08043,-7.94e-4 0.0011,0.0098 0.0019,0.01958 0.0029,0.02937 -0.0016,0.0095 -0.0026,0.01905 -0.0034,0.02858 -0.01006,0.01032 -0.01879,0.02196 -0.0299,0.03175 2.64e-4,0.02064 2.64e-4,0.04127 5.29e-4,0.06165 0.0077,0.0071 0.01005,0.01402 0.0074,0.0209 -0.0026,0.0069 -0.0053,0.01032 -0.0079,0.01032 h -2.65e-4 c -0.01032,0.01005 -0.02064,0.02011 -0.03043,0.03096 l -5.29e-4,5.29e-4 c -0.01058,0.01005 -0.02064,0.02011 -0.03069,0.03043 v 2.64e-4 c -0.02884,0.03307 -0.0087,0.07382 -0.01746,0.110067 -0.0042,0.0048 -0.0082,0.0095 -0.01244,0.01455 -0.105833,0.07779 -0.237066,0.12409 -0.309827,0.24474 z"
       id="path15241" />
    <path
       style="fill:#cc853a;stroke-width:0.264583"
       d="m 62.147659,94.860275 c -0.0093,-0.04207 -0.01879,-0.08414 -0.02831,-0.126206 0,0 -2.64e-4,-2.64e-4 -2.64e-4,-2.64e-4 0.0336,-0.03545 -0.0032,-0.08811 0.03016,-0.123825 l 2.65e-4,-5.3e-4 c 0.02275,-0.03069 0.02223,-0.06165 2.64e-4,-0.0926 l 2.65e-4,2.65e-4 c -0.01746,-0.06059 0.02249,-0.130704 -0.03149,-0.185209 v -2.64e-4 c -0.0093,-0.0098 -0.01905,-0.01905 -0.0291,-0.02805 -0.01032,-0.0013 -0.02037,-0.0024 -0.03069,-0.0032 -0.03175,-0.02328 -0.0032,-0.068 -0.03281,-0.09181 l -2.64e-4,-5.3e-4 c -0.01032,-0.01032 -0.01931,-0.02143 -0.03043,-0.03096 2.64e-4,-0.03069 -0.0019,-0.06191 0.0013,-0.09234 0.0077,-0.07329 0.04445,-0.07064 0.0926,-0.03281 0.01217,0.07303 0.04921,0.120386 0.127793,0.125413 0.04762,0.0021 0.04471,0.02805 0.02857,0.06059 l -0.01032,0.0011 c -0.03942,0.08228 0.02011,0.153458 0.02963,0.229923 0.01773,0.139435 5.29e-4,0.268816 -0.04948,0.397139 -0.02408,0.01482 -0.04657,0.01217 -0.06773,-0.0058 z"
       id="path15242" />
    <path
       style="fill:#df9750;stroke-width:0.264583"
       d="m 62.118554,94.332432 c 0.07091,0.05133 0.06006,0.116681 0.03149,0.185208 -0.03704,-0.05742 -0.03016,-0.121973 -0.03149,-0.185208 z"
       id="path15243" />
    <path
       style="fill:#d38f41;stroke-width:0.264583"
       d="m 62.674444,93.745057 c -0.0063,0.02275 0,0.059 -0.03731,0.05371 -0.02117,-0.0029 -0.02011,-0.03254 -0.02328,-0.05239 l -0.0013,-0.0016 c 0.0095,-0.02064 0.01958,-0.02117 0.03043,-7.94e-4 0.01058,5.3e-4 0.02117,0.0011 0.03201,0.0016 z"
       id="path15244" />
    <path
       style="fill:#e8a15a;stroke-width:0.264583"
       d="m 62.642959,93.743734 c -0.01005,7.94e-4 -0.02011,0.0011 -0.03043,7.94e-4 5.3e-4,-0.04366 0.0053,-0.08599 0.03122,-0.122767 -2.64e-4,0.04075 -5.29e-4,0.08149 -7.93e-4,0.121973 z"
       id="path15245" />
    <path
       style="fill:#df9750;stroke-width:0.264583"
       d="m 62.149511,94.610244 c -0.0011,0.04339 -0.0048,0.08625 -0.03016,0.123825 -5.29e-4,-0.04392 0.0045,-0.08625 0.03016,-0.123825 z"
       id="path15246" />
    <path
       style="fill:#df9750;stroke-width:0.264583"
       d="m 62.02595,94.209136 c 0.02037,0.02725 0.02857,0.05874 0.03281,0.09181 -0.02117,-0.02672 -0.03043,-0.05821 -0.03281,-0.09181 z"
       id="path15247" />
    <path
       style="fill:#df9750;stroke-width:0.264583"
       d="m 62.149775,94.517375 c 0.02249,0.03096 0.02381,0.06191 -2.64e-4,0.0926 2.64e-4,-0.03096 2.64e-4,-0.06191 2.64e-4,-0.0926 z"
       id="path15248" />
    <path
       style="fill:#d38f41;stroke-width:0.264583"
       d="m 62.674973,93.745321 c 0,0 -5.29e-4,-5.29e-4 -5.29e-4,-5.29e-4 0,2.65e-4 5.29e-4,5.29e-4 5.29e-4,5.29e-4 z"
       id="path15249" />
    <path
       style="fill:#df9750;stroke-width:0.264583"
       d="m 61.995259,94.177386 c 0.01005,0.01032 0.02011,0.02064 0.03043,0.03096 -0.01006,-0.01032 -0.02037,-0.02064 -0.03043,-0.03096 z"
       id="path15250" />
    <path
       style="fill:#e8a15a;stroke-width:0.264583"
       d="m 62.644017,93.621496 c 0.01032,-0.01005 0.02037,-0.02011 0.03069,-0.03043 -0.01032,0.01032 -0.02037,0.02037 -0.03069,0.03043 z"
       id="path15251" />
    <path
       style="fill:#e8a15a;stroke-width:0.264583"
       d="m 62.675238,93.590805 c 0.01005,-0.01032 0.02011,-0.02064 0.03043,-0.03096 -0.01005,0.01032 -0.02037,0.02064 -0.03043,0.03096 z"
       id="path15252" />
    <path
       style="fill:#e8a15a;stroke-width:0.264583"
       d="m 62.705665,93.559848 c 2.64e-4,-0.01032 2.64e-4,-0.02064 5.29e-4,-0.03096 0,0.01032 -2.65e-4,0.02064 -5.29e-4,0.03096 z"
       id="path15253" />
    <path
       style="fill:#df9750;stroke-width:0.264583"
       d="m 62.08945,94.304121 c 0.0098,0.0093 0.01931,0.01852 0.0291,0.02805 -0.0098,-0.0093 -0.01931,-0.01852 -0.0291,-0.02805 z"
       id="path15254" />
    <path
       style="fill:#e8a15a;stroke-width:0.264583"
       d="m 62.705665,93.46698 c 0.0098,-0.01058 0.01984,-0.02117 0.0299,-0.03175 -0.01005,0.01085 -0.01984,0.02143 -0.0299,0.03175 z"
       id="path15255" />
    <path
       style="fill:#febd77;stroke-width:0.264583"
       d="m 61.193306,93.404273 c 0.07752,0.005 0.143934,0.03387 0.101071,0.121709 -0.03704,0.07567 0.03916,0.124089 0.02064,0.188912 -0.0553,-0.0344 -0.08652,-0.08414 -0.09049,-0.149225 -0.004,-0.06191 -0.03889,-0.101864 -0.08916,-0.132027 -7.94e-4,-0.0087 -0.0013,-0.01746 -0.0016,-0.02646 0.01984,-0.0011 0.03969,-0.0021 0.05953,-0.0029 z"
       id="path15257" />
    <path
       style="fill:#ffd19b;stroke-width:0.264583"
       d="m 62.212481,93.065871 c 0.01006,-0.01032 0.01984,-0.0209 0.0299,-0.03122 0.02037,-2.64e-4 0.04075,-7.93e-4 0.06138,-0.0011 0.01085,-0.0095 0.02117,-0.01931 0.03122,-0.02963 l 2.64e-4,-2.65e-4 c 0.08652,-0.0852 0.179123,-0.04022 0.268023,-0.0087 0.04418,0.01561 0.05318,0.05715 0.04075,0.1016 -5.29e-4,0.0079 -0.0011,0.01587 -0.0016,0.02381 -0.0021,0.01614 -0.0071,0.03122 -0.01455,0.04551 -0.07541,0.100806 -0.154516,0.182033 -0.301096,0.171979 -0.168275,-0.01164 -0.208756,-0.0635 -0.138112,-0.216694 0.0082,-0.01826 0.0079,-0.04022 0.02381,-0.0553 z"
       id="path15287" />
    <path
       style="fill:#fcc78d;stroke-width:0.264583"
       d="m 62.334984,93.003959 c -0.01032,0.0098 -0.0209,0.01984 -0.03122,0.02963 0.01032,-0.01005 0.0209,-0.01984 0.03122,-0.02963 z"
       id="path15288" />
    <path
       style="fill:#b47c23;stroke-width:0.264583"
       d="m 62.215392,94.866361 c -0.0066,-0.125413 0.02566,-0.250296 2.64e-4,-0.376767 -0.01191,-0.05953 -0.01058,-0.121179 -0.0344,-0.179387 -0.01905,-0.0471 0.01402,-0.06377 0.05371,-0.07064 0.02513,0.06323 0.05001,0.126206 0.07514,0.189442 7.93e-4,0.01032 0.0019,0.02064 0.0026,0.03096 0.0071,0.06985 0.02011,0.1397 -0.0021,0.209021 -0.02487,0.06906 -0.03784,0.143933 -0.09525,0.197379 z"
       id="path15354" />
    <path
       style="fill:#707759;stroke-width:0.264583"
       d="m 62.310906,94.668717 c 7.94e-4,-0.06985 0.0013,-0.139435 0.0021,-0.209285 0.02355,0.07011 0.08281,0.140493 -0.0021,0.209285 z"
       id="path15355" />
    <path
       style="fill:#fdb56f;stroke-width:0.264583"
       d="m 61.841536,93.096034 c 0.148431,0.03016 0.150548,0.0299 0.166687,0.182562 0.0066,0.06244 0.0717,0.120386 0.0172,0.188119 -0.04472,-0.115887 -0.05662,-0.248973 -0.173567,-0.327554 -0.009,-0.0058 -0.0071,-0.02805 -0.01032,-0.04313 z"
       id="path15377" />
    <path
       style="fill:#aa6f0f;stroke-width:0.264583"
       d="m 62.517017,94.360477 c -0.06588,-0.03625 -0.109273,-0.09578 -0.156633,-0.151077 -0.0074,-0.0063 -0.01111,-0.01349 -0.01058,-0.02143 2.65e-4,-0.0085 0.0016,-0.0127 0.0034,-0.0127 0.03096,-0.04974 0.03889,-0.139964 0.112712,-0.126471 0.07673,0.01429 0.0463,0.100807 0.05212,0.157692 0.0053,0.0508 -2.64e-4,0.102658 -0.0011,0.153987 z"
       id="path15380" />
    <path
       style="fill:#91906f;stroke-width:0.264583"
       d="m 62.35324,94.175534 c 0.0024,0.01138 0.0048,0.02275 0.0071,0.03413 -0.03625,0.01773 -0.07435,0.02831 -0.11483,0.02884 -0.0095,-0.02011 -0.01905,-0.04048 -0.02857,-0.06059 0.04471,-0.04551 0.09049,-0.02143 0.136261,-0.0024 z"
       id="path15381" />
    <path
       style="fill:#ffc680;stroke-width:0.264583"
       d="m 62.212481,93.065871 c -0.0019,0.01535 -0.0032,0.03069 -0.0056,0.04577 -0.0217,0.138906 -0.01826,0.114829 0.118798,0.134144 0.133879,0.01878 0.188119,-0.08996 0.286544,-0.119063 0.0095,-0.01111 0.02275,-0.01826 0.03122,-0.03016 h 2.64e-4 c 0.0209,0.02302 0.04815,0.04921 0.04101,0.07911 -0.0164,0.06959 0.02672,0.116417 0.05239,0.170657 -5.29e-4,0.01032 -0.0011,0.02064 -0.0016,0.03096 -0.02011,0.0095 -0.04022,0.01905 -0.06059,0.02858 -0.03678,0.03678 -0.06615,0.08387 -0.124089,0.09234 v 0 c -0.0725,0.01826 -0.134144,0.06403 -0.218546,0.05371 -0.142346,-0.01746 -0.169334,-0.129117 -0.206904,-0.229923 -0.03784,-0.103188 0.0064,-0.188119 0.08705,-0.256117 z"
       id="path15397" />
    <path
       style="fill:#7e8870;stroke-width:0.264583"
       d="m 62.459602,94.485625 c -0.01058,-0.0095 -0.02143,-0.01931 -0.03201,-0.02884 0.01058,0.0095 0.02117,0.01905 0.03201,0.02884 z"
       id="path15404" />
    <polygon
       style="fill:#fdb56f"
       points="113.306,51.339 113.278,51.312 113.313,51.302 "
       id="polygon15668"
       transform="matrix(0.26458333,0,0,0.26458333,32.136236,79.462055)" />
    <path
       style="fill:#febc71;stroke-width:0.264583"
       d="m 62.551148,93.4982 c 0.02461,-0.05318 0.06112,-0.09049 0.12409,-0.09234 -0.02037,0.112448 -0.02037,0.112448 -0.12409,0.09234 z"
       id="path15741" />
    <path
       style="fill:#fcc78d;stroke-width:0.264583"
       d="m 62.643752,93.096563 c -0.01032,0.01005 -0.0209,0.02011 -0.03122,0.03016 0.01032,-0.01005 0.0209,-0.02011 0.03122,-0.03016 z"
       id="path15744" />
  </g>
</svg>
