<?xml version="1.0" encoding="UTF-8" standalone="no"?>
<!-- Created with Inkscape (http://www.inkscape.org/) -->

<svg
   width="210mm"
   height="297mm"
   viewBox="0 0 210 297"
   version="1.1"
   id="svg1"
   inkscape:version="1.4 (86a8ad7, 2024-10-11)"
   sodipodi:docname="cvet1.svg"
   xmlns:inkscape="http://www.inkscape.org/namespaces/inkscape"
   xmlns:sodipodi="http://sodipodi.sourceforge.net/DTD/sodipodi-0.dtd"
   xmlns="http://www.w3.org/2000/svg"
   xmlns:svg="http://www.w3.org/2000/svg">
  <sodipodi:namedview
     id="namedview1"
     pagecolor="#505050"
     bordercolor="#eeeeee"
     borderopacity="1"
     inkscape:showpageshadow="0"
     inkscape:pageopacity="0"
     inkscape:pagecheckerboard="0"
     inkscape:deskcolor="#505050"
     inkscape:document-units="mm"
     inkscape:zoom="0.72604517"
     inkscape:cx="396.66953"
     inkscape:cy="561.25984"
     inkscape:window-width="1920"
     inkscape:window-height="1017"
     inkscape:window-x="-8"
     inkscape:window-y="-8"
     inkscape:window-maximized="1"
     inkscape:current-layer="layer1" />
  <defs
     id="defs1" />
  <g
     inkscape:label="Layer 1"
     inkscape:groupmode="layer"
     id="layer1">
    <path
       style="fill:#f1a261;stroke-width:0.264583"
       d="m 98.206493,160.88871 c 0.04207,-0.0127 0.08387,-0.0106 0.125942,8e-4 0.07567,0.0558 0.168804,0.0111 0.248708,0.0429 0.142346,0.009 0.270669,0.0696 0.405606,0.10663 0.0725,0.0603 0.07012,0.13308 0.02672,0.20584 -0.04498,0.0757 -0.03916,0.1278 0.04022,0.17886 0.06985,0.0447 0.116152,0.11906 0.13626,0.19897 0.01984,0.0804 0.02884,0.16907 -0.0934,0.18388 -0.106627,-0.0952 -0.220133,-0.17753 -0.360362,-0.21987 -0.04974,-0.0151 -0.08943,-0.0209 -0.123561,0.022 -0.08202,0.10266 -0.184414,0.0921 -0.292364,0.0556 -0.172773,-0.0804 -0.339725,-0.16696 -0.398727,-0.37016 0.02328,-0.12567 0.08625,-0.17859 0.218281,-0.13229 0.05821,0.0206 0.118533,0.002 0.176742,-0.0267 -0.0381,-0.0908 -0.196321,-0.11562 -0.110067,-0.24633 z"
       id="path13839" />
    <path
       style="fill:#ec9a5b;stroke-width:0.264583"
       d="m 99.103166,161.78459 c 0.04048,-0.0638 0.02963,-0.12726 -0.005,-0.18812 -0.03016,-0.0529 -0.05821,-0.0955 -0.139436,-0.0915 -0.0717,0.003 -0.120121,-0.15664 -0.06641,-0.22516 0.04948,-0.0632 0.07911,-0.12912 0.08705,-0.20691 -0.0048,-0.0783 0.05397,-0.0778 0.101335,-0.0709 0.06165,0.009 0.119327,0.003 0.177536,-0.0135 0.06297,-0.0111 0.121443,0.009 0.18071,0.0249 0.1905,0.14817 0.13679,0.35507 0.121708,0.54663 -0.0058,0.0733 -0.0056,0.12171 0.05159,0.17516 0.04974,0.0466 0.07091,0.11112 -0.03466,0.12805 -0.177007,0.0222 -0.354542,0.027 -0.532077,0.008 -0.02222,-0.0564 0.009,-0.077 0.05768,-0.0863 z"
       id="path13856" />
    <path
       style="fill:#e08d4f;stroke-width:0.264583"
       d="m 99.577828,161.86344 c 0.02328,-0.0291 0.02037,-0.0526 -0.0098,-0.077 -0.05186,-0.0421 -0.117211,-0.0556 -0.172773,-0.0791 -0.0077,-0.0513 0.02831,-0.0701 0.05053,-0.0955 0.03254,-0.0368 0.0508,-0.0765 0.03466,-0.12515 -0.02064,-0.0611 -0.02037,-0.11721 0.02011,-0.17277 0.03016,-0.0413 0.01958,-0.0884 -0.0061,-0.12912 -0.0336,-0.0529 -0.05318,-0.10901 -0.0553,-0.17145 0.01191,-2.6e-4 0.02381,-2.6e-4 0.03545,-5.3e-4 0.03148,0.0225 0.07303,0.008 0.105833,0.046 0.114565,0.13123 0.27305,0.13097 0.432322,0.13361 0.15214,0.003 0.31777,-0.006 0.37333,0.19183 0.0304,0.0953 0.0143,0.16351 -0.10028,0.17595 -0.0706,-0.0135 -0.082,-0.1069 -0.1561,-0.1151 0.003,0.11615 0.0651,0.19897 0.1569,0.26432 0.004,0.0151 0,0.0286 -0.01,0.0402 -0.22834,0.0677 -0.461697,0.10266 -0.699028,0.11377 z"
       id="path13863" />
    <path
       style="fill:#dd8d4c;stroke-width:0.264583"
       d="m 100.36999,160.76489 c -0.006,0.0852 0.0151,0.14949 0.11536,0.15954 0.0423,0.004 0.0825,0.0265 0.0886,0.0704 0.0124,0.0889 0.0773,0.15134 0.10584,0.23151 -0.005,0.006 -0.01,0.0124 -0.0148,0.0185 -0.0138,0.009 -0.0286,0.0138 -0.045,0.0156 -0.0164,0.001 -0.032,-0.002 -0.0474,-0.008 -0.0212,-0.0106 -0.0405,-0.0236 -0.0563,-0.0413 -0.05,-0.11853 -0.17119,-0.17674 -0.23945,-0.27993 -0.0153,-0.028 -0.0164,-0.0585 -0.0138,-0.0889 0.004,-0.0463 0.0103,-0.0968 -0.045,-0.11536 -0.0619,-0.0206 -0.0982,0.0267 -0.12912,0.0683 -0.0508,0.0675 -0.0839,0.15292 -0.184676,0.16377 -0.133615,0.0413 -0.270669,0.0521 -0.40931,0.0505 -0.123561,-0.1098 -0.262202,-0.20135 -0.377561,-0.32068 -0.02408,-0.0249 -0.0463,-0.0519 -0.06959,-0.0778 0.0508,-0.12806 0.0717,-0.13415 0.2032,-0.0611 0.08811,0.0931 0.161925,0.20293 0.287073,0.25426 0.02937,0.0172 0.06033,0.0106 0.09128,0.004 0.0471,0.002 0.08969,-0.0135 0.131498,-0.0325 0.146314,-0.0389 0.146314,-0.0389 0.07117,-0.17198 -0.02699,-0.0481 -0.06324,-0.0865 -0.113506,-0.11086 -0.01905,-0.008 -0.0381,-0.0161 -0.05794,-0.0228 -0.02381,-0.007 -0.04789,-0.0135 -0.07144,-0.0212 -0.130175,-0.0426 -0.134937,-0.0725 -0.02805,-0.17357 0.0085,-0.008 0.01746,-0.0164 0.02566,-0.0251 0.0058,-0.01 0.01191,-0.019 0.0172,-0.0294 0.0029,-0.0114 0.0063,-0.0225 0.0087,-0.0341 0.0058,-0.0437 -0.0074,-0.0942 0.04392,-0.12092 0.13679,-0.0124 0.126206,0.11245 0.175683,0.18415 -0.02566,-0.11985 -0.12356,-0.19155 -0.187854,-0.28495 -0.02143,-0.072 -0.05397,-0.14155 -0.04551,-0.21961 0.02275,-0.0505 0.05583,-0.0844 0.11721,-0.0741 0.06006,0.0101 0.0799,0.0508 0.09155,0.10583 0.02884,0.13468 0.120121,0.22966 0.214583,0.32174 0.018,0.0124 0.0363,0.0241 0.0556,0.0347 0.0132,0.007 0.0241,0.0175 0.0328,0.0299 0.12382,0.11272 0.17806,0.272 0.2704,0.40588 0.0408,0.0587 0.0527,0.13387 -0.0111,0.19526 z"
       id="path13874" />
    <path
       style="fill:#feb772;stroke-width:0.264583"
       d="m 99.477022,159.93145 c 0.02408,0.002 0.04366,0.0127 0.0598,0.0302 -0.05027,0.13864 -0.150283,0.20188 -0.270933,0.16272 -0.194205,-0.063 -0.386028,-0.12462 -0.584994,-0.0156 -0.0217,0.0119 -0.04921,-0.007 -0.07117,-0.0212 -0.06879,-0.064 -0.108744,-0.14737 -0.151606,-0.22886 -0.05106,-0.0971 -0.03519,-0.19235 0.02646,-0.27437 0.05741,-0.0765 0.146579,-0.0892 0.237067,-0.0733 0.08017,0.014 0.162454,0.0238 0.229658,0.0773 0.156369,0.14366 0.330465,0.25982 0.525727,0.34316 z"
       id="path13890" />
    <path
       style="fill:#f7aa67;stroke-width:0.264583"
       d="m 100.0599,160.17884 c -0.0206,-2.7e-4 -0.041,-2.7e-4 -0.06165,-2.7e-4 -0.04418,-0.0749 -0.04762,-0.17568 -0.160602,-0.20558 -0.04339,-0.0116 -0.06165,-0.082 -0.04762,-0.13494 0.02513,-0.0942 0.01376,-0.1524 -0.103981,-0.14102 -0.04948,0.005 -0.06615,-0.0405 -0.08758,-0.0749 -0.0063,-0.045 0.0011,-0.0863 0.03122,-0.12171 0.07355,-0.0148 0.08996,-0.078 0.114035,-0.13467 0.08308,-0.0677 0.178594,-0.0929 0.284158,-0.0828 0.0659,0.14181 0.17622,0.25479 0.2548,0.38788 0.0466,0.0788 0.12832,0.15398 0.0561,0.25982 l -0.002,2.6e-4 c -0.0921,0.0947 -0.1397,-2.6e-4 -0.2151,-0.0603 0.0603,0.1307 0.0725,0.23892 -0.0617,0.30824 z"
       id="path13962" />
    <path
       style="fill:#ea9b5c;stroke-width:0.264583"
       d="m 100.3393,159.93092 c -0.0534,-0.1352 -0.15425,-0.24236 -0.22013,-0.37068 -0.0333,-0.0648 -0.0952,-0.09 -0.160342,-0.11086 -0.02805,-0.009 -0.06879,-0.01 -0.07223,-0.0466 -0.0048,-0.0489 0.04127,-0.0513 0.07408,-0.0616 0.03149,-0.0101 0.05371,-0.0291 0.068,-0.0582 0.0807,-0.0177 0.13467,0.0299 0.18679,0.0786 0.13124,0.12224 0.2249,0.27199 0.30851,0.42862 0.0124,0.0336 0.0296,0.0669 0.004,0.10213 0.0397,0.0749 0.0791,0.15002 0.1188,0.2249 -0.007,0.073 0.0783,0.19235 -0.0918,0.18441 0,-0.0257 -0.002,-0.0516 2.6e-4,-0.0773 0.0109,-0.10715 -0.0119,-0.19314 -0.12673,-0.23389 -0.0331,-0.0116 -0.0601,-0.0392 -0.0894,-0.0595 z"
       id="path13978" />
    <path
       style="fill:#f6a767;stroke-width:0.264583"
       d="m 99.103166,161.78459 c -0.0095,0.0352 -0.0336,0.0609 -0.05768,0.0863 -0.256646,-0.0169 -0.50218,-0.0738 -0.725752,-0.20691 0.116945,-0.002 0.200289,-0.0513 0.256645,-0.15822 0.05503,-0.10424 0.07435,-0.10795 0.156898,-0.0331 0.06324,0.0572 0.138377,0.0881 0.213784,0.11271 0.102129,0.0336 0.150018,0.0968 0.156104,0.19923 z"
       id="path13999" />
    <path
       style="fill:#f1a360;stroke-width:0.264583"
       d="m 99.690012,160.42437 c 0.02037,2.6e-4 0.04075,7.9e-4 0.06112,10e-4 0.01667,0.0196 0.02117,0.0423 0.0164,0.0672 -0.04709,0.0815 -0.119856,0.0966 -0.20611,0.0825 -0.06985,-0.0114 -0.1397,-0.0167 -0.198702,0.0355 -0.04551,0.0193 -0.09102,0.0333 -0.13679,7.9e-4 -0.05927,-0.0503 -0.118797,-0.0603 -0.178329,-2.6e-4 -0.04815,-0.0299 -0.08043,-0.0743 -0.109537,-0.12171 0.03069,-0.0709 -0.01561,-0.11695 -0.05371,-0.1659 -0.009,-0.0103 -0.0172,-0.0212 -0.0254,-0.032 -0.03651,-0.0619 -0.143139,-0.0818 -0.111389,-0.18521 0.162189,-0.11615 0.387614,-0.0979 0.497946,0.0392 0.06006,0.23389 0.234685,0.28469 0.4445,0.27887 z"
       id="path14018" />
    <path
       style="fill:#f8a869;stroke-width:0.264583"
       d="m 98.206493,160.88871 c 0.03519,0.0728 0.09472,0.11854 0.166158,0.15267 0.05477,0.0259 0.112713,0.0479 0.163248,0.10689 -0.07223,0.0468 -0.1524,0.0548 -0.22225,0.0863 -0.07805,0.0349 -0.145785,0.0394 -0.217223,-2.6e-4 -0.08228,-0.046 -0.116416,0.0421 -0.175419,0.0598 -0.07541,-0.2614 0.01826,-0.39449 0.285486,-0.40534 z"
       id="path14030" />
    <path
       style="fill:#cf7e3e;stroke-width:0.264583"
       d="m 99.495014,161.00989 c 0.03784,-0.0241 0.07514,-0.0564 0.121708,-0.0537 0.103981,0.006 0.194204,-0.0394 0.288925,-0.0688 0.0058,0.004 0.01191,0.008 0.01773,0.0127 0.03625,0.0587 0.0074,0.10372 -0.03572,0.14473 0.05292,0.0172 0.08917,0.0754 0.139433,0.0672 0.19712,-0.0323 0.32332,0.0831 0.45059,0.20161 0.0354,0.0611 0.0693,0.12489 0.1225,0.17172 0.0421,0.0373 0.0495,0.072 0.0196,0.11694 v 0.003 c -0.15822,0.0751 -0.20214,0.0553 -0.23204,-0.11298 -0.008,-0.0429 -0.0294,-0.0744 -0.049,-0.10927 -0.0236,-0.0272 -0.0476,-0.0537 -0.0704,-0.0815 -0.0164,-0.0201 -0.0318,-0.0431 -0.0619,-0.0349 -0.1151,0.0318 -0.224631,-0.022 -0.339196,-0.0196 -0.171979,0.004 -0.308504,-0.077 -0.392377,-0.23389 0.0058,-0.006 0.01244,-0.007 0.02011,-0.003 z"
       id="path14066" />
    <path
       style="fill:#f7ab67;stroke-width:0.264583"
       d="m 99.225932,160.17778 c -0.09737,-0.11615 -0.209814,-0.1524 -0.34872,-0.0712 -0.03413,0.0199 -0.07567,0.0275 -0.114036,0.0405 -0.0026,0.0378 -0.0066,0.0741 -0.06006,0.0645 -0.04419,-0.0315 -0.07382,-0.0741 -0.09313,-0.12409 0.0799,-0.0188 0.09393,-0.10318 0.147373,-0.14816 0.03016,-0.0254 0.06191,-0.0683 0.09207,10e-4 0.01932,0.0445 0.06297,0.0447 0.101865,0.0561 0.112183,0.0325 0.234156,0.0145 0.342106,0.0709 0.0344,0.018 0.07144,0.004 0.09895,-0.0214 0.04233,-0.0392 0.09763,-0.0545 0.144727,-0.0841 0.01085,-0.003 0.02064,-5.3e-4 0.02911,0.007 0.03572,0.1053 0.125677,0.20346 0.04313,0.32438 -0.02117,0.008 -0.04339,0.008 -0.06535,0.0103 -0.11483,-2.6e-4 -0.192088,-0.0942 -0.296863,-0.11959 -0.0071,-0.002 -0.01429,-0.004 -0.02117,-0.006 z"
       id="path14090" />
    <path
       style="fill:#cf803d;stroke-width:0.264583"
       d="m 99.644768,159.96558 c 0.04604,-0.008 0.08916,-0.0159 0.118004,0.0384 0.04339,0.0812 0.09816,0.15372 0.17489,0.20849 0.05979,0.0426 0.04445,0.0958 0.0127,0.1479 -0.03043,0.0503 -0.07197,0.0646 -0.129911,0.0463 -0.09287,-0.0294 -0.106892,-0.0429 -0.09022,-0.14975 0.01164,-0.0754 -0.01296,-0.12859 -0.07197,-0.17066 -0.03995,0.003 -0.06112,-0.0193 -0.07144,-0.055 -0.0048,-0.0196 -0.0077,-0.0389 0.009,-0.055 0.0164,-0.003 0.03254,-0.007 0.04895,-0.0106 z"
       id="path14167" />
    <path
       style="fill:#f3a465;stroke-width:0.264583"
       d="m 99.993084,159.69345 c 0.03308,0.0855 0.05186,0.16748 -0.0344,0.2368 -0.03704,0.0296 -0.02302,0.0656 0.0032,0.0939 0.03096,0.0339 0.07356,0.0587 0.0979,0.096 0.0225,0.0344 -0.0206,0.0347 -0.041,0.0442 -0.133877,-0.0392 -0.257966,-0.0982 -0.367504,-0.18574 0.0426,-0.0788 0.114565,-0.11827 0.198438,-0.11748 0.07435,5.3e-4 0.09975,-0.0233 0.09446,-0.095 -0.0024,-0.0323 0.02514,-0.0534 0.04895,-0.0728 z"
       id="path14171" />
    <path
       style="fill:#e79a59;stroke-width:0.264583"
       d="m 98.703116,160.21164 c 0.02011,-0.0214 0.03995,-0.0431 0.06006,-0.0645 0.05133,0.0283 0.11139,0.003 0.162984,0.0249 0.05054,0.0214 0.07885,0.0516 0.02249,0.0989 v 0 c 0.03096,0.0463 0.05609,0.0945 0.06773,0.15028 0.01535,0.0733 -0.02804,0.0733 -0.07805,0.0685 -0.09498,-0.0788 -0.172243,-0.17224 -0.235214,-0.27808 z"
       id="path14236" />
    <path
       style="fill:#dc8a4f;stroke-width:0.264583"
       d="m 100.33851,161.38295 c 0.0392,0.0254 0.0765,0.0558 0.0921,0.10002 0.032,0.0918 0.0987,0.12382 0.18918,0.12223 -0.004,0.0294 -0.009,0.0585 -0.014,0.0879 -0.10953,0.019 -0.21907,0.0384 -0.32861,0.0574 -2.6e-4,-0.009 -2.6e-4,-0.0177 -2.6e-4,-0.0265 0.003,-0.0407 -0.0402,-0.0542 -0.0513,-0.0855 -0.0175,-0.0487 -0.0302,-0.0998 0.0508,-0.10107 0.0481,-0.0405 0.0794,-0.0878 0.0622,-0.15452 z"
       id="path14250" />
    <path
       style="fill:#ed9e5c;stroke-width:0.264583"
       d="m 99.59873,159.62215 c 0.04604,0.0368 0.09922,0.0444 0.157163,0.0495 0.05424,0.005 0.106627,0.0299 0.154252,0.0445 0.01349,0.0389 -0.0095,0.0542 -0.0254,0.0733 -0.08017,0.0966 -0.08281,0.10742 0.01693,0.17648 0.07832,0.0545 0.09499,0.12805 0.09684,0.21246 -0.06906,-0.0582 -0.113242,-0.13891 -0.187325,-0.195 -0.04815,-0.0362 -0.04842,-0.10795 -0.06376,-0.16669 -0.02672,-0.1016 -0.02778,-0.10133 -0.147902,-0.0712 -0.01111,-0.0408 -0.01323,-0.082 -7.94e-4,-0.1233 z"
       id="path14258" />
    <path
       style="fill:#f3c58d;stroke-width:0.264583"
       d="m 99.477022,159.93145 c -0.226748,-0.0352 -0.408517,-0.13943 -0.525198,-0.34316 0.121179,0.0365 0.210608,0.12488 0.313002,0.19182 0.0725,0.0474 0.141552,0.10081 0.212196,0.15134 z"
       id="path14309" />
    <path
       style="fill:#feba81;stroke-width:0.264583"
       d="m 99.258212,160.98873 c -0.0799,0.0714 -0.193146,0.0331 -0.279136,0.0844 -0.08811,0.001 -0.166952,-0.0294 -0.245004,-0.0672 -0.04948,-0.0238 -0.103981,-0.0373 -0.156104,-0.0556 -0.0077,-0.008 -0.01138,-0.0169 -0.01058,-0.0265 7.93e-4,-0.01 0.0021,-0.0148 0.0042,-0.0148 0.04418,0.004 0.08837,0.009 0.132556,0.0132 0.14314,0.0354 0.285486,0.0749 0.435504,0.0548 0.04048,-0.005 0.0799,-2.6e-4 0.118534,0.0117 z"
       id="path14338" />
    <path
       style="fill:#e5e5c3;stroke-width:0.264583"
       d="m 99.139943,160.97735 c -0.154781,0.0572 -0.298186,0.0259 -0.435504,-0.0548 0.147373,0.001 0.292629,0.018 0.435504,0.0548 z"
       id="path14397" />
    <path
       style="fill:#7c856a;stroke-width:0.264583"
       d="m 100.98329,161.41603 c 0.023,5.3e-4 0.046,0.001 0.0691,0.002 -0.008,0.0519 -0.005,0.10213 0.0265,0.14684 -0.0749,10e-4 -0.15002,0.006 -0.21881,-0.0328 -0.009,-0.013 -0.0109,-0.027 -0.008,-0.0421 0.0249,-0.0577 0.0881,-0.0479 0.13096,-0.0738 z"
       id="path14401" />
    <path
       style="fill:#f1a360;stroke-width:0.264583"
       d="m 99.59582,159.97617 c 7.94e-4,0.0153 0.0016,0.0309 0.0021,0.0463 0.03307,0.0714 0.05503,0.14763 0.09181,0.21748 0,0.0103 -2.65e-4,0.0206 -5.29e-4,0.031 -0.0098,0.0106 -0.02011,0.0206 -0.03043,0.0307 l -2.65e-4,-2.6e-4 c -0.03413,0.0172 -0.05027,-0.002 -0.06165,-0.0304 -0.0066,-0.10107 -0.06482,-0.19685 -0.03122,-0.30215 0.01005,0.002 0.02011,0.005 0.03016,0.007 z"
       id="path14431" />
    <path
       style="fill:#dc9857;stroke-width:0.264583"
       d="m 99.743987,159.36577 c 0.01164,0.0281 0.01958,0.0566 0.01323,0.0876 -0.01561,0.0757 -0.02937,0.0807 -0.127265,0.0471 0.0164,-0.0632 0.05054,-0.11139 0.114036,-0.13467 z"
       id="path14432" />
    <path
       style="fill:#f8a869;stroke-width:0.264583"
       d="m 98.571882,160.90909 c 0.0021,0.0138 0.0042,0.0275 0.0063,0.0413 -0.08546,-0.006 -0.179652,0.0228 -0.246062,-0.0608 0.0807,-0.003 0.16166,-0.007 0.239712,0.0196 z"
       id="path14437" />
    <path
       style="fill:#cfcbae;stroke-width:0.264583"
       d="m 100.52768,159.89229 c -0.001,-0.0341 -0.003,-0.068 -0.004,-0.10213 0.032,0.0304 0.0569,0.0651 0.063,0.11033 -0.0196,-0.003 -0.0392,-0.006 -0.0587,-0.008 z"
       id="path14487" />
    <path
       style="fill:#ea9b5c;stroke-width:0.264583"
       d="m 100.597,159.9206 -10e-4,-0.001 z"
       id="path14597" />
    <path
       style="fill:#e89558;stroke-width:0.264583"
       d="m 100.2758,161.53721 c -0.0201,0.0381 -7.9e-4,0.0654 0.0233,0.0929 0.0362,0.041 0.022,0.0714 -0.0228,0.0934 -0.046,-0.003 -0.0931,-7.9e-4 -0.13811,-0.009 -0.0609,-0.0114 -0.11219,-0.0405 -0.0836,-0.11563 0.0323,-0.0844 -0.007,-0.11324 -0.08229,-0.12303 -0.02011,-0.003 -0.04075,-0.007 -0.0598,-0.0132 -0.02037,-0.007 -0.03757,-0.0217 -0.02963,-0.045 0.004,-0.0117 0.02011,-0.0246 0.03254,-0.0273 0.0553,-0.0111 0.11112,-0.0193 0.16695,-0.0275 0.16827,-0.0249 0.19685,0.001 0.19341,0.17436 z"
       id="path15046" />
    <path
       style="fill:#fcb36d;stroke-width:0.264583"
       d="m 100.0599,160.17884 c 0.0333,-0.12727 0.0519,-0.25109 -0.06932,-0.34846 -0.02752,-0.0222 -0.01191,-0.0474 0.0085,-0.0653 0.03678,-0.0325 0.09023,-0.0587 0.12144,-0.0172 0.0378,0.0505 0.10477,0.0664 0.12991,0.12779 0.0148,0.0365 0.0497,0.0497 0.0868,0.0558 0.022,0.0347 0.0373,0.0765 0.0669,0.10292 0.0675,0.0601 0.0966,0.13097 0.0889,0.21908 -0.008,0.0929 0.0418,0.15637 0.10848,0.20955 0.0524,0.0415 0.10054,0.086 0.14552,0.13626 0.0603,0.0672 0.0857,0.12091 0.0132,0.19764 -0.0397,0.0421 -0.0513,0.13626 -0.12594,0.10848 -0.0833,-0.0312 -0.20638,-0.0114 -0.23469,-0.13943 -0.0487,-0.0966 -0.0228,-0.20929 -0.0897,-0.30904 -0.0717,-0.10742 -0.16404,-0.18838 -0.25003,-0.27807 z"
       id="path15070" />
    <path
       style="fill:#f7aa67;stroke-width:0.264583"
       d="m 100.0599,160.17857 c 0.13282,0.0643 0.25929,0.13626 0.3339,0.27279 0.0103,0.019 0.0196,0.036 0.013,0.0561 -0.0288,0.0855 -0.003,0.17224 -0.007,0.25823 -0.01,-2.6e-4 -0.0198,-2.6e-4 -0.0296,-5.3e-4 -0.0101,-0.12038 -0.0534,-0.22489 -0.12965,-0.32041 -0.0667,-0.0836 -0.12091,-0.177 -0.18044,-0.26617 z"
       id="path15071" />
    <path
       style="fill:#ea9b59;stroke-width:0.264583"
       d="m 100.55467,160.3016 c 0.0455,-0.054 0.0648,-0.12118 0.0918,-0.18441 0.0558,0.0746 0.0818,0.16404 0.12224,0.24659 0.013,0.0267 0.0294,0.0609 -0.003,0.0836 -0.0299,0.0212 -0.0579,-0.004 -0.0831,-0.0196 -0.0519,-0.0328 -0.10636,-0.063 -0.12832,-0.12621 z"
       id="path15072" />
    <path
       style="fill:#e79a56;stroke-width:0.264583"
       d="m 99.596878,160.27065 c 0.02064,0.0103 0.04101,0.0204 0.06165,0.0304 -0.03519,0.0183 -0.07038,0.0362 -0.115623,0.0595 0.04154,0.0503 0.108215,0.0286 0.147109,0.064 -0.05001,0.008 -0.100542,0.0132 -0.150284,0.023 -0.206639,0.041 -0.343958,-0.0701 -0.313796,-0.26961 0,0 5.3e-4,0 5.3e-4,0 0.06615,-0.0315 0.114564,0.0101 0.16166,0.0437 0.04524,0.0323 0.08652,0.0677 0.147373,0.0497 0.02037,-5.3e-4 0.04101,-7.9e-4 0.06138,-7.9e-4 z"
       id="path15073" />
    <path
       style="fill:#d38140;stroke-width:0.264583"
       d="m 99.905647,160.88713 c 0.08916,-0.0373 0.138113,-0.11854 0.202403,-0.1831 0.0381,-0.0381 0.0751,-0.0984 0.14023,-0.068 0.0556,0.0259 0.0667,0.0894 0.0712,0.14525 0.004,0.0452 -0.006,0.0915 -0.0101,0.13732 -0.006,0.004 -0.0122,0.007 -0.0183,0.0111 -0.0839,-0.0458 -0.16245,-0.087 -0.25347,-0.002 -0.03995,0.0373 -0.09419,0.007 -0.129642,-0.0355 z"
       id="path15074" />
    <path
       style="fill:#f1a360;stroke-width:0.264583"
       d="m 99.875484,160.57942 c 0.0063,0.008 0.01402,0.0151 0.01905,0.0238 0.09102,0.15213 0.06906,0.2032 -0.111125,0.25585 -0.0058,-0.005 -0.01164,-0.009 -0.01746,-0.0138 0.0082,-0.11033 -0.09234,-0.22304 0.0074,-0.33126 0.0598,-0.0188 0.068,0.0437 0.102129,0.0654 z"
       id="path15075" />
    <path
       style="fill:#e79a55;stroke-width:0.264583"
       d="m 99.226197,160.61143 c 0.04127,-0.0106 0.08255,-0.0209 0.123825,-0.0315 0.0074,0.001 0.01482,0.002 0.02249,0.004 0.116945,0.046 0.190235,0.1225 0.17727,0.25797 -0.005,0.006 -0.01005,0.0114 -0.01482,0.0172 -0.138377,-0.0384 -0.213254,-0.15584 -0.308769,-0.24739 z"
       id="path15076" />
    <path
       style="fill:#d38140;stroke-width:0.264583"
       d="m 100.30914,160.91835 c 0.0193,0.007 0.0381,0.0188 0.0579,0.0209 0.0921,0.01 0.15134,0.0529 0.17357,0.14684 0.007,0.0286 0.0307,0.0529 0.0468,0.0791 -0.005,0.006 -0.0103,0.0119 -0.0156,0.0177 -0.0138,0.006 -0.0352,0.0172 -0.0426,0.01 -0.0767,-0.0823 -0.19076,-0.12514 -0.245,-0.23071 0.002,-0.0164 0.009,-0.0302 0.0217,-0.0413 z"
       id="path15077" />
    <path
       style="fill:#e79a56;stroke-width:0.264583"
       d="m 99.690012,160.23995 c -0.05821,-0.0608 -0.09895,-0.12885 -0.09181,-0.21748 0.02011,0.0212 0.04022,0.0423 0.06032,0.0635 0.01032,0.0513 0.0209,0.10266 0.03149,0.15398 z"
       id="path15078" />
    <path
       style="fill:#e79a56;stroke-width:0.264583"
       d="m 99.875484,160.57942 c -0.03757,-0.0103 -0.06535,-0.0357 -0.09313,-0.0614 l -0.01323,2.7e-4 c -0.0087,-0.003 -0.01482,-0.01 -0.01799,-0.0183 l 5.29e-4,-0.0132 c 0,-0.0204 -2.64e-4,-0.041 -2.64e-4,-0.0614 0.05847,0.0376 0.107421,0.0828 0.124089,0.15399 z"
       id="path15079" />
    <path
       style="fill:#f1a360;stroke-width:0.264583"
       d="m 99.783409,160.85908 c -0.04815,0.0622 -0.116945,0.0601 -0.185472,0.0593 -0.01799,-0.0206 -0.02011,-0.0434 -0.009,-0.0677 0.06588,-0.0537 0.130704,-0.068 0.192881,0.006 z"
       id="path15080" />
    <path
       style="fill:#e79a55;stroke-width:0.264583"
       d="m 99.596614,160.85829 c 2.64e-4,0.0201 7.93e-4,0.0399 0.0011,0.0601 -0.0209,-0.0198 -0.04207,-0.0397 -0.06297,-0.0595 0,0 0.0011,-0.002 0.0011,-0.002 0.01296,-0.0169 0.02937,-0.019 0.04842,-0.0124 0.0042,0.005 0.0085,0.009 0.01244,0.0135 z"
       id="path15081" />
    <path
       style="fill:#d38140;stroke-width:0.264583"
       d="m 100.6777,161.22923 c -2.6e-4,0.0109 -5.3e-4,0.022 -0.001,0.0328 -0.0212,0.008 -0.031,-0.003 -0.0365,-0.0212 0.003,-0.005 0.006,-0.01 0.009,-0.0148 0.01,0.001 0.0193,0.002 0.0288,0.003 z"
       id="path15082" />
    <path
       style="fill:#d38140;stroke-width:0.264583"
       d="m 100.61791,161.19537 c 0.0103,0.0101 0.0206,0.0204 0.0312,0.0304 0,0 -0.003,0.004 -0.003,0.004 -0.0212,0.0106 -0.0307,-8e-4 -0.0368,-0.019 0.003,-0.005 0.006,-0.0101 0.008,-0.0151 z"
       id="path15083" />
    <path
       style="fill:#d38140;stroke-width:0.264583"
       d="m 100.58721,161.1652 c 0.0101,0.0101 0.0204,0.0201 0.0307,0.0302 0,0 -0.004,0.004 -0.004,0.004 -0.0241,0.005 -0.0339,-0.005 -0.032,-0.0288 z"
       id="path15084" />
    <path
       style="fill:#e79a56;stroke-width:0.264583"
       d="m 99.658791,160.30134 c 0.01005,-0.0103 0.02037,-0.0204 0.03043,-0.0307 -0.01005,0.0103 -0.02011,0.0204 -0.03043,0.0307 z"
       id="path15085" />
    <path
       style="fill:#ba7c27;stroke-width:0.264583"
       d="m 100.86317,161.50493 c -10e-4,0.009 -0.002,0.0182 -0.003,0.0273 -0.0807,0.0209 -0.1516,0.0765 -0.24024,0.0699 -0.0661,-0.081 -0.13837,-0.15716 -0.19182,-0.24791 0.003,-0.008 0.006,-0.0156 0.008,-0.0236 0.13415,-0.0677 0.35057,0.0206 0.4273,0.17436 z"
       id="path15293" />
    <path
       style="fill:#f8aa67;stroke-width:0.264583"
       d="m 99.781557,160.8567 c -0.06138,0.0172 -0.123031,0.0336 -0.184943,0.002 v 0 c -0.06191,-0.11086 -0.171715,-0.17912 -0.246592,-0.27834 v 0 c 0.01376,-0.0873 0.07805,-0.0968 0.147108,-0.0905 0.0852,0.008 0.169863,0.0145 0.254529,-0.002 0.0098,0.0109 0.02011,0.0212 0.03096,0.031 v 0 c 0.01587,0.0484 0.03096,0.0974 0.04762,0.14552 0.02593,0.0749 0.01614,0.14076 -0.04868,0.19288 z"
       id="path15294" />
    <path
       style="fill:#c06f2c;stroke-width:0.264583"
       d="m 100.3057,160.92046 c 0,0.0103 -2.7e-4,0.0209 -2.7e-4,0.0312 -0.0167,0.0484 -0.0717,0.046 -0.10848,0.0765 0.27834,0.0331 0.34132,0.12171 0.23469,0.32147 0,0 -0.004,0.004 -0.004,0.004 -0.0579,-0.0167 -0.0982,-0.0548 -0.12567,-0.10663 -0.0341,-0.0638 -0.0863,-0.0844 -0.15452,-0.0683 -0.0897,0.0214 -0.171449,0.0111 -0.246062,-0.0492 -0.03307,-0.0267 -0.07752,-0.022 -0.119062,-0.0196 -0.05345,0.003 -0.100277,-0.006 -0.125413,-0.0744 0.09208,-0.0402 0.221721,-0.0116 0.250825,-0.1442 0.068,-0.003 0.129112,-0.0228 0.188652,-0.0571 0.10001,-0.0574 0.10768,-0.0534 0.17541,0.0341 0.0124,0.0167 0.0225,0.0347 0.0336,0.0519 z"
       id="path15326" />
    <path
       style="fill:#f1a360;stroke-width:0.264583"
       d="m 99.535495,160.27118 c -0.05397,0.0352 -0.103717,0.0238 -0.150813,-0.0138 -0.04709,-0.0376 -0.09789,-0.068 -0.15822,-0.0796 0.05874,-0.0384 0.113506,-0.0206 0.167745,0.0108 0.0471,0.0275 0.09419,0.055 0.141288,0.0825 z"
       id="path15333" />
    <path
       style="fill:#f1a360;stroke-width:0.264583"
       d="M 98.948649,160.27091 Z"
       id="path15396" />
    <path
       style="fill:#b16619;stroke-width:0.264583"
       d="m 100.43137,161.34962 c -0.007,-0.0294 -0.0175,-0.0585 -0.0204,-0.0884 -0.0119,-0.12198 -0.0521,-0.15796 -0.17568,-0.14367 -0.0606,0.007 -0.12039,0.0225 -0.18204,0.014 -0.0471,-0.006 -0.059,-0.0299 -0.0381,-0.0746 0.0643,-0.13838 0.15267,-0.17145 0.28999,-0.10557 0.0841,0.0352 0.17118,0.0653 0.20531,0.16563 0.01,0.0294 0.0431,0.0415 0.0714,0.0534 0.0106,0.01 0.0214,0.019 0.032,0.0288 0.0106,0.0101 0.0212,0.0201 0.0318,0.0299 0.0103,0.0109 0.0204,0.0217 0.0307,0.0325 0.0876,0.0804 0.18283,0.14605 0.30665,0.15398 -0.0357,0.0355 -0.072,0.0701 -0.12012,0.0889 -0.13282,-0.0815 -0.27834,-0.12832 -0.43154,-0.15504 z"
       id="path15408" />
    <path
       style="fill:#f1a360;stroke-width:0.264583"
       d="m 99.350022,160.57994 c 0.1016,0.0757 0.217223,0.13891 0.246592,0.27835 -0.02037,-2.7e-4 -0.04048,-8e-4 -0.06085,-0.001 -0.04339,-0.0712 -0.07091,-0.15346 -0.152136,-0.19685 -0.02672,-0.0143 -0.02937,-0.0505 -0.0336,-0.0804 z"
       id="path15685" />
    <path
       style="fill:#f1a360;stroke-width:0.264583"
       d="m 99.782351,160.51803 c -0.01032,-0.0103 -0.02064,-0.0206 -0.03096,-0.031 0.01058,0.0103 0.02064,0.0206 0.03096,0.031 z"
       id="path15686" />
  </g>
</svg>
