<?xml version="1.0" encoding="UTF-8" standalone="no"?>
<!-- Created with Inkscape (http://www.inkscape.org/) -->

<svg
   width="210mm"
   height="297mm"
   viewBox="0 0 210 297"
   version="1.1"
   id="svg1"
   inkscape:version="1.4 (86a8ad7, 2024-10-11)"
   sodipodi:docname="cvet5.svg"
   xmlns:inkscape="http://www.inkscape.org/namespaces/inkscape"
   xmlns:sodipodi="http://sodipodi.sourceforge.net/DTD/sodipodi-0.dtd"
   xmlns="http://www.w3.org/2000/svg"
   xmlns:svg="http://www.w3.org/2000/svg">
  <sodipodi:namedview
     id="namedview1"
     pagecolor="#505050"
     bordercolor="#eeeeee"
     borderopacity="1"
     inkscape:showpageshadow="0"
     inkscape:pageopacity="0"
     inkscape:pagecheckerboard="0"
     inkscape:deskcolor="#505050"
     inkscape:document-units="mm"
     inkscape:zoom="0.72604517"
     inkscape:cx="396.66953"
     inkscape:cy="561.25984"
     inkscape:window-width="1920"
     inkscape:window-height="1017"
     inkscape:window-x="-8"
     inkscape:window-y="-8"
     inkscape:window-maximized="1"
     inkscape:current-layer="layer1" />
  <defs
     id="defs1" />
  <g
     inkscape:label="Layer 1"
     inkscape:groupmode="layer"
     id="layer1">
    <path
       style="fill:#ed9c5d;stroke-width:0.264583"
       d="m 72.724903,99.960244 c 0.0087,0.238386 0.02752,0.476776 -0.0164,0.714106 -0.06694,0.0984 -0.0071,0.21908 -0.05662,0.32041 -0.05371,0.0431 -0.09578,0.0961 -0.138112,0.15108 -0.113242,0.14817 -0.09975,0.22146 0.06958,0.30454 0.01111,0.01 0.01958,0.0217 0.02434,0.036 0.0019,0.0145 7.94e-4,0.0291 -0.0032,0.0434 -0.0061,0.0135 -0.01323,0.0265 -0.0209,0.0389 -0.01191,0.0198 -0.01535,0.0423 -0.01958,0.0645 -0.0053,0.0156 -0.01376,0.0288 -0.02487,0.0405 -0.110067,0.12514 -0.128323,0.12752 -0.270669,0.0378 -0.05265,-0.0532 -0.09287,-0.11218 -0.0844,-0.19156 0.02831,-0.086 0.03413,-0.17251 0.0053,-0.25955 -0.0021,-0.1958 -0.06376,-0.38735 -0.04127,-0.58526 0.106627,-0.0646 0.161396,-0.16246 0.178329,-0.28364 0.01667,-0.11879 -2.65e-4,-0.13229 -0.114829,-0.0934 -0.01958,0.007 -0.03916,0.01 -0.06006,0.007 -0.03201,-0.007 -0.05106,-0.0323 -0.07408,-0.0519 -0.01535,-0.0182 -0.0209,-0.0402 -0.0254,-0.0627 -0.0053,-0.0228 -0.01852,-0.0421 -0.02805,-0.0632 -0.01085,-0.0318 -0.0098,-0.0622 0.0093,-0.0907 0.0926,-0.126208 0.211666,-0.168012 0.363537,-0.121445 0.06032,0.01852 0.121179,0.0042 0.179917,-0.0217 0.07038,-0.03043 0.133085,-0.03202 0.148166,0.06668 z"
       id="path13816" />
    <path
       style="fill:#df8c4e;stroke-width:0.264583"
       d="m 72.724903,99.960244 c -0.04604,-0.0463 -0.08255,-0.01905 -0.115887,0.01693 -0.04366,0.04683 -0.09816,0.05741 -0.153194,0.03519 -0.142875,-0.05768 -0.273314,-0.04101 -0.395287,0.0513 -0.0069,-0.002 -0.01349,-0.005 -0.02037,-0.007 -0.06482,-0.07196 -0.04948,-0.169856 -0.07646,-0.253994 -0.02408,-0.07435 -0.04604,-0.148166 -0.08281,-0.217223 0.0011,-0.01482 0.0056,-0.02858 0.01376,-0.04101 0.08255,-0.05424 0.158221,-0.100277 0.262467,-0.02646 0.09102,0.06456 0.114829,-0.04233 0.158485,-0.09022 0.05636,-0.03598 0.111125,-0.02567 0.141023,0.02884 0.04895,0.08864 0.132821,0.09393 0.214842,0.110067 0.0069,0.0077 0.009,0.0164 0.0069,0.02619 0.01191,0.01931 0.01164,0.0418 0.01799,0.06271 0.01799,0.100806 0.03069,0.202142 0.02858,0.3048 z"
       id="path13938" />
    <path
       style="fill:#f5b365;stroke-width:0.264583"
       d="m 71.718958,99.224173 c 0.0463,0.01376 0.07567,0.04736 0.100012,0.08652 0.03149,0.09948 0.02037,0.203729 0.0336,0.305329 0.005,0.01243 0.0095,0.02487 0.01455,0.03731 0.0053,0.01217 0.01032,0.02461 0.01535,0.03704 0.0056,0.01217 0.01032,0.02461 0.01508,0.03731 0.0077,0.01879 0.01508,0.03757 0.01799,0.05768 7.94e-4,0.01349 7.94e-4,0.02699 -5.29e-4,0.04048 -0.01111,0.05874 -0.02646,0.118004 0.0127,0.173302 0.0095,0.01111 0.01535,0.02381 0.02037,0.0373 0.02011,0.0468 0.0074,0.0974 0.01799,0.14552 0.0053,0.013 0.01006,0.0259 0.01588,0.0386 0.01535,0.0259 0.01535,0.0548 0.01508,0.0833 -5.29e-4,0.0209 -0.0013,0.0418 -0.0011,0.0624 -0.0011,0.0336 0.0093,0.0656 0.0172,0.0976 0.004,0.0127 0.0077,0.0254 0.01164,0.0381 0.004,0.013 0.0077,0.0259 0.01191,0.0389 0.0032,0.0135 0.0053,0.0273 0.0066,0.0413 0.0032,0.0145 0.0061,0.0288 0.01005,0.0431 0.114829,0.28522 0.124619,0.58499 0.126206,0.88635 -0.04551,0.1741 -0.06906,0.34475 -0.01561,0.52573 0.03466,0.11668 -0.0553,0.16192 -0.161925,0.16801 -0.163777,-0.059 -0.181769,-0.1995 -0.192088,-0.34396 0.08864,-0.0585 0.09234,-0.15028 0.115359,-0.24474 0.05424,-0.22172 0.07223,-0.43524 -0.01879,-0.65008 -0.01588,-0.0373 -0.01535,-0.0796 -0.02805,-0.11853 -0.0069,-0.0204 -0.01429,-0.0405 -0.02196,-0.0603 -0.0056,-0.0122 -0.01032,-0.0249 -0.01429,-0.0376 -0.0098,-0.031 -0.01455,-0.0635 -0.02646,-0.0942 -0.0061,-0.0124 -0.0095,-0.0254 -0.01191,-0.0392 -0.07779,-0.20505 -0.03969,-0.4228 -0.07091,-0.63288 0,-0.01349 2.64e-4,-0.02725 5.29e-4,-0.04101 0.0011,-0.03148 0.0037,-0.0635 -0.0063,-0.09393 -0.0056,-0.0098 -0.01111,-0.01984 -0.01773,-0.02884 -0.0093,-0.0071 -0.01641,-0.01614 -0.02276,-0.02566 -0.0074,-0.009 -0.01191,-0.01958 -0.01561,-0.03043 -0.004,-0.01058 -0.0058,-0.0217 -0.0071,-0.03254 -0.0037,-0.01058 -0.0071,-0.02117 -0.01111,-0.03175 -0.0048,-0.01058 -0.0085,-0.02143 -0.01085,-0.03281 -0.0011,-0.01191 -0.0016,-0.02355 -0.0016,-0.03545 5.3e-4,-0.02355 -0.0016,-0.04709 -2.64e-4,-0.07064 0.0013,-0.01111 0.005,-0.0217 0.009,-0.03122 0.0024,-0.0127 0.004,-0.02567 0,-0.03916 -0.0066,-0.01058 -0.009,-0.02117 -0.01138,-0.03281 0.01296,-0.08308 -0.02752,-0.184679 0.08123,-0.233627 z"
       id="path13952" />
    <path
       style="fill:#f1a361;stroke-width:0.264583"
       d="m 72.30501,101.69909 c 0.09895,0.032 0.154516,-0.0373 0.2159,-0.0929 0.101071,0.0992 -2.65e-4,0.20849 0.0095,0.31406 0.0074,0.0791 -0.01667,0.17065 -0.03889,0.25426 -0.0344,0.2122 -0.11086,0.4109 -0.196585,0.60643 -0.14023,-0.0701 -0.199496,-0.1696 -0.143934,-0.30083 0.06826,-0.16166 0.02858,-0.31618 0.0053,-0.47281 -0.02011,-0.13574 0.03334,-0.25824 0.148696,-0.30824 z"
       id="path13965" />
    <path
       style="fill:#e49055;stroke-width:0.264583"
       d="m 72.335437,99.443248 c 7.94e-4,0.04048 0.0019,0.0807 0.0021,0.121179 5.3e-4,0.05847 -0.04577,0.07223 -0.08705,0.09049 -0.04022,0.01773 -0.0852,0.02408 -0.10848,-0.01773 -0.05821,-0.103188 -0.146314,-0.08864 -0.237595,-0.07117 -0.06086,-0.08361 -2.65e-4,-0.173302 -0.01323,-0.259027 0.05689,-0.07276 0.09948,-0.147902 0.03625,-0.239184 0.121973,-0.14261 0.185738,-0.149489 0.309034,-0.0291 0.0762,0.07435 0.150812,0.150813 0.193145,0.251619 -0.0026,0.0061 -0.0053,0.01243 -0.0079,0.01852 -0.0336,0.03466 -0.09498,0.04868 -0.08625,0.115093 0,0.0063 0,0.01296 0,0.01931 z"
       id="path13970" />
    <path
       style="fill:#e69955;stroke-width:0.264583"
       d="m 72.30501,101.69909 c -0.068,0.10398 -0.09155,0.21378 -0.05054,0.33496 0.0079,0.0233 0.0077,0.0503 0.0069,0.0754 -0.0045,0.145 -0.0048,0.145 0.129117,0.18601 0.0058,0.0436 -0.03413,0.0447 -0.05741,0.0606 -0.154517,0.10583 -0.173832,0.19817 -0.07461,0.35745 0.01349,0.0217 0.02434,0.045 0.03651,0.0675 -0.0172,0.0643 -0.04075,0.12567 -0.08202,0.17886 -0.04974,-0.11007 -0.125413,-0.2085 -0.128323,-0.33841 -0.0021,-0.10371 -0.07355,-0.18626 -0.105569,-0.28178 -0.02064,-0.0617 -0.05953,-0.12409 0.0172,-0.17595 0.112448,-0.0749 0.108744,-0.0741 0.08281,-0.20505 -0.03149,-0.15901 -0.04233,-0.31909 0.0077,-0.47731 0.0071,5.3e-4 0.01402,8e-4 0.02117,0.001 0.04604,0.059 0.111125,0.0161 0.165365,0.031 0.01085,0.0617 0.02143,0.12356 0.03175,0.18548 z"
       id="path13974" />
    <path
       style="fill:#f3af67;stroke-width:0.264583"
       d="m 71.191643,102.83838 c 7.94e-4,-0.11245 0.0013,-0.22489 0.0019,-0.33734 0.05318,-0.0884 0.1524,-0.0185 0.218017,-0.0635 0.03334,-0.0243 0.01535,-0.0532 0.0066,-0.0807 -0.03995,-0.12912 -0.08043,-0.25823 -0.12065,-0.38735 0.0463,-0.0304 0.08467,-0.003 0.12409,0.0167 0.02249,0.0159 0.0381,0.0368 0.0471,0.0624 0.0037,0.0823 0.0172,0.16298 0.04339,0.24156 0.0056,0.23046 0.01667,0.45932 0.162189,0.65564 0.02778,0.0373 0.02117,0.0762 -0.009,0.11113 -0.200289,0.0736 -0.456141,-0.0447 -0.473604,-0.21855 z"
       id="path14015" />
    <path
       style="fill:#e69d59;stroke-width:0.264583"
       d="m 71.096393,101.42471 c -0.11086,-0.16536 -0.164835,-0.35083 -0.176742,-0.5461 -0.02011,-0.32623 -0.01614,-0.65246 0.03413,-0.976574 0.0079,-0.02011 0.0082,-0.0426 0.01958,-0.06138 l -0.0013,0.0021 c 0.05345,-0.0807 0.122767,-0.124883 0.223308,-0.09763 l 0.0011,0.0021 c 0.02831,0.03995 0.06535,0.07646 0.05345,0.132557 -0.01217,0.03201 -0.04022,0.04683 -0.06694,0.06297 -0.121708,0.03387 -0.144992,0.157957 -0.129381,0.233357 0.03254,0.15955 -0.01085,0.31539 0.01402,0.47096 0.07435,0.18786 0.01984,0.3937 0.08202,0.58314 0.0042,0.0392 0.02963,0.0736 0.02487,0.11457 -0.0061,0.046 -0.02858,0.0762 -0.07805,0.0799 z"
       id="path14036" />
    <path
       style="fill:#e19f51;stroke-width:0.264583"
       d="m 71.375529,102.04119 c -0.02593,-0.0238 -0.05186,-0.0476 -0.07779,-0.0714 -0.0336,-0.0746 -0.06456,-0.14975 -0.07805,-0.23098 -0.01905,-0.0643 0.0299,-0.0823 0.07144,-0.1053 0.08387,0.0148 0.120386,-0.0159 0.143934,-0.10425 0.03731,-0.13996 -0.0093,-0.28522 0.0418,-0.42174 0.06958,-0.0439 0.130439,-8e-4 0.193675,0.0196 0.01032,0.0111 0.02328,0.0233 0.02328,0.0378 0,0.14685 0.02064,0.28734 0.108744,0.41143 0.01429,0.0201 0.01455,0.0479 0.0066,0.073 -0.210344,0.0505 -0.230717,0.30533 -0.41328,0.38603 -0.0066,0.002 -0.01349,0.004 -0.02037,0.006 z"
       id="path14093" />
    <path
       style="fill:#f8ac71;stroke-width:0.264583"
       d="m 72.491541,102.17454 c 0.0077,-0.18944 -0.01217,-0.38047 0.02937,-0.56832 v -2.7e-4 c 0.01905,-0.0161 0.01191,-0.0455 0.03096,-0.0619 v 0 c 0.01005,-0.01 0.02011,-0.0204 0.0299,-0.031 -2.65e-4,-0.0101 -5.29e-4,-0.0201 -7.94e-4,-0.0302 -0.179387,-0.21669 -0.127,-0.25003 0.0299,-0.49742 0.01111,-0.0545 0.02646,-0.10847 0.03202,-0.16351 0.0058,-0.0579 0.01958,-0.10954 0.06588,-0.14816 0.01402,0.30453 -0.03413,0.60377 -0.0799,0.90275 -0.03096,0.20241 -0.06033,0.40614 -0.137319,0.59796 z"
       id="path14113" />
    <path
       style="fill:#fac070;stroke-width:0.264583"
       d="m 71.718958,99.224173 c -0.0344,0.08334 0.01376,0.166952 -7.94e-4,0.25056 -0.02037,-0.0029 0.0032,-0.0019 -0.01508,0.0024 -0.07699,0.01826 -0.165629,-0.114565 -0.220663,-0.0087 -0.05847,0.112184 -0.150283,0.237596 -0.0471,0.377032 0.01006,0.02037 0.01984,0.04101 0.0299,0.06138 0.05239,0.104245 0.0217,0.201885 -0.02328,0.298455 -0.0095,0.0132 -0.02223,0.0225 -0.03757,0.0278 -0.01588,0.002 -0.03096,0 -0.04498,-0.007 -0.11721,-0.14235 -0.110067,-0.313274 -0.108744,-0.482607 -7.94e-4,-0.160073 0.03149,-0.312738 0.119592,-0.447675 0.08705,-0.13388 0.207169,-0.155575 0.348721,-0.07144 z"
       id="path14116" />
    <path
       style="fill:#f0ac5f;stroke-width:0.264583"
       d="m 71.502264,101.11224 c -0.01905,0.15849 0.04604,0.31671 0.0019,0.47546 -0.0026,0.01 -0.0021,0.0204 -0.0032,0.0307 -0.005,0.0468 -0.0095,0.096 -0.06112,0.11536 -0.0635,0.0241 -0.0926,-0.0243 -0.12356,-0.0659 -0.105833,-0.0376 -0.118798,-0.16615 -0.211402,-0.21669 -0.0077,-0.007 -0.01032,-0.0161 -0.0082,-0.0265 0.01138,-0.032 0.02249,-0.064 0.03387,-0.096 0.01164,-0.0109 0.02646,-0.0196 0.04075,-0.0153 0.199496,0.0577 0.20955,0.0455 0.229394,-0.1643 0.0066,-0.0696 -0.07223,-0.18362 0.07541,-0.20558 0.0799,0.0452 0.08864,0.1016 0.02619,0.1688 z"
       id="path14129" />
    <path
       style="fill:#d4a340;stroke-width:0.264583"
       d="m 71.996506,102.16343 c -0.01005,0.12568 0.08678,0.21537 0.11086,0.32941 0.03281,0.1561 0.107156,0.30321 0.105833,0.46699 -2.64e-4,0.028 -0.01455,0.0492 -0.03281,0.0685 -0.0029,-0.006 -0.0074,-0.008 -0.01376,-0.008 -0.08017,-0.10239 -0.125148,-0.21352 -0.134144,-0.34846 -0.0085,-0.12726 -0.0979,-0.23256 -0.145521,-0.3503 -0.02064,-0.0582 -0.0635,-0.10319 -0.0934,-0.15611 -0.004,-0.0151 -0.0074,-0.0304 -0.01191,-0.0455 -0.05292,-0.0934 -0.0545,-0.20267 -0.0934,-0.30109 -0.02567,-0.0648 -0.0079,-0.12171 0.07541,-0.13256 0.08281,0.0175 0.06165,0.0918 0.07911,0.14499 -5.3e-4,0.007 -0.0011,0.0148 -0.0016,0.0225 0.03678,0.11086 0.04366,0.2368 0.155311,0.30983 z"
       id="path14174" />
    <path
       style="fill:#d58247;stroke-width:0.264583"
       d="m 72.671193,99.566544 c -0.101335,0.184679 -0.116946,0.15875 -0.229923,0.004 -0.03254,-0.04472 -0.04736,-0.104246 -0.105833,-0.127265 v 0 c -0.06747,-0.102129 0.01482,-0.121708 0.08228,-0.14949 0,0 0.01191,-0.0037 0.01191,-0.0037 0.04445,0.04022 0.08758,0.08176 0.13335,0.120121 0.05054,0.0426 0.09869,0.08573 0.108215,0.156369 z"
       id="path14214" />
    <path
       style="fill:#df8c4e;stroke-width:0.264583"
       d="m 71.934064,99.289261 c -0.0019,0.09313 0.0093,0.187589 -0.02963,0.276754 l -0.0016,0.0016 c -0.02699,0.04683 0.0381,0.08969 0.0063,0.137054 -0.0077,0.01191 -0.01773,0.02143 -0.03016,0.02805 -0.01455,0.0034 -0.02699,-5.29e-4 -0.03784,-0.01058 l -2.64e-4,-7.94e-4 c -0.0095,-0.01005 -0.01931,-0.02011 -0.02884,-0.0299 -0.0013,-0.01005 -0.0021,-0.02011 -0.0026,-0.03016 -0.03969,-0.119592 -7.94e-4,-0.233892 0.02461,-0.348986 0.01349,-0.03863 0.02672,-0.07726 0.04022,-0.115887 0.07329,-0.0037 0.06668,0.04445 0.0598,0.09287 z"
       id="path14327" />
    <path
       style="fill:#d8844b;stroke-width:0.264583"
       d="m 71.934064,99.289261 c -0.02011,-0.03096 -0.03995,-0.06191 -0.06006,-0.09287 -0.0024,-0.05133 0.0164,-0.09366 0.05345,-0.128588 0.01402,0.0053 0.0291,0.009 0.04207,0.01614 0.04815,0.02619 0.107685,0.04868 0.100277,0.116681 -0.0085,0.07805 -0.07303,0.08546 -0.135731,0.08864 z"
       id="path14339" />
    <path
       style="fill:#f5b365;stroke-width:0.264583"
       d="m 71.250381,99.743021 c -0.0037,0.03016 -0.01058,0.06562 0.01296,0.08599 0.122238,0.105039 0.104775,0.249499 0.1143,0.386559 -0.08414,0.014 -0.09948,-0.0643 -0.108479,-0.10742 -0.01614,-0.0767 -0.04392,-0.152404 -0.04471,-0.232573 -0.01905,-0.04075 -0.03096,-0.08281 -0.02831,-0.128323 0.01826,-0.0013 0.03625,-0.0029 0.05424,-0.0042 z"
       id="path14400" />
    <path
       style="fill:#e49055;stroke-width:0.264583"
       d="m 71.833787,99.312279 c 0.01535,0.02699 0.02355,0.05609 0.01085,0.08546 -0.03651,0.08467 -0.03413,0.17436 -0.03545,0.263525 -0.06297,-0.118798 -0.03175,-0.23495 0.0098,-0.350573 0.0053,-0.0032 0.01032,-0.0026 0.01482,0.0016 z"
       id="path14430" />
    <path
       style="fill:#d09554;stroke-width:0.264583"
       d="m 71.195083,99.744873 c -0.08599,0.0058 -0.146315,0.07091 -0.223309,0.09763 0.05107,-0.144462 0.06588,-0.151077 0.223309,-0.09763 z"
       id="path14438" />
    <path
       style="fill:#d09554;stroke-width:0.264583"
       d="m 70.973097,99.840388 c -0.0066,0.02037 -0.01296,0.04101 -0.01958,0.06138 -0.0048,-0.02408 -0.0013,-0.04551 0.01958,-0.06138 z"
       id="path14548" />
    <path
       style="fill:#d58247;stroke-width:0.264583"
       d="m 72.696064,99.655444 c -0.0061,-0.0209 -0.01217,-0.0418 -0.01799,-0.06271 0.01958,0.01693 0.02355,0.03836 0.01799,0.06271 z"
       id="path14549" />
    <path
       style="fill:#e69955;stroke-width:0.264583"
       d="m 72.086993,101.48133 c 0.0344,-0.19817 0.04471,-0.39132 -0.04445,-0.58367 -0.04418,-0.0953 -0.05265,-0.2069 -0.07726,-0.31141 0.03942,-0.0482 0.0508,-0.0982 0.0426,-0.16351 -0.01111,-0.0879 -0.01032,-0.18442 0.111918,-0.20691 0.01032,0.0209 0.02064,0.0418 0.03122,0.0624 0.01297,0.008 0.02461,0.0172 0.03519,0.0278 0.02646,0.11695 0.0095,0.23416 7.94e-4,0.35111 -0.0019,0.007 -0.0037,0.0143 -0.0056,0.0214 0.03466,0.0685 0.06959,0.13705 0.04683,0.21828 -0.0026,0.01 -0.0074,0.0241 -0.0029,0.0296 0.08176,0.0992 0.0071,0.20638 0.01693,0.30904 -0.04022,0.041 -0.03307,0.09 -0.03281,0.14208 5.29e-4,0.0706 -0.0291,0.12647 -0.118533,0.10583 z"
       id="path14978" />
    <path
       style="fill:#f8aa68;stroke-width:0.264583"
       d="m 72.149699,100.30844 c 5.29e-4,-0.0101 7.94e-4,-0.0201 0.0011,-0.0302 0.01588,-0.0262 0.0336,-0.0513 0.04763,-0.0783 0.01799,-0.0344 0.01852,-0.0897 0.07514,-0.0807 0.06059,0.01 0.139171,0.0291 0.141552,0.0971 0.0045,0.13229 0.03545,0.27252 -0.07461,0.38894 -0.0471,0.0497 -0.09393,0.0751 -0.159015,0.0733 v 2.6e-4 c -0.02963,-0.12171 7.94e-4,-0.24871 -0.03175,-0.37041 z"
       id="path14979" />
    <path
       style="fill:#f1a361;stroke-width:0.264583"
       d="m 72.610603,100.98577 c -7.93e-4,0.0302 0.01006,0.0683 -0.0042,0.0894 -0.0889,0.13255 -0.0381,0.27093 -0.02566,0.40799 -0.04868,0.002 -0.08917,0.0193 -0.120386,0.0585 -0.01614,0.0204 -0.03625,0.0392 -0.06482,0.0251 -0.0254,-0.0124 -0.03995,-0.0394 -0.03228,-0.064 0.01958,-0.0627 0.0085,-0.11932 -0.01482,-0.17859 -0.01587,-0.0407 0.0056,-0.0794 0.02699,-0.11589 0.04313,-0.0741 0.119327,-0.12409 0.141023,-0.21643 0.0098,-0.0421 0.06085,-0.0161 0.09419,-0.006 z"
       id="path14980" />
    <path
       style="fill:#df8c4e;stroke-width:0.264583"
       d="m 72.119537,100.21583 c -0.01376,0.0738 -0.0471,0.14102 -0.02196,0.22437 0.03493,0.11641 0.0032,0.14393 -0.132291,0.14631 h -2.65e-4 c -0.0082,-0.009 -0.01349,-0.0188 -0.01561,-0.0307 -0.0021,-0.0119 -0.0074,-0.022 -0.0164,-0.0299 v -7.9e-4 c -0.03493,-0.0466 0.0066,-0.10769 -0.02911,-0.15425 0,-0.0209 0,-0.0418 0,-0.0627 0.02196,-0.031 0.02222,-0.0617 -0.0011,-0.0923 l 2.65e-4,2.7e-4 c -0.0079,-0.008 -0.01138,-0.0159 -0.01085,-0.0249 7.93e-4,-0.009 0.0021,-0.014 0.0042,-0.014 0.06191,-0.0272 0.05821,-0.14499 0.160338,-0.11668 0,0 0.0037,0.003 0.0037,0.003 0.0093,0.0199 0.01852,0.04 0.02778,0.0598 0.01058,0.01 0.02064,0.0201 0.03016,0.0309 2.65e-4,0.0206 7.94e-4,0.041 0.0011,0.0617 z"
       id="path14981" />
    <path
       style="fill:#db8d4a;stroke-width:0.264583"
       d="m 72.091226,101.48371 c 0.0426,-0.0357 0.05715,-0.0839 0.06112,-0.13678 0.0042,-0.0577 0.0336,-0.0958 0.09022,-0.11113 0.02805,0.0905 0.03466,0.18362 0.03122,0.27781 -0.02487,0.0362 -0.02487,0.0762 -0.01984,0.11827 0.0077,0.0651 -0.0299,0.0966 -0.0889,0.0998 -0.06509,0.004 -0.07117,-0.0466 -0.07276,-0.0945 -0.0021,-0.0513 -0.0011,-0.10239 -0.0011,-0.15346 z"
       id="path14982" />
    <path
       style="fill:#f1a361;stroke-width:0.264583"
       d="m 72.551866,101.5443 c -0.01032,0.0206 -0.02064,0.0413 -0.03096,0.0619 0.01032,-0.0206 0.02064,-0.0413 0.03096,-0.0619 z"
       id="path14983" />
    <path
       style="fill:#f1a361;stroke-width:0.264583"
       d="m 72.581499,101.51335 c -0.01005,0.0103 -0.01984,0.0206 -0.0299,0.031 0.01005,-0.0103 0.01984,-0.0206 0.0299,-0.031 z"
       id="path14984" />
    <path
       style="fill:#e69955;stroke-width:0.264583"
       d="m 72.118214,100.15445 c -0.01005,-0.0103 -0.02011,-0.0206 -0.03016,-0.031 0.01006,0.0103 0.02011,0.0206 0.03016,0.031 z"
       id="path14985" />
    <path
       style="fill:#9e7102;stroke-width:0.264583"
       d="m 71.843841,103.09053 c -0.02037,-0.0114 -0.04075,-0.0228 -0.06112,-0.0339 -0.116946,-0.0773 -0.225425,-0.16139 -0.204258,-0.32358 0.0037,-0.0281 0.0019,-0.0561 -0.01164,-0.0712 -0.08731,-0.0979 -0.05556,-0.21695 -0.06509,-0.32887 -0.0053,-0.0598 -0.04524,-0.11272 -0.03307,-0.17595 0.02937,-0.0741 0.106627,-0.0945 0.162719,-0.13414 0.0844,-0.0598 0.122766,0.0339 0.174625,0.0765 0.01111,0.0111 0.02196,0.0225 0.03254,0.0341 l 2.65e-4,-5.3e-4 c 0.05292,0.0386 0.0024,0.13944 0.0934,0.15505 0.100277,0.11006 0.136525,0.2458 0.151606,0.38867 0.0064,0.0614 0.01508,0.12039 0.0553,0.17013 0.0426,0.0526 0.03836,0.11245 0.02752,0.17356 -0.01297,0.004 -0.02619,0.008 -0.03942,0.0119 -0.124884,-0.002 -0.07805,-0.13494 -0.135996,-0.17965 0.05477,0.063 0.03519,0.14129 0.0254,0.21828 -0.05583,0.0222 -0.115358,0.0119 -0.172773,0.0196 z"
       id="path15023" />
    <path
       style="fill:#955d00;stroke-width:0.264583"
       d="m 72.016614,103.07069 c -0.08758,-0.0844 -0.103717,-0.20453 -0.1524,-0.30824 -0.01058,-0.0228 -0.0069,-0.0508 0.0061,-0.0743 0.01773,-0.0328 0.04101,-0.0624 0.08149,-0.0606 0.03413,0.002 0.05477,0.0288 0.06244,0.0598 0.02963,0.11774 0.09975,0.22199 0.112977,0.34476 0,0 -0.004,-0.002 -0.004,-0.002 -0.01852,0.013 -0.04604,0.007 -0.0598,0.0296 -0.01561,0.003 -0.03122,0.007 -0.04683,0.0111 z"
       id="path15024" />
    <path
       style="fill:#9e7102;stroke-width:0.264583"
       d="m 72.063445,103.05931 c 0.01984,-0.01 0.03969,-0.0196 0.0598,-0.0296 -0.01508,0.0201 -0.03545,0.0288 -0.0598,0.0296 z"
       id="path15025" />
    <path
       style="fill:#cf7b3d;stroke-width:0.264583"
       d="m 72.056566,100.06079 c -0.03651,0.0582 -0.06456,0.12673 -0.151871,0.12144 -0.03493,-0.0468 -0.0071,-0.10187 -0.02064,-0.15161 -0.03387,-0.102126 0.01376,-0.207166 -0.01138,-0.309559 -0.0013,-0.05345 -0.04762,-0.115359 0.0299,-0.153459 0.0336,0.03731 0.08043,0.03625 0.124619,0.0471 0.04286,0.01058 0.08308,0.03651 0.02275,0.07805 -0.04868,0.03334 -0.03466,0.06085 -0.009,0.100277 0.05556,0.08493 0.0762,0.174625 0.01561,0.267761 z"
       id="path15184" />
    <path
       style="fill:#ffc875;stroke-width:0.264583"
       d="m 71.964226,100.80241 c 0.111655,0.31115 0.04498,0.62839 0.02884,0.94351 -0.0053,0.1053 -0.02752,0.11615 -0.152135,0.10742 l -2.65e-4,-5.3e-4 c -0.0344,-0.20108 -0.140758,-0.38391 -0.14896,-0.59135 0.04604,-0.0831 0.09737,0.002 0.142345,-0.006 -0.04127,-0.0217 -0.09551,-0.022 -0.13626,-0.0558 -0.101071,-0.21061 -0.113771,-0.44503 -0.180181,-0.6649 0.0032,-0.0458 -0.0037,-0.0937 0.01587,-0.13653 0.02064,-0.0455 0.05768,-0.0714 0.109802,-0.0693 0.04418,0.002 0.08916,0.0188 0.09419,0.063 0.01297,0.10901 0.09552,0.16114 0.165365,0.2249 l 5.29e-4,7.9e-4 c 0.0336,0.0352 -0.0032,0.0879 0.03069,0.12303 l 2.64e-4,2.7e-4 c 0.01852,0.0161 0.01111,0.0452 0.0299,0.0614 z"
       id="path15200" />
    <path
       style="fill:#ffcb76;stroke-width:0.264583"
       d="m 71.378174,99.876106 c -0.08361,-0.1778 -0.04498,-0.347662 0.05054,-0.503237 0.06403,-0.104511 0.125677,-0.09975 0.205052,-0.0074 0.0299,0.03493 0.05636,0.07276 0.0844,0.109272 -2.65e-4,0.01032 -5.29e-4,0.02037 -7.94e-4,0.03069 2.65e-4,0.02011 -0.02117,0.02011 -0.02963,0.03175 -2.65e-4,0.01005 -7.94e-4,0.02011 -0.0011,0.03016 -0.02249,0.03096 -0.02223,0.06165 2.65e-4,0.09207 l 2.65e-4,5.29e-4 c 0.01005,0.01032 0.02011,0.02037 0.03043,0.03043 l 7.93e-4,5.29e-4 c 0.0042,0.0058 0.0085,0.01164 0.0127,0.01746 -0.0034,0.01402 -0.0098,0.02699 -0.01852,0.03863 -0.02487,0.0209 -0.05715,0.03519 -0.08414,0.01799 -0.08784,-0.05556 -0.111125,7.94e-4 -0.130175,0.06932 -0.03598,0.02567 -0.06906,0.05927 -0.120121,0.0418 z"
       id="path15201" />
    <path
       style="fill:#fcc26d;stroke-width:0.264583"
       d="m 71.902843,100.61694 c -0.09869,-0.0394 -0.198702,-0.0767 -0.230717,-0.19526 -0.0056,-0.0204 -0.01826,-0.0362 -0.04154,-0.0355 -0.02249,0.001 -0.03625,0.0159 -0.0418,0.0365 -0.0093,0.0336 -0.01693,0.068 -0.0254,0.10186 -0.11774,-0.0188 -0.107421,-0.12382 -0.136525,-0.20241 5.29e-4,-0.0159 0.0034,-0.0312 0.0087,-0.046 0.0071,-0.0135 0.0172,-0.0246 0.02963,-0.0336 0.134938,-0.002 0.231246,-0.0481 0.251884,-0.19976 0.0034,-0.0243 0.01958,-0.06932 0.06297,-0.0754 0.05371,0.11615 0.02752,0.24236 0.0381,0.36274 0.0093,0.1061 0.02514,0.20029 0.08467,0.28681 z"
       id="path15202" />
    <path
       style="fill:#ffcb76;stroke-width:0.264583"
       d="m 71.780341,99.967652 c -0.01508,0.07012 -0.02725,0.141028 -0.0463,0.210078 -0.03413,0.12277 -0.05054,0.13203 -0.172244,0.1143 -0.03043,-0.004 -0.06059,-0.01 -0.09102,-0.0143 -0.04075,0.0138 -0.04762,-0.0132 -0.05239,-0.0431 0.0045,-0.0135 0.01005,-0.0265 0.0164,-0.0394 0.02037,-0.0577 0.05027,-0.10583 0.108744,-0.13493 0.04948,-0.0249 0.09155,-0.06033 0.09578,-0.123035 0.03281,-0.0508 0.02222,-0.124089 0.08202,-0.161131 0.0066,-0.0019 0.01349,-0.0034 0.02037,-0.005 0.01429,-0.0016 0.02699,0.0021 0.03757,0.01217 l 2.64e-4,2.64e-4 c 0.02408,0.05133 0.02328,0.102923 5.29e-4,0.154517 0,0.01005 2.65e-4,0.01984 2.65e-4,0.02963 z"
       id="path15203" />
    <path
       style="fill:#df8c4e;stroke-width:0.264583"
       d="m 71.872945,99.721061 c 0.04974,0.09922 0.02328,0.20611 0.0299,0.309559 -0.01005,0.0209 -0.02037,0.0212 -0.03149,0.001 l 2.64e-4,-7.9e-4 c -0.02355,-0.07303 -0.02196,-0.146317 -0.0013,-0.219607 -7.93e-4,-0.0082 -7.93e-4,-0.0164 0,-0.02461 -0.01508,-0.0217 -0.01693,-0.04313 0.0011,-0.06429 z"
       id="path15204" />
    <path
       style="fill:#e49055;stroke-width:0.264583"
       d="m 71.870299,99.811019 c 2.65e-4,0.07329 7.94e-4,0.146314 0.0013,0.219601 -0.04022,-0.07302 -0.03572,-0.146312 -0.0013,-0.219601 z"
       id="path15205" />
    <path
       style="fill:#e49055;stroke-width:0.264583"
       d="m 71.871358,100.03142 c 0.01058,-2.7e-4 0.02117,-5.3e-4 0.03149,-10e-4 7.94e-4,0.0505 0.0013,0.10133 0.0019,0.15187 -7.94e-4,0.0114 -0.0016,0.0225 -0.0021,0.0339 -0.03784,-0.0569 -0.03043,-0.12145 -0.03122,-0.18468 z"
       id="path15206" />
    <path
       style="fill:#e49055;stroke-width:0.264583"
       d="m 71.903637,100.37088 c 0.03069,0.0474 0.03016,0.1008 0.0291,0.15425 -0.03122,-0.0476 -0.03096,-0.10081 -0.0291,-0.15425 z"
       id="path15207" />
    <path
       style="fill:#fcc26d;stroke-width:0.264583"
       d="m 71.780076,99.938019 c -2.64e-4,-0.05159 -5.29e-4,-0.102923 -5.29e-4,-0.154517 0.0344,0.05133 0.0336,0.102923 5.29e-4,0.154517 z"
       id="path15208" />
    <path
       style="fill:#fcc26d;stroke-width:0.264583"
       d="m 71.933799,100.74076 c -0.02593,-0.037 -0.03069,-0.0794 -0.03069,-0.12303 0.02566,0.0373 0.03016,0.0796 0.03069,0.12303 z"
       id="path15209" />
    <path
       style="fill:#fac070;stroke-width:0.264583"
       d="m 71.686943,99.659413 c -0.02302,-0.03069 -0.02302,-0.06138 -2.65e-4,-0.09207 2.65e-4,0.03043 2.65e-4,0.06112 2.65e-4,0.09207 z"
       id="path15210" />
    <path
       style="fill:#e49055;stroke-width:0.264583"
       d="m 71.902578,100.21583 c 0.02328,0.0304 0.02381,0.0611 0.0011,0.0923 -5.29e-4,-0.031 -7.94e-4,-0.0617 -0.0011,-0.0923 z"
       id="path15211" />
    <path
       style="fill:#fcc26d;stroke-width:0.264583"
       d="m 71.964226,100.80241 c -0.01005,-0.0204 -0.02011,-0.041 -0.03016,-0.0614 0.01005,0.0206 0.02011,0.041 0.03016,0.0614 z"
       id="path15212" />
    <path
       style="fill:#e49055;stroke-width:0.264583"
       d="m 71.871358,99.722383 c -5.3e-4,0.02143 -7.94e-4,0.0426 -0.0011,0.06403 -0.0098,-0.02143 -0.01958,-0.04286 -0.0291,-0.06429 0.0098,0 0.02011,0 0.03016,2.64e-4 z"
       id="path15213" />
    <path
       style="fill:#ffcb76;stroke-width:0.264583"
       d="m 71.748326,99.72159 c 5.3e-4,0.01005 0.0011,0.02011 0.0016,0.0299 0.0085,0.0071 0.01111,0.01402 0.0079,0.0209 -0.0029,0.0069 -0.0058,0.01032 -0.0087,0.01032 l -0.0011,7.94e-4 c -0.05107,-5.29e-4 -0.05133,-0.02593 -0.03043,-0.06191 l 0.0011,-0.0011 c 0.01032,-0.01058 0.02011,-0.01085 0.02963,0.0011 z"
       id="path15214" />
    <path
       style="fill:#fac070;stroke-width:0.264583"
       d="m 71.687737,99.536911 c 0.0098,-0.01058 0.01984,-0.02117 0.02963,-0.03175 7.94e-4,0.02064 -0.0127,0.02778 -0.02963,0.03175 z"
       id="path15215" />
    <path
       style="fill:#e69955;stroke-width:0.264583"
       d="m 71.964491,100.55503 c 2.65e-4,0.0103 2.65e-4,0.0206 5.29e-4,0.0312 -0.0095,-0.0103 -0.01931,-0.0209 -0.02884,-0.0312 0.0095,-0.0114 0.01905,-0.0119 0.02831,0 z"
       id="path15216" />
    <path
       style="fill:#e49055;stroke-width:0.264583"
       d="m 71.964491,100.55503 c -0.0095,0 -0.01905,0 -0.02831,-2.7e-4 -0.0016,-0.01 -0.0026,-0.0196 -0.0032,-0.0291 0.01032,0.01 0.0209,0.0196 0.03148,0.0294 z"
       id="path15217" />
    <path
       style="fill:#fcc26d;stroke-width:0.264583"
       d="m 71.74912,99.782708 c 2.65e-4,-0.01032 5.29e-4,-0.02064 7.94e-4,-0.03122 0.0098,0.01058 0.01958,0.02117 0.02937,0.03175 -0.01006,0 -0.02011,-2.65e-4 -0.03016,-5.3e-4 z"
       id="path15218" />
    <path
       style="fill:#e49055;stroke-width:0.264583"
       d="m 71.811826,99.691427 c 0.0095,0.01005 0.01932,0.02011 0.02884,0.0299 -0.0095,-0.0098 -0.01905,-0.01984 -0.02884,-0.0299 z"
       id="path15219" />
    <path
       style="fill:#fcc26d;stroke-width:0.264583"
       d="m 71.748326,99.72159 c -0.0098,-2.65e-4 -0.01984,-5.29e-4 -0.02963,-0.0011 -2.65e-4,-0.01005 -2.65e-4,-0.02011 -2.65e-4,-0.0299 0.01005,0.01032 0.02011,0.02064 0.0299,0.03096 z"
       id="path15220" />
    <path
       style="fill:#fac070;stroke-width:0.264583"
       d="m 71.717635,99.690104 c -0.01032,-0.01005 -0.02037,-0.02011 -0.03043,-0.03043 0.01005,0.01005 0.02037,0.02037 0.03043,0.03043 z"
       id="path15221" />
    <path
       style="fill:#df8c4e;stroke-width:0.264583"
       d="m 72.417722,99.293758 c -0.03757,0.04419 -0.07355,0.08943 -0.08228,0.14949 -0.04207,-0.01349 -0.100013,-0.01693 -0.09446,-0.07673 0.0048,-0.05239 0.05477,-0.06747 0.1016,-0.07276 0.02487,-0.0029 0.05027,-2.64e-4 0.07514,0 z"
       id="path15235" />
    <path
       style="fill:#c78f33;stroke-width:0.264583"
       d="m 71.535072,102.34705 c 0.0029,0.0251 0.0098,0.0508 0.0077,0.0754 -0.0074,0.0781 0.0082,0.14128 0.08572,0.18018 0.07144,0.0357 0.08229,0.0878 0.02619,0.1479 -0.04895,0.0524 -0.03863,0.0976 0.0066,0.1479 0.04419,0.0492 0.08123,0.10504 0.121709,0.15796 -0.03704,0.008 -0.07223,-2.7e-4 -0.106892,-0.0116 -0.0098,-0.0177 -0.01693,-0.0386 -0.03069,-0.0532 -0.152929,-0.16167 -0.170656,-0.36381 -0.173037,-0.57098 -5.29e-4,-0.046 -0.0034,-0.0921 -0.0053,-0.13837 0.0058,-0.002 0.01164,-0.005 0.0172,-0.007 0.04207,0.007 0.02381,0.0553 0.0508,0.0722 z"
       id="path15290" />
    <path
       style="fill:#e29b51;stroke-width:0.264583"
       d="m 71.224451,99.875577 c 0.05397,0.0426 0.08758,0.09525 0.0979,0.166163 0.0087,0.0598 0.02143,0.12065 0.05556,0.17356 l 5.29e-4,8e-4 c 0.0291,0.0323 0.05477,0.0677 0.09049,0.0934 l 5.3e-4,5.3e-4 c 0.02566,0.20162 0.105039,0.38603 0.182033,0.57097 -0.0029,0.0214 -0.01032,0.041 -0.02355,0.0582 -0.0064,0.0114 -0.01138,0.0238 -0.01429,0.0368 -0.0032,0.0254 -0.0037,0.0508 0.0037,0.0757 0.0042,0.0116 0.0079,0.0236 0.01111,0.0355 0.0029,0.0122 0.0034,0.0243 0.0016,0.0368 -0.0013,0.006 -0.0026,0.0122 -0.0042,0.018 -0.05715,0.0741 -0.05715,0.0741 -0.123295,-0.0299 -0.0013,-0.0593 -0.0077,-0.11669 -0.06297,-0.15399 -0.03678,5.3e-4 -0.05927,-0.0212 -0.07752,-0.0497 -0.06006,-0.0635 -0.02487,-0.15373 -0.06403,-0.22305 -0.01244,-0.23415 -0.147902,-0.43312 -0.190236,-0.65907 -0.0079,-0.03202 -0.0056,-0.06245 0.01508,-0.0897 0.01138,-0.01111 0.02381,-0.02037 0.03784,-0.02805 0.02117,-0.01085 0.0426,-0.02196 0.06376,-0.03281 z"
       id="path15301" />
    <path
       style="fill:#fdba70;stroke-width:0.264583"
       d="m 71.068083,101.26729 c -0.0056,-0.0246 -0.02011,-0.0513 -0.01482,-0.0736 0.04339,-0.18732 -0.01243,-0.36539 -0.04577,-0.54557 0.03016,-0.0669 0.04286,-0.1315 0.0032,-0.20241 -0.05662,-0.10186 0.03836,-0.17859 0.05689,-0.26855 0.0056,-0.0267 0.04895,-0.0352 0.08043,-0.0257 0.04657,0.014 0.09843,0.049 0.08863,0.0921 -0.02646,0.11668 0.06297,0.19976 0.07064,0.30374 -0.09657,0.10769 -0.141552,0.21246 -0.09022,0.37201 0.03757,0.11694 0.01852,0.26776 -0.109537,0.35983 -0.01508,0.002 -0.02831,-0.002 -0.03942,-0.0119 z"
       id="path15302" />
    <path
       style="fill:#f9af68;stroke-width:0.264583"
       d="m 71.285041,100.55582 c -0.03122,-0.0966 -0.09313,-0.18415 -0.08096,-0.29342 0.0029,-0.0267 -0.0127,-0.0503 -0.04022,-0.0587 -0.02646,-0.008 -0.0545,-0.001 -0.06826,0.022 -0.04101,0.0688 -0.102393,0.13388 -0.0553,0.2249 0.03836,0.0741 0.02037,0.1389 -0.03281,0.19764 -0.0077,-0.15637 -0.01217,-0.313 -0.02381,-0.46911 -0.0061,-0.0799 0.01958,-0.15001 0.04471,-0.221717 0.02434,-0.06932 0.07091,-0.07964 0.132556,-0.04895 2.65e-4,0.0098 7.94e-4,0.01958 0.0013,0.02937 0.01958,0.01667 0.01191,0.04604 0.02963,0.0635 -0.0032,0.14076 0.07514,0.26062 0.105304,0.3937 0.02143,0.0942 0.05265,0.18521 0.05159,0.28337 -0.01191,0.009 -0.02514,0.013 -0.04022,0.01 -0.02858,-0.0148 -0.04075,-0.0394 -0.04154,-0.0706 0.0024,-0.014 0.0063,-0.0278 0.01244,-0.041 0.0016,-0.007 0.0037,-0.0138 0.0056,-0.0206 z"
       id="path15303" />
    <path
       style="fill:#f9b469;stroke-width:0.264583"
       d="m 71.068083,101.26729 c 0.01058,-5.3e-4 0.02143,-8e-4 0.03201,-0.001 0.04022,-0.0304 0.08096,-0.0593 0.130175,-0.0733 0.07144,-0.0204 0.09075,-0.0725 0.08334,-0.13996 -0.0045,-0.0381 -0.0034,-0.0757 0.0048,-0.11298 0.0087,-0.0233 0.02381,-0.041 0.04604,-0.0529 0.0164,-0.006 0.03122,-0.003 0.04445,0.008 0.01005,0.0209 0.02037,0.0418 0.03043,0.0627 0.02487,0.10107 0.02725,0.20187 0.0011,0.30321 -0.005,0.0198 -0.0056,0.041 -0.0127,0.0598 -0.05662,0.14658 -0.15531,0.16695 -0.25691,0.0534 -0.01349,-0.0153 -0.02699,-0.0307 -0.04048,-0.046 -0.02064,-0.0201 -0.04154,-0.0407 -0.06218,-0.0611 z"
       id="path15304" />
    <path
       style="fill:#c38d2d;stroke-width:0.264583"
       d="m 71.412041,102.06606 c -0.01005,-0.01 -0.02011,-0.0201 -0.03016,-0.0304 -0.01111,-0.0783 -0.02461,-0.15082 0.08705,-0.17754 0.06297,-0.0151 0.08626,-0.0831 0.09128,-0.1479 0.0032,-0.0408 0.0019,-0.082 0.0063,-0.12277 0.004,-0.036 0.01217,-0.0743 0.05768,-0.0791 0.03625,-0.004 0.05292,0.0259 0.06826,0.0524 0.02328,0.04 0.0463,0.0802 0.08625,0.1061 0.0082,0.008 0.01032,0.0143 0.0064,0.0204 -0.0037,0.006 -0.0071,0.008 -0.01032,0.008 -0.06773,0.0677 -0.02408,0.13362 0.01085,0.19182 0.04657,0.0778 0.06138,0.15823 0.05265,0.2458 -0.0098,2.7e-4 -0.01932,0 -0.0291,-10e-4 -0.111655,-0.16642 -0.111655,-0.16642 -0.306917,0.0312 0.01085,0.0611 0.02143,0.12224 0.03228,0.18336 -0.01799,-0.0183 -0.03625,-0.0362 -0.05424,-0.0542 -0.02037,-0.0754 0.004,-0.1651 -0.06826,-0.22596 z"
       id="path15334" />
    <path
       style="fill:#f5b365;stroke-width:0.264583"
       d="m 71.775314,101.69591 c 0.0019,-0.01 0.0032,-0.019 0.004,-0.0286 -0.0074,-0.0238 -0.01006,-0.0505 -0.02276,-0.0712 -0.0725,-0.118 -0.114035,-0.24341 -0.107156,-0.38364 0.0011,-0.023 -0.01535,-0.0468 -0.02381,-0.0704 l 2.64e-4,5.3e-4 c -0.01878,-0.0167 -0.01349,-0.045 -0.03069,-0.0624 l 5.29e-4,5.2e-4 c -0.0254,-0.0376 -0.02778,-0.0807 -0.03122,-0.12382 2.65e-4,-0.009 0,-0.0183 -2.65e-4,-0.0275 0.0095,-0.0124 0.02037,-0.0233 0.03202,-0.0336 0.02805,-0.0548 -0.0024,-0.10054 -0.02725,-0.1434 -0.07885,-0.13759 -0.107421,-0.28549 -0.09975,-0.44212 0.07488,0.0524 0.03916,0.15346 0.09393,0.21457 -0.0042,0.0688 0.02593,0.12674 0.05397,0.18654 0.04048,0.087 0.07832,0.17356 0.05053,0.27569 -0.02117,0.0783 0.0508,0.14102 0.05054,0.21775 0.01085,0.007 0.01455,0.0138 0.01058,0.0204 -0.0037,0.007 -0.0077,0.01 -0.01138,0.01 0.01561,0.15928 0.07594,0.30877 0.101865,0.46566 0.0085,0.0505 0.01429,0.10134 0.02143,0.15214 -0.05688,-0.0376 -0.05927,-0.0979 -0.06535,-0.1569 z"
       id="path15335" />
    <path
       style="fill:#ffcb76;stroke-width:0.264583"
       d="m 71.409395,100.21504 c -0.01561,-0.10213 0.03334,-0.20453 -0.0016,-0.30639 0.06641,-0.04736 0.09287,0.0034 0.121443,0.04921 0.02276,0.10345 -0.07435,0.16563 -0.08837,0.25638 l -0.0029,0.004 c -0.01058,0.009 -0.02011,0.008 -0.02858,-0.003 z"
       id="path15347" />
    <path
       style="fill:#ffd386;stroke-width:0.264583"
       d="m 71.500412,99.96924 c -0.02672,-0.02646 -0.0545,-0.05186 -0.0926,-0.06085 -0.0098,-0.01085 -0.01984,-0.0217 -0.02963,-0.03228 0.02725,-0.02566 0.05424,-0.05159 0.09128,-0.06323 0.0074,0.0024 0.01482,0.0045 0.02196,0.0069 0.05503,0.03625 0.06906,0.08149 0.0291,0.137848 -0.0066,0.004 -0.01323,0.0079 -0.02011,0.01164 z"
       id="path15348" />
    <path
       style="fill:#f5b365;stroke-width:0.264583"
       d="m 71.409395,100.21504 c 0.0095,0.001 0.01905,0.002 0.02858,0.003 0.01085,0.0201 0.02196,0.04 0.03281,0.0601 -7.94e-4,0.0106 -0.0016,0.0212 -0.0021,0.0318 -0.04921,-0.0127 -0.07937,-0.0439 -0.09049,-0.0934 0.01032,-5.3e-4 0.0209,-10e-4 0.03122,-10e-4 z"
       id="path15349" />
    <path
       style="fill:#c38d2d;stroke-width:0.264583"
       d="m 71.932212,102.28805 c -0.04683,0.0172 -0.09393,0.0373 -0.148167,-0.002 0.01429,-0.0534 0.06006,-0.0955 0.05477,-0.1532 0.06033,0.0341 0.06879,0.0995 0.0934,0.15505 z"
       id="path15379" />
    <path
       style="fill:#ed9c5d;stroke-width:0.264583"
       d="m 72.149699,100.30844 c 0.0426,0.0788 0.09128,0.15372 0.03836,0.25109 -0.0172,0.0318 -0.0053,0.0794 -0.0066,0.11959 -0.04286,-0.12092 -0.05027,-0.24474 -0.03175,-0.37068 z"
       id="path15668" />
    <path
       style="fill:#b8851d;stroke-width:0.264583"
       d="m 71.502793,102.16369 c 0.03202,-0.0738 0.05212,-0.15266 0.125148,-0.20399 0.07435,-0.0524 0.129646,-0.0442 0.165629,0.0373 0.01905,0.0431 0.01587,0.0897 0.01614,0.13546 -0.113242,-0.096 -0.209815,-0.0288 -0.306917,0.0312 z"
       id="path15669" />
    <path
       style="fill:#ffd287;stroke-width:0.264583"
       d="m 71.71737,101.23527 c 0,-0.0101 2.65e-4,-0.0201 7.94e-4,-0.0304 0.01535,-7.9e-4 0.03307,0.003 0.04551,-0.003 0.09393,-0.0497 0.132027,-0.0384 0.157163,0.0548 0.01058,0.0392 0.01773,0.0807 0.01614,0.12091 -0.0019,0.0495 -0.04577,0.0667 -0.08573,0.0717 -0.0418,0.005 -0.04683,-0.0315 -0.04551,-0.0632 0.0021,-0.0696 -0.03307,-0.11562 -0.08837,-0.15055 z"
       id="path15727" />
    <path
       style="fill:#ffd384;stroke-width:0.264583"
       d="m 71.717635,99.72159 c 0.01005,0.02064 0.02037,0.04127 0.03043,0.06191 -0.0209,0.0598 0.01482,0.129117 -0.03016,0.184944 -0.01402,-0.0034 -0.02699,-0.0093 -0.03863,-0.01773 -0.06588,-0.0508 -0.139171,-0.09022 -0.207962,-0.135996 0,0 -0.0016,-0.0019 -0.0016,-0.0019 -0.03043,-0.08361 -0.01561,-0.151077 0.0799,-0.196321 0.04419,0.04657 0.08678,0.109802 0.168011,0.10504 z"
       id="path15728" />
    <path
       style="fill:#ffd386;stroke-width:0.264583"
       d="m 71.717635,99.93749 c 0,0.01032 0,0.02064 2.64e-4,0.03122 -0.0463,0.07012 -0.121443,0.12885 -0.07726,0.24395 -0.07964,-0.081 -0.141552,-0.0622 -0.19976,0.002 -0.0061,-0.0881 0.0034,-0.17224 0.05979,-0.244737 0,0 0.0024,-0.0019 0.0024,-0.0019 0.06138,-0.08096 0.137318,-0.06059 0.214577,-0.03016 z"
       id="path15729" />
    <path
       style="fill:#fdba70;stroke-width:0.264583"
       d="m 71.408866,100.89528 c -0.01005,0 -0.02011,2.7e-4 -0.03016,2.7e-4 -0.08864,-0.0529 -0.144198,-0.1151 -0.06191,-0.21696 0.01058,-2.7e-4 0.02117,-2.7e-4 0.03175,-5.3e-4 0.05662,0.0624 0.06297,0.13864 0.06033,0.21722 z"
       id="path15747" />
    <path
       style="fill:#e19f51;stroke-width:0.264583"
       d="m 71.564441,100.9564 c 0.02408,0.0378 0.0291,0.0804 0.03096,0.12383 -0.03387,-0.0352 -0.06112,-0.0722 -0.03096,-0.12383 z"
       id="path15748" />
    <path
       style="fill:#e19f51;stroke-width:0.264583"
       d="m 71.594868,101.07996 c 0.01032,0.0209 0.02064,0.0415 0.03069,0.0624 -0.01005,-0.0206 -0.02037,-0.0415 -0.03069,-0.0624 z"
       id="path15749" />
    <path
       style="fill:#e69d59;stroke-width:0.264583"
       d="m 71.191643,100.00125 c -0.0098,-0.02116 -0.01984,-0.04233 -0.02963,-0.0635 0.0098,0.02117 0.01984,0.04233 0.02963,0.0635 z"
       id="path15750" />
    <path
       style="fill:#e19f51;stroke-width:0.264583"
       d="m 71.596191,100.89555 c -0.01058,0.0111 -0.02143,0.0222 -0.03202,0.0333 0.01058,-0.0108 0.02117,-0.022 0.03202,-0.0333 z"
       id="path15751" />
    <path
       style="fill:#ffc379;stroke-width:0.264583"
       d="m 71.316791,100.67885 c 0.01482,0.0741 0.05953,0.13944 0.06191,0.21696 2.64e-4,0.0206 5.29e-4,0.041 5.29e-4,0.0617 0.02778,0.0251 2.64e-4,0.068 0.0299,0.0926 -0.0011,0.0352 0.0013,0.0709 -0.0042,0.10531 -0.01402,0.0905 -0.05001,0.12303 -0.139964,0.12356 -0.05477,2.6e-4 -0.109802,-0.008 -0.164571,-0.0127 -0.0093,-0.0685 0.03175,-0.12674 0.0381,-0.19341 0.0069,-0.072 0.0019,-0.13335 -0.0217,-0.20532 -0.05636,-0.1733 -0.05106,-0.29527 0.16854,-0.31141 h 2.64e-4 c 0.01032,0.01 0.02011,0.0201 0.02937,0.031 5.29e-4,0.0304 0.0011,0.0611 0.0019,0.0918 z"
       id="path15752" />
    <path
       style="fill:#fdba70;stroke-width:0.264583"
       d="m 71.314939,100.58678 c -0.0098,-0.0103 -0.01958,-0.0206 -0.02937,-0.031 0.0095,0.0103 0.01931,0.0206 0.02937,0.031 z"
       id="path15753" />
    <path
       style="fill:#ffda9a;stroke-width:0.264583"
       d="m 71.717635,99.93749 c -0.06853,0.03254 -0.141552,0.03228 -0.214842,0.0299 0.0016,-0.05345 -0.04789,-0.09631 -0.03175,-0.152665 0.121444,-0.03757 0.190765,0.02884 0.246592,0.122767 z"
       id="path15771" />
  </g>
</svg>
