<?xml version="1.0" encoding="UTF-8" standalone="no"?>
<!-- Created with Inkscape (http://www.inkscape.org/) -->

<svg
   width="210mm"
   height="297mm"
   viewBox="0 0 210 297"
   version="1.1"
   id="svg1"
   inkscape:version="1.4 (86a8ad7, 2024-10-11)"
   sodipodi:docname="cvet4.svg"
   xmlns:inkscape="http://www.inkscape.org/namespaces/inkscape"
   xmlns:sodipodi="http://sodipodi.sourceforge.net/DTD/sodipodi-0.dtd"
   xmlns="http://www.w3.org/2000/svg"
   xmlns:svg="http://www.w3.org/2000/svg">
  <sodipodi:namedview
     id="namedview1"
     pagecolor="#505050"
     bordercolor="#eeeeee"
     borderopacity="1"
     inkscape:showpageshadow="0"
     inkscape:pageopacity="0"
     inkscape:pagecheckerboard="0"
     inkscape:deskcolor="#505050"
     inkscape:document-units="mm"
     inkscape:zoom="0.72604517"
     inkscape:cx="396.66953"
     inkscape:cy="561.25984"
     inkscape:window-width="1920"
     inkscape:window-height="1017"
     inkscape:window-x="-8"
     inkscape:window-y="-8"
     inkscape:window-maximized="1"
     inkscape:current-layer="layer1" />
  <defs
     id="defs1" />
  <g
     inkscape:label="Layer 1"
     inkscape:groupmode="layer"
     id="layer1">
    <path
       style="fill:#eb9e5b;stroke-width:0.264583"
       d="m 135.15249,186.35081 c 0.0246,0.0365 0.019,0.0786 0.0169,0.11827 -0.003,0.0526 0.0196,0.0868 0.0638,0.11033 0.0489,0.0492 0.0735,0.10662 0.0582,0.177 -0.004,0.10742 0.0458,0.21643 -0.01,0.322 -0.01,0.0138 -0.0225,0.0241 -0.0376,0.0312 -0.14817,0.008 -0.0878,-0.13361 -0.14155,-0.18282 0.0217,0.091 0.0161,0.20134 0.0889,0.28945 0.0352,0.13441 -0.0669,0.21246 -0.13785,0.28972 -0.0955,0.10424 -0.20188,0.20267 -0.32385,0.2794 -0.0164,0.001 -0.0326,7.9e-4 -0.0487,-8e-4 -0.0161,-0.002 -0.0312,-0.007 -0.0452,-0.0151 -0.05,-0.0595 -0.0526,-0.14605 -0.11324,-0.19949 -0.0243,-0.0886 -0.0648,-0.17039 -0.10822,-0.25083 -0.0196,-0.0365 -0.0426,-0.0706 -0.0198,-0.11377 0.004,-0.0384 0.009,-0.0765 0.013,-0.11483 0.0272,-0.0373 -0.0159,-0.1016 0.0365,-0.12276 0.0487,-0.0198 0.0646,0.0352 0.0902,0.0635 0.0497,0.05 0.0548,0.11906 0.0786,0.18071 0.0408,0.10609 0.17489,0.13705 0.25083,0.0606 0.0524,-0.0529 0.0561,-0.10425 -0.007,-0.15558 -0.21035,-0.16907 -0.26088,-0.44635 -0.12462,-0.67707 0.0286,-0.0484 0.0585,-0.0958 0.0905,-0.14234 0.12673,-0.0857 0.22622,-0.002 0.33046,0.0532 z"
       id="path13861" />
    <path
       style="fill:#e79757;stroke-width:0.264583"
       d="m 133.1361,186.90405 c 0.0111,0.007 0.022,0.014 0.0331,0.0209 0.0291,0.0511 0.0847,0.0773 0.11694,0.12515 0.0619,0.12594 0.11986,0.24845 0.26035,0.31777 0.0656,0.0325 0.0418,0.1143 -0.007,0.17356 -0.0733,0.09 -0.13865,0.18468 -0.14208,0.30771 -0.001,0.0156 -0.004,0.0307 -0.008,0.0458 -0.007,0.0145 -0.0172,0.0264 -0.0302,0.036 -0.0214,0.0124 -0.0458,0.013 -0.0691,0.0167 -0.10318,-0.0662 -0.19976,-0.1397 -0.27702,-0.23627 -0.0214,-0.0799 -0.0802,-0.12383 -0.14446,-0.1704 -0.0656,-0.0474 -0.15557,-0.1008 -0.0257,-0.19394 0.081,-0.0579 -0.003,-0.13758 -0.0143,-0.20769 0.0754,-0.11325 0.12674,-0.25797 0.30665,-0.23522 z"
       id="path13882" />
    <path
       style="fill:#fbb16b;stroke-width:0.264583"
       d="m 135.15249,186.35081 c -0.009,0.0228 -0.002,0.0511 -0.032,0.0744 -0.0693,-0.0701 -0.15373,-0.10346 -0.25453,-0.0738 -0.15928,0.11721 -0.24633,0.0863 -0.26115,-0.10028 -0.006,-0.0757 -0.0534,-0.13229 -0.0646,-0.2032 -0.0344,-0.18336 0.0828,-0.31591 0.16615,-0.45297 0.0445,-0.073 0.14473,-0.0865 0.20506,0.006 0.0476,0.0728 0.11985,0.13097 0.12276,0.23363 0.003,0.10636 0.0397,0.20796 0.10266,0.29712 0.0193,0.0722 0.0183,0.14579 0.0156,0.21961 z"
       id="path13925" />
    <path
       style="fill:#f0a160;stroke-width:0.264583"
       d="m 134.52675,188.54103 c -0.25162,-0.0532 -0.48815,-0.14552 -0.71146,-0.27305 -0.0116,-0.0572 -0.055,-0.0788 -0.1024,-0.10478 -0.0759,-0.0418 -0.0997,-0.13864 -0.0304,-0.17092 0.13996,-0.0651 0.13599,-0.18044 0.15504,-0.29527 0.002,-0.01 0.01,-0.0175 0.0161,-0.0251 0.0947,-0.0437 0.13785,0.0225 0.15769,0.0907 0.0257,0.0876 0.0622,0.13309 0.16061,0.12092 0.10318,-0.0127 0.15001,0.0489 0.15689,0.14552 0.004,0.0505 2.7e-4,0.0971 0.0595,0.12753 0.16298,0.0833 0.13387,0.24103 0.13837,0.38444 z"
       id="path13929" />
    <path
       style="fill:#e49c57;stroke-width:0.264583"
       d="m 135.13715,186.13094 c -0.11139,-0.0386 -0.16114,-0.11615 -0.14791,-0.23416 0.0138,-0.12276 -0.0735,-0.19605 -0.1434,-0.27384 -0.041,-0.0458 -0.096,-0.0196 -0.10874,0.0286 -0.0278,0.10716 -0.0863,0.19209 -0.15531,0.27411 -0.0214,0.0254 -0.01,0.0582 0.007,0.0857 0.0437,0.22569 0.0812,0.45138 8e-4,0.6768 -0.002,0.0198 -0.003,0.04 -0.002,0.0603 0.002,0.013 0.004,0.0259 0.006,0.0389 0.003,0.013 0.004,0.0262 0.005,0.0394 7.9e-4,0.0135 7.9e-4,0.027 5.2e-4,0.0405 -5.2e-4,0.0278 -0.005,0.0553 -0.0114,0.0823 -0.003,0.014 -0.009,0.027 -0.0172,0.0389 -0.0183,0.022 -0.0299,0.0492 -0.0532,0.0675 -0.007,0.002 -0.0138,0.005 -0.0204,0.007 -0.0617,-0.0931 -0.0651,2.6e-4 -0.0889,0.0278 0.0294,-0.3945 0.0386,-0.79058 0.0939,-1.18295 0.0138,-0.0968 0.04,-0.19209 0.0937,-0.2757 0.12542,-0.19526 0.33179,-0.18653 0.43313,0.022 0.073,0.14949 0.1053,0.31036 0.10901,0.47678 z"
       id="path13942" />
    <path
       style="fill:#f0a160;stroke-width:0.264583"
       d="m 133.35306,187.86502 c -0.0722,-0.1479 0.0312,-0.24897 0.10266,-0.35216 0.0569,-0.0823 0.0685,-0.0794 -0.0135,-0.12965 -0.12145,-0.0746 -0.15532,-0.19526 -0.1823,-0.32147 0.0471,-0.0362 0.077,-7.9e-4 0.10186,0.0296 0.0749,0.0923 0.17304,0.1479 0.28125,0.18917 0.11086,0.0519 0.23046,0.0799 0.34343,0.12859 0.0841,0.0365 0.15161,-0.009 0.16299,-0.11853 0.01,-0.0918 0.0299,-0.19077 0.1651,-0.16378 0.0228,0.0265 0.0246,0.0579 0.0206,0.0905 -2.6e-4,0.0167 -7.9e-4,0.0331 -0.001,0.0497 -0.002,0.0352 0.007,0.0701 0.003,0.1053 -0.0206,0.1905 -0.10398,0.24977 -0.31803,0.22702 -0.0582,-0.009 -0.10504,-0.0606 -0.17039,-0.0497 -0.0341,0.0529 0.0497,0.10584 -0.003,0.15558 -0.11589,0.0709 -0.2413,0.12277 -0.35957,0.18865 -0.0487,0.0273 -0.0976,0.0233 -0.13229,-0.0288 z"
       id="path13948" />
    <path
       style="fill:#dc8a4d;stroke-width:0.264583"
       d="m 133.1361,186.90405 c -0.0344,0.0307 -0.0855,0.0548 -0.0998,0.0931 -0.0328,0.0879 -0.10292,0.12251 -0.17647,0.15875 5.3e-4,0.007 0.001,0.0138 0.002,0.0209 0.003,0.0138 0.006,0.0275 0.009,0.041 -0.003,0.0564 0.027,0.12144 -0.0362,0.16192 -0.0603,0.0386 -0.10028,-0.0153 -0.14632,-0.0392 -0.11747,-0.16298 -0.16748,-0.33919 -0.10451,-0.5371 0.0357,-0.11192 0.0857,-0.14393 0.19632,-0.10636 0.1315,0.0445 0.25242,0.11192 0.35613,0.2069 z"
       id="path13954" />
    <path
       style="fill:#f6a667;stroke-width:0.264583"
       d="m 133.35306,187.86502 c 0.0913,-0.027 0.16537,-0.0878 0.25083,-0.12753 0.0807,-0.0373 0.15663,-0.0614 0.24341,-0.0579 0.0103,-0.01 0.0204,-0.009 0.0302,7.9e-4 2.7e-4,0.041 -0.003,0.0825 0.001,0.12329 0.0138,0.12727 -0.0119,0.22675 -0.17674,0.23787 0.0376,0.0862 0.19262,0.10371 0.11351,0.22648 -0.19315,-0.0765 -0.3638,-0.19024 -0.52441,-0.32041 0.0106,-0.0172 0.0209,-0.0344 0.0315,-0.0516 0.0106,-0.0101 0.0209,-0.0201 0.0307,-0.031 z"
       id="path13983" />
    <path
       style="fill:#fdb570;stroke-width:0.264583"
       d="m 133.78698,185.67109 c 0.12647,0.127 0.19552,0.28575 0.25109,0.45218 0.008,0.0246 0.0101,0.05 0.0111,0.0757 -0.082,0.21193 -0.30427,0.27331 -0.43339,0.11985 -0.008,-0.014 -0.0114,-0.0294 -0.0119,-0.0452 0.001,-0.0423 0.0259,-0.0696 0.059,-0.0934 0.0164,-0.0116 0.0167,-0.0262 0.004,-0.01 -2.6e-4,2.7e-4 -0.007,-0.005 -0.0132,-0.008 -0.0116,-0.007 -0.0196,-0.0151 -0.0265,-0.0257 -0.0127,-0.0238 0,-0.0611 -0.0167,-0.0728 -0.16986,-0.11853 -0.0407,-0.24315 -0.003,-0.35877 0.0307,-0.0958 0.11271,-0.0558 0.17965,-0.0344 z"
       id="path14011" />
    <path
       style="fill:#ffbe78;stroke-width:0.264583"
       d="m 133.78698,185.67109 c -0.0381,0.0109 -0.0759,0.0217 -0.11298,0.0323 -0.003,0.0349 0.0288,0.0421 0.0408,0.0624 0.0421,0.0722 0.0354,0.0865 -0.05,0.10848 -0.0871,0.0225 -0.096,0.0352 -0.0434,0.10663 0.036,0.0489 0.0563,0.0945 0.0407,0.15346 -0.0619,0.0468 -0.10107,0.11165 -0.14578,0.17357 -0.0381,0.0526 -0.0736,0.13467 -0.16695,0.0772 l -0.003,-0.005 c -0.0114,-0.0982 -0.0304,-0.195 5.3e-4,-0.29422 0.0354,-0.11403 -0.031,-0.20214 -0.0873,-0.29104 5.3e-4,-0.0976 -0.0333,-0.20796 0.095,-0.25902 0.10319,0.095 0.22993,2.6e-4 0.33973,0.0426 0.045,0.0167 0.0754,0.0479 0.0923,0.0923 z"
       id="path14021" />
    <path
       style="fill:#fec88a;stroke-width:0.264583"
       d="m 133.34936,186.38547 c 0.0947,-0.0392 0.11086,-0.13679 0.15504,-0.21246 0.0418,-0.0717 0.0894,-0.0892 0.15743,-0.0381 0,0 2.6e-4,0 2.6e-4,0 0.0307,0.0415 0.022,0.0828 -5.3e-4,0.12409 -2.6e-4,0.0101 -5.2e-4,0.0204 -5.2e-4,0.0304 -0.0315,0.0574 -0.002,0.0836 0.0503,0.0974 0.1778,0.0466 0.18177,0.0542 0.11218,0.22939 -0.0291,0.0656 -0.086,0.10399 -0.14076,0.145 -0.0894,0.006 -0.0664,0.1016 -0.11271,0.14155 -0.0111,0.009 -0.0238,0.0146 -0.0378,0.0167 -0.0886,-0.16854 -0.15134,-0.34581 -0.18282,-0.53393 z"
       id="path14063" />
    <path
       style="fill:#e99c59;stroke-width:0.264583"
       d="m 133.8772,187.68034 c -0.01,-2.7e-4 -0.0201,-5.3e-4 -0.0302,-7.9e-4 -0.0299,-0.0275 -0.0577,-0.0574 -0.0897,-0.0815 -0.046,-0.0344 -7.9e-4,-0.0638 0.003,-0.0944 0.005,-0.0431 0.0413,-0.041 0.0701,-0.0331 0.0585,0.0161 0.11536,0.0376 0.17277,0.0569 0.0172,0.0259 0.0294,0.054 0.0378,0.0841 0.0381,0.13414 0.12065,0.21907 0.26432,0.23521 0.14816,0.20135 0.28813,0.40587 0.28125,0.67204 -0.0122,0.0111 -0.0241,0.0222 -0.0362,0.0331 -0.009,-10e-4 -0.0167,-0.005 -0.0233,-0.0106 -0.0254,-0.0717 -0.0754,-0.13467 -0.0778,-0.21457 -0.002,-0.0815 -0.0564,-0.11589 -0.12435,-0.13521 -0.0291,-0.008 -0.0617,-0.005 -0.0908,-0.013 -0.046,-0.0127 -0.0561,-0.041 -0.0235,-0.0788 0.0132,-0.0153 0.0328,-0.0265 0.0426,-0.0437 0.0312,-0.0537 0.008,-0.11563 -0.0511,-0.11272 -0.15663,0.007 -0.23707,-0.0659 -0.26988,-0.21193 -0.004,-0.0201 -0.036,-0.0341 -0.055,-0.0511 z"
       id="path14089" />
    <path
       style="fill:#c68336;stroke-width:0.264583"
       d="m 134.58628,188.51854 c -0.0365,-0.12621 -0.0741,-0.25188 -0.16324,-0.35401 -0.0201,-0.023 -0.0328,-0.0511 -0.0328,-0.0828 0,-0.0841 -0.0439,-0.14208 -0.11033,-0.18679 -0.11801,-0.0495 -0.16114,-0.12886 -0.0783,-0.23839 0.0992,-0.13177 0.0847,-0.28787 0.1098,-0.43577 0.008,-0.001 0.0159,-0.002 0.0238,-0.003 l 0.009,-0.002 c 0.009,0.027 0.0201,0.0135 0.0312,0.002 0.005,-0.007 0.0114,-0.0114 0.0193,-0.0122 0.0955,0.0958 0.14155,0.21404 0.15875,0.34554 0.002,0.0249 -0.008,0.0431 -0.0288,0.0564 -0.0138,0.006 -0.0283,0.007 -0.0431,0.006 -0.0614,-0.0225 -0.0892,-0.006 -0.0706,0.0624 -7.9e-4,0.0976 0.0672,0.17013 0.0939,0.2577 0.002,0.0151 -0.001,0.0336 0.007,0.0447 0.11192,0.16113 0.11959,0.33946 0.0886,0.5244 -0.004,0.005 -0.009,0.0103 -0.0138,0.0154 z"
       id="path14108" />
    <path
       style="fill:#fecc90;stroke-width:0.264583"
       d="m 134.25503,186.84399 c 0.032,0.0691 0.0455,0.14208 0.0492,0.21749 -0.0606,0.0479 -0.15108,0.0127 -0.20664,0.0746 -0.0344,0.007 -0.0688,0.0249 -0.10372,0.002 -0.0381,-0.0357 -0.0307,-0.0759 -0.0103,-0.11774 -0.0466,0.0349 -0.077,0.0852 -0.12303,0.11959 -0.15743,-0.0169 -0.13494,-0.14314 -0.15002,-0.24686 0.002,-0.0153 0.007,-0.0294 0.0143,-0.0426 0.0259,-0.027 0.0529,-0.0534 0.0714,-0.0868 0.0648,-0.12726 0.19129,-0.12065 0.30533,-0.14129 0.0153,0.003 0.0291,0.0103 0.0407,0.0209 0.0286,0.072 0.028,0.16007 0.11272,0.20055 z"
       id="path14125" />
    <path
       style="fill:#fdbc71;stroke-width:0.264583"
       d="m 134.09495,187.09296 c 0.0907,-0.10133 0.0907,-0.10133 0.20955,-0.0315 0.003,0.022 0.007,0.0437 0.0101,0.0656 -0.0577,0.054 -0.12912,0.096 -0.0905,0.20055 0.0164,0.0444 -0.14049,0.16854 -0.20267,0.1479 -0.13441,-0.045 -0.30136,-0.0198 -0.39264,-0.16669 0.008,-0.0135 0.0193,-0.0235 0.0336,-0.0302 0.0209,-0.009 0.0429,-0.0145 0.0651,-0.0177 0.21934,0.0537 0.26775,0.0315 0.3675,-0.16801 z"
       id="path14149" />
    <path
       style="fill:#f2a764;stroke-width:0.264583"
       d="m 133.25993,185.79518 c 0.0339,0.007 0.0635,0.0251 0.10239,0.0206 0.12436,-0.014 0.11271,-0.0132 0.0979,0.0992 -0.0209,0.16034 -0.11854,0.3003 -0.11377,0.4654 -0.0659,-0.18944 -0.10028,-0.38364 -0.0865,-0.58526 z"
       id="path14203" />
    <path
       style="fill:#ec9c64;stroke-width:0.264583"
       d="m 132.68816,187.34061 c 0.0566,0.003 0.14261,0.0468 0.10107,-0.0794 -0.0101,-0.0302 0.0204,-0.0529 0.0389,-0.0757 0.0106,-0.0101 0.0206,-0.0201 0.0307,-0.0304 l 7.9e-4,5.3e-4 c 0.13282,0.10107 0.1225,0.18971 -0.0344,0.29342 0.0106,0.055 0.0608,0.0606 0.10001,0.0799 0.0759,0.0378 0.12091,0.0913 0.0886,0.18203 -0.13387,-0.10081 -0.24421,-0.22304 -0.3257,-0.37042 z"
       id="path14239" />
    <path
       style="fill:#fbc58b;stroke-width:0.264583"
       d="m 133.69464,185.57875 c -0.0402,0.009 -0.0725,0.0325 -0.10636,0.055 -0.14605,0.0968 -0.19077,0.0775 -0.23337,-0.0974 0.12436,-0.0746 0.23707,-0.0558 0.33973,0.0423 z"
       id="path14290" />
    <path
       style="fill:#f7d3a5;stroke-width:0.264583"
       d="m 134.25503,186.84399 c -0.0101,0 -0.0201,7.9e-4 -0.0302,0 -0.16007,-0.0138 -0.17462,-0.041 -0.0979,-0.18283 -0.0418,-0.14525 -0.0418,-0.14525 0.0304,-0.18785 0.0519,0.11827 0.0841,0.24183 0.0976,0.37068 z"
       id="path14322" />
    <path
       style="fill:#f2b171;stroke-width:0.264583"
       d="m 133.66871,187.30463 c -0.0135,0.001 -0.0267,0.003 -0.0402,0.004 -0.11615,-0.0489 -0.23442,-0.0937 -0.304,-0.2114 -0.0109,-0.0183 -0.0426,-0.0241 -0.0646,-0.0357 -0.04,-0.0392 -0.082,-0.0767 -0.0907,-0.13679 0.16298,0.0937 0.29924,0.2249 0.45693,0.32623 0.0267,0.008 0.0489,0.0193 0.0426,0.0534 z"
       id="path14334" />
    <path
       style="fill:#f8c68f;stroke-width:0.264583"
       d="m 134.15739,186.47305 c -0.0341,0.0587 0.0167,0.13123 -0.0304,0.18785 0,0 -0.004,-0.002 -0.004,-0.002 -0.11932,-0.0445 -0.17621,-0.19817 -0.12858,-0.36301 0.01,-0.0325 0.0172,-0.0683 0.037,-0.0979 0.002,-0.0249 0.005,-0.0495 0.007,-0.0741 0.0593,0.10954 0.099,0.22622 0.11906,0.34952 z"
       id="path14341" />
    <path
       style="fill:#f5be75;stroke-width:0.264583"
       d="m 135.45544,186.68868 c -0.0156,0.0876 -0.063,0.11642 -0.14711,0.0815 -0.0222,-0.009 -0.0471,-0.0122 -0.0709,-0.018 -10e-4,-0.0577 -0.003,-0.11509 -0.004,-0.17277 0.0651,0.0312 0.13017,0.0622 0.19526,0.0934 0.01,0.005 0.0185,0.0106 0.0267,0.0175 z"
       id="path14351" />
    <path
       style="fill:#e69d59;stroke-width:0.264583"
       d="m 135.14852,185.70231 c 0.0545,-0.0183 0.0976,0.0101 0.11007,0.0537 0.0185,0.0667 0.14684,0.0609 0.1016,0.16272 -0.0362,0.018 -0.0704,0.0392 -0.0963,0.0712 -0.023,-0.0191 -0.0283,-0.0447 -0.0265,-0.0728 0.0183,-0.0413 -0.005,-0.0664 -0.0347,-0.0889 -0.0318,-0.0362 -0.0445,-0.0804 -0.0542,-0.12595 z"
       id="path14385" />
    <path
       style="fill:#f1c79c;stroke-width:0.264583"
       d="m 133.66368,187.21494 c -0.0299,-0.0725 -0.0847,-0.13388 -0.0976,-0.21405 0.007,-0.0135 0.0175,-0.0238 0.0312,-0.0307 0.0148,-0.004 0.0299,-0.005 0.045,-0.002 0.0148,0.005 0.0281,0.013 0.0405,0.023 0.0124,0.0103 0.0238,0.0217 0.0344,0.0336 0.0474,0.0712 0.10027,0.14261 -0.008,0.20743 -0.0175,0.002 -0.0325,-0.004 -0.045,-0.0172 z"
       id="path14425" />
    <path
       style="fill:#e19f51;stroke-width:0.264583"
       d="m 135.20276,185.82826 c 0.0524,0.0137 0.0987,0.0299 0.0347,0.0889 -0.0225,-0.0254 -0.0357,-0.0545 -0.0347,-0.0889 z"
       id="path14478" />
    <path
       style="fill:#fec580;stroke-width:0.264583"
       d="m 133.59912,187.00115 c -0.0111,0 -0.022,0 -0.0331,-2.6e-4 -0.0257,-0.0212 -0.0304,-0.0511 -0.0339,-0.0818 0.003,-0.014 0.005,-0.028 0.008,-0.0421 0.0884,0.009 0.0921,0.0577 0.059,0.12409 z"
       id="path14488" />
    <path
       style="fill:#5994ab;stroke-width:0.264583"
       d="m 133.66368,187.21494 c 0.008,0.002 0.0164,0.003 0.0246,0.005 0.0503,0.0278 0.0744,0.0667 0.0542,0.12488 -0.0246,-0.0135 -0.0489,-0.0267 -0.0736,-0.0402 -0.0143,-0.0177 -0.0286,-0.0355 -0.0426,-0.0534 0.0122,-0.0119 0.0249,-0.0238 0.0373,-0.036 z"
       id="path14496" />
    <path
       style="fill:#528696;stroke-width:0.264583"
       d="m 134.37541,187.21785 c 0.004,0.0198 0.004,0.0521 -0.0114,0.0521 -0.0344,-5.3e-4 -0.0191,-0.0331 -0.0198,-0.054 0.0103,5.2e-4 0.0206,0.001 0.0312,0.002 z"
       id="path14521" />
    <path
       style="fill:#f3af67;stroke-width:0.264583"
       d="m 135.45518,186.69027 c -0.009,-0.006 -0.018,-0.0116 -0.0267,-0.0175 0.014,-0.002 0.0228,0.004 0.0267,0.0175 z"
       id="path14626" />
    <path
       style="fill:#f6ab66;stroke-width:0.264583"
       d="m 134.4659,186.72149 c 0.11668,-0.22357 0.13758,-0.46382 0.12276,-0.71014 0.037,0.0109 0.0656,0.0299 0.0656,0.0733 0,0.0307 -0.003,0.0611 -0.003,0.0918 -7.9e-4,0.1688 0.0357,0.19843 0.21511,0.17515 0,0.0103 0.005,0.0251 -2.7e-4,0.0299 -0.16113,0.15478 -0.12779,0.34078 -0.0878,0.5289 0.0114,0.0532 0.0336,0.096 0.0868,0.11748 0.019,0.008 0.0384,0.0151 0.0558,0.0254 0.14896,0.0878 0.15346,0.14525 0.022,0.26088 -0.023,0.0201 -0.045,0.0418 -0.0675,0.0627 -0.0474,0.0442 -0.0947,0.0799 -0.16166,0.0302 -0.0135,-0.01 -0.04,-0.009 -0.0587,-0.005 -0.0707,0.0151 -0.09,-0.0291 -0.10213,-0.0836 -0.0188,-0.0849 -0.0373,-0.17013 -0.0558,-0.25506 0,0 -2.6e-4,-5.3e-4 -2.6e-4,-5.3e-4 0.0254,-0.0312 0.0254,-0.0627 -2.7e-4,-0.0939 0,-0.01 0,-0.0196 0,-0.0296 0.0286,-0.0251 0.001,-0.0685 0.0302,-0.0934 0,-0.0103 0,-0.0206 0,-0.031 -0.0108,-0.01 -0.0201,-0.0209 -0.0304,-0.031 v 0 c -0.019,-0.0164 -0.0122,-0.0455 -0.0299,-0.0624 z"
       id="path15042" />
    <path
       style="fill:#818a71;stroke-width:0.264583"
       d="m 134.60031,188.50319 c -0.004,-0.13599 -0.0423,-0.26167 -0.10398,-0.38338 -0.0296,-0.0587 -0.041,-0.12673 -0.0609,-0.1905 0.0815,-0.0982 0.0283,-0.23336 0.0921,-0.33655 0.008,-0.014 0.0169,-0.028 0.0257,-0.0421 0.072,0.0415 0.0836,0.11774 0.10742,0.1868 -0.0309,0.0701 -0.0161,0.14129 0.005,0.20823 0.0418,0.13573 0.0556,0.26564 -0.0188,0.39687 -0.0262,0.0476 -0.0312,0.10689 -0.046,0.1606 z"
       id="path15043" />
    <path
       style="fill:#d98c49;stroke-width:0.264583"
       d="m 135.20435,187.08529 c -0.0236,0.0413 -0.0175,0.0939 -0.0511,0.1315 -0.11854,-0.11086 -0.14632,-0.25003 -0.12674,-0.40402 0.005,-0.0362 0.0209,-0.068 0.0434,-0.0966 0.0193,-0.0246 0.0418,-0.0471 0.0767,-0.0376 0.0365,0.01 0.0468,0.0437 0.0426,0.0728 -0.0167,0.11271 0.0156,0.22251 0.0151,0.3339 z"
       id="path15044" />
    <path
       style="fill:#818a71;stroke-width:0.264583"
       d="m 134.70349,187.74013 c -0.007,0.009 -0.0135,0.0175 -0.0204,0.0262 -0.002,-0.01 -0.004,-0.0191 -0.006,-0.0283 0.009,-0.002 0.018,-0.001 0.0267,0.002 z"
       id="path15045" />
    <path
       style="fill:#f0a160;stroke-width:0.264583"
       d="m 133.3528,187.86502 c -0.0101,0.0103 -0.0204,0.0206 -0.0304,0.031 0.0103,-0.0103 0.0204,-0.0206 0.0304,-0.031 z"
       id="path15095" />
    <path
       style="fill:#eb9e5b;stroke-width:0.264583"
       d="m 134.49606,186.96861 c 0.0437,0.0312 0.0447,0.0624 2.7e-4,0.0939 0,-0.0315 0,-0.0627 -2.7e-4,-0.0939 z"
       id="path15186" />
    <path
       style="fill:#eb9e5b;stroke-width:0.264583"
       d="m 134.52622,186.84558 c -0.002,0.0339 -0.0103,0.0653 -0.0302,0.0934 0.002,-0.0339 0.0103,-0.0654 0.0302,-0.0934 z"
       id="path15187" />
    <path
       style="fill:#eb9e5b;stroke-width:0.264583"
       d="m 134.4659,186.72149 c 0.0101,0.0206 0.0201,0.0415 0.0299,0.0622 -0.01,-0.0206 -0.0198,-0.0415 -0.0299,-0.0622 z"
       id="path15188" />
    <path
       style="fill:#eb9e5b;stroke-width:0.264583"
       d="m 134.4958,186.78367 c 0.0101,0.0103 0.0204,0.0206 0.0304,0.0312 -0.0101,-0.0106 -0.0204,-0.0209 -0.0304,-0.0312 z"
       id="path15189" />
    <path
       style="fill:#d98c47;stroke-width:0.264583"
       d="m 134.31138,187.22049 c -0.003,0.18839 0.01,0.37836 -0.0804,0.55457 -0.0275,0.054 0.0317,0.0799 0.0492,0.11959 -0.20267,-0.01 -0.29131,-0.1524 -0.36539,-0.313 0.0206,-0.0323 0.0616,-0.0323 0.0886,-0.0548 0.24235,0.007 0.24183,0.007 0.27993,-0.23812 0.003,-0.0233 0.0182,-0.0455 0.028,-0.0683 z"
       id="path15192" />
    <path
       style="fill:#e79757;stroke-width:0.264583"
       d="m 132.85882,187.15514 c -0.0103,0.0101 -0.0204,0.0204 -0.0307,0.0304 0.0103,-0.0101 0.0206,-0.0201 0.0307,-0.0304 z"
       id="path15223" />
    <polygon
       style="fill:#f0a160"
       points="79.952,81.749 79.955,81.793 79.917,81.775 "
       id="polygon15256"
       transform="matrix(0.26458333,0,0,0.26458333,112.66582,166.19855)" />
    <path
       style="fill:#ffbe78;stroke-width:0.264583"
       d="m 134.03092,186.19735 c 0.006,0.118 0.0527,0.23045 0.0431,0.35084 -0.003,0.0418 0.0196,0.0791 0.0487,0.11006 -0.0598,0.0236 -0.11906,0.0487 -0.17965,0.0701 -0.0447,0.0159 -0.0786,0.0407 -0.0963,0.0857 -0.13705,-0.006 -0.16536,-0.0362 -0.12964,-0.15134 0.01,-0.032 0.0161,-0.0672 0.037,-0.0955 0.0508,-0.10398 0.0508,-0.10398 -0.0571,-0.13732 -0.0889,-0.0275 -0.0627,-0.0841 -0.0357,-0.14102 0.0236,0.0487 0.0601,0.0606 0.11139,0.0455 0.0958,-0.0275 0.19341,-0.0513 0.25823,-0.13705 z"
       id="path15285" />
    <path
       style="fill:#ffbe78;stroke-width:0.264583"
       d="m 133.66183,186.25873 c 2.6e-4,-0.0413 2.6e-4,-0.0828 5.3e-4,-0.12409 0.0537,0 0.10768,0 0.17806,0 -0.0677,0.0418 -0.14128,0.0601 -0.17859,0.12409 z"
       id="path15286" />
    <path
       style="fill:#e19f51;stroke-width:0.264583"
       d="m 135.511,186.5339 c -0.0439,-0.0638 -0.0556,-0.13679 -0.0606,-0.2114 0.008,-0.003 0.0167,-0.005 0.0251,-0.008 0.118,0.0548 0.0362,0.15214 0.0492,0.22939 -0.005,-0.003 -0.01,-0.006 -0.0138,-0.0101 z"
       id="path15291" />
    <path
       style="fill:#e19f51;stroke-width:0.264583"
       d="m 135.45041,186.3225 c -0.0103,-0.0101 -0.0204,-0.0201 -0.0307,-0.0302 0,0 0.006,-0.005 0.006,-0.005 0.0236,-0.003 0.0333,0.007 0.0302,0.0304 z"
       id="path15292" />
    <path
       style="fill:#ffbe78;stroke-width:0.264583"
       d="m 133.59912,187.00115 c -0.0196,-0.0413 -0.0394,-0.0825 -0.059,-0.12409 0.002,-0.068 -0.0236,-0.12911 -0.0445,-0.19182 -0.0119,-0.0357 -0.0116,-0.0743 0.031,-0.09 0.0339,-0.0124 0.0558,0.0132 0.0738,0.0394 0.0201,0.0291 0.0407,0.0582 0.0611,0.087 0.0431,0.0445 0.16458,0.0415 0.0931,0.15478 v 0 c -0.05,0.0405 0.0288,0.15902 -0.0939,0.15558 -0.01,-5.3e-4 -0.0198,-0.001 -0.0296,-0.002 -0.0103,-0.0101 -0.0201,-0.0206 -0.0315,-0.0299 z"
       id="path15322" />
    <path
       style="fill:#fec580;stroke-width:0.264583"
       d="m 133.7547,186.8768 c -0.001,-0.0696 -0.0574,-0.10583 -0.0931,-0.15478 0.0307,-0.0516 0.0616,-0.10292 0.0923,-0.15452 -0.0378,0.10822 -0.004,0.18944 0.0926,0.24686 -0.0161,0.0421 -0.0497,0.0582 -0.0918,0.0624 z"
       id="path15323" />
    <path
       style="fill:#ffbe78;stroke-width:0.264583"
       d="m 133.57266,186.48786 c -0.063,0.045 -0.10001,0.0542 -0.13308,0.0164 -0.007,-0.008 -0.008,-0.0347 -0.001,-0.041 0.05,-0.046 0.0772,0.007 0.1344,0.0246 z"
       id="path15324" />
    <path
       style="fill:#727b62;stroke-width:0.264583"
       d="m 134.52781,187.59303 c 0.0291,0.0746 0.0619,0.14525 0.0537,0.23204 -0.0122,0.12753 -0.008,0.12964 -0.14578,0.10451 -0.0288,-0.0394 -0.0585,-0.0783 -0.086,-0.1188 -0.0302,-0.0444 -0.0349,-0.0905 -0.001,-0.13626 0.0341,-0.0577 0.0738,-0.10478 0.15134,-0.0828 0.009,2.7e-4 0.0185,8e-4 0.0278,0.001 z"
       id="path15344" />
    <path
       style="fill:#af6919;stroke-width:0.264583"
       d="m 134.50003,187.5917 c -0.0408,0.0458 -0.091,0.0738 -0.15161,0.0828 -0.009,-0.0667 -0.0122,-0.13335 0.0109,-0.19791 0.009,-0.0243 0.0225,-0.0489 0.0521,-0.05 0.031,-0.001 0.0423,0.0225 0.0503,0.0482 0.0124,0.0392 0.0254,0.0778 0.0384,0.11694 z"
       id="path15345" />
    <path
       style="fill:#fec580;stroke-width:0.264583"
       d="m 133.66077,187.03237 c 0.0524,-0.0391 0.0341,-0.12091 0.0939,-0.15557 0.0347,0.081 0.0415,0.17224 0.0923,0.24686 0.0513,-0.0217 0.10239,-0.05 0.15399,-5.3e-4 0.0312,-0.0101 0.0624,-0.0201 0.0937,-0.0304 0.063,0.11509 0.008,0.25215 -0.11086,0.26776 -0.0804,0.0106 -0.16669,0.0706 -0.24157,-0.0159 -0.018,-0.0415 -0.036,-0.0833 -0.0542,-0.12488 0.0511,-0.0712 -0.001,-0.12753 -0.0272,-0.18733 z"
       id="path15352" />
    <path
       style="fill:#ffd3a2;stroke-width:0.264583"
       d="m 134.00103,187.12313 c -0.0513,0.0251 -0.10266,0.0386 -0.15399,5.3e-4 0.0333,-0.14076 0.12647,-0.2085 0.26749,-0.19236 2.7e-4,0.0868 -0.0908,0.11986 -0.1135,0.19183 z"
       id="path15353" />
    <path
       style="fill:#fec580;stroke-width:0.264583"
       d="m 133.59965,187.00062 c 0.0103,0.0101 0.0209,0.0198 0.0315,0.0299 -0.0106,-0.0101 -0.0212,-0.0201 -0.0315,-0.0299 z"
       id="path15415" />
    <path
       style="fill:#fdba70;stroke-width:0.264583"
       d="m 135.45306,185.30094 c -0.0198,-0.0275 -0.0283,-0.059 -0.0299,-0.0926 0.0193,0.0278 0.0278,0.0593 0.0299,0.0926 z"
       id="path15754" />
  </g>
</svg>
