<?xml version="1.0" encoding="UTF-8" standalone="no"?>
<!-- Created with Inkscape (http://www.inkscape.org/) -->

<svg
   width="210mm"
   height="297mm"
   viewBox="0 0 210 297"
   version="1.1"
   id="svg1"
   inkscape:version="1.4 (86a8ad7, 2024-10-11)"
   sodipodi:docname="cvet3.svg"
   xmlns:inkscape="http://www.inkscape.org/namespaces/inkscape"
   xmlns:sodipodi="http://sodipodi.sourceforge.net/DTD/sodipodi-0.dtd"
   xmlns="http://www.w3.org/2000/svg"
   xmlns:svg="http://www.w3.org/2000/svg">
  <sodipodi:namedview
     id="namedview1"
     pagecolor="#505050"
     bordercolor="#eeeeee"
     borderopacity="1"
     inkscape:showpageshadow="0"
     inkscape:pageopacity="0"
     inkscape:pagecheckerboard="0"
     inkscape:deskcolor="#505050"
     inkscape:document-units="mm"
     inkscape:zoom="0.72604517"
     inkscape:cx="396.66953"
     inkscape:cy="561.25984"
     inkscape:window-width="1920"
     inkscape:window-height="1017"
     inkscape:window-x="-8"
     inkscape:window-y="-8"
     inkscape:window-maximized="1"
     inkscape:current-layer="layer1" />
  <defs
     id="defs1" />
  <g
     inkscape:label="Layer 1"
     inkscape:groupmode="layer"
     id="layer1">
    <path
       style="fill:#ffbd77;stroke-width:0.264583"
       d="m 131.63303,188.76368 c 0.0312,0.0347 0.0524,0.0749 0.0659,0.11933 0.0272,0.15161 0.12541,0.26194 0.21723,0.37624 0.064,0.0823 0.11853,0.16986 0.15875,0.26617 -0.0326,0.13811 -0.0704,0.15981 -0.15902,0.0741 -0.0545,-0.0526 -0.11906,-0.0606 -0.18018,-0.0749 -0.12832,-0.0302 -0.24157,-0.11324 -0.37968,-0.10715 -0.18203,-0.3175 -0.27146,-0.66252 -0.30136,-1.02447 -0.004,-0.0452 0.001,-0.0929 0.0119,-0.13732 0.0341,-0.14525 0.12382,-0.17462 0.23098,-0.0741 0.10663,0.10028 0.17727,0.22489 0.2241,0.36327 -0.0741,0.0873 0.0505,0.0775 0.0606,0.12383 l -0.002,-0.002 c 0.002,0.041 0.01,0.0783 0.0524,0.0971 z"
       id="path13802" />
    <path
       style="fill:#e79457;stroke-width:0.264583"
       d="m 130.33604,188.78114 c 0.0691,-0.0765 0.13917,-0.0347 0.20426,0.003 0.0836,0.0487 0.15081,0.11827 0.21617,0.18865 0.0579,0.0627 0.1135,0.12779 0.17012,0.19209 0.0117,0.0593 -0.0283,0.0696 -0.0683,0.0598 -0.0415,-0.0101 -0.0765,-0.007 -0.11245,0.0122 -0.0603,0.0352 -0.0876,0.0812 -0.0471,0.15822 0.0466,-0.0466 0.005,-0.12012 0.0593,-0.15372 0.0709,-0.0323 0.127,-0.005 0.13759,0.064 0.0225,0.14578 0.1008,0.15822 0.21643,0.11112 0.15689,0.1315 0.15504,0.18019 -0.0101,0.28443 -0.0553,0.0349 -0.0868,0.10372 -0.15954,0.1143 -0.12092,0.0272 -0.26194,-0.003 -0.32544,0.16351 -0.032,0.0841 -0.11033,0.0317 -0.1651,-0.007 -0.082,-0.10081 -0.14631,-0.21087 -0.18071,-0.33734 -0.009,-0.0913 0.063,-0.12859 0.12303,-0.17727 -0.19605,-0.21167 -0.17859,-0.43974 -0.0582,-0.67602 z"
       id="path13851" />
    <path
       style="fill:#f1a161;stroke-width:0.264583"
       d="m 130.45167,189.97203 c 0.12964,-0.008 0.12964,-0.008 0.0963,-0.1262 -0.006,-0.0196 -0.0145,-0.0392 -0.0145,-0.0587 2.7e-4,-0.041 0.0228,-0.0831 0.0635,-0.0542 0.0984,0.0696 0.19897,0.0103 0.29766,0.0198 0.11853,-0.0529 0.2368,-0.11562 0.35428,0.002 0.0444,0.0497 0.073,0.10768 0.0275,0.16642 -0.0865,0.11192 -0.15346,0.24024 -0.26379,0.33523 0.0593,0.0217 0.1233,-0.0466 0.18415,-0.002 0.0542,0.0394 0.10346,0.0855 0.12727,0.15028 0.0352,0.0958 -0.0267,0.24156 -0.12621,0.30533 -0.007,0 -0.0143,0 -0.0217,0 -0.28496,-0.20294 -0.53473,-0.44053 -0.72443,-0.7374 z"
       id="path13865" />
    <path
       style="fill:#ed9c5d;stroke-width:0.264583"
       d="m 131.39173,190.8568 c -0.0471,-0.0198 -0.0915,-0.0437 -0.12488,-0.0841 -0.007,-0.0185 -0.0198,-0.0341 -0.027,-0.0524 -0.002,-0.0214 0.008,-0.0386 0.0183,-0.0558 0.0124,-0.0542 0.0468,-0.0984 0.0677,-0.1487 -2.6e-4,-0.1606 0.0564,-0.32014 0.009,-0.4818 0.0138,-0.0738 0.0349,-0.14579 -0.0328,-0.21061 -0.0487,-0.0466 -0.0259,-0.0913 0.0241,-0.12515 0.0127,-0.007 0.0267,-0.0122 0.0413,-0.014 0.0699,0.0138 0.11563,0.0442 0.13362,0.12356 0.0275,0.12276 0.1262,0.21008 0.18309,0.31909 0.0177,0.0339 0.0452,0.0545 0.082,0.0188 0.004,-0.0127 0.008,-0.0251 0.0119,-0.0378 0.003,-0.007 0.006,-0.0127 0.009,-0.0193 0.009,-0.0122 0.0196,-0.0217 0.0328,-0.0286 0.0378,-0.0138 0.0836,-0.008 0.0971,0.0225 0.0484,0.11086 0.15954,0.12991 0.24686,0.18362 0.0259,0.0479 0.0368,0.0997 0.0405,0.15345 -0.0209,0.0963 0.0294,0.18865 0.0172,0.2847 -0.008,0.0135 -0.0198,0.0235 -0.0333,0.0312 -0.0146,0.006 -0.0299,0.007 -0.0453,0.006 -0.0291,-0.007 -0.0598,-0.009 -0.0865,-0.0238 -0.0122,-0.007 -0.0233,-0.0159 -0.0339,-0.0249 -0.0119,-0.007 -0.0236,-0.014 -0.0355,-0.0204 -0.11324,-0.0177 -0.21801,0.0296 -0.32649,0.0426 -0.0103,0.006 -0.0209,0.0116 -0.0307,0.0188 -0.008,0.009 -0.0161,0.0177 -0.0228,0.0281 0,0.006 -0.002,0.0108 -0.002,0.0156 0.004,0.0582 0.10531,0.0984 0.0474,0.16086 -0.0635,0.0685 -0.1135,-0.036 -0.17541,-0.036 v 2.6e-4 c -0.0212,-0.0288 -0.049,-0.0458 -0.0857,-0.0452 z"
       id="path13870" />
    <path
       style="fill:#f5ad65;stroke-width:0.264583"
       d="m 132.12277,189.59791 c 0.008,0.005 0.0122,0.013 0.0114,0.023 0.0122,0.0453 -0.01,0.10425 0.05,0.13018 0.0357,0.0156 0.073,0.0442 0.11271,0.0198 0.0447,-0.0275 0.032,-0.0699 0.0114,-0.10583 -0.0241,-0.0421 -0.0357,-0.0823 -0.008,-0.12674 0.073,-0.0894 0.14473,-0.037 0.21669,0.002 0.0947,0.0471 0.086,0.15557 0.13838,0.22781 0.11854,-0.0783 0.13044,-0.0714 0.18812,0.11191 0.0198,0.29978 -0.0132,0.59532 -0.0714,0.889 -0.0243,0.0307 -0.0513,0.0233 -0.0791,0.006 -0.10583,-0.16643 -0.24315,-0.31354 -0.28813,-0.51726 -0.0159,-0.0725 -0.0738,-0.13679 -0.15399,-0.16484 -0.013,-0.008 -0.0257,-0.0172 -0.0381,-0.0265 -0.0519,-0.0627 -0.0918,-0.13388 -0.14949,-0.19235 -0.12435,-0.12647 -0.12223,-0.15187 0.0156,-0.27702 0.0148,-0.006 0.0299,-0.006 0.0445,0.001 z"
       id="path13878" />
    <path
       style="fill:#f7ad67;stroke-width:0.264583"
       d="m 131.91005,187.97734 c 0.0492,-0.12832 0.1098,-0.16007 0.19526,-0.0778 0.18362,0.17727 0.37809,0.34846 0.49107,0.58606 -0.0212,0.0608 -0.0791,0.0579 -0.12647,0.073 -0.17489,0.0558 -0.21643,0.15425 -0.12383,0.30745 0.0778,0.12832 -0.0143,0.24818 -0.0119,0.37279 -0.0106,0.0135 -0.0238,0.023 -0.0397,0.0296 -0.14129,0.018 -0.1479,-0.0892 -0.16986,-0.18204 -0.0482,-0.16271 -0.0444,-0.34554 -0.11854,-0.49159 -0.095,-0.18759 -0.1098,-0.37465 -0.10662,-0.57256 7.9e-4,-0.0154 0.006,-0.0302 0.0106,-0.045 z"
       id="path13903" />
    <path
       style="fill:#ffb974;stroke-width:0.264583"
       d="m 132.31619,189.22697 c -0.0355,-0.0511 -0.0709,-0.10425 -0.037,-0.16881 0.0468,-0.0894 0.009,-0.1516 -0.0532,-0.2159 -0.0942,-0.0971 -0.0913,-0.10001 -0.005,-0.19605 0.01,-0.0114 0.0259,-0.0201 0.0312,-0.0331 0.0688,-0.16933 0.2077,-0.14605 0.34502,-0.12726 0.0966,0.16351 0.16854,0.33549 0.18441,0.52705 -0.0563,0.0476 -0.11985,0.082 -0.15981,0.15372 -0.0513,0.0913 -0.18626,0.10901 -0.30532,0.0603 z"
       id="path13921" />
    <path
       style="fill:#feb570;stroke-width:0.264583"
       d="m 132.10187,189.59897 c -0.0735,0.12859 -0.0712,0.12647 0.0243,0.23098 0.0572,0.0627 0.13071,0.11404 0.15823,0.20056 -0.0193,0.0646 0.006,0.13785 -0.0365,0.19817 -0.0111,0.0103 -0.0243,0.0177 -0.0389,0.022 -0.17674,-0.0124 -0.29713,-0.10636 -0.3892,-0.254 -0.045,-0.0722 -0.13759,-0.10133 -0.19236,-0.1688 -0.0481,-0.0355 -0.0664,-0.0879 -0.0796,-0.14288 -0.0201,-0.0844 -0.0669,-0.14631 -0.14976,-0.1778 -0.0206,-0.0267 -0.0407,-0.0537 -0.0421,-0.0897 0.007,-0.0408 -0.0135,-0.0937 0.0728,-0.0714 0.10266,0.0265 0.18918,0.0934 0.29898,0.10266 0.0468,0.004 0.0839,0.0114 0.12912,-0.0132 0.0778,-0.0423 0.0934,-0.032 0.11509,0.0484 0.003,0.01 0.001,0.0204 0.003,0.0304 0.0175,0.0778 0.0177,0.0778 0.0995,0.0108 0.0169,0.009 0.0251,0.0233 0.0272,0.0415 0.008,0.007 0.0101,0.0143 0.008,0.0212 -0.003,0.007 -0.006,0.0111 -0.008,0.0111 z"
       id="path13924" />
    <path
       style="fill:#fdb46f;stroke-width:0.264583"
       d="m 132.84297,189.87969 c -0.0445,-0.0204 -0.0394,-0.082 -0.0881,-0.10451 -0.0669,0.0413 -0.13467,0.0841 -0.20346,0.12515 -0.0222,0.0132 -0.0524,0.0228 -0.0683,-0.004 -0.0183,-0.0304 0.013,-0.0431 0.0336,-0.0566 0.0206,-0.0135 0.0489,-0.0164 0.0624,-0.0521 -0.0421,-0.0524 -0.0495,-0.12488 -0.0783,-0.18918 -0.0108,-0.0109 -0.0185,-0.0243 -0.0286,-0.0357 -0.15584,-0.17938 -0.14367,-0.23151 0.0759,-0.32094 0.0521,-0.0212 0.10293,-0.0421 0.13627,-0.0926 0.0267,-0.0405 0.0632,-0.0669 0.11615,-0.0458 0.0497,0.25691 0.0595,0.51593 0.0423,0.77628 z"
       id="path13988" />
    <path
       style="fill:#f7ad67;stroke-width:0.264583"
       d="m 132.80037,189.10367 c -0.01,0.0119 -0.0272,0.0238 -0.027,0.0355 0.004,0.12514 -0.072,0.15848 -0.17966,0.18362 -0.16324,0.0381 -0.16086,0.0466 -0.1053,0.21643 0.006,0.0191 0.008,0.0394 0.0122,0.0593 -0.0593,-0.0243 -0.1143,-0.0744 -0.18494,-0.031 -0.10266,-0.0614 -0.13521,-0.15981 -0.0767,-0.24474 0.0228,-0.0331 0.0585,-0.0566 0.0759,-0.0945 0,0 10e-4,-0.001 10e-4,-0.001 0.0574,-0.0198 0.11457,-0.0405 0.17198,-0.0595 0.0532,-0.0175 0.0892,-0.0487 0.0881,-0.10848 -8e-4,-0.0508 -0.0103,-0.10557 0.054,-0.12647 0.059,-0.019 0.0945,0.0204 0.12938,0.0585 0.007,0.007 0.0143,0.0145 0.0212,0.0217 0.0217,0.0272 0.0283,0.0574 0.0198,0.091 z"
       id="path14050" />
    <path
       style="fill:#dc8a4d;stroke-width:0.264583"
       d="m 130.33604,188.78114 c -0.009,0.081 -0.023,0.16193 -0.0267,0.24316 -0.006,0.13282 0.031,0.25214 0.1315,0.34501 0.0746,0.0691 0.0979,0.16061 0.12673,0.24342 -0.0304,0.0294 -0.0503,0.0238 -0.0672,0.0122 -0.11562,-0.0778 -0.11536,-0.078 -0.22913,0.01 -0.10768,-0.21431 -0.12382,-0.43683 -0.0542,-0.6649 0.022,-0.0725 0.0479,-0.14552 0.11906,-0.18865 z"
       id="path14068" />
    <path
       style="fill:#eda660;stroke-width:0.264583"
       d="m 132.31513,189.22829 c 0.0307,0.0336 0.0487,0.0738 0.009,0.10716 -0.0923,0.0767 -0.0492,0.15346 -0.008,0.23204 0.0317,0.0328 0.0667,0.0611 0.1053,0.0863 0.0804,0.0524 0.0802,0.0603 0.018,0.13864 -0.006,0.008 -0.0135,0.0153 -0.0214,0.0214 -0.0389,0.0307 -0.0368,0.1016 -0.099,0.10716 -0.0709,0.006 -0.059,-0.0775 -0.0966,-0.099 -0.0844,-0.0479 -0.14526,-0.0961 -0.0881,-0.20135 0.0418,0.0265 0.0439,0.0913 0.10636,0.11086 -0.0246,-0.1995 -0.1016,-0.37836 -0.1344,-0.56727 0.0114,-0.0236 0.0111,-0.0445 -0.0132,-0.0601 l -0.002,7.9e-4 c 0.006,-0.0492 0.031,-0.0556 0.0701,-0.0323 0.018,0.0849 0.0553,0.15081 0.15373,0.15557 z"
       id="path14075" />
    <path
       style="fill:#ed9c5d;stroke-width:0.264583"
       d="m 131.23483,189.78392 c -0.0286,0.0101 -0.0656,0.031 -0.0862,0.009 -0.0762,-0.0818 -0.1651,-0.0548 -0.25374,-0.04 0.0453,-0.0415 0.10107,-0.0648 0.15478,-0.0921 0.14023,-0.0704 0.14288,-0.0897 0.0307,-0.21669 -0.009,5.3e-4 -0.0175,7.9e-4 -0.0262,0.001 -0.018,0.001 -0.0349,-0.002 -0.0511,-0.0101 -0.0564,-0.0645 -0.1106,-0.12885 0.014,-0.17938 0.11192,0.1053 0.22357,0.21061 0.33549,0.31591 0.0315,0.008 0.059,0.0212 0.0669,0.0572 0.005,0.0463 -0.023,0.0717 -0.0593,0.0918 l -0.002,0.001 c -0.0423,0.005 -0.0762,0.0246 -0.10265,0.0574 -0.007,0.002 -0.0138,0.003 -0.0204,0.005 z"
       id="path14144" />
    <path
       style="fill:#e89f5c;stroke-width:0.264583"
       d="m 132.16114,189.07324 c -0.0233,0.0109 -0.0466,0.0214 -0.0701,0.0323 -0.0979,-0.2741 -0.16457,-0.55615 -0.20346,-0.84402 -0.0127,-0.0942 -0.0288,-0.19288 0.0225,-0.28389 0.002,0.12805 0.0122,0.25505 0.0312,0.38205 0.0109,0.0717 0.031,0.1278 0.10292,0.15584 0.041,0.0161 0.0725,0.045 0.0646,0.0929 -0.0233,0.14182 0.0122,0.27385 0.0595,0.40508 0.006,0.0169 -0.004,0.0397 -0.007,0.0598 z"
       id="path14151" />
    <path
       style="fill:#e18d51;stroke-width:0.264583"
       d="m 131.01682,189.25607 c -0.0267,0.0601 2.6e-4,0.10927 0.0323,0.15743 0.01,0.0103 0.0201,0.0206 0.0309,0.0304 l 2.7e-4,2.6e-4 c -0.0251,0.0384 -0.0447,0.0775 -0.0503,0.12541 -0.008,0.0661 -0.0603,0.0791 -0.11351,0.0683 -0.0526,-0.0109 -0.0667,-0.05 -0.0595,-0.10504 0.0132,-0.10266 -0.002,-0.19976 -0.0855,-0.27385 -0.0519,0 -0.0513,-0.0259 -0.0312,-0.0622 0.0532,-0.063 0.12779,-10e-4 0.18653,-0.0317 0.0389,0.0212 0.0691,0.0516 0.09,0.091 z"
       id="path14158" />
    <path
       style="fill:#fcc486;stroke-width:0.264583"
       d="m 131.58197,188.66896 c -0.0646,-0.0259 -0.10451,0.0169 -0.1487,0.0513 -0.0241,0.0188 -0.0534,0.0341 -0.0847,0.0177 -0.0339,-0.0175 -0.0262,-0.0513 -0.0249,-0.0812 0.003,-0.0733 0.0201,-0.14076 0.0828,-0.19367 0.0418,0.022 0.054,0.0886 0.11509,0.0817 0.0315,0.0357 0.0487,0.0786 0.0603,0.12409 z"
       id="path14293" />
    <path
       style="fill:#f3a867;stroke-width:0.264583"
       d="m 131.39808,189.50716 c 0.14976,-0.0333 0.15002,-0.0333 0.1823,0.1061 0.0148,0.0643 0.0294,0.12806 0.0865,0.17066 0.0119,0.0132 0.0135,0.0275 0.005,0.0429 -0.0167,0.019 -0.0381,0.028 -0.0632,0.0299 -0.0246,-2.7e-4 -0.0468,-0.008 -0.0667,-0.0222 -0.0418,-0.0429 -0.0566,-0.10345 -0.0958,-0.14817 -0.0233,-0.0503 -0.0378,-0.10371 -0.0511,-0.15742 -2.6e-4,-0.008 0.001,-0.0148 0.003,-0.0217 z"
       id="path14329" />
    <path
       style="fill:#929d86;stroke-width:0.264583"
       d="m 132.68554,191.11186 c 0.008,-0.12515 -0.008,-0.24818 -0.028,-0.37121 0.0196,-0.0172 0.037,-0.0167 0.0524,0.006 0.0206,0.007 0.041,0.0148 0.0616,0.0222 -0.0302,0.0976 -0.0161,0.19156 0.0257,0.28284 -0.0373,0.0201 -0.0746,0.0402 -0.11166,0.0603 z"
       id="path14359" />
    <path
       style="fill:#f2c697;stroke-width:0.264583"
       d="m 131.91587,189.25925 c -0.12488,-0.0643 -0.16722,-0.21088 -0.28496,-0.28655 0.0111,-0.0378 0.0616,-0.0479 0.0677,-0.0897 0.0826,0.11959 0.15637,0.24421 0.21722,0.37624 z"
       id="path14372" />
    <path
       style="fill:#fcc486;stroke-width:0.264583"
       d="m 131.63303,188.76368 c -0.0653,-0.006 -0.0807,-0.04 -0.0524,-0.0971 0.0304,0.0254 0.0458,0.059 0.0524,0.0971 z"
       id="path14480" />
    <path
       style="fill:#eea15f;stroke-width:0.264583"
       d="m 131.39173,190.8568 c 0.0452,-0.0167 0.0683,0.009 0.086,0.045 -0.0365,2.6e-4 -0.0624,-0.0198 -0.086,-0.045 z"
       id="path14505" />
    <path
       style="fill:#f7ad67;stroke-width:0.264583"
       d="m 132.09261,189.10473 c 0.0175,0.0169 0.0238,0.0365 0.0132,0.0598 -0.004,-0.0199 -0.009,-0.04 -0.0132,-0.0598 z"
       id="path14528" />
    <path
       style="fill:#f1a161;stroke-width:0.264583"
       d="m 131.23007,190.74621 c -0.0238,-0.004 -0.0426,-0.0148 -0.0537,-0.037 0,0 0.0106,-0.004 0.0106,-0.004 0.0199,-0.0111 0.0376,-0.008 0.0527,0.009 0.006,0.0138 0.003,0.0246 -0.01,0.0325 z"
       id="path14532" />
    <path
       style="fill:#f1a161;stroke-width:0.264583"
       d="m 131.26605,190.74038 c 2.7e-4,0.0109 5.3e-4,0.0214 8e-4,0.0323 -0.0169,-0.002 -0.0299,-0.0101 -0.0368,-0.0265 0,0 0.005,-0.007 0.005,-0.007 0.0109,-0.0146 0.0209,-0.0135 0.0307,0.001 z"
       id="path14534" />
    <path
       style="fill:#eda660;stroke-width:0.264583"
       d="m 132.10187,189.59897 c 0,-0.0106 0,-0.0212 0,-0.032 0.0146,0.005 0.0217,0.0156 0.0209,0.031 -0.007,5.3e-4 -0.014,8e-4 -0.0209,0.001 z"
       id="path14609" />
    <path
       style="fill:#ee9b5d;stroke-width:0.264583"
       d="m 130.7398,189.19681 c 0.0103,0.0206 0.0209,0.0413 0.0312,0.0622 0.0283,0.0627 0.0339,0.12885 0.0283,0.19659 -0.003,0.0423 -0.0177,0.0802 -0.0474,0.11139 -0.0476,0.0503 -0.0937,0.0407 -0.1098,-0.0275 -0.009,-0.0397 -0.0111,-0.0775 -0.0394,-0.11324 -0.0757,-0.0952 -0.0524,-0.17463 0.0609,-0.21934 0.0233,-0.009 0.0508,-0.007 0.0762,-0.0101 z"
       id="path15038" />
    <path
       style="fill:#f7a866;stroke-width:0.264583"
       d="m 131.26605,190.74038 c -0.0103,-2.6e-4 -0.0204,-5.2e-4 -0.0307,-10e-4 -0.0161,-0.0114 -0.0323,-0.023 -0.0484,-0.0344 0.0376,-0.0534 0.0281,-0.1225 0.072,-0.17965 0.0423,-0.055 -0.0108,-0.11404 -0.0545,-0.16007 -0.0283,-0.0296 -0.0479,-0.0564 -0.1024,-0.0357 -0.15002,0.0569 -0.15637,0.0513 -0.24976,-0.0794 -0.014,-0.0198 -0.0418,-0.0323 -0.037,-0.063 0.0196,-0.0254 0.0468,-0.0164 0.0714,-0.0154 0.0902,0.004 0.16166,-0.0175 0.18415,-0.12012 0.0106,-0.0481 0.0497,-0.0754 0.0908,-0.0992 0.0654,-0.0376 0.0937,-0.0926 0.0733,-0.16802 v 0 c 0.15373,0.013 0.13335,0.15717 0.18521,0.24686 0.063,0.064 0.0209,0.13917 0.0124,0.20532 -0.0127,0.0979 0.006,0.20743 -0.0741,0.28945 -0.0201,0.058 -0.0225,0.12647 -0.0926,0.15425 0,0.0196 2.6e-4,0.04 2.6e-4,0.0601 z"
       id="path15047" />
    <path
       style="fill:#db8a4b;stroke-width:0.264583"
       d="m 131.38776,189.63231 c 0.022,0.0193 0.0439,0.0386 0.0656,0.0582 0.0492,0.0214 0.0709,0.0807 0.12726,0.0923 0.009,0.0101 0.0188,0.0201 0.0281,0.0299 0.11695,0.072 0.11139,0.22807 0.21272,0.31088 v 0 c 0.0111,0.01 0.0199,0.0217 0.0307,0.0315 -0.005,0.0542 0.006,0.11271 -0.0408,0.16298 -0.0617,-0.019 -0.0987,-0.0696 -0.13679,-0.11483 -0.0587,-0.0699 -0.10477,-0.15002 -0.17595,-0.21034 -0.0373,-0.0318 -0.0458,-0.0786 -0.0474,-0.12515 -0.002,-0.0672 -0.0302,-0.11695 -0.0913,-0.14685 0.009,-0.0296 0.0185,-0.0593 0.0278,-0.0886 z"
       id="path15056" />
    <path
       style="fill:#eaa158;stroke-width:0.264583"
       d="m 132.70989,190.74647 c -0.0175,-0.002 -0.0349,-0.004 -0.0524,-0.006 -0.0114,-0.009 -0.023,-0.0175 -0.0347,-0.0262 -0.018,-0.0151 -0.0408,-0.0111 -0.0616,-0.0156 -0.0828,-0.0442 -0.10292,-0.11694 -0.0921,-0.20346 5.3e-4,-0.0643 -0.0328,-0.11509 -0.0683,-0.16431 -0.0304,-0.0423 -0.0661,-0.0796 -0.12435,-0.0683 -0.0593,0.0116 -0.0998,0.0463 -0.1106,0.10875 -0.003,0.0198 -0.004,0.04 -0.006,0.0601 -0.0299,-0.0468 -0.0294,-0.0995 -0.0294,-0.15214 -8e-4,-0.0421 0.0241,-0.0587 0.0619,-0.0627 0.01,-5.3e-4 0.0198,-0.001 0.0299,-0.002 0.0439,-0.041 0.0196,-0.11086 0.0635,-0.15187 0.0929,0.023 0.15451,0.0804 0.17277,0.17436 0.0312,0.16113 0.11853,0.29104 0.21828,0.4154 0.0214,0.0275 0.0516,0.0516 0.0331,0.0937 z"
       id="path15057" />
    <path
       style="fill:#f8ad67;stroke-width:0.264583"
       d="m 132.1921,190.21677 c -0.0206,0.0209 -0.0413,0.0418 -0.0619,0.0627 -0.0926,0.0291 -0.15875,-0.003 -0.19976,-0.0884 -0.0233,-0.0482 -0.0545,-0.0855 -0.10821,-0.0998 -0.091,-0.0704 -0.15558,-0.15557 -0.15531,-0.27702 0,-0.01 0,-0.0201 -2.7e-4,-0.0304 0.0606,0.0442 0.10107,0.11403 0.17807,0.13731 0.0392,0.0119 0.0542,0.0386 0.0548,0.0796 0.001,0.0923 0.0627,0.13282 0.14234,0.15029 0.055,0.0122 0.10822,0.0251 0.15029,0.0656 z"
       id="path15058" />
    <path
       style="fill:#ea9859;stroke-width:0.264583"
       d="m 131.6669,189.81408 c 0.0238,0.0516 0.0529,0.0995 0.0929,0.14049 0.0373,0.0381 0.0593,0.0831 0.0624,0.13679 -2.7e-4,0.0109 -5.3e-4,0.0214 -8e-4,0.0323 -0.068,-0.003 -0.109,-0.0392 -0.13176,-0.10213 -0.0254,-0.0701 -0.0537,-0.13917 -0.0807,-0.20875 0.0193,5.2e-4 0.0386,7.9e-4 0.058,0.001 z"
       id="path15059" />
    <path
       style="fill:#f1a161;stroke-width:0.264583"
       d="m 131.42004,190.03077 c -0.0804,-0.0683 -0.0878,-0.19129 -0.18521,-0.24685 0.031,-0.0402 0.0349,-0.13441 0.12277,-0.0619 -0.022,0.0262 -0.0304,0.0519 -0.003,0.081 0.0603,0.0646 0.0667,0.14525 0.0659,0.2278 z"
       id="path15060" />
    <path
       style="fill:#f1a161;stroke-width:0.264583"
       d="m 131.26552,190.67979 c 0.031,-0.0513 0.0616,-0.10292 0.0926,-0.15425 -2.7e-4,0.0696 -0.0116,0.13282 -0.0926,0.15425 z"
       id="path15061" />
    <path
       style="fill:#eea15f;stroke-width:0.264583"
       d="m 132.16087,190.71075 c -0.0415,-0.0169 -0.0579,-0.0508 -0.0616,-0.0929 0.0204,0.031 0.041,0.0619 0.0616,0.0929 z"
       id="path15062" />
    <path
       style="fill:#eea15f;stroke-width:0.264583"
       d="m 131.60578,190.6491 c -0.0106,0.0103 -0.0212,0.0204 -0.0315,0.0307 0.0106,-0.0103 0.0212,-0.0204 0.0315,-0.0307 z"
       id="path15063" />
    <path
       style="fill:#eea15f;stroke-width:0.264583"
       d="m 132.09923,190.61815 c -0.0103,-0.0103 -0.0209,-0.0206 -0.0312,-0.031 0.0103,0.0103 0.0206,0.0206 0.0312,0.031 z"
       id="path15064" />
    <path
       style="fill:#ea9859;stroke-width:0.264583"
       d="m 131.85211,190.15513 c -0.0103,-0.0106 -0.0204,-0.0212 -0.0307,-0.0315 0.0103,0.0106 0.0204,0.0209 0.0307,0.0315 z"
       id="path15065" />
    <path
       style="fill:#f8ad67;stroke-width:0.264583"
       d="m 132.28523,190.06305 c -0.001,0.059 -0.008,0.11562 -0.0635,0.15187 5.3e-4,-0.0683 0.0135,-0.13229 0.0624,-0.18415 5.3e-4,0.0106 7.9e-4,0.0214 0.001,0.0323 z"
       id="path15087" />
    <path
       style="fill:#ffb973;stroke-width:0.264583"
       d="m 132.05451,188.36099 c -0.0479,-0.005 -0.0659,-0.04 -0.0699,-0.0831 -0.006,-0.0611 0.0537,-0.13653 0.10266,-0.12885 0.0487,0.008 0.0638,0.046 0.0651,0.0897 0.001,0.0553 -0.0508,0.12012 -0.0979,0.12224 z"
       id="path15132" />
    <path
       style="fill:#ffc27b;stroke-width:0.264583"
       d="m 131.69653,189.56881 c 0.0362,0.004 0.14579,0.10133 0.15425,0.13811 0.005,0.0209 0.003,0.0437 -0.0177,0.0532 -0.0582,0.0267 -0.11034,0.002 -0.15452,-0.0323 -0.0484,-0.0373 -0.0354,-0.0902 -0.0183,-0.13943 0.005,-0.0151 0.0193,-0.0214 0.0362,-0.0196 z"
       id="path15160" />
    <path
       style="fill:#e79457;stroke-width:0.264583"
       d="m 131.08005,189.44393 c -0.0103,-0.0101 -0.0206,-0.0204 -0.0309,-0.0304 0.0103,0.0101 0.0206,0.0204 0.0309,0.0304 z"
       id="path15360" />
    <path
       style="fill:#a57928;stroke-width:0.264583"
       d="m 132.46859,191.05048 c -0.009,0.0111 -0.0177,0.022 -0.0265,0.0331 -0.0609,-0.15954 -0.1913,-0.28893 -0.20453,-0.46964 -0.004,-0.0505 -0.009,-0.1008 -0.014,-0.15107 0.008,-0.002 0.0164,-0.004 0.0246,-0.006 0.11747,0.0979 0.20558,0.21643 0.26061,0.36036 0.0339,0.0878 0.0307,0.16563 -0.0402,0.23337 z"
       id="path15367" />
    <path
       style="fill:#ad7018;stroke-width:0.264583"
       d="m 132.46911,190.49538 c 0.0418,0.0561 0.10028,0.10107 0.1151,0.17515 -0.10927,0.0643 -0.15267,-0.0357 -0.21458,-0.0878 -0.009,-0.009 -0.0196,-0.0169 -0.0294,-0.0254 -0.007,-0.0101 -0.014,-0.0204 -0.0204,-0.0309 -0.007,-0.01 -0.0135,-0.0196 -0.0206,-0.0288 -0.003,-0.005 -0.007,-0.01 -0.0101,-0.014 -0.006,-0.01 -0.0124,-0.0191 -0.0198,-0.0275 -0.004,-0.004 -0.008,-0.008 -0.0114,-0.0122 -0.008,-0.008 -0.0143,-0.0167 -0.0188,-0.0267 -2.6e-4,-0.006 -5.3e-4,-0.0108 -7.9e-4,-0.0164 0.002,-0.0111 0.006,-0.0209 0.0127,-0.0296 0.0386,-0.0524 0.0746,-0.0397 0.10874,0.005 0.0331,0.0429 0.0482,0.10213 0.10927,0.11959 z"
       id="path15368" />
    <path
       style="fill:#a57928;stroke-width:0.264583"
       d="m 132.22358,190.46284 c -0.0148,-0.0201 -0.0145,-0.0397 0.002,-0.0587 0.004,0.006 0.008,0.0114 0.0122,0.0169 0.002,0.014 -2.6e-4,0.0273 -0.009,0.0389 z"
       id="path15369" />
    <path
       style="fill:#a57928;stroke-width:0.264583"
       d="m 132.25083,190.37076 c -0.001,0.0122 -0.002,0.0243 -0.003,0.0363 -0.007,0 -0.0132,2.6e-4 -0.0198,2.6e-4 0,0 -0.003,-0.003 -0.003,-0.003 0.009,-0.0114 0.0172,-0.0225 0.0257,-0.0336 z"
       id="path15370" />
    <path
       style="fill:#838565;stroke-width:0.264583"
       d="m 132.22808,190.40727 c 0.007,2.7e-4 0.0132,2.7e-4 0.0198,-2.6e-4 0,0 0.004,-0.003 0.004,-0.003 0.0108,0.01 0.0235,0.018 0.0309,0.031 l -2.6e-4,-5.3e-4 c 0.0124,0.008 0.0228,0.0185 0.0309,0.0307 l 5.3e-4,5.3e-4 c 0.0114,0.009 0.0217,0.0185 0.0304,0.0299 l 0.001,0.001 c 0.0106,0.009 0.0209,0.018 0.0312,0.027 0.0691,0.0492 0.13838,0.0982 0.20743,0.14737 0.0127,0.0146 0.0257,0.0291 0.0386,0.0439 -0.0188,0.0344 -0.008,0.0696 -0.003,0.1053 0.0249,0.17912 0.0246,0.17912 -0.15081,0.23098 0.006,-0.23177 -0.12594,-0.40746 -0.23998,-0.59055 -2.6e-4,-0.0177 -5.3e-4,-0.0354 -7.9e-4,-0.0529 z"
       id="path15400" />
    <path
       style="fill:#9b8578;stroke-width:0.264583"
       d="m 131.58064,189.78259 c -0.0714,0.009 -0.095,-0.0476 -0.12726,-0.0923 0.0106,-0.0106 0.0214,-0.0212 0.032,-0.032 0.0318,0.0415 0.0635,0.0831 0.0952,0.12435 z"
       id="path15409" />
    <path
       style="fill:#a57928;stroke-width:0.264583"
       d="m 132.37677,190.52316 c -0.0103,-0.009 -0.0209,-0.018 -0.0312,-0.027 0.0106,0.009 0.0209,0.018 0.0312,0.027 z"
       id="path15775" />
    <path
       style="fill:#a57928;stroke-width:0.264583"
       d="m 132.3445,190.49512 c -0.0101,-0.0101 -0.0204,-0.0198 -0.0304,-0.0299 0.0101,0.0101 0.0204,0.0198 0.0304,0.0299 z"
       id="path15776" />
    <path
       style="fill:#a57928;stroke-width:0.264583"
       d="m 132.31354,190.46469 c -0.0103,-0.0103 -0.0206,-0.0206 -0.031,-0.0307 0.0103,0.0103 0.0206,0.0206 0.031,0.0307 z"
       id="path15777" />
    <path
       style="fill:#a57928;stroke-width:0.264583"
       d="m 132.28311,190.43453 c -0.0103,-0.0103 -0.0206,-0.0206 -0.0309,-0.031 0.0103,0.0103 0.0206,0.0206 0.0309,0.031 z"
       id="path15778" />
  </g>
</svg>
