<?xml version="1.0" encoding="UTF-8" standalone="no"?>
<!-- Created with Inkscape (http://www.inkscape.org/) -->

<svg
   width="210mm"
   height="297mm"
   viewBox="0 0 210 297"
   version="1.1"
   id="svg1"
   inkscape:version="1.4 (86a8ad7, 2024-10-11)"
   sodipodi:docname="list2.svg"
   xmlns:inkscape="http://www.inkscape.org/namespaces/inkscape"
   xmlns:sodipodi="http://sodipodi.sourceforge.net/DTD/sodipodi-0.dtd"
   xmlns="http://www.w3.org/2000/svg"
   xmlns:svg="http://www.w3.org/2000/svg">
  <sodipodi:namedview
     id="namedview1"
     pagecolor="#505050"
     bordercolor="#eeeeee"
     borderopacity="1"
     inkscape:showpageshadow="0"
     inkscape:pageopacity="0"
     inkscape:pagecheckerboard="0"
     inkscape:deskcolor="#505050"
     inkscape:document-units="mm"
     inkscape:zoom="0.72604517"
     inkscape:cx="396.66953"
     inkscape:cy="561.25984"
     inkscape:window-width="1920"
     inkscape:window-height="1017"
     inkscape:window-x="-8"
     inkscape:window-y="-8"
     inkscape:window-maximized="1"
     inkscape:current-layer="layer1" />
  <defs
     id="defs1" />
  <g
     inkscape:label="Layer 1"
     inkscape:groupmode="layer"
     id="layer1">
    <path
       style="fill:#b5bfa7;stroke-width:0.264583"
       d="m 64.26347,120.42856 c -0.151077,-0.39396 -0.259027,-0.80036 -0.339725,-1.2139 -0.12356,-0.63262 -0.180975,-1.27106 -0.151606,-1.91506 0.01217,-0.26591 0.02355,-0.5334 0.08784,-0.79428 0.09419,-0.0288 0.109008,0.0296 0.124354,0.10292 0.01693,0.0807 -0.03202,0.16008 0.01138,0.27014 0.07911,-0.11006 0.174625,-0.18203 0.22225,-0.2958 0.124089,-0.15161 0.162983,-0.35534 0.302948,-0.49742 0.005,-0.0132 0.01191,-0.0257 0.02037,-0.0373 0.03969,-0.0405 0.0889,-0.0648 0.133879,-0.0217 0.04445,0.0426 0.06694,0.10266 0.03731,0.16616 -0.05053,0.10821 -0.0254,0.1651 0.1016,0.15849 0.01429,0.006 0.02619,0.0153 0.03598,0.0275 0.0172,0.0437 0.03202,0.0881 0.03916,0.13467 -0.01297,0.0688 -0.02064,0.13812 -0.0291,0.2077 -0.01058,0.0873 -0.0471,0.15611 -0.151078,0.15505 -0.02064,-0.0172 -0.03598,-0.0156 -0.04339,0.0135 -0.03519,0.0455 -0.09128,0.0188 -0.150019,0.037 0.127,0.12939 0.335492,0.0937 0.428096,0.25083 0.0024,0.14658 0.0093,0.2921 -0.153988,0.37412 -0.04948,0.0249 -0.06694,0.0873 -0.08837,0.13891 -0.09393,0.0526 -0.163248,0.13308 -0.241565,0.20505 -0.08202,0.0757 -0.06932,0.13282 -0.0061,0.20214 0.01482,0.0601 0.06429,0.0955 0.100806,0.14023 0.03545,0.0497 0.112712,0.0749 0.09155,0.15716 -0.0011,0.0204 0.0016,0.0405 0.004,0.0606 0.0032,0.013 0.009,0.0249 0.01773,0.0355 0.01058,0.009 0.0209,0.0188 0.03175,0.028 0.0061,0.005 0.01164,0.009 0.01746,0.014 0.06694,0.13521 0.0426,0.17807 -0.111125,0.19738 -0.0672,-0.0288 -0.07408,-0.10689 -0.123296,-0.15187 -0.05345,-0.0489 -0.09499,-0.0624 -0.12356,0.0204 -0.01005,0.0291 -0.02725,0.055 -0.03969,0.0828 -0.01693,0.0381 -0.03228,0.0791 -0.0037,0.11615 0.03122,0.0405 0.07329,0.0251 0.112448,0.0114 0.05318,-0.0188 0.106098,-0.0437 0.158485,0.002 0.03863,0.0548 0.01561,0.1016 -0.01111,0.15505 -0.08572,0.17065 -0.02725,0.31273 0.149489,0.36353 0.05583,0.0161 0.0971,0.036 0.09155,0.0992 -0.01058,0.12118 0.03836,0.24077 0.009,0.36195 -0.04366,0.0892 -0.111389,0.15902 -0.18706,0.21934 -0.07514,0.0598 -0.09895,0.11536 -0.01032,0.1823 0.06482,0.049 0.08308,0.11324 0.05609,0.1905 -0.0032,0.0153 -0.0069,0.0302 -0.01138,0.0452 -0.01244,0.0217 -0.03096,0.0378 -0.04736,0.0558 -0.141552,0.15425 -0.195262,0.14605 -0.36195,-0.0553 z"
       id="path13741" />
    <path
       style="fill:#d3ddc5;stroke-width:0.264583"
       d="m 66.609266,116.59766 c 0.140758,0.29845 0.254794,0.60669 0.340254,0.92551 -0.0064,0.0667 -0.0069,0.13256 0.0172,0.19685 0.08308,0.22172 -0.02143,0.41593 -0.09419,0.61331 -0.0172,0.0466 -0.06218,0.0773 -0.01032,0.13335 0.08387,0.0907 0.05159,0.19156 -0.02514,0.25876 -0.07594,0.0664 -0.07329,0.12303 -0.03598,0.20029 0.03916,0.0818 0.01878,0.15266 -0.05794,0.19976 -0.05371,0.0328 -0.07117,0.0765 -0.08467,0.13626 -0.02805,0.12541 -0.119591,0.15505 -0.21246,0.072 -0.05001,-0.045 -0.110067,-0.0767 -0.155575,-0.12568 -0.04101,-0.0439 -0.07726,-0.0653 -0.145785,-0.0426 -0.0844,0.028 -0.153723,-0.0138 -0.121973,-0.11112 0.03598,-0.11033 -0.0209,-0.16166 -0.09578,-0.21299 -0.03784,-0.0749 -0.0553,-0.15584 -0.03969,-0.23733 0.01667,-0.0876 0.05556,-0.15743 0.164571,-0.10954 -0.05054,-0.0238 -0.107156,-0.0413 -0.09737,-0.12383 0.0061,-0.0526 0.0058,-0.11139 -0.03545,-0.15954 -0.05768,-0.0672 -0.01746,-0.12144 0.02752,-0.17515 0.05292,-0.0632 0.112977,-0.0614 0.177006,-0.0225 0.03096,0.0188 0.06191,0.0352 0.09869,0.0397 0.07355,0.009 0.119856,-0.0241 0.09102,-0.0944 -0.0463,-0.11271 -0.03493,-0.22913 -0.04948,-0.34396 -0.01429,-0.11218 -0.0553,-0.21696 -0.153458,-0.29078 -0.07488,-0.0563 -0.120121,-0.12806 -0.06403,-0.22489 0.0079,-0.0124 0.01878,-0.0222 0.03149,-0.0299 0.07964,-0.0368 0.178594,0.14499 0.248973,-0.0246 0.03545,-0.0857 0.128058,-0.14393 0.121179,-0.25241 -0.0016,-0.0238 0.02117,-0.045 0.0336,-0.0672 0.03175,-0.0542 0.04127,-0.12965 0.127794,-0.12727 z"
       id="path13749" />
    <path
       style="fill:#cbd5bd;stroke-width:0.264583"
       d="m 65.990935,118.79185 c 0.09075,0.10239 0.09075,0.10239 0.101864,0.31935 0.07197,0 0.07779,-0.0741 0.131498,-0.11509 0.04683,0.1561 0.219604,0.18521 0.300831,0.30956 0.0077,0.0119 0.02805,0.0108 0.04154,0 0.01349,-0.0109 0.01455,-0.0267 0.0087,-0.0415 -0.0056,-0.0143 -0.01429,-0.0272 -0.02196,-0.0405 -0.03757,-0.0643 -0.02196,-0.10716 0.05053,-0.12806 0.005,-10e-4 0.01005,-0.003 0.01482,-0.005 0.145256,-0.0598 0.144727,-0.0595 0.08255,-0.19579 -0.01905,-0.0421 -0.03625,-0.0855 -0.04895,-0.12965 -0.02355,-0.0831 -0.0013,-0.11271 0.08705,-0.11297 0.03307,0 0.07514,0.0302 0.07805,-0.0326 0.0019,-0.0352 0.04022,-0.0812 -0.02778,-0.10028 -0.08017,-0.0225 -0.05689,-0.0907 -0.02805,-0.1225 0.112448,-0.12382 0.08811,-0.29104 0.147902,-0.43127 0.03784,-0.0889 0.02805,-0.19314 0.0011,-0.28866 -0.01746,-0.0622 -0.0058,-0.11086 0.03942,-0.15399 0.07779,0.20109 0.143404,0.40561 0.184944,0.61754 0.02646,0.0373 0.01323,0.0796 0.01349,0.11959 0.0013,0.1024 0,0.19765 0.02672,0.3048 0.03122,0.12436 0.06985,0.24236 0.106891,0.36513 0.06588,0.21801 0.08361,0.45482 0.01852,0.68527 -0.0093,0.0323 -0.02487,0.0556 -0.05689,0.0667 -0.09763,0.006 -0.153459,-0.0439 -0.177536,-0.13493 -0.01323,-0.05 -0.03201,-0.0968 -0.06033,-0.14103 -0.103716,-0.16219 -0.07011,-0.22701 0.127794,-0.25849 -0.09842,0.001 -0.17145,0.0405 -0.198967,0.14208 -0.01376,0.0508 -0.04842,0.0884 -0.07541,0.1307 -0.04366,0.0683 -0.06826,0.13811 -0.03307,0.21828 0.03942,0.0897 0.0085,0.15399 -0.06456,0.21458 -0.111919,0.0929 -0.112977,0.17806 -0.01482,0.28681 0.09102,0.10054 0.189971,0.19182 0.309563,0.2585 0.0032,0.17621 -0.140759,0.0974 -0.221457,0.12832 -0.06906,0.0429 -0.126735,0.1389 -0.210079,0.0561 -0.02011,-0.0108 -0.01085,-0.0122 -0.0032,-2.6e-4 0.116152,0.17303 0.0074,0.45799 -0.187589,0.49397 -0.133879,0.0249 -0.21299,-0.0624 -0.158486,-0.18679 0.03863,-0.0881 0.03704,-0.13759 -0.06191,-0.17727 -0.12065,-0.0484 -0.07038,-0.17939 -0.110331,-0.26856 2.64e-4,-0.023 0.0053,-0.045 0.01085,-0.0672 0.05609,-0.0918 0.07779,-0.1688 -0.0058,-0.27252 -0.1143,-0.14208 -0.09049,-0.20267 0.06271,-0.3048 0.06932,-0.0463 0.07699,-0.14473 0.01429,-0.20558 -0.03307,-0.0323 -0.07382,-0.0548 -0.115093,-0.0754 -0.03281,-0.0167 -0.07435,-0.037 -0.07117,-0.0733 0.01905,-0.21272 -0.09102,-0.41539 -0.04472,-0.62944 0.01032,-0.0116 0.02223,-0.0196 0.03651,-0.0241 z"
       id="path13750" />
    <path
       style="fill:#cad4bc;stroke-width:0.264583"
       d="m 65.990935,118.79185 c 0,0.0103 0,0.0206 0,0.031 -0.06747,0.0519 -0.123032,-0.04 -0.188384,-0.0159 -0.01534,2.7e-4 -0.03069,-0.001 -0.04577,-0.004 -0.02249,-0.008 -0.03784,-0.0264 -0.05477,-0.0423 -0.0164,-0.018 -0.02487,-0.0386 -0.02381,-0.063 0.154781,-0.10927 0.127265,-0.29977 0.198702,-0.44635 0.01005,-0.008 0.0217,-0.014 0.03519,-0.014 -0.01296,2.7e-4 -0.02487,0.004 -0.03625,0.0111 -0.147902,-0.0153 -0.158221,-0.027 -0.106892,-0.14658 0.01746,-0.0405 0.03175,-0.0828 0.01085,-0.11615 -0.09313,-0.14817 -0.09843,-0.33867 -0.227541,-0.46885 -0.02963,-0.0508 -0.08361,-0.0802 -0.114565,-0.12964 -0.02699,-0.0648 0.0053,-0.14261 -0.04445,-0.20267 -0.06985,-0.14605 -0.05186,-0.30004 -0.0336,-0.45138 0.02011,-0.16907 -0.03704,-0.30824 -0.139171,-0.43471 -0.0164,-0.0204 -0.04313,-0.0429 -0.03493,-0.0638 0.07699,-0.20161 -0.126735,-0.35507 -0.09102,-0.54874 0.02011,-0.10901 -0.04683,-0.22834 0.03731,-0.33047 0.119062,-0.0196 0.16166,-0.12647 0.227541,-0.20452 0.0344,-0.041 -0.01111,-0.0844 -0.01931,-0.127 -0.0127,-0.0651 -0.06535,-0.14049 0.009,-0.19632 0.06773,-0.0508 0.121972,0.0103 0.177535,0.0413 0.164571,0.12833 0.296069,0.28575 0.406135,0.46197 -0.09631,0.13176 -0.232039,0.14525 -0.373591,0.11033 -0.125413,-0.031 -0.144198,0.0246 -0.120121,0.12462 0.01217,0.0505 0.0093,0.10054 0.01085,0.15107 -2.65e-4,0.0143 -0.0011,0.0286 -0.0024,0.0429 -0.02249,0.13123 0.01138,0.2196 0.148166,0.27913 0.106892,0.0466 0.164306,0.14843 0.122238,0.28046 -0.02302,0.0728 -0.03254,0.59478 -0.0209,0.6395 0.184943,-0.11589 0.266435,0.0661 0.385762,0.13494 -0.0019,0.0772 0.02514,0.13837 0.09102,0.18362 0.154252,0.10556 0.171185,0.27066 0.175419,0.43576 0.0016,0.0574 2.64e-4,0.10743 0.03069,0.16034 0.05318,0.0931 0.04498,0.12647 -0.03016,0.20214 -0.02514,0.0254 -0.05424,0.0466 -0.08308,0.068 -0.05212,0.0386 -0.100807,0.0566 -0.130969,-0.0251 -0.0093,-0.0249 -0.02805,-0.0431 -0.05345,-0.0521 -0.03678,-0.013 -0.07091,-0.006 -0.100277,0.0201 -0.02646,0.0233 -0.03413,0.0553 -0.01746,0.0836 0.03836,0.0646 0.04604,0.13361 0.04921,0.20611 0.0032,0.0722 0.06324,0.0998 0.116946,0.13044 0.110066,0.063 0.111389,0.0868 0.0061,0.14975 -0.0254,0.0153 -0.05001,0.0373 -0.08493,0.0323 -0.03598,-0.0302 -0.0037,-0.0664 -0.0079,-0.0995 -0.0034,-0.0272 -0.01138,-0.0521 -0.04339,-0.0521 -0.0299,0 -0.0463,0.0233 -0.05054,0.0495 -0.01111,0.0728 -0.0034,0.14314 0.04101,0.20532 z"
       id="path13751" />
    <path
       style="fill:#bcc6ae;stroke-width:0.264583"
       d="m 66.794474,120.46031 c 0.0418,-0.0193 0.0852,-0.0249 0.13044,-0.0148 0.04921,0.0108 0.08731,-0.007 0.116152,-0.0471 -2.65e-4,-0.007 -2.65e-4,-0.014 -5.29e-4,-0.0212 0.06615,-0.14314 0.16166,-0.27913 0.11086,-0.45137 -0.0026,-0.0153 -0.0029,-0.0304 -0.0016,-0.046 0.0021,-0.0159 0.0079,-0.0304 0.0164,-0.0437 0.05768,-0.0902 0.10451,-0.17912 0.105569,-0.29554 5.29e-4,-0.0526 -0.02778,-0.17806 0.108743,-0.16166 0.005,0.007 0.0058,0.0153 0.0029,0.0236 0.02355,0.0558 0.01217,0.11033 -0.0048,0.1651 -0.01773,0.0566 -0.02143,0.11695 -0.005,0.17118 0.06271,0.20982 0.01931,0.41487 -0.01931,0.62019 -0.01085,0.0574 -0.01296,0.11562 0.01191,0.16642 0.09737,0.20029 0.06085,0.40905 0.04736,0.61674 l 0.0026,-0.002 c -0.05133,0.0722 -0.06006,0.14923 -0.03202,0.23337 0.01958,0.0579 0.01879,0.11773 -2.64e-4,0.17647 -0.0016,0.0175 -0.0032,0.0349 -0.0048,0.0524 -0.02858,0.17833 -0.138906,0.27781 -0.308768,0.31935 -0.04207,0.0281 -0.07779,0.0646 -0.121709,0.0905 -0.131233,0.0775 -0.242093,0.0712 -0.29501,-0.0188 -0.06377,-0.10848 -0.01852,-0.29077 0.09366,-0.34898 0.06721,-0.0349 0.140494,-0.0593 0.198173,-0.0741 -0.04551,-0.004 -0.106098,0.0635 -0.171185,0.008 -0.06694,-0.11932 -0.164306,-0.22251 -0.18706,-0.36592 -0.0093,-0.0585 -0.01958,-0.11615 0.02963,-0.15716 0.148167,-0.12329 0.143139,-0.29501 0.154781,-0.46302 0.0032,-0.0442 -0.01376,-0.0931 0.02275,-0.13203 z"
       id="path13774" />
    <path
       style="fill:#d3ddc5;stroke-width:0.264583"
       d="m 66.08301,117.09323 c -0.0889,-0.01 -0.186532,0.01 -0.246327,-0.0886 -0.01587,-0.0262 -0.05662,-0.0243 -0.0844,-0.005 -0.02672,0.0183 -0.01429,0.0444 -0.0061,0.0691 0.0045,0.014 0.0087,0.0307 0.0056,0.0444 -0.0029,0.0132 -0.01296,0.0291 -0.02461,0.0354 -0.0217,0.0119 -0.04392,-5.3e-4 -0.04948,-0.0209 -0.0418,-0.15161 -0.158485,-0.29475 -0.05292,-0.46408 0.02884,-0.0466 0.0164,-0.099 0.0069,-0.15002 -0.01402,-0.0765 -0.01826,-0.15267 0.01349,-0.22675 0.01164,-0.0273 0.03281,-0.059 -2.64e-4,-0.0823 -0.03096,-0.0217 -0.05133,0.0278 -0.08467,0.0214 -0.02672,-0.0466 0.04339,-0.0656 0.03122,-0.10954 -0.01376,-0.0209 -0.03519,-0.0148 -0.05212,-0.006 -0.05556,0.0307 -0.09578,0.0325 -0.109273,-0.0439 -0.0042,-0.0243 -0.01429,-0.0529 -0.03175,-0.0685 -0.104246,-0.0923 -0.06588,-0.17833 0.0061,-0.26485 0.09578,-0.0381 0.198173,-0.0564 0.298186,-0.0582 0.141817,-0.003 0.267758,-0.0365 0.379942,-0.12277 0.09234,0.12145 0.166158,0.25321 0.223572,0.39423 -0.02672,0.0757 -0.01984,0.14579 0.0095,0.22278 0.03916,0.1016 0.02408,0.20638 -0.06853,0.2757 -0.05688,0.0426 -0.05715,0.10054 -0.07567,0.15531 -0.01535,0.0455 -0.0071,0.10451 -0.0717,0.12091 -0.0037,10e-4 -0.02169,-0.002 -0.01191,0.007 0.150548,0.12409 0.05424,0.24394 -0.0042,0.36459 z"
       id="path13776" />
    <path
       style="fill:#aab49c;stroke-width:0.264583"
       d="m 67.347718,121.88139 c -0.0172,0.29792 -0.08149,0.58843 -0.1397,0.87974 -0.05106,0.25612 -0.106363,0.5117 -0.197908,0.7575 -0.112977,0.0288 -0.300302,-0.0939 -0.346075,-0.21696 -0.06297,-0.16959 -0.117211,-0.3421 -0.176477,-0.51302 -0.01429,-0.0413 -0.04286,-0.068 -0.07514,-0.0931 -0.01138,-0.009 -0.01984,-0.0206 -0.02619,-0.0336 0.0019,-0.10874 -0.04789,-0.19632 -0.115887,-0.27622 -0.0082,-0.0117 -0.01561,-0.0238 -0.02249,-0.036 -0.02778,-0.0529 -0.07382,-0.0915 -0.106892,-0.14049 -0.07011,-0.28284 -0.08784,-0.56991 -0.07011,-0.85937 0.0061,-0.0971 -0.04498,-0.1733 -0.07435,-0.2577 0.0209,-0.0651 0.07038,-0.0992 0.128058,-0.0653 0.06826,0.0402 0.173832,0.1016 0.14949,0.17621 -0.06138,0.18706 0.0172,0.37068 -0.01826,0.55271 -0.0209,0.12859 0.06297,0.22887 0.09657,0.34237 0.01508,0.0516 0.06668,0.0987 0.128058,0.0273 0.03519,-0.0407 0.07858,-0.0455 0.123296,-0.0132 0.04048,0.0291 0.06138,0.0706 0.05715,0.11932 -0.0045,0.0513 -0.02725,0.0984 -0.04313,0.14738 -0.03413,0.10371 0.0098,0.18018 0.09287,0.23812 0.09948,0.0696 0.190765,0.0476 0.281252,-0.0241 0.07885,-0.0624 0.109009,-0.12727 0.06112,-0.22569 -0.03545,-0.073 -0.04815,-0.15584 -0.07461,-0.23363 -0.0418,-0.12303 0.04789,-0.23442 0.173566,-0.20426 0.08546,0.0201 0.119327,-0.0878 0.195792,-0.0479 z"
       id="path13793" />
    <path
       style="fill:#b0baa2;stroke-width:0.264583"
       d="m 67.347718,121.88139 c -0.01376,0.0331 -0.02619,0.0667 -0.04207,0.099 -0.02752,0.0564 -0.05821,0.11192 -0.133614,0.10822 -0.0725,-0.003 -0.04974,-0.0783 -0.08361,-0.13203 -0.04577,0.0751 -0.068,0.12224 -0.01455,0.19976 0.04974,0.0722 0.05477,0.17013 0.101865,0.25215 0.03784,0.0656 -0.0037,0.14129 -0.06244,0.1905 -0.05874,0.0495 -0.122237,0.0934 -0.185737,0.13705 -0.03942,0.0273 -0.08202,0.0333 -0.131498,0.0199 -0.228865,-0.0627 -0.323586,-0.25268 -0.23204,-0.47122 0.0098,-0.0236 0.01879,-0.0476 0.02408,-0.0725 0.0045,-0.0206 -0.0021,-0.0415 -0.02328,-0.0513 -0.01508,-0.007 -0.03069,-0.001 -0.04048,0.0116 -0.0291,0.0378 -0.05741,0.0754 -0.113771,0.0521 -0.05927,-0.0243 -0.110596,-0.0646 -0.132556,-0.12251 -0.03202,-0.0849 -0.04921,-0.17542 -0.09049,-0.25797 -0.01402,-0.0283 0.0032,-0.0601 0.01879,-0.0873 0.0071,0.001 0.01429,0.002 0.0217,0.003 0.06853,0.0487 0.16854,0.064 0.180975,0.17172 0.0071,0.0336 0.01376,0.0976 0.04339,0.0844 0.12065,-0.0542 0.20955,0.0331 0.313002,0.049 0.135202,0.0206 0.211402,-0.0804 0.275431,-0.18389 0.02778,-0.0209 0.05292,-0.0537 0.08387,-0.0609 0.12409,-0.0291 0.185738,-0.12647 0.254529,-0.21749 0.0058,0.0945 -0.0093,0.18679 -0.03149,0.27834 z"
       id="path13822" />
    <path
       style="fill:#bdc7b0;stroke-width:0.264583"
       d="m 64.570122,116.10421 c 0.009,0.0296 0.01905,0.0683 -0.0037,0.0865 -0.13335,0.10848 -0.140229,0.30083 -0.274373,0.40746 -0.0463,0.0984 -0.137054,0.0995 -0.220662,0.0849 -0.07937,-0.0138 -0.07117,-0.095 -0.09366,-0.15716 -0.09763,-0.27173 0.03863,-0.517 0.07858,-0.77179 0.01217,-0.0783 0.01614,-0.16219 0.05054,-0.23733 0.02328,-0.10213 0.06165,-0.19791 0.118269,-0.28628 0.06244,-0.0272 0.106362,-0.0693 0.141816,-0.13097 0.03202,-0.0561 0.07117,-0.13626 0.165365,-0.0789 0.02064,0.0249 0.02064,0.0545 0.01931,0.0844 -0.06826,0.16933 -0.05212,0.36565 -0.16801,0.5207 -0.0164,0.022 -0.0048,0.0622 0.0087,0.0897 0.06297,0.12779 0.08123,0.27623 0.1778,0.38867 z"
       id="path13834" />
    <path
       style="fill:#bec8b0;stroke-width:0.264583"
       d="m 65.157233,115.39328 c -0.0336,0.1524 0.01349,0.30215 0.0172,0.45349 0.0016,0.0632 0.06403,0.10293 0.101864,0.14976 0.04339,0.0534 0.07567,0.0992 0.0085,0.15584 -0.04392,0.037 -0.0426,0.0775 -0.0074,0.12038 0.124619,0.15187 0.193411,0.3138 0.129646,0.51726 -0.04075,0.13071 0.02672,0.26194 0.0291,0.39423 -0.0077,0.003 -0.01561,0.005 -0.02328,0.008 -0.09313,-0.0352 -0.111654,-0.1225 -0.112712,-0.20029 -0.0029,-0.23786 -0.09975,-0.43656 -0.191294,-0.65061 -0.06112,-0.14287 -0.210344,-0.31036 -0.102394,-0.50482 0.02249,-0.0402 -0.01164,-0.0781 -0.01508,-0.11748 0.0098,-0.0852 0.04048,-0.16933 0.005,-0.25691 -0.01693,-0.0418 0.0026,-0.0783 0.03254,-0.11139 0.07117,-0.0789 0.06747,-0.14764 -0.03731,-0.19182 -0.05927,-0.0249 -0.08308,-0.0778 -0.06165,-0.12383 0.04657,-0.10001 -0.01561,-0.14261 -0.07197,-0.20399 -0.07329,-0.0799 -0.09948,-0.17277 0.005,-0.25585 0.03731,5.3e-4 0.07514,-0.007 0.11139,0.008 0.04551,0.002 0.09128,0.002 0.129381,0.0323 0.01058,0.064 0.06747,0.11139 0.05927,0.18389 -0.0045,0.0397 0.02831,0.0619 0.06906,0.0661 0.105568,0.0108 0.156898,0.0908 0.160337,0.17569 0.004,0.0963 -0.01111,0.20611 -0.113771,0.2622 -0.04498,0.0254 -0.07858,0.0635 -0.121443,0.09 z"
       id="path13887" />
    <path
       style="fill:#8b957d;stroke-width:0.264583"
       d="m 65.991728,122.37457 c 0.0463,0.12991 0.06615,0.26644 0.08361,0.40164 0.01191,0.0923 -0.02117,0.18759 -0.03149,0.28152 -0.009,0.0831 0.0095,0.13044 0.06694,0.18468 0.101865,0.0958 0.0807,0.16377 -0.05689,0.21431 -0.09207,-0.072 -0.17489,-0.15346 -0.249238,-0.24368 -0.0095,-0.0127 -0.01879,-0.0254 -0.03228,-0.0344 l -2.65e-4,0.002 c -0.108214,-0.23151 -0.247121,-0.44053 -0.454818,-0.59531 -0.06033,-0.045 -0.110596,-0.0937 -0.101865,-0.17278 0.01085,-0.0992 -0.03889,-0.16404 -0.108215,-0.22198 -0.0074,-0.0138 -0.01111,-0.0283 -0.01164,-0.0439 0.03175,-0.0685 0.08652,-0.12039 0.130704,-0.17992 0.01349,-0.008 0.02778,-0.0108 0.04313,-0.01 0.01482,0.004 0.0344,0.0111 0.03731,0.0241 0.03784,0.17965 0.160073,0.30639 0.25744,0.4527 0.09631,0.14499 0.22225,0.23495 0.360362,0.33655 -0.04022,-0.059 -0.04471,-0.11589 -0.03651,-0.17489 0.01826,-0.0429 0.0079,-0.0907 0.02196,-0.13441 0.01932,-0.0365 0.04048,-0.0709 0.08176,-0.086 z"
       id="path13906" />
    <path
       style="fill:#a8b29a;stroke-width:0.264583"
       d="m 64.26347,120.42856 c 0.02328,0.0108 0.04921,0.0177 0.06906,0.0328 0.100807,0.0759 0.188913,0.0606 0.268552,-0.0323 0.0095,-0.0111 0.0209,-0.0204 0.03096,-0.031 0.09102,-0.0789 0.116946,-0.072 0.169598,0.0452 -0.04921,0.13996 -0.04921,0.13996 -0.02911,0.23098 0.09472,-0.0667 -0.02408,-0.17145 0.04551,-0.23865 0.02328,-0.0233 0.05159,-0.032 0.08361,-0.0299 0.08096,0.022 0.131498,0.0913 0.2032,0.13044 0.09208,0.0505 0.04313,0.13176 -0.0032,0.17992 -0.109802,0.11377 -0.15531,0.22066 -0.08043,0.38126 0.0426,0.0915 -0.0418,0.19076 -0.08652,0.28099 -0.18706,0.0484 -0.230717,0.0257 -0.236008,-0.14632 -0.0019,-0.0619 -0.01984,-0.0783 -0.07276,-0.0865 -0.06218,-0.01 -0.111918,-0.0426 -0.144991,-0.0979 -0.08758,-0.20082 -0.162984,-0.4064 -0.217488,-0.61913 z"
       id="path13912" />
    <path
       style="fill:#97a189;stroke-width:0.264583"
       d="m 65.929287,122.59153 c 0.02619,0.0617 0.03784,0.12674 0.04577,0.19209 -0.172244,0.0429 -0.191029,0.0357 -0.284163,-0.0937 -0.05953,-0.0828 -0.128852,-0.15796 -0.189441,-0.24051 -0.10848,-0.1479 -0.218811,-0.29051 -0.250032,-0.47704 -0.09075,-0.0574 -0.08361,-0.19738 -0.208227,-0.23363 -0.05794,-0.0167 -0.108214,-0.0413 -0.171979,-0.031 -0.06085,0.01 -0.101865,-0.0368 -0.144198,-0.0733 -0.05688,-0.0974 -0.102923,-0.19949 -0.132027,-0.30876 0.03598,-0.0487 0.08017,-0.0453 0.118004,-0.008 0.07805,0.0762 0.168011,0.0743 0.2667,0.0601 0.186531,-0.027 0.214577,-0.006 0.269611,0.17489 0.01799,0.0595 0.04154,0.11562 0.08678,0.16007 0.08334,0.10001 0.154517,0.20373 0.130704,0.34581 -0.009,0.0542 0.02355,0.10266 0.05953,0.13706 0.12118,0.11588 0.211402,0.26405 0.36248,0.34845 0.01296,0.007 0.02408,0.0159 0.03307,0.0273 0.0026,0.007 0.005,0.014 0.0074,0.0206 z"
       id="path13913" />
    <path
       style="fill:#8f9981;stroke-width:0.264583"
       d="m 66.941053,123.73533 c -0.06085,-0.0106 -0.121708,-0.0204 -0.182297,-0.0326 -0.02461,-0.005 -0.06165,-0.008 -0.07038,-0.0238 -0.04815,-0.0865 -0.09472,-0.12118 -0.16166,-0.0172 -0.0079,0.0124 -0.03228,0.009 -0.04154,-0.003 -0.04207,-0.0561 -0.122237,-0.0979 -0.107156,-0.17807 0.02037,-0.10821 0.01111,-0.2196 5.29e-4,-0.32147 -0.0172,-0.1643 -0.06059,-0.32543 -0.04789,-0.49424 0.0034,-0.0458 -0.02461,-0.0939 -0.06482,-0.11827 -0.115359,-0.0693 -0.144463,-0.18706 -0.163513,-0.30162 -0.0336,-0.20267 -0.07567,-0.40455 -0.08017,-0.61119 -0.0019,-0.006 -0.0034,-0.013 -0.0053,-0.0193 -0.0095,-0.0389 -0.04022,-0.0704 -0.04075,-0.11245 -7.94e-4,-0.0132 -0.0016,-0.0267 -0.0024,-0.04 0.0019,-0.0643 -0.03784,-0.11113 -0.06826,-0.16219 -0.0063,-0.0132 -0.01376,-0.0257 -0.02196,-0.0376 -0.0085,-0.013 -0.01535,-0.0262 -0.0217,-0.0402 -0.0066,-0.0143 -0.01164,-0.0291 -0.01587,-0.0444 -0.0032,-0.0161 -0.0024,-0.032 2.65e-4,-0.0479 0.02884,-0.0722 -0.02937,-0.16378 0.04842,-0.22543 0.06403,-0.0182 0.11483,0.013 0.104511,0.0709 -0.01879,0.10478 0.04418,0.1741 0.08176,0.25427 0.07223,0.15293 0.01111,0.31088 0.01905,0.46593 0.01349,0.25876 0.0717,0.49689 0.211931,0.71464 0.07303,0.0648 0.132027,0.13599 0.111654,0.24368 v -2.7e-4 c 0.03572,0.0362 0.07303,0.0693 0.06721,0.12992 -0.01508,0.1561 0.07858,0.29818 0.04233,0.46513 -0.02355,0.10901 0.101335,0.15134 0.197644,0.17516 0.11086,0.0275 0.219604,0.0534 0.248708,0.18785 5.29e-4,0.045 -0.02011,0.0841 -0.03836,0.12383 z"
       id="path13922" />
    <path
       style="fill:#d8e2ca;stroke-width:0.264583"
       d="m 66.083803,117.09243 c -0.01773,-0.0431 -0.03307,-0.0865 -0.02223,-0.13467 0.02434,-0.10927 0.0095,-0.2032 -0.09975,-0.26194 -0.0344,-0.0185 -0.0553,-0.0455 -0.04075,-0.0884 0.03493,-0.018 0.04075,0.0185 0.059,0.0312 0.08202,0.0569 0.108214,0.0487 0.137583,-0.0511 0.01905,-0.0646 0.03836,-0.12489 0.08784,-0.17648 0.06271,-0.0653 0.06747,-0.14023 0.01984,-0.22437 -0.07117,-0.12567 -0.05689,-0.15742 0.0807,-0.24024 0.07646,0.11642 0.139965,0.23945 0.181769,0.3728 -0.0042,0.0148 -0.0063,0.0331 -0.0172,0.0421 -0.175948,0.14499 -0.181239,0.33999 -0.153193,0.53472 0.06588,-0.0683 0.111654,-0.20373 0.260085,-0.11298 -0.07673,0.12568 -0.188648,0.22781 -0.232833,0.37651 -0.02328,0.0781 -0.07673,0.0836 -0.143669,0.0318 -0.04048,-0.031 -0.07832,-0.0656 -0.117211,-0.099 z"
       id="path13950" />
    <path
       style="fill:#b9c3ab;stroke-width:0.264583"
       d="m 64.107101,115.51684 c 7.94e-4,0.19103 -0.02381,0.37994 -0.07885,0.56171 -0.02355,0.0775 -0.01508,0.15161 -0.02302,0.22728 -0.0021,0.0209 -0.0024,0.0508 0.02223,0.05 0.09922,-0.003 0.07752,0.0529 0.06006,0.11139 -0.0426,0.14155 -0.01376,0.17569 0.131498,0.15425 0.02514,-0.004 0.04895,-0.0151 0.07329,-0.023 -0.0077,0.0294 -0.0058,0.0717 -0.02487,0.0857 -0.09022,0.0669 -0.137319,0.15901 -0.178858,0.25929 -0.02434,0.0585 -0.0889,0.0696 -0.145521,0.0619 -0.05715,-0.008 -0.05662,-0.0651 -0.06694,-0.10847 -0.01244,-0.0524 0.01058,-0.10002 0.02117,-0.14976 0.01799,-0.0844 0.0426,-0.17118 -0.03678,-0.2413 0.03545,-0.34158 0.118798,-0.67098 0.246591,-0.98901 z"
       id="path13955" />
    <path
       style="fill:#a6b098;stroke-width:0.264583"
       d="m 64.974935,114.58365 c -0.04101,0.004 -0.08176,0.007 -0.122767,0.0111 -0.06985,0.0968 -0.07647,0.18706 0.04127,0.24791 0.08811,0.0455 0.06509,0.11086 0.04842,0.17912 7.94e-4,0.0442 -0.01376,0.09 0.01746,0.13124 0.07435,0.0979 0.06641,0.21695 0.03969,0.31908 -0.02037,0.0781 -5.29e-4,0.13309 0.0209,0.19712 -7.94e-4,0.0151 -7.94e-4,0.0302 -5.29e-4,0.0452 0.01323,0.0582 -0.01005,0.1106 -0.02302,0.16537 -0.02355,0.099 -0.03598,0.18997 0.0635,0.26987 0.06535,0.0524 0.04683,0.14896 0.04842,0.22913 -0.0095,0.0132 -0.02249,0.0214 -0.03863,0.0246 -0.02408,0.002 -0.04471,-0.007 -0.06271,-0.0222 -0.03254,-0.0542 -0.06244,-0.11086 -0.116946,-0.14314 0.0021,0.003 -0.0026,0.003 -5.29e-4,0.005 0.02275,0.0587 0.02619,0.11113 -0.03307,0.1487 -0.01482,0.004 -0.02778,5.3e-4 -0.03916,-0.0101 v 0 c -0.09737,-0.0373 -0.144992,-0.0945 -0.105833,-0.20744 0.02011,-0.0582 -0.01879,-0.11615 -0.03836,-0.17356 -0.02011,-0.0598 -0.03889,-0.12515 -0.01191,-0.19024 0.0087,-0.0151 0.02117,-0.0265 0.03678,-0.0344 0.01482,-0.006 0.03043,-0.008 0.04498,-0.009 0.03175,-5.3e-4 0.0463,-0.0222 0.04154,-0.0497 -0.02567,-0.15081 -0.0069,-0.30004 0.0077,-0.45005 0.0079,-0.0823 -0.104511,-0.11669 -0.08467,-0.20876 -0.04154,0.064 -0.04286,0.12594 -0.03784,0.19473 0.0071,0.0982 0.01296,0.2032 -0.07726,0.27782 -0.109008,-0.0312 -0.09499,-0.11483 -0.08599,-0.19791 0.01349,-0.12436 0.06244,-0.24792 -0.0042,-0.37386 -0.02328,-0.0439 0.01402,-0.0873 0.03704,-0.12753 0.02725,-0.0481 0.06747,-0.0929 0.05159,-0.15557 0.105833,-0.12356 0.239977,-0.12859 0.384175,-0.0931 z"
       id="path13960" />
    <path
       style="fill:#9ca68e;stroke-width:0.264583"
       d="m 66.979418,123.61097 c -0.06271,-0.0804 -0.123031,-0.12515 -0.246062,-0.10028 -0.180975,0.0365 -0.328348,-0.1643 -0.278871,-0.34872 0.0053,-0.0196 0.01984,-0.0466 0.01217,-0.0582 -0.09207,-0.13865 -0.01587,-0.29184 -0.04075,-0.43551 -7.94e-4,-0.005 -0.0013,-0.0103 -0.0019,-0.0153 0.06641,0.0156 0.100012,0.0624 0.128587,0.12144 0.07937,0.16272 0.151606,0.32755 0.187325,0.50615 0.0063,0.0315 0.02223,0.0585 0.04683,0.0778 0.0725,0.0564 0.135732,0.12542 0.223573,0.16034 0.0011,0.0347 -0.01085,0.0648 -0.03096,0.0923 z"
       id="path13971" />
    <path
       style="fill:#b1bba3;stroke-width:0.264583"
       d="m 64.59076,114.67679 c 0.06509,0.0421 0.04921,0.0963 0.01561,0.14525 -0.04948,0.0725 -0.05318,0.14658 -0.04339,0.23178 0.01217,0.10557 0.0053,0.21352 0.0021,0.32041 -0.0016,0.0524 -0.0045,0.10213 0.03625,0.14234 0.06138,0.0251 0.112183,0.0601 0.123825,0.13177 0.0021,0.0138 0.0053,0.0275 0.0093,0.0407 0.0042,0.0132 0.0058,0.0267 0.005,0.0408 -0.0034,0.0132 -0.0093,0.0254 -0.01799,0.0362 -0.0093,0.01 -0.01852,0.0198 -0.02831,0.0294 0.03889,0.19606 0.04842,0.3982 0.12409,0.58632 -0.07276,0.0209 -0.145785,0.0418 -0.218546,0.0627 -0.02831,0.008 -0.06112,0.0304 -0.08414,10e-4 -0.02381,-0.0304 0.0045,-0.0569 0.02461,-0.0778 0.05821,-0.0601 0.09102,-0.13467 0.118798,-0.21061 0.02302,-0.063 0.0037,-0.0783 -0.08784,-0.0844 -0.07726,-0.0505 -0.246591,-0.39 -0.206904,-0.43789 0.07832,-0.0942 0.125413,-0.19341 0.108479,-0.31512 -0.01032,-0.0741 0.0011,-0.14075 0.03651,-0.20478 0,-0.031 0,-0.0617 2.64e-4,-0.0926 -0.01984,-0.0124 -0.03545,-0.0283 -0.04286,-0.0513 -0.01455,-0.0714 0.03942,-0.12964 0.03889,-0.19843 0.0172,-0.0423 0.04842,-0.072 0.08625,-0.0958 z"
       id="path13973" />
    <path
       style="fill:#c0cbb3;stroke-width:0.264583"
       d="m 67.380791,119.3787 c -0.07461,0.0373 -0.08334,0.10874 -0.09022,0.17938 -0.0079,0.0802 -0.01455,0.16034 -0.01746,0.24078 -0.0013,0.0431 -0.01032,0.0794 -0.04709,0.10477 -0.06271,-0.0717 -0.05662,-0.14949 -0.02143,-0.23019 0.0074,-0.006 0.01482,-0.0111 0.02196,-0.0164 0.0635,-0.20796 0.05662,-0.42175 0.05318,-0.63527 -0.0013,-0.0839 -0.01455,-0.0955 -0.107685,-0.095 -0.09446,5.3e-4 -0.138377,-0.0561 -0.114036,-0.14764 0.0013,-0.005 0.0037,-0.01 0.0053,-0.0143 0.06138,-0.18732 0.06112,-0.18706 -0.108744,-0.30374 -0.02064,-0.0143 -0.04207,-0.0309 -0.05583,-0.0513 -0.02672,-0.0397 -0.01535,-0.0728 0.0344,-0.0733 0.04471,-5.3e-4 0.08969,0.0127 0.138377,0.0204 0.04048,-0.0664 0.06032,-0.13838 0.0635,-0.2159 0.128852,0.40296 0.211931,0.81544 0.245798,1.23772 z"
       id="path13976" />
    <path
       style="fill:#dee9d1;stroke-width:0.264583"
       d="m 66.577516,116.7834 c -0.164042,0.0532 -0.21934,0.19949 -0.287338,0.3466 -0.04048,-0.0497 -0.08334,-0.0931 -0.07117,-0.15266 0.02328,-0.11218 0.01508,-0.22305 0.0056,-0.3347 -0.01138,-0.13256 0.04286,-0.22648 0.165894,-0.2794 0.03254,-0.014 0.06482,-0.0288 0.09737,-0.0434 0.03493,0.0405 0.0545,0.0881 0.06377,0.14023 0.0087,0.0262 0.0056,0.0569 0.03122,0.0762 l -0.0016,-0.004 c 0.01323,0.0204 0.0082,0.0484 0.02831,0.0659 v -2.7e-4 c -0.02884,0.0582 -0.03281,0.12144 -0.03202,0.18521 z"
       id="path13992" />
    <path
       style="fill:#79846e;stroke-width:0.264583"
       d="m 65.127864,122.15788 c 0.02408,0.019 0.0471,0.0392 0.07223,0.0566 0.06959,0.0479 0.104246,0.10795 0.08123,0.19579 -0.01217,0.0463 -0.01164,0.10372 0.04789,0.11033 0.138377,0.0154 0.191558,0.12965 0.259291,0.21934 0.07012,0.0929 0.127794,0.195 0.209815,0.27967 0.0598,0.0617 0.04948,0.11774 -0.02593,0.16034 -0.259821,-0.23178 -0.475986,-0.49874 -0.648229,-0.80116 0.0016,-0.0736 -0.09657,-0.14896 0.0037,-0.22093 z"
       id="path14020" />
    <path
       style="fill:#b0bba4;stroke-width:0.264583"
       d="m 67.413599,121.14241 c -7.94e-4,-0.10742 -0.0026,-0.21484 -0.0019,-0.32226 5.29e-4,-0.0791 -0.009,-0.1487 -0.07726,-0.20558 -0.08202,-0.068 -0.07646,-0.1741 -0.09075,-0.26909 -0.0026,-0.0172 0.0071,-0.0458 0.02037,-0.054 0.06906,-0.0426 0.05133,-0.11086 0.06694,-0.17357 0.03545,-0.14287 0.04286,-0.2786 -0.0069,-0.41857 -0.01508,-0.0423 -0.0016,-0.0918 0.01932,-0.13441 0.02514,-0.0516 0.03598,-0.10636 0.04075,-0.16272 0.04419,0.1696 0.0426,0.34449 0.05186,0.51727 0.01879,0.35745 0.01429,0.71543 0.0032,1.07315 -0.0021,0.0508 5.29e-4,0.10265 -0.02566,0.14975 z"
       id="path14041" />
    <path
       style="fill:#dae4cc;stroke-width:0.264583"
       d="m 66.082481,115.55256 c -0.01905,0.0413 -0.03836,0.0825 -0.05662,0.12409 -0.02857,0.0648 -0.07964,0.095 -0.146579,0.0783 -0.08731,-0.0214 -0.170657,-0.003 -0.255853,0.008 -0.07514,0.01 -0.15187,0.0246 -0.21881,-0.0296 v 0 c 0.0164,-0.0159 0.01508,-0.0363 0.01535,-0.0566 0.0032,-0.16193 0.05477,-0.2376 0.208227,-0.24051 0.103187,-0.002 0.198702,-0.004 0.2921,-0.0511 0.03413,-0.0172 0.05345,0.019 0.07699,0.0365 0.03995,0.036 0.0672,0.0804 0.0852,0.13097 z"
       id="path14053" />
    <path
       style="fill:#c2cdb6;stroke-width:0.264583"
       d="m 65.157233,115.39328 c 0.0127,-0.0222 0.02117,-0.0487 0.03863,-0.0656 0.06509,-0.0635 0.171979,-0.10504 0.108744,-0.22886 0.05027,-0.0452 0.09075,-0.0982 0.0095,-0.1442 -0.07858,-0.0447 -0.118534,0.0233 -0.160073,0.0751 -0.0056,0.007 -0.01667,0.009 -0.03519,0.0183 -0.03678,-0.0691 -0.02831,-0.14711 -0.04101,-0.21908 -0.0085,-0.0489 0.0024,-0.0992 -0.02514,-0.14764 -0.02963,-0.0519 0.01799,-0.0563 0.05186,-0.0653 0.167481,0.0392 0.302947,0.13256 0.422539,0.25215 -0.01984,-0.005 -0.03942,-0.0114 -0.05953,-0.0132 -0.09419,-0.008 -0.121179,0.0183 -0.07726,0.10001 0.07382,0.13812 0.02328,0.24263 -0.06138,0.34793 -0.04524,0.0561 -0.106891,0.0754 -0.171714,0.0905 z"
       id="path14067" />
    <path
       style="fill:#d3ddc5;stroke-width:0.264583"
       d="m 65.996756,115.42185 c -0.04868,-0.005 -0.04075,0.0185 -0.03678,0.0556 0.0085,0.0839 -0.0344,0.11297 -0.10742,0.0794 -0.01826,-0.008 -0.0344,-0.0225 -0.04948,-0.0363 -0.06403,-0.0569 -0.125678,-0.0466 -0.19738,-0.008 -0.147637,0.0788 -0.149489,0.0754 -0.201348,0.22092 -0.0019,-0.0407 0.01138,-0.0945 -0.01931,-0.118 -0.133086,-0.10319 -0.01376,-0.19923 0.0087,-0.29184 0.0172,-0.0704 0.09075,-0.0762 0.142875,-0.0156 0.07805,0.0905 0.156898,0.11907 0.261408,0.0429 0.03757,-0.0273 0.0889,-0.0177 0.134673,-0.0204 0.03228,0.023 0.05371,0.0537 0.06403,0.0918 z"
       id="path14086" />
    <path
       style="fill:#a3ad96;stroke-width:0.264583"
       d="m 65.311485,121.75809 c -0.06747,-0.0132 -0.109009,-0.0455 -0.108479,-0.12276 2.64e-4,-0.045 -0.01217,-0.0905 -0.02223,-0.13494 -0.01005,-0.0447 -0.04127,-0.0786 -0.08652,-0.0688 -0.183356,0.0397 -0.333375,-0.0685 -0.499004,-0.10583 -0.05212,-0.0868 -0.0852,-0.18151 -0.113507,-0.27808 0.09975,0.0315 0.201084,0.0312 0.30189,0.008 0.04101,-0.009 0.07038,-0.003 0.08837,0.036 0.01561,0.0341 -7.94e-4,0.0582 -0.02619,0.0791 -0.01191,0.01 -0.02513,0.0183 -0.03493,0.0296 -0.0725,0.0836 -0.05662,0.12938 0.05318,0.15346 0.01482,0.003 0.03043,10e-4 0.04577,0.002 0.02778,-0.007 0.04815,-0.0272 0.07223,-0.0408 0.01376,-0.004 0.02778,-0.006 0.04207,-0.005 0.01455,0 0.0291,2.7e-4 0.04366,7.9e-4 0.0553,0.0119 0.110596,0.005 0.166159,0.005 0.112977,-5.3e-4 0.157427,0.05 0.10795,0.14658 -0.0508,0.10001 0.02858,0.20347 -0.03043,0.2958 z"
       id="path14087" />
    <path
       style="fill:#6e7962;stroke-width:0.264583"
       d="m 65.127864,122.15788 c -0.0019,0.0735 0.0172,0.14764 -0.0037,0.22119 -0.125413,-0.17356 -0.228336,-0.35957 -0.30824,-0.55827 0.07435,-0.12462 0.173038,-0.0569 0.247121,-0.0148 0.109537,0.0622 0.128323,0.18124 0.068,0.29607 -0.01085,0.0206 -0.01032,0.0373 -0.0032,0.0569 z"
       id="path14165" />
    <path
       style="fill:#737e67;stroke-width:0.264583"
       d="m 66.329072,123.27019 c -0.0013,0.0603 -5.29e-4,0.12091 -0.0048,0.18097 -0.0053,0.0757 -0.01429,0.15029 0.03784,0.2167 0.01693,0.0217 0.0087,0.0479 -0.0071,0.0699 -0.07514,-0.0577 -0.145785,-0.11986 -0.207433,-0.19183 0.106363,-0.10477 0.09842,-0.21748 0.01693,-0.32993 -0.03836,-0.0529 -0.03201,-0.10531 -0.01905,-0.16113 0.08837,-0.0408 0.110861,0.0272 0.129646,0.0855 0.01455,0.0452 0.0026,0.10001 0.05397,0.12991 z"
       id="path14231" />
    <path
       style="fill:#c5d1b9;stroke-width:0.264583"
       d="m 64.508474,114.96095 c 0,0.0206 0,0.041 0,0.0617 -0.0254,0.0368 -0.05583,0.0709 -0.07488,0.11059 -0.0598,0.12383 -0.05821,0.12489 -0.208491,0.0974 0.02487,-0.0892 0.06985,-0.16748 0.127,-0.23971 0.02064,-0.0132 0.01243,-0.0442 0.03466,-0.0564 l 0.0021,-0.004 c 0.0085,-0.0116 0.0172,-0.023 0.02646,-0.0341 l -0.0019,0.003 c 0.01588,-0.0119 0.02831,-0.0259 0.03149,-0.0466 -0.0013,-0.006 7.94e-4,-0.0103 0.0069,-0.0124 0.08493,0.01 0.01191,0.0929 0.05662,0.12092 z"
       id="path14272" />
    <path
       style="fill:#8b957d;stroke-width:0.264583"
       d="m 64.72702,121.63453 c 0.06959,0.006 0.135996,0.0236 0.20955,0.004 0.06959,-0.0183 0.249767,0.11959 0.281252,0.20161 0.01614,0.0421 0.02249,0.0878 0.03334,0.13203 0,0 -0.004,0.003 -0.004,0.003 -0.04974,0.0381 -0.07408,-0.001 -0.09498,-0.0347 -0.0717,-0.11483 -0.170392,-0.17621 -0.30824,-0.17224 -0.03043,7.9e-4 -0.05556,-0.0214 -0.07752,-0.0426 -0.01323,-0.0307 -0.02619,-0.0614 -0.03942,-0.0915 z"
       id="path14273" />
    <path
       style="fill:#79836c;stroke-width:0.264583"
       d="m 64.766443,121.72555 c 0.03016,0.002 0.06033,0.005 0.09049,0.006 0.121708,0.005 0.224102,0.0423 0.289983,0.15504 0.02249,0.0384 0.05662,0.0712 0.100542,0.0892 -0.0087,0.0815 -0.06191,0.13361 -0.119592,0.18309 -0.03572,-0.0228 -0.03995,-0.0521 -0.02937,-0.0929 0.03598,-0.13732 -0.0209,-0.21907 -0.160867,-0.24183 -0.04101,-0.007 -0.08096,-0.0132 -0.121972,-0.003 -0.02699,-0.0257 -0.03969,-0.0593 -0.04921,-0.0947 z"
       id="path14278" />
    <path
       style="fill:#adb9a3;stroke-width:0.264583"
       d="m 67.383966,121.5504 c -0.0079,-0.0553 -0.0063,-0.11113 -0.02805,-0.1651 -0.05477,-0.13441 -0.05292,-0.13521 0.06033,-0.24474 -0.0011,0.13732 0.0071,0.27543 -0.03228,0.40984 z"
       id="path14392" />
    <path
       style="fill:#bdc7b0;stroke-width:0.264583"
       d="m 64.508474,114.96095 c -0.01879,-0.0402 -0.03784,-0.0804 -0.05662,-0.12065 0.0085,-0.0296 0.02699,-0.0516 0.05292,-0.0675 0.04524,0.0619 0.0037,0.12541 0.0037,0.18812 z"
       id="path14460" />
    <path
       style="fill:#d3ddc5;stroke-width:0.264583"
       d="m 66.582543,116.53601 c -0.01826,-0.0222 -0.02831,-0.0476 -0.03096,-0.0759 0.02381,0.0196 0.03043,0.0466 0.03096,0.0759 z"
       id="path14523" />
    <path
       style="fill:#d3ddc5;stroke-width:0.264583"
       d="m 66.609266,116.59793 c -0.0095,-0.022 -0.01905,-0.0439 -0.02831,-0.0659 0.02275,0.0164 0.02937,0.0394 0.02831,0.0659 z"
       id="path14524" />
    <path
       style="fill:#bdc7b0;stroke-width:0.264583"
       d="m 64.386766,114.93449 c -0.01164,0.0188 -0.02302,0.0376 -0.03466,0.0564 0.0029,-0.0241 0.01534,-0.0423 0.03466,-0.0564 z"
       id="path14530" />
    <path
       style="fill:#79846e;stroke-width:0.264583"
       d="m 65.772389,123.17864 c 0.01085,0.0114 0.02143,0.0228 0.03228,0.0344 -0.01085,-0.0116 -0.02143,-0.023 -0.03228,-0.0344 z"
       id="path14586" />
    <path
       style="fill:#bdc7b0;stroke-width:0.264583"
       d="m 64.415341,114.89639 c -0.0087,0.0114 -0.01746,0.0228 -0.02646,0.0341 0.0013,-0.0172 0.01005,-0.0283 0.02646,-0.0341 z"
       id="path14619" />
    <path
       style="fill:#bdc7b0;stroke-width:0.264583"
       d="m 64.444974,114.85273 c -0.01058,0.0154 -0.0209,0.031 -0.03149,0.0466 0.0034,-0.0204 0.01402,-0.036 0.03149,-0.0466 z"
       id="path14620" />
    <path
       style="fill:#bdc7af;stroke-width:0.264583"
       d="m 63.83511,117.88354 c -0.02434,-0.0743 -0.02222,-0.15664 -0.01482,-0.23522 0.0095,-0.10133 0.03254,-0.19976 0.03149,-0.30427 -0.0016,-0.13996 0.172244,-0.21881 0.298715,-0.1479 0.03149,0.0177 0.05794,0.041 0.07911,0.0717 0.104246,0.14949 0.112978,0.50721 0.01508,0.66199 -0.03572,0.0563 -0.09631,0.0643 -0.141552,0.0164 -0.01376,-0.0145 -0.01905,-0.0363 -0.03122,-0.0529 -0.05953,-0.0818 -0.08281,-0.0849 -0.173567,-0.0262 -0.01243,0.008 -0.02593,0.0151 -0.03969,0.0212 -0.0034,0.002 -0.0093,-0.002 -0.02355,-0.005 z"
       id="path14660" />
    <path
       style="fill:#aeb8a0;stroke-width:0.264583"
       d="m 64.786816,120.45978 c -0.04445,-0.0381 -0.08625,-0.0833 -0.154517,-0.0616 0.0029,-0.0786 -0.02831,-0.13282 -0.09869,-0.17463 -0.105569,-0.0624 -0.119063,-0.16007 -0.02011,-0.22516 0.09922,-0.0651 0.170657,-0.1606 0.273315,-0.21828 0.01005,-0.01 0.02037,-0.0201 0.03122,-0.0294 0.101071,-0.0487 0.21246,-0.0196 0.281781,0.0894 0.05424,0.0855 0.05265,0.17489 -0.03678,0.24421 0.06429,-0.0503 0.13626,-0.059 0.185737,0.01 0.05689,0.0791 0.02858,0.16113 -0.03096,0.2323 -0.1524,0.19262 -0.1524,0.19262 -0.307975,0.13335 -0.03096,0 -0.06165,0 -0.0926,0 -0.01005,0.0101 -0.02037,0.01 -0.03043,0 z"
       id="path14661" />
    <path
       style="fill:#afb9a1;stroke-width:0.264583"
       d="m 64.817508,119.78033 c -0.01032,0 -0.02064,0 -0.03069,0 0.01243,-0.12911 -0.0471,-0.25003 -0.0381,-0.37967 -0.05265,-0.007 -0.08784,0.0865 -0.13626,0.0249 -0.04921,-0.0624 -0.135203,-0.0773 -0.149755,-0.19288 -0.02037,-0.16272 -0.01667,-0.29581 0.107421,-0.41037 -0.03995,-0.054 -0.05768,-0.10213 0.03149,-0.12303 0.114829,-0.0601 0.117475,-0.0722 0.03069,-0.15452 0.01746,-0.0389 0.0553,-0.0434 0.08996,-0.0537 0.05398,-0.0143 0.130175,-0.006 0.12991,0.0423 -0.0011,0.17278 0.23495,0.19447 0.219075,0.36672 -0.005,0.054 -0.03202,0.0966 -0.08334,0.12012 -0.04418,0.0161 -0.09207,-0.0101 -0.135996,0.008 -0.03466,0.0143 -0.08811,-0.0397 -0.10451,0.022 -0.01376,0.0513 0.0042,0.1053 0.04815,0.13785 0.05424,0.04 0.09869,0.0812 0.128323,0.14605 0.08255,0.17938 -0.01693,0.31035 -0.106362,0.44608 z"
       id="path14662" />
    <path
       style="fill:#bec8b0;stroke-width:0.264583"
       d="m 64.601343,118.69898 c -0.0254,0.0373 -0.03016,0.0796 -0.03149,0.12303 -0.05371,0.0299 -0.10795,0.0585 -0.160867,0.0897 -0.103188,0.0606 -0.192088,0.0175 -0.203994,-0.10107 -0.0026,-0.0249 -0.0032,-0.0529 0.0056,-0.0759 0.03545,-0.0953 0.08308,-0.18574 0.09948,-0.28866 0.0069,-0.0421 0.04366,-0.0691 0.09102,-0.0675 0.03863,0.001 0.07223,0.0156 0.08334,0.0556 0.01746,0.0635 0.06218,0.10584 0.109273,0.14473 0.04815,0.0397 0.03704,0.0783 0.0077,0.12012 z"
       id="path14663" />
    <path
       style="fill:#adb79f;stroke-width:0.264583"
       d="m 64.909847,117.18557 c -0.08414,-0.0331 -0.161925,-0.0712 -0.257969,-0.0825 -0.160072,-0.0188 -0.229129,-0.15399 -0.287866,-0.30375 0.110331,-0.0143 0.200289,0.0516 0.299244,0.046 l -2.65e-4,2.7e-4 c 0.103981,-0.0339 0.162454,-0.0979 0.142346,-0.21432 -0.0085,-0.0495 0.01958,-0.0868 0.0426,-0.12567 -0.02223,-0.0315 -0.01852,-0.0638 -0.0026,-0.0963 0.09551,0.006 0.11721,0.0738 0.126735,0.15187 0.0066,0.0542 0.01826,0.10795 0.01244,0.16272 7.93e-4,0.0161 2.64e-4,0.0323 -0.0016,0.0484 -0.08414,0.12329 -0.0553,0.26246 -0.05636,0.39767 -0.0056,0.006 -0.01111,0.0106 -0.01667,0.0156 z"
       id="path14664" />
    <path
       style="fill:#b8c2aa;stroke-width:0.264583"
       d="m 64.508474,115.11547 c -0.01905,0.14816 0.01614,0.29527 0.0069,0.44344 -0.0029,0.0484 0.01032,0.09 -0.06165,0.0958 -0.06456,0.005 -0.05027,0.0542 -0.0299,0.0918 0.01138,0.0212 0.03281,0.0418 0.05477,0.0519 0.09551,0.0436 0.154782,0.0955 0.07276,0.20399 -0.009,0.0119 0.01217,0.0468 0.01931,0.0712 0,0.0103 0,0.0206 -2.64e-4,0.031 -0.08758,-0.0241 -0.135731,-0.0841 -0.158221,-0.16986 -0.009,-0.0344 -0.02011,-0.0693 -0.03731,-0.10002 -0.06085,-0.10953 -0.0844,-0.21748 -0.0037,-0.32861 0.02037,-0.028 0.02461,-0.0545 -0.01323,-0.0759 -0.0217,-0.0122 -0.02487,-0.0421 7.94e-4,-0.0447 0.08996,-0.01 0.08096,-0.0781 0.08731,-0.136 0.0053,-0.0532 0.01746,-0.10054 0.06244,-0.13387 z"
       id="path14665" />
    <path
       style="fill:#adb79f;stroke-width:0.264583"
       d="m 64.725168,118.5442 c -0.03096,0 -0.06218,2.7e-4 -0.09313,2.7e-4 v 0 c -0.0095,-0.0111 -0.0209,-0.0204 -0.03096,-0.031 v 0 c -0.02328,-0.0265 -0.03016,-0.0585 -0.03096,-0.0926 0.02963,-0.0664 -0.009,-0.0984 -0.06191,-0.12383 -0.07144,-0.0413 -0.08176,-0.11351 -0.09287,-0.18521 -0.09816,-0.13282 -0.09419,-0.16245 0.02408,-0.27173 0.06641,-0.0614 0.128323,-0.12779 0.192352,-0.19182 0.0066,0.003 0.01323,0.006 0.01984,0.008 0.05027,0.05 0.03228,0.10134 -0.005,0.145 -0.04022,0.0471 -0.05159,0.10583 -0.07885,0.15795 -0.06853,0.12753 0.05927,0.17145 0.113242,0.23204 0.140493,0.15769 0.147902,0.15134 0.04418,0.35269 z"
       id="path14666" />
    <path
       style="fill:#adb79f;stroke-width:0.264583"
       d="m 64.632299,117.64859 c 0.06085,-0.0799 0.106892,-0.17278 0.198702,-0.22569 0.02884,-0.0167 0.04286,-0.0442 0.04048,-0.0762 -0.0048,-0.0585 0.02566,-0.10769 0.03863,-0.16113 l 5.29e-4,-5.3e-4 c 0.127529,0.0585 0.146315,0.19341 0.151077,0.29686 0.0042,0.0918 -0.108744,0.1434 -0.211667,0.15213 -0.03492,0.003 -0.07064,0.005 -0.100277,0.0281 -0.0426,0.027 -0.08123,0.0196 -0.116946,-0.013 z"
       id="path14667" />
    <path
       style="fill:#afb9a1;stroke-width:0.264583"
       d="m 64.41587,118.11214 c 0.03704,0.0587 0.07276,0.118 0.09287,0.1852 -0.114829,-0.0431 -0.114829,-0.0431 -0.09287,-0.1852 z"
       id="path14668" />
    <path
       style="fill:#afb9a1;stroke-width:0.264583"
       d="m 64.570387,118.42091 c 0.01984,0.0278 0.02858,0.059 0.03096,0.0926 -0.03307,-0.0233 -0.05636,-0.0497 -0.03096,-0.0926 z"
       id="path14669" />
    <path
       style="fill:#b1bba3;stroke-width:0.264583"
       d="m 64.848728,116.41219 c -2.64e-4,0.0312 -5.29e-4,0.0624 -7.93e-4,0.0937 -0.02514,-0.0376 -0.03043,-0.0799 -0.03043,-0.12382 0.01032,0 0.02064,0 0.03069,2.6e-4 0.0069,0.007 0.0093,0.0132 0.0071,0.0198 -0.0021,0.007 -0.0042,0.0101 -0.0066,0.0101 z"
       id="path14670" />
    <path
       style="fill:#aeb8a0;stroke-width:0.264583"
       d="m 64.632299,120.39814 c -0.01032,0.0103 -0.02064,0.0206 -0.03096,0.031 0.01032,-0.0103 0.02064,-0.0206 0.03096,-0.031 z"
       id="path14671" />
    <path
       style="fill:#afb9a1;stroke-width:0.264583"
       d="m 64.601343,118.51377 c 0.01032,0.0103 0.02064,0.0206 0.03096,0.031 -0.01032,-0.0103 -0.02064,-0.0206 -0.03096,-0.031 z"
       id="path14672" />
    <path
       style="fill:#adb79f;stroke-width:0.264583"
       d="M 64.663256,116.84531 Z"
       id="path14673" />
    <path
       style="fill:#cad4bc;stroke-width:0.264583"
       d="m 66.561112,117.77294 c -0.0058,0.0278 -0.02328,0.0439 -0.05133,0.0447 -0.01667,5.2e-4 -0.0299,-0.0109 -0.02752,-0.0281 0.004,-0.0283 0.02461,-0.0426 0.05186,-0.0447 0.01693,-10e-4 0.02672,0.0101 0.02699,0.0281 z"
       id="path14750" />
    <path
       style="fill:#cfdac2;stroke-width:0.264583"
       d="m 67.041066,120.39814 c -0.212725,-0.046 -0.373063,-0.1577 -0.448733,-0.36857 -0.01455,-0.0402 -0.03704,-0.0577 -0.07303,-0.0685 -0.02037,-0.006 -0.03784,-0.0193 -0.03572,-0.0429 0.0026,-0.0294 0.02461,-0.0495 0.0508,-0.0487 0.08493,0.002 0.143669,-0.0471 0.203729,-0.0953 0.01984,-0.0159 0.03704,-0.031 0.0164,-0.0624 -0.07673,-0.11721 -0.06059,-0.2249 0.03281,-0.32809 0.04101,-0.0452 0.07223,-0.0995 0.105834,-0.15081 0.02593,-0.0394 0.0553,-0.0754 0.09869,-0.0945 0.05477,-0.0241 0.110332,-0.0741 0.17198,-0.0357 0.07355,0.0455 0.07329,0.12991 0.08202,0.20584 0.0013,0.0106 -0.01243,0.0278 -0.02381,0.0339 -0.01455,0.008 -0.03069,-0.002 -0.03836,-0.0159 -0.01746,-0.031 -0.02858,-0.0664 -0.04974,-0.0945 -0.02593,-0.0341 -0.06297,-0.031 -0.09604,-0.008 -0.02275,0.0156 -0.04022,0.0505 -0.0217,0.0653 0.119327,0.0955 0.09948,0.26908 0.210608,0.3675 l -2.64e-4,-2.6e-4 c -0.04207,0.0786 0.01032,0.16907 -0.03043,0.24791 l 2.64e-4,-5.3e-4 c -0.01508,0.019 -0.0048,0.0392 -0.0019,0.059 7.94e-4,0.014 -5.29e-4,0.0278 -0.0042,0.0413 -0.03149,0.0815 -0.0254,0.17912 -0.117475,0.23363 -0.06244,0.0368 0.02858,0.11589 -0.03175,0.16034 z"
       id="path14751" />
    <path
       style="fill:#c3cdb5;stroke-width:0.264583"
       d="m 66.794474,120.46031 c 0.0042,0.0765 0.08917,0.0997 0.109538,0.15611 0.02117,0.0585 -0.07805,0.0907 -0.07276,0.15954 0.0019,0.0254 7.94e-4,0.0521 0.0077,0.0762 0.01984,0.0701 -0.01111,0.11298 -0.06271,0.15849 -0.144462,0.12726 -0.150812,0.21246 -0.03307,0.36724 0.03784,0.0497 0.0852,0.0926 0.05053,0.16325 0.01085,0.063 -0.03466,0.0868 -0.07726,0.11483 -0.08017,0.0526 -0.142875,0.12514 -0.20955,0.19288 -0.07673,0.0553 -0.141552,0.0318 -0.204523,-0.0273 -0.06112,-0.0574 -0.02831,-0.10768 -0.01376,-0.17594 0.03122,-0.14817 0.06985,-0.29052 0.135467,-0.42678 0.01799,-0.0373 -5.3e-4,-0.0796 -0.03678,-0.0878 -0.15928,-0.0357 -0.211932,-0.15848 -0.255059,-0.29263 -0.0042,-0.0138 -0.01799,-0.0246 -0.02725,-0.037 -0.04762,-0.0799 -0.02725,-0.1696 -0.03334,-0.25479 -0.0048,-0.0638 0.02804,-0.10848 0.104775,-0.0863 0.0032,0.0357 0.0079,0.0714 0.009,0.10716 0.0019,0.0614 0.01773,0.0934 0.09287,0.0828 0.106892,-0.0151 0.159279,0.0561 0.12065,0.15558 -0.01455,0.0376 -0.04286,0.0696 -0.06429,0.10425 -0.01667,0.0272 -0.0291,0.0566 -0.0037,0.0847 0.02249,0.0246 0.05292,0.031 0.08467,0.0233 0.04048,-0.01 0.09128,-0.0244 0.102394,-0.0609 0.03916,-0.127 0.130704,-0.25241 0.03466,-0.39211 -0.03387,-0.049 -0.04524,-0.10001 -0.02302,-0.15399 0.02858,-0.004 0.0299,0.0124 0.03493,0.0259 0.04551,0.12726 0.07805,0.13864 0.181769,0.0624 0.01693,-0.0124 0.03228,-0.0262 0.04815,-0.0392 z"
       id="path14752" />
    <path
       style="fill:#c4ceb6;stroke-width:0.264583"
       d="m 65.805726,118.76142 c 0.08123,-0.0381 0.126207,0.0323 0.185209,0.0614 -2.65e-4,0.19447 0.0635,0.38126 0.06826,0.57494 5.29e-4,0.023 0.01217,0.0402 0.03254,0.0471 0.05794,0.0199 0.107685,0.0574 0.169333,0.0696 0.111125,0.0217 0.113771,0.0251 0.07382,0.12144 -0.0291,0.0696 -0.05715,0.13335 0.02514,0.1868 0.01693,0.0108 0.02408,0.0339 0.01693,0.055 -0.01085,0.0312 -0.03889,0.0302 -0.06403,0.0275 -0.03043,-0.003 -0.06006,-0.0109 -0.09022,-0.0159 -0.08149,-0.0135 -0.114829,0.0225 -0.0889,0.10002 0.02117,0.0635 0.06165,0.11615 0.100277,0.17092 0.07646,0.10768 0.05318,0.18917 -0.05742,0.23839 -0.05821,-0.0357 -0.107421,-0.0818 -0.173831,-0.10875 -0.121444,-0.0492 -0.08282,-0.16616 -0.08864,-0.26246 0.0079,-0.0852 -0.01879,-0.17304 0.0291,-0.25506 0.02381,-0.0405 0.01005,-0.0754 -0.03069,-0.10425 -0.0799,-0.0569 -0.103717,-0.12303 -0.05424,-0.22198 0.07329,-0.14605 0.0066,-0.30824 0.03016,-0.46223 0.0063,-0.0415 -0.03836,-0.0654 -0.07091,-0.0857 -0.06615,-0.0418 -0.05927,-0.087 -0.01191,-0.13679 z"
       id="path14753" />
    <path
       style="fill:#b9c2aa;stroke-width:0.264583"
       d="m 65.959714,120.02772 c 7.94e-4,0.0307 0.0013,0.0617 0.0026,0.0923 0.0032,0.0757 0.0381,0.11483 0.118268,0.10107 0.01508,-0.003 0.03069,-0.005 0.04604,-0.004 0.09472,0.004 0.115623,0.0368 0.08096,0.12805 -0.0071,0.0188 -0.02064,0.0355 -0.03122,0.0529 0,0.0206 0,0.041 0,0.0617 -0.100277,0.11403 -0.04233,0.21219 0.03096,0.30877 0.02646,0.0341 0.01349,0.0577 -0.02011,0.0757 -0.15875,-0.0434 -0.174361,-0.19844 -0.239978,-0.31274 -0.02222,-0.0386 -0.02831,-0.0876 -0.04842,-0.12938 -0.0066,-0.014 -0.01085,-0.0288 -0.01323,-0.0442 0.01085,-0.1135 -0.0979,-0.23839 0.03281,-0.34051 0.01535,-0.004 0.0291,-5.3e-4 0.04127,0.0101 z"
       id="path14754" />
    <path
       style="fill:#bec8b0;stroke-width:0.264583"
       d="m 65.959714,120.02772 c -0.01005,0 -0.02037,0 -0.03043,-2.6e-4 -0.04048,-0.0127 -0.0553,-0.05 -0.06112,-0.0828 -0.04895,-0.27755 -0.179387,-0.5416 -0.139965,-0.83423 0.0098,-0.0728 0.0045,-0.14208 -0.05953,-0.19526 -0.0291,-0.0241 -0.02752,-0.0638 -0.0336,-0.0995 -0.04339,-0.25691 -0.113506,-0.51197 -0.136525,-0.76861 -0.01984,-0.22093 -0.07646,-0.44133 -0.05159,-0.66622 0.0071,-0.004 0.01429,-0.008 0.02117,-0.0119 0.04048,0.0315 0.08096,0.063 0.121444,0.0942 0.104246,0.0635 0.0029,0.16722 0.04736,0.24236 0.0011,0.014 0.0021,0.028 0.0037,0.0418 -0.0013,0.0622 0.03307,0.10345 0.07223,0.14896 0.05477,0.064 0.11086,0.13652 0.05053,0.23045 -0.02328,0.0363 -0.01667,0.0804 0.02037,0.0902 0.148167,0.0397 0.09181,0.12356 0.05106,0.20585 -0.01164,0.0236 -0.01032,0.0495 -0.01429,0.0746 5.29e-4,0.0159 -0.0029,0.0304 -0.0085,0.045 -0.03149,0.0529 -0.08731,0.0905 -0.09816,0.15663 0.01005,0.0106 0.02011,0.0209 0.03016,0.0312 0.0095,0.0109 0.02222,0.0188 0.03122,0.0304 0.01032,2.6e-4 0.02064,2.6e-4 0.03096,5.3e-4 0.0082,0.0241 0.0098,0.0545 0.02566,0.0714 0.186796,0.19632 0.189706,0.41169 0.0762,0.64399 -0.03969,0.0812 -0.03122,0.10345 0.05953,0.13097 0.06641,0.0201 0.09631,0.0624 0.06165,0.11033 -0.07038,0.0966 -0.04577,0.20717 -0.06958,0.30983 z"
       id="path14755" />
    <path
       style="fill:#c4ceb6;stroke-width:0.264583"
       d="m 65.713651,118.69925 c -0.0019,-0.0638 0.01588,-0.12436 0.03043,-0.18548 l 2.65e-4,2.7e-4 c -0.0344,-0.0236 -0.06668,-0.0497 -0.07964,-0.091 -0.0093,-0.0296 -0.0164,-0.0624 0.01005,-0.0865 0.02328,-0.0212 0.04762,-0.006 0.06959,0.008 0.03228,0.0204 0.0672,0.0384 0.09207,-0.006 0.02487,-0.0439 -0.01191,-0.0645 -0.04233,-0.0847 -0.04075,-0.0267 -0.07382,-0.0606 -0.06826,-0.11245 0.0095,-0.0894 -0.0344,-0.15981 -0.07885,-0.22834 -0.03493,-0.0537 -0.05927,-0.10742 -0.05715,-0.17197 0.0217,-0.0101 0.0209,-0.0204 2.65e-4,-0.031 -0.03122,-0.0823 0.02249,-0.16484 -2.65e-4,-0.24712 0.01931,0.007 0.05265,0.01 0.0553,0.0206 0.02117,0.0847 0.08573,0.15001 0.104775,0.23336 0.01561,0.0693 0.009,0.14499 0.112713,0.14764 0.02646,7.9e-4 0.03069,0.0376 0.03307,0.0635 0.005,0.0542 -0.0172,0.0984 -0.0463,0.14314 -0.06482,0.10027 -0.06297,0.10133 0.04895,0.16404 l 2.64e-4,2.6e-4 c 0.02275,0.1016 -0.01852,0.20161 -0.0087,0.30348 0.0037,0.0373 -0.03016,0.0619 -0.06191,0.082 -0.03942,0.0246 -0.07646,0.0519 -0.1143,0.0778 z"
       id="path14756" />
    <path
       style="fill:#d3ddc5;stroke-width:0.264583"
       d="m 66.200749,117.92931 c 0.0087,0.004 0.02222,0.007 0.02514,0.0138 0.01667,0.0415 0.04339,0.0836 0.009,0.12806 -0.0037,0.005 -0.0209,0.005 -0.02805,7.9e-4 -0.03651,-0.0214 -0.03757,-0.0643 -0.0061,-0.14261 z"
       id="path14757" />
    <path
       style="fill:#bec8b0;stroke-width:0.264583"
       d="m 65.436103,117.18451 c 0.09022,0.0479 0.07117,0.11456 0.03175,0.18441 0,0 -0.0026,0.002 -0.0026,0.002 -0.04577,0.0244 -0.06668,-0.0106 -0.09022,-0.0384 -0.0069,-0.0132 -0.01111,-0.0275 -0.0127,-0.0423 -0.0021,-0.0527 0.03043,-0.0815 0.07144,-0.10451 z"
       id="path14758" />
    <path
       style="fill:#c4ceb6;stroke-width:0.264583"
       d="m 65.77477,118.76089 c -0.01032,-0.0101 -0.02064,-0.0201 -0.03122,-0.0304 0.01058,0.0101 0.0209,0.0204 0.03122,0.0304 z"
       id="path14759" />
    <path
       style="fill:#d3ddc5;stroke-width:0.264583"
       d="m 65.897801,118.23596 v 0 c 2.65e-4,2.7e-4 0,0 0,0 z"
       id="path14760" />
    <path
       style="fill:#b7c1a9;stroke-width:0.264583"
       d="m 66.45422,121.78826 c 0.09155,-0.11219 0.199231,-0.20214 0.33946,-0.24739 0.07594,0 0.152136,0.013 0.179123,-0.0952 0.01191,-0.0479 0.06668,-0.0376 0.09843,2.7e-4 0.03466,0.0413 0.03175,0.096 0.04339,0.14525 0.0079,0.0333 0.02619,0.0728 -0.01376,0.0971 -0.02963,0.018 -0.06271,0.003 -0.08493,-0.0172 -0.09789,-0.0905 -0.159014,0.0145 -0.228864,0.046 -0.0717,0.0326 -0.09234,0.10531 -0.08096,0.1831 0.01032,0.0709 0.04419,0.0947 0.116417,0.0873 0.08599,-0.009 0.146844,-0.0685 0.218546,-0.10636 -0.01005,0.0341 -0.02355,0.0675 -0.02963,0.10213 -0.03281,0.18388 -0.265907,0.20293 -0.384175,0.11535 -0.04233,-0.0315 -0.07144,-0.023 -0.109802,-0.005 -0.05106,0.0241 -0.10848,0.0524 -0.156105,0.006 -0.04736,-0.046 -0.01746,-0.10424 0,-0.1569 0.06138,-0.0333 0.06482,-0.10107 0.09287,-0.15451 z"
       id="path14892" />
    <path
       style="fill:#cbd5bd;stroke-width:0.264583"
       d="m 67.041066,120.39814 c -0.01587,-0.0529 -0.0672,-0.0743 -0.09975,-0.11219 -0.02064,-0.0238 -0.0336,-0.0526 -0.02381,-0.0841 0.01217,-0.0386 0.04604,-0.0352 0.07594,-0.0307 0.07911,0.0117 0.113771,-0.0286 0.119062,-0.10133 0.0032,-0.0429 0.01455,-0.0796 0.05212,-0.10451 0.01058,-0.0206 0.02117,-0.0413 0.03175,-0.0617 0.04419,0.0574 0.0553,0.11906 0.02355,0.18574 -0.05106,0.10821 -0.05398,0.24394 -0.178858,0.30877 z"
       id="path14893" />
    <path
       style="fill:#cbd5bd;stroke-width:0.264583"
       d="m 67.195847,119.90442 c 0.0037,-0.0833 -0.01561,-0.16959 0.03043,-0.24791 0,0.0823 -2.64e-4,0.16457 -5.29e-4,0.24686 -0.0098,5.2e-4 -0.01984,0.001 -0.0299,0.001 z"
       id="path14894" />
    <path
       style="fill:#b0baa2;stroke-width:0.264583"
       d="m 65.928758,120.36771 c 0.01085,0.0106 0.0291,0.0198 0.03149,0.032 0.03122,0.16431 0.144463,0.28708 0.2159,0.43075 -0.02619,0.12514 0.02381,0.20637 0.141288,0.25214 0.09816,0.0381 0.127,0.091 0.07752,0.20109 -0.04657,0.10345 -0.09657,0.21166 -0.08731,0.33708 0.0037,0.0503 0.0013,0.14181 -0.09975,0.13679 0,0 -0.0011,-8e-4 -0.0011,-8e-4 -0.01085,-0.0942 0.0127,-0.18838 -0.03307,-0.28469 -0.02355,-0.0495 0.01561,-0.12832 0.0254,-0.19394 0.02302,-0.15187 -0.01826,-0.19844 -0.176213,-0.20108 -0.107421,-0.20797 -0.111125,-0.43657 -0.129116,-0.66199 -0.0019,-0.0204 0.01693,-0.0357 0.03493,-0.0474 z"
       id="path14949" />
    <path
       style="fill:#9ca68e;stroke-width:0.264583"
       d="m 65.928758,120.36771 c 0.03201,0.18045 0.0463,0.36274 0.06429,0.54478 0.0056,0.0553 0.01958,0.1098 0.02963,0.16483 0.0934,0.11351 0.114035,0.23813 0.10451,0.38709 -0.01138,0.18018 -0.04154,0.36803 0.04736,0.54425 0.03228,0.0638 0.03545,0.13917 0.03228,0.21193 0.02831,0.0431 0.06429,0.0807 0.09287,0.12356 v -2.7e-4 c 0.02037,0.0312 0.02487,0.0624 -2.64e-4,0.0937 -0.0807,-0.0746 -0.152136,-0.15266 -0.130175,-0.27701 0.0042,-0.0233 -0.0037,-0.0521 -0.01455,-0.0743 -0.100013,-0.20294 -0.07223,-0.41937 -0.06694,-0.63262 0.0019,-0.0789 -0.0016,-0.15134 -0.04286,-0.22093 -0.04419,-0.0743 -0.08969,-0.14869 -0.0926,-0.24024 -0.0011,-0.0325 -0.02646,-0.054 -0.05397,-0.0701 -0.06324,-0.0482 -0.05265,-0.11325 -0.04551,-0.18045 0.01323,-0.12356 0.0053,-0.24421 -0.06562,-0.35295 -0.01931,-0.0296 -0.03731,-0.064 -0.0381,-0.0992 -0.0034,-0.17992 -0.04022,-0.36116 0.01826,-0.53896 0.105569,-0.0495 0.113771,0.0246 0.114035,0.0955 0.0011,0.17568 0.01402,0.34925 0.04736,0.52149 z"
       id="path14950" />
    <path
       style="fill:#9ca68e;stroke-width:0.264583"
       d="m 66.299703,122.43781 c 0,-0.0312 2.65e-4,-0.0624 2.65e-4,-0.0937 0.0291,0.0347 0.05609,0.0714 0.08811,0.10318 0.06165,0.0611 0.07329,0.12859 0.03572,0.20585 -0.03307,-0.0765 -0.05715,-0.15849 -0.12409,-0.21537 z"
       id="path14951" />
    <path
       style="fill:#9ca68e;stroke-width:0.264583"
       d="m 66.299968,122.34441 c -0.04736,-0.0288 -0.08123,-0.068 -0.09287,-0.12356 0.04683,0.0294 0.08123,0.0677 0.09287,0.12356 z"
       id="path14952" />
    <path
       style="fill:#bbc5ad;stroke-width:0.264583"
       d="m 66.207628,121.75783 c 0.04948,-0.0386 0.0598,-0.0923 0.06086,-0.15108 0.0013,-0.077 0.0079,-0.15398 0.0069,-0.23071 -5.29e-4,-0.0537 0.005,-0.1016 0.04921,-0.13891 0.05847,-0.0495 0.03678,-0.09 -0.02037,-0.11747 -0.06165,-0.0299 -0.115623,-0.0661 -0.151077,-0.12621 -0.03572,-0.0603 -0.03995,-0.11615 0.02275,-0.16246 0.01032,-0.0206 0.0209,-0.0413 0.03122,-0.0619 0.0061,0.0193 0.02064,0.04 0.0172,0.0574 -0.02461,0.13017 0.04022,0.19711 0.152665,0.245 0.09419,0.0402 0.111125,0.0823 0.0926,0.1823 -0.01111,0.0598 -0.0336,0.11562 0.0061,0.17568 0.03387,0.0511 0.0037,0.0762 -0.04948,0.0741 -0.05265,-0.002 -0.07964,0.0153 -0.06429,0.0709 0.01243,0.045 -0.0095,0.0783 -0.03149,0.11325 -0.02805,0.0447 -0.02408,0.0881 0.0172,0.12303 0.04313,0.0365 0.07461,0.003 0.106363,-0.0222 -0.0013,0.0355 -2.65e-4,0.0709 -0.0045,0.1061 -0.0066,0.055 -0.04181,0.0632 -0.08811,0.0484 -0.02487,-0.0836 -0.128323,-0.10213 -0.153723,-0.18521 z"
       id="path14990" />
    <path
       style="fill:#96a189;stroke-width:0.264583"
       d="m 65.991728,122.37457 c -2.64e-4,0.0415 -5.29e-4,0.0828 -7.93e-4,0.12409 -0.01402,0.009 -0.02884,0.0109 -0.04471,0.006 -0.06747,-0.0442 -0.119327,-0.10795 -0.188383,-0.15055 -0.05953,-0.0368 -0.07752,-0.0892 -0.05847,-0.15557 0.0029,-0.068 0.04815,-0.11774 0.0762,-0.17489 0.133879,-0.29052 -0.02064,-0.52308 -0.156104,-0.75671 -0.03572,-0.0619 -0.07937,-0.11854 -0.09657,-0.18944 -0.0048,-0.0138 -0.0079,-0.0278 -0.0093,-0.0421 -0.0082,-0.0812 0.01508,-0.16008 0.02699,-0.23866 0.01561,-0.10345 0.0074,-0.19896 -0.03651,-0.29289 -0.01931,-0.0836 -0.04154,-0.16642 -0.03731,-0.25374 0.0029,-0.0622 0.01931,-0.11006 0.0926,-0.11271 0.0598,0.0273 0.07091,0.0834 0.08281,0.13917 0.0077,0.036 0.0254,0.0664 0.05027,0.0929 0.147902,0.1569 0.126735,0.32941 0.04286,0.50509 -0.068,0.14288 0.04392,0.22331 0.106363,0.32173 0.03863,0.0659 0.09049,0.12542 0.118533,0.195 0.02408,0.0593 0.03757,0.13097 -0.03202,0.18018 0.0056,0.13626 -0.01482,0.27438 0.0418,0.4064 0.0254,0.0593 -0.0093,0.11986 -0.01058,0.18045 0.02196,0.0492 0.06324,0.0945 0.03069,0.15452 v 0 c -0.01693,0.0212 -0.01905,0.0418 0.0016,0.0616 z"
       id="path15088" />
    <path
       style="fill:#78826a;stroke-width:0.264583"
       d="m 65.929287,121.57209 c 0.02699,-0.14922 -0.0725,-0.24024 -0.155311,-0.33919 -0.03254,-0.0564 -0.06959,-0.10875 -0.09419,-0.17119 -0.04498,-0.11324 0.04657,-0.15981 0.103452,-0.20346 0.05583,-0.0429 0.08705,0.0254 0.09498,0.077 0.01217,0.0796 0.0071,0.16245 0.05133,0.23522 v 0 c 0.0082,0.009 0.01349,0.019 0.01561,0.0307 0.0021,0.0119 0.0074,0.022 0.01614,0.0304 v 2.7e-4 c 0.04127,0.0773 0.03413,0.16669 0.06138,0.24738 v 0 c 0.02302,0.0516 0.02355,0.10319 -2.65e-4,0.15479 v 0 c -0.03784,-0.0111 -0.06562,-0.0363 -0.09313,-0.0619 z"
       id="path15089" />
    <path
       style="fill:#656f57;stroke-width:0.264583"
       d="m 66.329072,123.27019 c -0.05821,0.018 -0.07964,-0.0177 -0.09631,-0.0638 -0.02011,-0.0556 -0.0336,-0.11509 -0.08705,-0.15134 l 2.65e-4,-2.6e-4 c -0.0037,-0.0868 -0.08202,-0.20532 0.09234,-0.2159 v 0 c 0.0079,0.007 0.01085,0.0138 0.0082,0.0206 -0.0026,0.007 -0.005,0.0106 -0.0077,0.0106 0.04048,0.13097 0.119063,0.2532 0.09022,0.40005 z"
       id="path15090" />
    <path
       style="fill:#727c64;stroke-width:0.264583"
       d="m 66.238056,122.83865 c -0.100013,0.0423 -0.08969,0.13177 -0.09234,0.2159 -0.01852,-0.0312 -0.03016,-0.0651 -0.02963,-0.10133 0.0021,-0.11721 -0.0071,-0.23336 -0.02858,-0.34899 -0.0045,-0.0241 -0.0019,-0.054 0.02672,-0.0648 0.03387,-0.013 0.05768,0.009 0.07805,0.0323 0.02196,0.0251 0.02302,0.0561 0.01931,0.0868 -0.0071,0.0627 0.01508,0.12065 0.02646,0.18018 z"
       id="path15091" />
    <path
       style="fill:#8b957d;stroke-width:0.264583"
       d="m 65.990935,122.31346 c -0.01032,-0.0516 -0.02037,-0.10319 -0.03069,-0.15452 0.05583,0.0426 0.07064,0.0931 0.03069,0.15452 z"
       id="path15092" />
    <path
       style="fill:#8b957d;stroke-width:0.264583"
       d="m 65.991464,122.37484 c -0.01535,-0.0204 -0.01535,-0.0408 -5.29e-4,-0.0614 2.64e-4,0.0206 5.29e-4,0.041 5.29e-4,0.0614 z"
       id="path15093" />
    <path
       style="fill:#727c64;stroke-width:0.264583"
       d="m 66.238585,122.86987 c -2.65e-4,-0.0103 -2.65e-4,-0.0209 -5.29e-4,-0.0312 2.64e-4,0.0106 2.64e-4,0.0209 5.29e-4,0.0312 z"
       id="path15094" />
    <path
       style="fill:#b1bba3;stroke-width:0.264583"
       d="m 65.433722,117.18583 c -0.01032,0.0413 -0.02037,0.0823 -0.03069,0.12356 -0.08229,0.0111 -0.09102,-0.0598 -0.10213,-0.10716 -0.05212,-0.21801 -0.111654,-0.43338 -0.199495,-0.63976 -0.02593,-0.0611 -0.03175,-0.11959 -0.0056,-0.18071 -0.0093,-0.077 -0.02805,-0.14764 -0.08308,-0.20875 -0.120914,-0.13415 -0.128323,-0.22622 -0.04339,-0.38524 0.01429,-0.0267 0.02249,-0.0566 0.03334,-0.0852 0.01032,-0.0183 0.02064,-0.0183 0.03122,0 0.03201,0.0728 0.0344,0.14896 0.02514,0.22648 -0.0024,0.0204 -0.01482,0.0439 -0.0085,0.0603 0.04418,0.11219 0.06482,0.23734 0.116152,0.33999 0.08652,0.17357 0.173566,0.34052 0.175948,0.53843 0.0011,0.11483 0.01693,0.22463 0.09102,0.31803 z"
       id="path15100" />
    <path
       style="fill:#b2bca4;stroke-width:0.264583"
       d="m 65.033672,115.70231 c -0.01032,0 -0.02064,0 -0.03122,0 -2.64e-4,-0.01 -2.64e-4,-0.0201 -2.64e-4,-0.0302 -0.0299,-0.0487 -0.04604,-0.0955 -0.0336,-0.15769 0.02328,-0.11721 0.05345,-0.23892 -0.059,-0.33735 -0.05159,-0.0452 0.04789,-0.10186 5.29e-4,-0.15425 0.0011,-0.0685 -0.01164,-0.12409 -0.0762,-0.16986 -0.133615,-0.0945 -0.125942,-0.15875 0.01826,-0.25823 0.004,0.10345 0.0013,0.20346 0.128852,0.25161 0.04789,0.018 0.06588,0.0796 0.03122,0.14579 -0.04498,0.0862 -0.03466,0.0945 0.05662,0.13123 0.03678,0.0148 0.09313,0.004 0.106098,0.0497 0.01614,0.0561 0.0019,0.12039 -0.04286,0.15664 -0.07752,0.0624 -0.07646,0.13546 -0.0553,0.21854 0.01508,0.059 0.005,0.11219 -0.04313,0.15399 z"
       id="path15101" />
    <path
       style="fill:#97a189;stroke-width:0.264583"
       d="m 65.960243,122.49893 c 0.01032,0 0.02037,0 0.03069,0 -0.0079,0.0392 -0.02857,0.0701 -0.06165,0.0929 l -2.65e-4,-2.7e-4 c -0.01243,-0.0124 -0.02487,-0.0246 -0.02699,-0.0434 7.93e-4,-0.0119 0.0042,-0.0228 0.01058,-0.0328 0.0085,-0.008 0.01852,-0.014 0.0299,-0.0172 0.0061,2.7e-4 0.01191,5.3e-4 0.01773,8e-4 z"
       id="path15133" />
    <path
       style="fill:#adb79f;stroke-width:0.264583"
       d="m 64.909847,120.46005 c 0.147109,0.0196 0.202936,-0.0974 0.278077,-0.18547 0.03784,0.0214 0.08969,0.0262 0.0971,0.0831 -0.01005,0.0556 -0.01085,0.11059 0.0087,0.16457 0.0042,0.0251 0.0077,0.0553 0.0344,0.0627 0.05715,0.0159 0.129646,0.008 0.157163,0.0733 0.03863,0.091 0.06641,0.18733 0.06509,0.28787 -5.29e-4,0.0344 -0.01773,0.0688 0.0085,0.10054 v 0 c 0.02752,0.0378 0.01482,0.0669 -0.02434,0.0823 -0.04022,0.0156 -0.07911,0.005 -0.110331,-0.0249 -0.03519,-0.0336 -0.0508,-0.0876 -0.106098,-0.0984 -0.0058,10e-4 -0.01164,10e-4 -0.0172,0.002 -0.08837,0.0505 -0.102129,0.14764 -0.13335,0.22834 -0.02699,0.0699 -0.06509,0.10662 -0.133879,0.11959 -0.01005,0.0106 -0.02143,0.0198 -0.03096,0.0307 -0.0336,-0.002 -0.06509,-0.0108 -0.0926,-0.0307 -0.0217,-0.0288 -0.09578,-0.036 -0.02487,-0.0987 0.08943,-0.0791 0.08652,-0.10054 0.03545,-0.21061 -0.01058,-0.023 -0.02355,-0.0452 -0.03281,-0.0688 -0.02884,-0.073 -0.02302,-0.13441 0.04445,-0.18971 0.05821,-0.0474 0.116946,-0.0979 0.160602,-0.177 -0.06271,-0.0476 -0.13679,-0.0841 -0.183092,-0.15108 z"
       id="path15140" />
    <path
       style="fill:#a2ac94;stroke-width:0.264583"
       d="m 64.786816,120.45978 c 0.01032,0 0.02037,2.7e-4 0.03069,2.7e-4 0.01534,0.0132 0.03148,0.0257 0.04577,0.04 0.0799,0.0794 0.08281,0.10345 0.02302,0.19526 -0.03942,0.0603 -0.08916,0.13441 -0.160602,0.1196 -0.07355,-0.0151 -0.05768,-0.10716 -0.06429,-0.1696 -0.01244,-0.12462 -0.0071,-0.12938 0.125413,-0.18548 z"
       id="path15141" />
    <path
       style="fill:#a8b29a;stroke-width:0.264583"
       d="m 65.033672,121.35593 c 0.02778,-0.1151 0.09393,-0.21484 0.131498,-0.32517 0.02699,-0.0799 0.07514,-0.1323 0.146315,-0.16907 0.07091,0.0418 0.111389,0.1098 0.156104,0.17542 0.02249,0.0331 0.0545,0.0669 0.09128,0.01 0.116417,0.13679 0.190236,0.30084 0.289719,0.44847 0.0085,0.0124 0.01799,0.028 0.01773,0.0418 -0.0034,0.17674 0.05477,0.35348 0.0026,0.53049 -0.0071,-0.001 -0.01402,-0.003 -0.02117,-0.004 -0.06932,-0.0452 -0.105569,-0.10478 -0.10451,-0.19182 0.0021,-0.14209 -0.111919,-0.19765 -0.211402,-0.26062 -0.02249,-0.0143 -0.0508,-0.0135 -0.06932,0.0111 -0.01773,0.0236 -0.01429,0.0529 0.0042,0.0709 0.137583,0.13309 0.153194,0.33576 0.274902,0.47731 0.0013,0.007 0.0026,0.014 0.004,0.0212 0.0026,0.0638 0.04524,0.0968 0.09446,0.127 0.06747,0.0413 0.117475,0.0958 0.120386,0.18071 v 0 c -0.01111,0.009 -0.02011,0.0206 -0.03043,0.0307 l -2.65e-4,5.3e-4 c -0.02011,0.0153 -0.0095,0.0471 -0.03281,0.0606 -0.118005,-0.0108 -0.217223,-0.0489 -0.264319,-0.17145 -0.01296,-0.0339 -0.04762,-0.0508 -0.07779,-0.0701 -0.118268,-0.0754 -0.170656,-0.19764 -0.16166,-0.32438 0.0077,-0.10821 -0.03069,-0.1852 -0.08149,-0.2667 -0.09049,-0.11879 -0.04075,-0.24183 0.0066,-0.38549 -0.113771,0.0545 -0.196586,-8e-4 -0.284692,-0.0172 z"
       id="path15142" />
    <path
       style="fill:#96a189;stroke-width:0.264583"
       d="m 65.896743,122.59074 c 0.01085,-0.0201 0.02196,-0.0405 0.03281,-0.0606 0,0.0204 -2.64e-4,0.0407 -2.64e-4,0.0611 -0.01111,0 -0.02196,-2.7e-4 -0.03254,-5.3e-4 z"
       id="path15143" />
    <path
       style="fill:#869078;stroke-width:0.264583"
       d="m 65.929022,121.17072 c -0.06879,-0.0497 -0.05636,-0.12726 -0.06747,-0.19685 -0.004,-0.0251 -0.0087,-0.0545 -0.03493,-0.0654 -0.0381,-0.0159 -0.05133,0.0212 -0.07223,0.041 -0.04736,0.0447 -0.0553,0.0966 -0.02831,0.15425 0.01931,0.0418 0.04577,0.081 0.04762,0.12912 -0.06165,-0.0357 -0.08705,-0.0995 -0.121444,-0.15611 -0.02672,-0.0436 -0.02937,-0.0892 -0.0026,-0.1315 0.06244,-0.0992 0.05159,-0.21933 0.09578,-0.32385 0.01905,-0.0445 0.0026,-0.0831 -0.03466,-0.10795 -0.07488,-0.05 -0.103717,-0.12461 -0.12065,-0.20716 0.04392,-0.0662 -0.02725,-0.13812 0.01032,-0.20453 0.108479,-0.0669 0.121179,0.0185 0.134143,0.0892 0.01826,0.10001 -0.0042,0.21008 0.05715,0.26432 -0.05159,-0.20982 -0.149225,-0.44477 -0.07805,-0.70274 0.01244,-0.009 0.02672,-0.014 0.04233,-0.0145 0.0069,0.003 0.01349,0.007 0.02037,0.0106 0.05424,0.136 0.01826,0.28311 0.05292,0.42281 0.01958,0.0783 0.02725,0.15928 0.05212,0.23759 0.05345,0.16854 0.04207,0.34158 0.01799,0.51383 0.0095,0.0825 0.01958,0.1651 0.02963,0.24791 z"
       id="path15155" />
    <path
       style="fill:#818c74;stroke-width:0.264583"
       d="m 66.022156,121.47922 c -0.04419,-0.0765 -0.059,-0.16033 -0.06138,-0.24738 0.06588,0.0714 0.06138,0.15981 0.06138,0.24738 z"
       id="path15156" />
    <path
       style="fill:#818c74;stroke-width:0.264583"
       d="m 66.021891,121.63401 c 0,-0.0516 2.65e-4,-0.10319 2.65e-4,-0.15479 0.03387,0.0516 0.0336,0.10319 -2.65e-4,0.15479 z"
       id="path15157" />
    <path
       style="fill:#818c74;stroke-width:0.264583"
       d="m 65.960772,121.23184 c -0.01032,-0.0103 -0.0209,-0.0204 -0.03122,-0.0307 0.01032,-0.0119 0.02037,-0.0119 0.03016,2.6e-4 7.94e-4,0.0101 0.0011,0.0201 0.0011,0.0304 z"
       id="path15158" />
    <path
       style="fill:#869078;stroke-width:0.264583"
       d="m 65.959978,121.20141 c -0.01005,0 -0.02011,-2.6e-4 -0.03016,-2.6e-4 -5.29e-4,-0.0103 -7.94e-4,-0.0204 -5.29e-4,-0.0307 0.01005,0.0106 0.02037,0.0206 0.03069,0.0309 z"
       id="path15159" />
    <path
       style="fill:#96a088;stroke-width:0.264583"
       d="m 65.619989,120.08963 c -0.0029,0.0733 0.01032,0.1487 -0.0299,0.21696 -0.01058,-0.0519 -0.02117,-0.10372 -0.03149,-0.15584 -0.04339,-0.0109 -0.07197,-0.0384 -0.08758,-0.0796 -0.0082,-0.0145 -0.0127,-0.0302 -0.01376,-0.0466 0.02249,-0.22807 0.03122,-0.45508 -0.06032,-0.67283 -0.0011,-0.10927 -0.0381,-0.2122 -0.07461,-0.31168 -0.07752,-0.21087 -0.0079,-0.42413 -0.02514,-0.63526 -0.005,-0.0611 -0.0024,-0.12277 -0.0066,-0.18415 -0.0217,-0.15188 -0.124355,-0.26803 -0.178859,-0.40535 -0.02064,-0.031 -0.05133,-0.0489 -0.08202,-0.068 -0.03784,-0.0238 -0.06985,-0.0799 -0.04789,-0.10346 0.183092,-0.19552 -0.05106,-0.3511 -0.04948,-0.53049 0.0011,-0.10953 -0.02725,-0.21986 0.009,-0.3294 0,-0.01 -2.65e-4,-0.0198 -5.3e-4,-0.0296 -0.05477,-0.0982 -0.04948,-0.20558 -0.04418,-0.31194 0.0045,-0.0892 0.04418,-0.13388 0.138642,-0.0915 0.01032,0.0103 0.02037,0.0206 0.03069,0.031 0.02593,0.0344 0.03413,0.0707 0.02276,0.1143 -0.01244,0.0479 0.0042,0.10927 0.03625,0.127 0.157163,0.0878 0.115623,0.23998 0.135467,0.3728 -0.09975,0.0746 -0.135467,-0.0206 -0.178329,-0.059 0.01878,0.11059 0.06271,0.22913 0.08996,0.35216 0.02487,0.0804 0.04419,0.16298 0.0852,0.23759 0.113506,0.32994 0.163777,0.67548 0.245533,1.01309 0.01296,0.0532 0.0095,0.10981 0.0037,0.16484 -0.01932,0.18547 0.06906,0.35719 0.06773,0.54028 5.29e-4,0.0889 -5.29e-4,0.17806 0.06429,0.25082 0.0061,0.0156 0.0098,0.032 0.01191,0.0487 0.02434,0.17515 -0.02223,0.34739 -0.02328,0.52149 -0.0026,0.008 -0.0048,0.0156 -0.0071,0.0238 z"
       id="path15225" />
    <path
       style="fill:#9ca68e;stroke-width:0.264583"
       d="m 64.662991,115.70258 c -0.03757,-0.0561 -0.04418,-0.12277 -0.06165,-0.18548 5.29e-4,-0.15928 -0.0026,-0.31856 0.0026,-0.47757 0.0032,-0.10054 0.04313,-0.13679 0.128323,-0.13652 0.09208,2.6e-4 0.169598,0.0577 0.09737,0.15663 -0.03307,0.0452 -0.03969,0.0767 0.0024,0.1188 0.02619,0.0262 0.02381,0.0648 0.02037,0.10213 -0.01402,0.15636 -0.04392,0.31406 0.0336,0.46407 0.0063,0.0127 0.0071,0.031 0.0042,0.0452 -0.0098,0.0484 0.0034,0.11721 -0.05398,0.13414 -0.07197,0.0214 -0.09287,-0.0436 -0.11139,-0.0982 0.07514,-0.12991 -0.05265,-0.245 -0.01323,-0.37227 -2.64e-4,0.0871 0.0672,0.18071 -0.04868,0.24898 z"
       id="path15226" />
    <path
       style="fill:#8f9981;stroke-width:0.264583"
       d="m 64.662991,115.70258 c 0.01085,-0.11907 -0.03916,-0.23337 -0.0299,-0.3519 0.0037,-0.0466 -0.01588,-0.12039 0.06191,-0.11509 0.059,0.004 0.05953,0.0595 0.06509,0.11721 0.01111,0.11403 0.02408,0.23045 0.0508,0.34157 0.02196,0.0923 0.0011,0.12568 -0.08599,0.13177 -2.64e-4,-0.0101 -5.29e-4,-0.0201 -7.93e-4,-0.0302 -0.01244,-0.008 -0.02143,-0.0198 -0.0299,-0.0318 h -2.65e-4 c -0.01905,-0.0164 -0.01164,-0.0458 -0.03096,-0.0616 z"
       id="path15227" />
    <path
       style="fill:#9ca68e;stroke-width:0.264583"
       d="m 65.034466,116.35028 c -0.0934,0.0246 -0.127794,0.0918 -0.121973,0.18097 0.0048,0.0746 0.01826,0.14843 0.02778,0.22278 -0.0463,-0.0516 -0.06085,-0.11377 -0.06112,-0.18124 -2.65e-4,-0.0553 7.93e-4,-0.11086 -0.03016,-0.1606 0,-0.0101 -2.65e-4,-0.0201 -5.29e-4,-0.0299 -0.0019,-0.0511 -0.0291,-0.0942 -0.04339,-0.14129 -0.02196,-0.0725 -0.03889,-0.14737 0.04366,-0.19843 l -2.64e-4,-2.7e-4 c 0.01429,0.0624 0.05397,0.10716 0.104775,0.14129 0.06033,0.0405 0.08228,0.0974 0.08123,0.16669 z"
       id="path15228" />
    <path
       style="fill:#9ca68e;stroke-width:0.264583"
       d="m 65.249308,117.00036 c -0.01349,-0.0378 -0.04233,-0.0778 -0.03784,-0.11351 0.01349,-0.10927 -0.02487,-0.18018 -0.119591,-0.23495 -0.04392,-0.0254 -0.0553,-0.0831 -0.04868,-0.13626 0.0056,-0.045 0.01455,-0.0897 0.02196,-0.13441 0.01032,2.7e-4 0.02037,2.7e-4 0.03069,2.7e-4 0.0209,0.0349 0.03916,0.0706 0.04339,0.11271 0.0029,0.0302 0.004,0.0683 0.02223,0.0876 0.13679,0.14552 0.115358,0.34052 0.165894,0.51249 0.02143,0.073 0.03122,0.15002 0.07594,0.21458 l -2.64e-4,2.7e-4 c 0.02355,0.0264 0.0217,0.0556 0.0087,0.0857 -0.10795,0.037 -0.09816,-0.0648 -0.13335,-0.11324 -0.0056,-0.014 -0.0098,-0.0283 -0.0127,-0.0431 -0.01191,-0.072 -0.04551,-0.14155 -0.02249,-0.21722 0.0021,-0.007 0.004,-0.0138 0.0061,-0.0209 z"
       id="path15229" />
    <path
       style="fill:#b1bba3;stroke-width:0.264583"
       d="m 64.910112,115.02286 c 0.02778,0.0746 0.03784,0.15293 0.07964,0.22569 0.04948,0.0857 0.0095,0.1905 0.02011,0.28654 0.0048,0.045 -0.0045,0.0915 -0.0074,0.13732 -0.07223,-0.0489 -0.104245,-0.10609 -0.05874,-0.19447 0.03995,-0.0781 0.02487,-0.16695 -0.01429,-0.23574 -0.04339,-0.0762 -0.04233,-0.14393 -0.01931,-0.21934 z"
       id="path15230" />
    <path
       style="fill:#9ca68e;stroke-width:0.264583"
       d="M 64.848464,116.0423 Z"
       id="path15231" />
    <path
       style="fill:#9ca68e;stroke-width:0.264583"
       d="m 64.694212,115.76396 c 0.01005,0.0106 0.01984,0.0212 0.0299,0.0318 -0.01032,-2.7e-4 -0.02037,-2.7e-4 -0.03069,-2.7e-4 2.65e-4,-0.0103 5.29e-4,-0.0209 7.94e-4,-0.0315 z"
       id="path15232" />
    <path
       style="fill:#9ca68e;stroke-width:0.264583"
       d="m 64.662991,115.70258 c 0.01032,0.0204 0.02064,0.041 0.03122,0.0614 -0.01032,-0.0206 -0.0209,-0.041 -0.03122,-0.0614 z"
       id="path15237" />
    <path
       style="fill:#a8b29a;stroke-width:0.264583"
       d="m 65.002716,121.38662 c 0.01032,-0.0103 0.02064,-0.0206 0.03096,-0.0307 -0.01032,0.0103 -0.02064,0.0204 -0.03096,0.0307 z"
       id="path15331" />
    <path
       style="fill:#a8b29a;stroke-width:0.264583"
       d="m 65.55887,121.04689 c -0.0471,-0.11826 -0.09446,-0.23653 -0.141552,-0.3548 -0.0093,-0.003 -0.02037,-0.0114 -0.02725,-0.009 -0.0545,0.0214 -0.107685,0.082 -0.167481,0.027 -0.06085,-0.0561 -0.01111,-0.12514 -0.0034,-0.18864 -0.01217,-0.0561 0.03995,-0.0992 0.03096,-0.15452 -0.02566,-0.0275 -0.05053,-0.0556 -0.06165,-0.0926 0.0066,-0.0138 0.01561,-0.027 0.01905,-0.0415 0.01058,-0.0468 0.01508,-0.10081 -0.0418,-0.1143 -0.05318,-0.0124 -0.0598,0.0421 -0.07382,0.0796 -0.0087,0.0238 -0.01773,0.0479 -0.02911,0.0704 -0.0098,0.0193 -0.02805,0.0336 -0.04948,0.0267 -0.05239,-0.0172 -0.07937,-0.0622 -0.102923,-0.10742 -0.02408,-0.0466 0.0042,-0.0762 0.03889,-0.10293 0.02831,-0.0217 0.05821,-0.0423 0.08176,-0.0685 0.03493,-0.0386 0.04101,-0.0894 0.004,-0.12489 -0.0598,-0.0577 -0.114564,-0.1344 -0.217223,-0.11112 0,-0.0926 -0.0011,-0.18203 0.05477,-0.2667 0.03969,-0.0603 -0.01349,-0.18971 -0.07646,-0.22357 -0.128323,-0.0693 -0.159808,-0.13388 -0.122766,-0.26882 0.01191,-0.0439 0.03625,-0.0847 0.05688,-0.13097 0.04921,0.002 0.04313,0.0704 0.08969,0.0699 0.04075,-5.3e-4 0.08255,-0.002 0.121179,0.0172 0.05133,0.2413 0.19394,0.37994 0.442383,0.41804 0.07541,0.0116 0.07117,0.10107 0.08255,0.1651 0.02831,0.1651 0.117211,0.32279 0.06165,0.49795 v 0 c -0.01773,0.0196 -0.01958,0.0466 -0.03096,0.0685 -0.0979,0.19288 -0.0852,0.24527 0.0926,0.36381 0.06165,0.10742 0.07435,0.21404 0.0209,0.33258 -0.03069,0.0683 -0.03519,0.14843 -0.05133,0.2233 z"
       id="path15442" />
    <path
       style="fill:#a6b098;stroke-width:0.264583"
       d="m 65.434781,119.53321 c -0.02937,-0.0431 -0.05927,-0.0844 -0.120915,-0.0802 -0.09895,0.006 -0.185738,-0.0635 -0.292629,-0.0378 -0.06165,0.0148 -0.102659,-0.0315 -0.07594,-0.10848 0.01323,-0.0381 0.01693,-0.0871 -0.01217,-0.11853 -0.06985,-0.0757 -0.02672,-0.14182 0.0077,-0.21088 0.09075,-0.11615 0.09207,-0.12991 -0.0048,-0.20822 -0.04498,-0.0362 -0.08414,-0.0741 -0.102658,-0.12991 -0.01746,-0.0527 -0.04974,-0.0889 -0.108215,-0.0947 -0.0079,-0.0243 -0.02858,-0.054 -0.02143,-0.0725 0.0598,-0.15452 -0.05609,-0.23125 -0.139965,-0.31909 -0.06218,-0.0651 -0.117475,-0.12991 -0.116681,-0.22569 0.08414,-0.0765 0.173567,-0.13335 0.292894,-0.0775 0.01905,0.0116 0.04022,0.0188 0.06165,0.0254 0.252148,0.0222 0.289454,0.25135 0.251089,0.45429 -0.01323,0.0693 -0.0463,0.13494 -0.02461,0.21431 0.07779,-0.11589 0.167746,-0.22198 0.05556,-0.36301 -0.02223,-0.028 -0.01852,-0.0696 -0.0042,-0.10451 0.0426,-0.10477 0.05424,-0.21775 0.08996,-0.32438 0.0063,-0.003 0.0127,-0.007 0.01905,-0.0103 0.02302,0.0198 0.04948,0.0418 0.05054,0.0722 0.0053,0.13811 0.0807,0.25691 0.101864,0.39026 -0.05979,0.18388 0.0074,0.38153 -0.06138,0.56409 0.151342,0.15795 0.06879,0.38841 0.173831,0.56092 0.0098,0.0696 0.0725,0.14393 -0.01852,0.20425 z"
       id="path15443" />
    <path
       style="fill:#a6b098;stroke-width:0.264583"
       d="m 64.940803,116.78366 c 0.01482,0.14023 0.05556,0.27755 0.04762,0.42069 -0.0034,0.0617 0.01085,0.11906 0.05821,0.16695 0.06641,0.0677 0.09419,0.14182 0.02593,0.22966 -0.04286,0.0553 -0.01799,0.0929 0.04604,0.11086 0.02408,0.007 0.04657,0.0193 0.06985,0.0294 l -0.0013,0.002 c -0.03043,0.0987 -0.101865,0.14658 -0.199761,0.16325 -0.03122,0.005 -0.07091,0.0116 -0.08652,-0.0124 -0.05953,-0.0915 -0.15822,-0.15848 -0.175948,-0.27649 0.0717,-0.0386 0.156369,-0.045 0.224632,-0.0947 0.04789,-0.0349 0.08096,-0.0677 0.03572,-0.12303 -0.05186,-0.0632 -0.03149,-0.14975 -0.07461,-0.21484 -0.07937,-0.14076 -0.06985,-0.27464 0.03016,-0.40164 z"
       id="path15444" />
    <path
       style="fill:#acb69e;stroke-width:0.264583"
       d="m 64.724639,117.61789 c 0.0217,0.0294 0.0508,0.0492 0.08202,0.0672 0.02646,0.0151 0.04895,0.0423 0.07673,0.0487 0.06218,0.0145 -0.0066,0.10504 0.0635,0.10478 0.06244,-2.7e-4 0.115623,-0.0362 0.170921,-0.0622 0.02302,-0.0109 0.04604,-0.022 0.06906,-0.0328 0.03651,0.11192 0.04683,0.22066 -0.02487,0.32544 -0.02064,0.0302 -0.02752,0.0701 0.01852,0.091 0.09102,0.0418 0.0717,0.1143 0.05001,0.18415 -0.01217,0.0389 -0.03122,0.0767 -0.05292,0.11139 -0.03863,0.0614 -0.06879,0.12065 -0.06509,0.19949 0.0034,0.0701 -0.04498,0.0863 -0.103187,0.0458 -0.03572,-0.0249 -0.06006,-0.0574 -0.0635,-0.10107 -0.0069,-0.0863 -0.0299,-0.17436 0.01826,-0.25691 0.05583,-0.0955 0.01826,-0.1905 -0.0029,-0.28495 -0.0095,-0.0421 -0.03731,-0.0744 -0.08176,-0.0844 -0.03545,-0.008 -0.07117,-0.0132 -0.0934,-0.0468 -0.02037,-0.0241 -0.04101,-0.0235 -0.06165,-2.6e-4 -0.0926,-0.0548 -0.185208,-0.0548 -0.277812,2.6e-4 0.02725,-0.0434 0.06085,-0.0815 0.103452,-0.10953 0.06165,-0.0405 0.08387,-0.0982 0.08202,-0.16854 0.03122,-0.0101 0.06191,-0.0204 0.0926,-0.0307 z"
       id="path15445" />
    <path
       style="fill:#b0baa2;stroke-width:0.264583"
       d="m 65.404089,117.40147 c -2.65e-4,-0.0307 -7.94e-4,-0.0614 -0.0011,-0.0921 0.02064,0.0206 0.04154,0.041 0.06218,0.0617 0.03784,0.20214 0.03889,0.41222 0.08387,0.6088 0.0418,0.18257 0.01402,0.37757 0.10742,0.55219 0.0336,0.0627 0.01958,0.15108 0.02566,0.22807 0.0037,0.0468 0.0037,0.0998 0.04313,0.12779 0.08546,0.0603 0.09313,0.12595 0.05927,0.22305 -0.02805,0.0804 -0.01879,0.17462 0.0056,0.25955 0.0336,0.11695 0.03228,0.23945 0.09049,0.35508 0.04366,0.087 0.0344,0.20055 0.04868,0.30215 -0.01746,0.064 -0.02937,0.12753 0.0013,0.19182 0.02328,0.049 0.0095,0.099 -0.0019,0.14817 -0.05318,-0.14949 -0.08652,-0.30242 -0.07038,-0.46223 0.0074,-0.0728 -0.0011,-0.13282 -0.08255,-0.1569 0,0 -7.93e-4,5.3e-4 -7.93e-4,5.3e-4 -0.01058,-0.0108 -0.02064,-0.022 -0.03016,-0.0339 -0.02328,-0.0717 -0.02725,-0.1487 -0.0635,-0.2167 -0.0016,-0.0156 -0.0019,-0.0309 -0.0019,-0.0466 -0.02487,-0.16828 0.0034,-0.34317 -0.06403,-0.50615 -0.01217,-0.0355 -0.02355,-0.0712 -0.03757,-0.10583 -0.0079,-0.013 -0.01349,-0.0267 -0.01905,-0.0408 -0.0071,-0.0138 -0.01005,-0.0288 -0.01217,-0.0439 -0.004,-0.0299 -7.93e-4,-0.0595 0.0069,-0.0884 0.01164,-0.0463 -0.01296,-0.081 -0.03889,-0.11483 -0.03228,-0.0691 -0.05027,-0.14235 -0.0635,-0.2167 -2.65e-4,-0.0439 -0.02037,-0.0855 -0.01614,-0.12991 0.0021,-0.036 -0.0061,-0.0701 -0.0164,-0.10398 -0.0026,-0.0267 0.0034,-0.0534 0.0013,-0.0802 -5.29e-4,-0.0259 -0.01111,-0.05 -0.01535,-0.0754 -0.0056,-0.0193 -0.0069,-0.0392 -0.0061,-0.0593 0,-0.0135 0.0019,-0.0267 0.0032,-0.0402 -0.01879,-0.11006 -0.0042,-0.22357 -0.03731,-0.33178 -0.0024,-0.0138 -0.0029,-0.0278 -0.0016,-0.0418 0.0042,-0.0214 0.01667,-0.0381 0.03149,-0.0532 0.0032,-0.006 0.0066,-0.0119 0.0098,-0.0182 z"
       id="path15509" />
    <path
       style="fill:#cad4bc;stroke-width:0.264583"
       d="m 65.589562,117.7105 c 0.02593,-0.0108 0.05027,-0.0421 0.0799,-0.0122 0.01482,0.0148 0.01455,0.0407 0,0.0556 -0.02963,0.0296 -0.05397,-0.002 -0.0799,-0.0124 0,-0.0103 0,-0.0206 0,-0.031 z"
       id="path15510" />
    <path
       style="fill:#bec8b0;stroke-width:0.264583"
       d="M 65.744078,118.51377 Z"
       id="path15511" />
    <path
       style="fill:#9ea890;stroke-width:0.264583"
       d="m 65.589562,120.49101 c -0.05424,-0.0148 -0.110067,-0.0249 -0.16219,-0.045 -0.126471,-0.0492 -0.155046,-0.17092 -0.05927,-0.26856 0.04577,-0.0468 0.106097,-0.0796 0.159808,-0.11879 0.01005,0.0307 0.02037,0.0614 0.03043,0.0923 -0.01693,0.11562 -0.03545,0.23151 0.03122,0.33999 z"
       id="path15687" />
    <path
       style="fill:#a8b29a;stroke-width:0.264583"
       d="m 65.868697,122.06766 c -0.0172,0.0651 -0.05741,0.10715 -0.123296,0.12356 0,0 -0.0019,-0.002 -0.0019,-0.002 -0.02514,-0.10716 0.01587,-0.14843 0.123032,-0.12329 z"
       id="path15688" />
    <path
       style="fill:#96a189;stroke-width:0.264583"
       d="m 65.929551,122.52962 c 0.01005,-0.0103 0.02037,-0.0206 0.03043,-0.0307 -0.01005,0.0103 -0.02011,0.0206 -0.03043,0.0307 z"
       id="path15712" />
    <path
       style="fill:#aeb8a0;stroke-width:0.264583"
       d="m 65.249837,120.36718 c 0.0426,0.0622 -0.0029,0.10663 -0.03096,0.15452 -0.02566,-0.0177 -0.07408,-0.0243 -0.03307,-0.0736 0.02223,-0.0265 0.03069,-0.0632 0.06403,-0.081 z"
       id="path15715" />
    <polygon
       style="fill:#a8b29a"
       points="106.083,104.892 106.049,104.85 106.069,104.839 "
       id="polygon15715"
       transform="matrix(0.26458333,0,0,0.26458333,37.243692,93.109012)" />
    <path
       style="fill:#afb9a1;stroke-width:0.264583"
       d="m 65.866581,122.06581 c -0.04921,0.0328 -0.09049,0.0738 -0.123032,0.12329 -0.117739,-0.028 -0.201612,-0.0807 -0.213254,-0.22066 -0.0069,-0.0849 -0.04604,-0.16193 -0.138642,-0.20585 -0.07329,-0.0347 -0.08176,-0.0953 -0.05054,-0.1696 0.03757,-0.09 0.07779,-0.11509 0.163248,-0.10265 0.125148,0.018 0.304006,0.19394 0.319352,0.33522 0.009,0.082 0.03281,0.15955 0.04286,0.24025 z"
       id="path15716" />
    <path
       style="fill:#7a846c;stroke-width:0.264583"
       d="m 65.743814,119.74938 c 0.02831,0.10557 -0.0011,0.21854 0.02143,0.31909 0.03334,0.15054 0.04736,0.30453 0.08652,0.45349 0.01191,0.045 0.01878,0.091 0.01005,0.13758 -0.0048,0.0249 -0.01111,0.0548 -0.04604,0.0484 -0.02355,-0.004 -0.0299,-0.0283 -0.02487,-0.0487 0.02408,-0.095 0.0032,-0.17066 -0.08176,-0.22781 -0.04339,-0.0291 -0.03678,-0.0781 -0.03731,-0.12594 -0.0011,-0.0746 0.01402,-0.15584 -0.05212,-0.2159 0,0 0,0 0,0 -0.03413,-0.18388 0.0085,-0.37624 -0.06085,-0.55642 v 0 c -0.0063,-0.0987 0.0095,-0.1987 -0.01852,-0.29633 -0.0291,-0.0635 0.01693,-0.1307 -0.01138,-0.19579 -0.01535,-0.0349 -0.0085,-0.077 0.02963,-0.0923 0.05424,-0.022 0.06615,0.0294 0.08546,0.0632 0.01005,0.0177 0.01879,0.0363 0.02514,0.0556 0.0381,0.13229 -0.02117,0.28257 0.07329,0.40507 v -5.3e-4 c 0.0172,0.0146 0.01614,0.0341 0.01508,0.054 -0.01905,0.0503 -0.01402,0.10239 -0.01217,0.15425 0.0024,0.0127 0.0056,0.0249 0.0098,0.037 0.0037,0.0132 0,0.0238 -0.01138,0.032 z"
       id="path15719" />
    <path
       style="fill:#9ca68e;stroke-width:0.264583"
       d="m 65.743814,119.74938 c -2.65e-4,-0.0101 -5.29e-4,-0.0204 -7.94e-4,-0.0304 0.01058,-0.0111 0.02143,-0.0114 0.03228,-5.3e-4 0,0.0103 0,0.0204 -2.64e-4,0.0304 -0.01032,2.6e-4 -0.02064,5.3e-4 -0.03122,5.3e-4 z"
       id="path15720" />
    <path
       style="fill:#808a72;stroke-width:0.264583"
       d="m 65.651474,119.10062 c -0.02328,-0.0318 -0.04657,-0.0632 -0.09287,-0.12621 0,0.1151 0,0.19791 0,0.28073 -0.01032,0.0156 -0.02064,0.0156 -0.03096,0 -0.02593,-0.2159 -0.130968,-0.42228 -0.08017,-0.6477 -0.07012,-0.19976 -0.05503,-0.41672 -0.121973,-0.61701 -0.03678,-0.11086 -0.04313,-0.23204 -0.119063,-0.33047 -0.02858,-0.037 -0.01984,-0.0886 -0.01852,-0.13493 0.03678,-0.0196 0.06509,0.001 0.07038,0.0312 0.01323,0.0754 0.0762,0.082 0.128059,0.10583 0.02937,0.0561 0.01191,0.12594 0.05106,0.17939 0.0058,0.0124 0.01005,0.0257 0.01244,0.0392 0.0093,0.0534 -0.01323,0.1098 0.01376,0.16192 0.0061,0.0122 0.01296,0.0241 0.02037,0.0355 0.01191,0.0167 0.0254,0.0325 0.02725,0.0542 5.29e-4,0.0209 5.29e-4,0.0421 5.29e-4,0.063 0.0058,0.055 -0.0172,0.11482 0.02593,0.16404 0.0016,0.0569 0.04472,0.10451 0.03678,0.16351 0.01323,0.0389 0.01323,0.0802 0.01905,0.12012 0.0042,0.0124 0.0077,0.0251 0.01032,0.0381 0.0011,0.0259 5.29e-4,0.0519 7.94e-4,0.0778 0,0.013 0,0.0259 2.65e-4,0.0386 0.0029,0.0325 0.01561,0.0627 0.02249,0.0944 0.0061,0.0119 0.01164,0.0241 0.0172,0.0363 0.0095,0.0257 0.02064,0.0508 0.02646,0.0775 0.01005,0.0352 0.01773,0.0699 -0.01958,0.095 z"
       id="path15730" />
    <path
       style="fill:#9ca68e;stroke-width:0.264583"
       d="m 65.435045,119.31705 c -0.0553,-0.0423 -0.06694,-0.10319 -0.06033,-0.16537 0.01376,-0.13282 -0.03598,-0.23627 -0.124883,-0.33178 -0.07699,-0.0825 -0.0725,-0.0873 -0.0021,-0.1823 0.03572,-0.0484 0.04551,-0.1016 0.03334,-0.15954 -0.02117,-0.10028 0.0058,-0.19024 0.05953,-0.27411 -0.0071,0.19738 0.03307,0.39449 0.004,0.59187 0.108214,0.15796 0.03598,0.35798 0.121708,0.52123 -0.01032,0.0106 -0.0209,0.0111 -0.03122,0 z"
       id="path15731" />
    <path
       style="fill:#858e76;stroke-width:0.264583"
       d="m 65.095585,117.30886 c -0.04445,-0.16722 -0.08546,-0.33496 -0.09128,-0.50906 -7.93e-4,-0.0243 -0.0026,-0.0574 0.02752,-0.0648 0.03598,-0.009 0.06218,0.018 0.06429,0.0492 0.0074,0.10478 0.07779,0.16166 0.153194,0.21617 v -2.7e-4 c 0.03466,0.0789 0.0079,0.1733 0.06218,0.24712 v 0 c 0.01217,0.0336 -0.0019,0.0582 -0.02619,0.0796 -0.01296,0.007 -0.02699,0.0101 -0.0418,0.0103 -0.04948,-0.008 -0.09155,-0.055 -0.147902,-0.0283 z"
       id="path15732" />
    <path
       style="fill:#747e66;stroke-width:0.264583"
       d="m 65.095585,117.30886 c 0,-0.005 -7.94e-4,-0.01 2.64e-4,-0.0151 0.01217,-0.0577 -0.03545,-0.15372 0.04921,-0.16298 0.07223,-0.008 0.07435,0.0913 0.09816,0.14869 0.0037,0.009 0.005,0.0193 0.0077,0.0288 0.09128,0.0929 0.111919,0.2159 0.143404,0.33417 -0.0026,0.0148 -0.01005,0.0267 -0.02117,0.0365 -0.06826,0.0294 -0.1143,0.005 -0.143405,-0.0595 -0.01402,-0.0315 -0.02778,-0.0632 -0.04154,-0.0947 -0.01773,-0.0775 -0.0598,-0.14473 -0.0926,-0.2159 z"
       id="path15733" />
    <path
       style="fill:#9ea890;stroke-width:0.264583"
       d="m 65.435045,119.31705 c 0.01032,0 0.02064,0 0.03122,-2.7e-4 0.03069,0.19844 0.06271,0.39661 0.09102,0.59532 0.0071,0.05 -0.0021,0.10107 -0.02937,0.14605 0.01032,-0.12515 -0.02355,-0.24263 -0.05847,-0.36037 -0.01588,-0.0534 -0.02328,-0.1098 -0.03466,-0.16457 0.03969,-0.072 0.005,-0.14419 2.64e-4,-0.21616 z"
       id="path15734" />
    <path
       style="fill:#869078;stroke-width:0.264583"
       d="m 65.559135,119.53295 c 0.06562,0.11668 0.06165,0.245 0.06138,0.3728 0,0.0611 -2.65e-4,0.1225 -5.29e-4,0.18362 -0.0093,-0.0288 -0.02672,-0.0577 -0.02593,-0.0863 0.004,-0.15795 -0.02408,-0.31326 -0.03493,-0.47016 z"
       id="path15735" />
    <path
       style="fill:#869078;stroke-width:0.264583"
       d="m 65.527649,119.25514 c 0.01032,0 0.02064,0 0.03096,0 0.03942,0.0926 0.03863,0.1852 5.29e-4,0.27781 -0.04974,-0.0881 -0.02461,-0.18468 -0.03149,-0.27781 z"
       id="path15736" />
    <path
       style="fill:#96a088;stroke-width:0.264583"
       d="m 65.372868,117.67928 c 7.94e-4,-0.0103 7.94e-4,-0.0204 5.29e-4,-0.0307 -0.0291,-0.11377 -0.07646,-0.22252 -0.09313,-0.33973 0.01032,-0.0206 0.0209,-0.0413 0.03122,-0.0619 0.03096,0.0516 0.06165,0.10292 0.0926,0.15452 v 0 c 0.01852,0.0206 0.01799,0.0418 0.0011,0.063 7.94e-4,0.009 0.0011,0.018 0.0011,0.027 0.02699,0.12356 0.01296,0.2503 0.02725,0.37492 -0.06218,-0.0487 -0.06218,-0.11748 -0.06059,-0.18706 z"
       id="path15737" />
    <path
       style="fill:#96a088;stroke-width:0.264583"
       d="m 65.311485,117.24695 c -0.08387,-0.0664 -0.05609,-0.16087 -0.06218,-0.24712 0.04418,0.0767 0.05847,0.1606 0.06218,0.24712 z"
       id="path15738" />
    <path
       style="fill:#9da78f;stroke-width:0.264583"
       d="m 64.733899,118.15235 c -0.05874,0.004 -0.08758,-0.0302 -0.106098,-0.0751 -0.01296,-0.0317 -0.0024,-0.0606 0.02355,-0.0817 0.03784,-0.0307 0.07885,-0.022 0.113507,0.003 0.03889,0.0275 0.112977,0.0394 0.09816,0.0992 -0.01349,0.0545 -0.08493,0.0423 -0.129117,0.055 z"
       id="path15788" />
    <path
       style="fill:#adb79f;stroke-width:0.264583"
       d="m 64.724903,117.92666 c -0.01217,-0.0214 -0.02831,-0.0418 -0.03598,-0.0648 -0.01508,-0.0452 0.0011,-0.0815 0.04895,-0.0902 0.04366,-0.008 0.06509,0.0222 0.06244,0.0624 -0.0021,0.031 0.03334,0.0685 -0.01349,0.0929 -0.0209,-2.7e-4 -0.04154,-2.7e-4 -0.06191,-2.7e-4 z"
       id="path15789" />
    <path
       style="fill:#9ca68e;stroke-width:0.264583"
       d="m 65.651474,119.10062 c -5.29e-4,-0.0405 -0.0011,-0.081 -0.0019,-0.12144 -0.01323,-0.0156 -0.01402,-0.0341 -0.01138,-0.0532 0.0048,-0.004 0.0095,-0.008 0.01455,-0.0122 0.04233,0.0654 0.06165,0.13785 0.059,0.21458 -0.0042,0.11615 0.01323,0.22992 0.03122,0.34396 -0.06747,-0.0347 -0.07832,-0.0974 -0.08149,-0.16378 -0.0037,-0.0693 -0.0069,-0.13864 -0.01005,-0.20796 z"
       id="path15842" />
    <path
       style="fill:#9ca68e;stroke-width:0.264583"
       d="m 65.433722,117.8666 c -0.03572,-0.12303 -0.03096,-0.24897 -0.02725,-0.37491 0.02699,0.0246 0.04921,0.054 0.04075,0.0915 -0.0217,0.0963 0.0071,0.18865 0.01773,0.28231 -0.0098,0.0206 -0.02037,0.0209 -0.03122,0.001 z"
       id="path15843" />
    <path
       style="fill:#9ca68e;stroke-width:0.264583"
       d="m 65.775564,119.71842 c -0.01085,2.7e-4 -0.02143,2.7e-4 -0.03228,5.3e-4 h 5.29e-4 c -0.02381,-0.063 -0.02302,-0.12568 -5.29e-4,-0.18891 0,-0.0196 0,-0.0389 0,-0.0585 0.04762,0.0775 0.02461,0.1643 0.03228,0.24685 z"
       id="path15844" />
    <path
       style="fill:#9ca68e;stroke-width:0.264583"
       d="m 65.558341,118.54473 c -0.01111,-0.0609 -0.02196,-0.12171 -0.03307,-0.18256 -0.01376,-0.0143 -0.01217,-0.0267 0.0048,-0.037 0.04101,0.0672 0.06033,0.14023 0.06059,0.21854 -0.0053,0.004 -0.01058,0.008 -0.01588,0.0124 -0.0056,-0.004 -0.01085,-0.008 -0.0164,-0.0114 z"
       id="path15845" />
    <path
       style="fill:#96a088;stroke-width:0.264583"
       d="m 65.433458,117.86634 c 0.01058,-2.7e-4 0.0209,-8e-4 0.03149,-10e-4 0.0013,0.01 0.0019,0.0191 0.0021,0.0288 0.0077,0.008 0.01032,0.0153 0.0079,0.0233 -0.0024,0.008 -0.0048,0.0116 -0.0074,0.0116 0,0.0294 0,0.0587 0,0.0881 0.01614,0.0217 0.0164,0.0429 -0.0013,0.0635 -0.04233,-0.0667 -0.02831,-0.14182 -0.03281,-0.21431 z"
       id="path15846" />
    <path
       style="fill:#96a088;stroke-width:0.264583"
       d="m 65.530031,118.32513 c -0.0016,0.0124 -0.0032,0.0246 -0.0048,0.037 -0.03413,-0.0593 -0.02752,-0.12436 -0.02725,-0.18891 0.01032,-0.0209 0.02011,-0.0206 0.0299,2.6e-4 5.29e-4,0.0508 0.0013,0.10134 0.0021,0.15161 z"
       id="path15847" />
    <path
       style="fill:#9ca68e;stroke-width:0.264583"
       d="m 65.59062,118.54394 c 0.02487,0.0378 0.0291,0.0807 0.02937,0.12435 -0.01032,0.0209 -0.02037,0.0209 -0.03043,-2.6e-4 v 0 c -0.02381,-0.0405 -0.02196,-0.0812 -0.0013,-0.12224 z"
       id="path15848" />
    <path
       style="fill:#96a088;stroke-width:0.264583"
       d="m 65.619724,118.91621 c -0.02514,-0.0378 -0.03096,-0.0804 -0.03016,-0.12436 0.01032,-0.0212 0.02064,-0.0212 0.03096,0 5.29e-4,0.01 0.0011,0.0196 0.0011,0.0294 0.02011,0.032 0.02064,0.0638 -0.0019,0.095 z"
       id="path15849" />
    <path
       style="fill:#9ca68e;stroke-width:0.264583"
       d="m 65.619724,118.91621 c 5.29e-4,-0.0318 0.0013,-0.0632 0.0019,-0.095 0.01032,0.031 0.0209,0.0617 0.03122,0.0926 0,0 -0.0026,0.003 -0.0026,0.003 -0.01058,0.0204 -0.02064,0.0201 -0.03043,-2.6e-4 z"
       id="path15850" />
    <path
       style="fill:#96a088;stroke-width:0.264583"
       d="m 65.589562,118.66803 c 0.01005,0 0.02037,0 0.03043,2.6e-4 0,0.031 2.64e-4,0.0617 2.64e-4,0.0926 -0.01032,0.014 -0.02064,0.0135 -0.03096,0 2.65e-4,-0.031 2.65e-4,-0.0619 2.65e-4,-0.0929 z"
       id="path15851" />
    <path
       style="fill:#9ca68e;stroke-width:0.264583"
       d="m 65.527649,118.17378 c -0.01005,0 -0.01984,-2.6e-4 -0.0299,-2.6e-4 -0.0013,-0.0193 -0.0026,-0.0386 -0.004,-0.0582 -0.0053,-0.009 -0.009,-0.0185 -0.01058,-0.0291 0.0048,-0.002 0.0095,-0.004 0.01429,-0.006 0.01984,0.0286 0.02884,0.0601 0.03016,0.0939 z"
       id="path15852" />
    <path
       style="fill:#9ca68e;stroke-width:0.264583"
       d="m 65.405147,117.4647 c -2.64e-4,-0.0209 -7.94e-4,-0.0421 -0.0011,-0.063 0.01587,0.0206 0.01561,0.0418 0.0011,0.063 z"
       id="path15853" />
    <path
       style="fill:#9ca68e;stroke-width:0.264583"
       d="m 65.466266,118.08065 c 5.29e-4,-0.0212 0.0011,-0.0423 0.0013,-0.0635 0.01005,0.0209 0.02011,0.0421 0.03016,0.063 0,0 -0.0021,0.002 -0.0021,0.002 -0.01032,0.0114 -0.02011,0.0103 -0.02937,-0.002 z"
       id="path15854" />
    <path
       style="fill:#9ca68e;stroke-width:0.264583"
       d="m 65.589562,118.76089 c 0.01032,0 0.02064,0 0.03096,0 0,0.0103 0,0.0206 0,0.031 -0.01032,0 -0.02064,0 -0.03096,0 0,-0.0103 0,-0.0206 0,-0.031 z"
       id="path15855" />
    <path
       style="fill:#9ca68e;stroke-width:0.264583"
       d="m 65.467853,117.92904 c -2.64e-4,-0.0116 -2.64e-4,-0.0233 -5.29e-4,-0.0349 0,0.0116 2.65e-4,0.0233 5.29e-4,0.0349 z"
       id="path15856" />
    <path
       style="fill:#9ca68e;stroke-width:0.264583"
       d="m 65.74302,119.5303 c 2.65e-4,0.063 5.29e-4,0.12594 5.29e-4,0.18892 -0.04048,-0.063 -0.03731,-0.12595 -5.29e-4,-0.18892 z"
       id="path15969" />
    <path
       style="fill:#96a088;stroke-width:0.264583"
       d="m 65.588239,118.54579 c 5.29e-4,0.0407 7.94e-4,0.0815 0.0013,0.12224 -0.02646,-0.0371 -0.03175,-0.0794 -0.03122,-0.1233 0.01005,2.6e-4 0.01984,5.3e-4 0.0299,0.001 z"
       id="path15970" />
    <path
       style="fill:#96a088;stroke-width:0.264583"
       d="m 65.619724,118.91594 c 0.01032,0 0.02037,0 0.03043,5.3e-4 -2.64e-4,0.0209 -2.64e-4,0.0418 -5.29e-4,0.0627 -0.01005,-0.0209 -0.02011,-0.0421 -0.0299,-0.0632 z"
       id="path15971" />
    <path
       style="fill:#96a088;stroke-width:0.264583"
       d="m 65.466266,118.08092 c 0.0098,2.6e-4 0.01958,7.9e-4 0.02937,10e-4 -5.29e-4,0.0111 -0.0011,0.022 -0.0016,0.0331 -0.0093,-0.0114 -0.01852,-0.023 -0.02778,-0.0344 z"
       id="path15972" />
  </g>
</svg>
